<svg width="11" height="14" viewBox="0 0 11 14" fill="none" xmlns="http://www.w3.org/2000/svg">
<path d="M10.6024 12.6383H9.46897L9.09214 12.1162H9.41321C9.56681 12.1162 9.69236 11.9907 9.69236 11.8371C9.69236 11.6807 9.56681 11.5579 9.41321 11.5579H8.69023L8.22958 10.9186H9.87944C10.033 10.9186 10.1586 10.7958 10.1586 10.6394V3.73589C10.1586 2.63047 9.6059 1.60871 8.72652 0.983398C8.73213 1.03091 8.73493 1.07546 8.73493 1.12298C8.73493 2.0497 7.98129 2.80633 7.05157 2.80633H4.0338C3.10708 2.80633 2.35324 2.04986 2.35324 1.12298C2.35324 1.07546 2.35604 1.03091 2.35885 0.983398C1.48229 1.60588 0.929562 2.62763 0.929562 3.73589V10.6394C0.929562 10.7958 1.05512 10.9186 1.20872 10.9186H2.85858L2.39793 11.5579H1.46837C1.31477 11.5579 1.18922 11.6807 1.18922 11.8371C1.18922 11.9907 1.31477 12.1162 1.46837 12.1162H1.99319L1.61636 12.6383H0.279157C0.122753 12.6383 0 12.764 0 12.9174C0 13.0709 0.122753 13.1966 0.279157 13.1966H1.21429L0.98265 13.5148C0.890584 13.6404 0.921271 13.8163 1.04403 13.9057C1.16958 13.9977 1.34546 13.9671 1.43488 13.8415L1.90111 13.1967H9.18432L9.65339 13.8415C9.70635 13.9197 9.79297 13.9588 9.87958 13.9588C9.93535 13.9588 9.99127 13.9421 10.0414 13.9057C10.167 13.8164 10.195 13.6405 10.1056 13.5148L9.87397 13.1966H10.6026C10.7562 13.1966 10.8817 13.0709 10.8817 12.9174C10.8816 12.764 10.756 12.6383 10.6024 12.6383H10.6024ZM7.70199 9.68764C7.12685 9.68764 6.66077 9.22141 6.66077 8.64642C6.66077 8.06849 7.127 7.59958 7.70199 7.59958C8.27976 7.59958 8.74883 8.06849 8.74883 8.64642C8.74883 9.22141 8.27992 9.68764 7.70199 9.68764ZM8.00077 11.5579H3.08482L3.54547 10.9186H7.5402L8.00077 11.5579ZM2.07148 6.58333V3.6131C2.07148 3.25294 2.36746 2.95991 2.73029 2.95991H8.3553C8.71827 2.95991 9.01412 3.25309 9.01412 3.6131V6.58333C9.01412 6.9463 8.71813 7.24214 8.3553 7.24214H2.73029C2.36732 7.24214 2.07148 6.94616 2.07148 6.58333ZM2.50688 8.6463C2.50688 8.06837 2.97311 7.59946 3.5481 7.59946C4.12587 7.59946 4.59494 8.06837 4.59494 8.6463C4.59494 9.22129 4.12587 9.68752 3.5481 9.68752C2.97311 9.68752 2.50688 9.22129 2.50688 8.6463ZM2.30592 12.6383L2.68275 12.1162H8.40548L8.78231 12.6383H2.30592Z" fill="#405982"/>
<path d="M4.03436 2.24729H7.05213C7.67182 2.24729 8.17717 1.74194 8.17717 1.12225C8.17717 0.505354 7.67182 0 7.05213 0H4.03436C3.41467 0 2.91211 0.505195 2.91211 1.12225C2.91211 1.74194 3.41467 2.24729 4.03436 2.24729Z" fill="#405982"/>
</svg>
