<svg width="14" height="16" viewBox="0 0 14 16" fill="none" xmlns="http://www.w3.org/2000/svg">
<path d="M6.57307 8.22363L0 10.4147L1.6501 15.6626C4.65257 13.4175 6.38372 14.2831 8.08815 15.1487C9.08892 15.6626 10.1169 16.1766 11.4154 15.9061L13.4711 10.4961L11.5506 9.84697L6.57352 8.22404L6.57307 8.22363Z" fill="#405982"/>
<path d="M2.51579 8.98101L6.54636 7.62847L10.9825 9.06218V6.87109H2.51562L2.51579 8.98101Z" fill="#405982"/>
<path d="M4.70703 6.30269H8.79161V5.78886H7.46612V3.5166H6.03257V5.78886H4.70707L4.70703 6.30269Z" fill="#405982"/>
<path d="M9.00856 1.86687C9.08975 1.83986 9.14377 1.78569 9.17094 1.73167L9.25212 1.51528L9.46852 1.54228L9.57671 1.56929H9.6579C9.87429 1.56929 10.0637 1.51512 10.1718 1.40692C10.28 1.32573 10.3612 1.19053 10.3612 1.08233C10.3612 0.947127 10.28 0.838933 10.1718 0.730735C10.0637 0.62254 9.87427 0.568359 9.6579 0.568359C9.46852 0.568359 9.3063 0.622536 9.17095 0.730735C9.06276 0.811922 8.98157 0.920116 8.98157 1.05532L8.95456 1.32589H8.71116C8.57596 1.32589 8.44059 1.38007 8.35957 1.43408C8.30539 1.48826 8.25137 1.56929 8.25137 1.62347C8.25137 1.70465 8.27838 1.81285 8.27838 1.89404L8.06199 1.97522C8.03498 1.97522 8.03498 2.00223 8.00781 2.00223V2.02924C8.00781 2.02924 8.00781 2.05625 8.03482 2.05625C8.06183 2.08326 8.089 2.08326 8.17003 2.08326H8.25121C8.27822 2.05625 8.30539 2.05625 8.30539 2.02908L8.41358 1.89388L8.65698 1.94805H8.71116C8.81935 1.94805 8.92755 1.92105 9.00874 1.86687L9.00856 1.86687Z" fill="#405982"/>
<path d="M9.57634 2.13704C9.49515 2.21823 9.38696 2.29942 9.27877 2.38044C9.11639 2.46163 8.92717 2.51564 8.71077 2.51564H8.62958C8.57541 2.54265 8.5484 2.56982 8.49438 2.59683C8.38619 2.65101 8.27799 2.67802 8.16979 2.67802C7.98041 2.67802 7.79103 2.59683 7.65585 2.48864C7.52064 2.38044 7.43945 2.21807 7.43945 2.02886C7.43945 1.89365 7.49363 1.75829 7.57466 1.65009C7.60167 1.59592 7.65585 1.56891 7.70986 1.5419C7.73687 1.32551 7.84507 1.13613 8.00744 1.00091C8.11563 0.892715 8.27801 0.811528 8.44021 0.784517C8.5214 0.595135 8.65661 0.405754 8.81898 0.270569C9.03537 0.108194 9.33293 0 9.65753 0C10.0091 0 10.3067 0.108194 10.5231 0.297576C10.7665 0.486957 10.9289 0.757355 10.9289 1.08196C10.9289 1.37953 10.7665 1.64995 10.5231 1.83934C10.3067 2.02872 10.0091 2.13691 9.65753 2.13691H9.57634V2.13704Z" fill="#405982"/>
</svg>
