<svg width="67" height="45" viewBox="0 0 67 45" fill="none" xmlns="http://www.w3.org/2000/svg">
<path d="M63.6128 0.961914H3.38722C1.51655 0.961914 0 2.47846 0 4.34913V8.20493H67V4.34913C67 2.47846 65.4835 0.961914 63.6128 0.961914Z" fill="white" fill-opacity="0.85"/>
<path d="M0 40.651C0 42.5217 1.51655 44.0382 3.38722 44.0382H63.6126C65.4833 44.0382 66.9999 42.5217 66.9999 40.651V18.1094H0V40.651ZM28.7888 36.4763H24.5329C23.3172 36.4763 22.3316 35.4907 22.3316 34.275C22.3316 33.0593 23.3172 32.0737 24.5329 32.0737H28.7888C30.0045 32.0737 30.9901 33.0593 30.9901 34.275C30.9901 35.4907 30.0045 36.4763 28.7888 36.4763ZM51.1387 32.0737H58.0362C59.2519 32.0737 60.2375 33.0593 60.2375 34.275C60.2375 35.4907 59.2519 36.4763 58.0362 36.4763H51.1387C49.923 36.4763 48.9374 35.4907 48.9374 34.275C48.9374 33.0593 49.923 32.0737 51.1387 32.0737ZM44.4914 34.275C44.4914 35.4907 43.5058 36.4763 42.2901 36.4763H38.0342C36.8185 36.4763 35.8329 35.4907 35.8329 34.275C35.8329 33.0593 36.8185 32.0737 38.0342 32.0737H42.2901C43.5058 32.0737 44.4914 33.0593 44.4914 34.275ZM8.63996 23.7088H41.5127C42.7284 23.7088 43.714 24.6943 43.714 25.9101C43.714 27.1258 42.7284 28.1114 41.5127 28.1114H8.63996C7.42426 28.1114 6.43866 27.1258 6.43866 25.9101C6.43866 24.6943 7.42426 23.7088 8.63996 23.7088ZM8.63996 32.0737H15.5374C16.7531 32.0737 17.7387 33.0593 17.7387 34.275C17.7387 35.4907 16.7532 36.4763 15.5374 36.4763H8.63996C7.42426 36.4763 6.43866 35.4907 6.43866 34.275C6.43866 33.0593 7.42426 32.0737 8.63996 32.0737Z" fill="white" fill-opacity="0.85"/>
</svg>
