<svg width="47" height="43" viewBox="0 0 47 43" fill="none" xmlns="http://www.w3.org/2000/svg">
<path d="M2.88751 4.62183C3.34575 8.12177 4.91436 15.58 5.62522 18.7284C5.81126 19.6199 6.01884 20.3852 6.2088 20.6959C7.18991 22.376 7.98498 20.1385 7.98498 20.1385C11.0536 11.0429 6.2088 5.17926 4.66174 3.60603C4.38953 3.31469 3.90974 2.9612 3.47108 2.8369C2.84443 2.65238 2.73868 3.00393 2.73868 3.29527C2.75826 3.58272 2.86597 4.39264 2.88555 4.61989L2.88751 4.62183ZM45.6471 1.78031C46.2542 2.21538 48.3613 4.41207 45.6471 4.74419C41.7618 5.19868 34.3673 5.46865 22.1044 15.6402C17.4691 19.4956 7.06458 29.8731 1.48928 42.7813C1.45645 42.8611 1.39524 42.9261 1.31727 42.964C1.23929 43.002 1.14998 43.0102 1.06629 42.9872C0.566918 42.8435 -0.331945 42.3035 0.126299 40.2331C0.752957 37.4362 6.39483 22.8732 21.3093 10.0271C26.1757 5.84157 37.7904 -4.01926 45.6432 1.78225L45.6471 1.78031Z" fill="white"/>
</svg>
