<svg width="25" height="25" viewBox="0 0 25 25" fill="none" xmlns="http://www.w3.org/2000/svg">
<path d="M19.8864 1.13638H19.3183C19.0041 1.13638 18.7501 1.39092 18.7501 1.70454C18.7501 2.01816 19.0041 2.27271 19.3183 2.27271H19.8864C20.2 2.27271 20.4546 2.52783 20.4546 2.84087V18.75C20.4546 19.0631 20.2 19.3182 19.8864 19.3182H5.11367C4.80005 19.3182 4.54551 19.063 4.54551 18.75V2.84092C4.54551 2.52783 4.80005 2.27275 5.11367 2.27275H7.38638V2.99888C7.04829 3.19604 6.81821 3.55855 6.81821 3.97729C6.81821 4.604 7.32788 5.11367 7.95459 5.11367C8.5813 5.11367 9.09097 4.604 9.09097 3.97729C9.09097 3.55855 8.86084 3.19604 8.5228 2.99888V0.568213C8.52275 0.254541 8.2688 0 7.95459 0C7.64038 0 7.38643 0.254541 7.38643 0.568164V1.13633H5.11372C4.17393 1.13633 3.40918 1.90112 3.40918 2.84087V18.75V23.2955C3.40918 24.2353 4.17397 25 5.11372 25H19.8864C20.8262 25 21.591 24.2352 21.591 23.2955V18.75V2.84092C21.591 1.90112 20.8262 1.13638 19.8864 1.13638ZM20.4546 23.2955C20.4546 23.6085 20.2 23.8636 19.8864 23.8636H5.11367C4.80005 23.8636 4.54551 23.6085 4.54551 23.2955V22.6228C4.72393 22.6864 4.91367 22.7273 5.11367 22.7273H19.8864C20.0864 22.7273 20.2762 22.6864 20.4545 22.6228V23.2955H20.4546ZM20.4546 21.0227C20.4546 21.3358 20.2 21.5909 19.8864 21.5909H5.11367C4.80005 21.5909 4.54551 21.3357 4.54551 21.0227V20.35C4.72393 20.4136 4.91367 20.4545 5.11367 20.4545H19.8864C20.0864 20.4545 20.2762 20.4136 20.4545 20.35V21.0227H20.4546Z" fill="white"/>
<path d="M17.6141 2.99888V0.568213C17.6141 0.254541 17.3602 0 17.0459 0C16.7317 0 16.4778 0.254541 16.4778 0.568164V1.13633H14.7732C14.459 1.13633 14.2051 1.39087 14.2051 1.70449C14.2051 2.01812 14.459 2.27266 14.7732 2.27266H16.4778V2.99878C16.1397 3.19595 15.9096 3.55845 15.9096 3.9772C15.9096 4.60391 16.4193 5.11357 17.046 5.11357C17.6727 5.11357 18.1824 4.60391 18.1824 3.9772C18.1823 3.55855 17.9522 3.19604 17.6141 2.99888Z" fill="white"/>
<path d="M13.0682 2.99888V0.568213C13.0682 0.254541 12.8143 0 12.5 0C12.1858 0 11.9319 0.254541 11.9319 0.568164V1.13633H10.2273C9.91313 1.13633 9.65918 1.39087 9.65918 1.70449C9.65918 2.01812 9.91313 2.27266 10.2273 2.27266H11.9319V2.99878C11.5938 3.19595 11.3637 3.55845 11.3637 3.9772C11.3637 4.60391 11.8734 5.11357 12.5001 5.11357C13.1268 5.11357 13.6365 4.60391 13.6365 3.9772C13.6364 3.55855 13.4063 3.19604 13.0682 2.99888Z" fill="white"/>
<path d="M12.5 7.9541H6.81816C6.50396 7.9541 6.25 8.20864 6.25 8.52227C6.25 8.83589 6.50396 9.09043 6.81816 9.09043H12.5C12.8142 9.09043 13.0682 8.83589 13.0682 8.52227C13.0682 8.20864 12.8142 7.9541 12.5 7.9541Z" fill="white"/>
<path d="M16.4777 10.2275H11.3641C11.0499 10.2275 10.7959 10.4821 10.7959 10.7957C10.7959 11.1093 11.0499 11.3639 11.3641 11.3639H16.4777C16.7919 11.3639 17.0458 11.1093 17.0458 10.7957C17.0459 10.4821 16.7919 10.2275 16.4777 10.2275Z" fill="white"/>
<path d="M14.7727 14.7725H6.81816C6.50396 14.7725 6.25 15.027 6.25 15.3406C6.25 15.6542 6.50396 15.9088 6.81816 15.9088H14.7727C15.0869 15.9088 15.3409 15.6542 15.3409 15.3406C15.3409 15.027 15.0869 14.7725 14.7727 14.7725Z" fill="white"/>
<path d="M18.1823 7.9541H14.7732C14.459 7.9541 14.2051 8.20864 14.2051 8.52227C14.2051 8.83589 14.459 9.09043 14.7732 9.09043H18.1823C18.4965 9.09043 18.7505 8.83589 18.7505 8.52227C18.7505 8.20864 18.4965 7.9541 18.1823 7.9541Z" fill="white"/>
<path d="M11.9318 12.5H6.81816C6.50396 12.5 6.25 12.7545 6.25 13.0682C6.25 13.3818 6.50396 13.6363 6.81816 13.6363H11.9318C12.246 13.6363 12.5 13.3818 12.5 13.0682C12.5 12.7545 12.246 12.5 11.9318 12.5Z" fill="white"/>
<path d="M9.09087 10.2275H6.81816C6.50395 10.2275 6.25 10.4821 6.25 10.7957C6.25 11.1093 6.50395 11.3639 6.81816 11.3639H9.09087C9.40508 11.3639 9.65903 11.1093 9.65903 10.7957C9.65903 10.4821 9.40508 10.2275 9.09087 10.2275Z" fill="white"/>
<path d="M18.1822 12.5H14.2049C13.8907 12.5 13.6367 12.7545 13.6367 13.0682C13.6367 13.3818 13.8907 13.6363 14.2049 13.6363H18.1822C18.4964 13.6363 18.7503 13.3818 18.7503 13.0682C18.7503 12.7545 18.4964 12.5 18.1822 12.5Z" fill="white"/>
</svg>
