<svg width="24" height="24" viewBox="0 0 24 24" fill="none" xmlns="http://www.w3.org/2000/svg">
<g clip-path="url(#clip0_200_1008)">
<path fill-rule="evenodd" clip-rule="evenodd" d="M19.6723 18.0233C21.0055 16.3248 21.7377 14.2319 21.7541 12.0727C21.7705 9.91347 21.0702 7.80979 19.7629 6.09119C18.7984 4.82235 17.5379 3.80908 16.0914 3.13994C14.6449 2.4708 13.0565 2.16616 11.4651 2.25267C9.87366 2.33917 8.32766 2.81417 6.96221 3.63616C5.59677 4.45814 4.45346 5.60208 3.63222 6.96797V3.63228H2.23828V8.51106L2.93525 9.20803H7.81404V7.8141H4.76271C5.69391 6.20425 7.13447 4.95016 8.85723 4.24958C10.58 3.549 12.4869 3.44178 14.2774 3.94483C16.0678 4.44788 17.6399 5.53259 18.7457 7.0279C19.8514 8.52321 20.4281 10.3441 20.3846 12.2033C20.3411 14.0626 19.6799 15.8545 18.5054 17.2964C17.3309 18.7384 15.7098 19.7484 13.8978 20.1671C12.0858 20.5859 10.186 20.3896 8.49786 19.6092C6.80975 18.8288 5.42942 17.5088 4.57452 15.8571L3.3381 16.5011C4.091 17.9493 5.19516 19.1855 6.54948 20.0965C7.9038 21.0075 9.46501 21.5642 11.0902 21.7156C12.7153 21.8671 14.3525 21.6084 15.8519 20.9634C17.3512 20.3183 18.6648 19.3074 19.6723 18.0233ZM14.9873 16.6712L15.9742 15.6857L11.9959 11.706V6.42016H10.6019V11.9959L10.8054 12.4894L14.9873 16.6712Z" fill="white"/>
</g>
<defs>
<clipPath id="clip0_200_1008">
<rect width="23.697" height="23.697" fill="white" transform="translate(0.0078125 23.7051) rotate(-90.019)"/>
</clipPath>
</defs>
</svg>
