<svg width="39" height="39" viewBox="0 0 39 39" fill="none" xmlns="http://www.w3.org/2000/svg">
<path d="M17.0625 12.1875H21.9375V15.8438C21.9375 16.167 21.8091 16.477 21.5805 16.7055C21.352 16.9341 21.042 17.0625 20.7188 17.0625H18.2812C17.958 17.0625 17.648 16.9341 17.4195 16.7055C17.1909 16.477 17.0625 16.167 17.0625 15.8438V12.1875Z" fill="white"/>
<path d="M24.375 28.0312H14.625C13.6553 28.0312 12.7253 27.646 12.0396 26.9604C11.354 26.2747 10.9688 25.3447 10.9688 24.375V14.625C10.9688 13.6553 11.354 12.7253 12.0396 12.0396C12.7253 11.354 13.6553 10.9688 14.625 10.9688H24.375C25.3447 10.9688 26.2747 11.354 26.9604 12.0396C27.646 12.7253 28.0312 13.6553 28.0312 14.625V24.375C28.0312 25.3447 27.646 26.2747 26.9604 26.9604C26.2747 27.646 25.3447 28.0312 24.375 28.0312ZM14.625 13.4062C14.3018 13.4062 13.9918 13.5347 13.7632 13.7632C13.5347 13.9918 13.4062 14.3018 13.4062 14.625V24.375C13.4062 24.6982 13.5347 25.0082 13.7632 25.2368C13.9918 25.4653 14.3018 25.5938 14.625 25.5938H24.375C24.6982 25.5938 25.0082 25.4653 25.2368 25.2368C25.4653 25.0082 25.5938 24.6982 25.5938 24.375V14.625C25.5938 14.3018 25.4653 13.9918 25.2368 13.7632C25.0082 13.5347 24.6982 13.4062 24.375 13.4062H14.625Z" fill="white"/>
<path d="M18.2812 23.1562H17.0625C16.7393 23.1562 16.4293 23.0278 16.2007 22.7993C15.9722 22.5707 15.8438 22.2607 15.8438 21.9375C15.8438 21.6143 15.9722 21.3043 16.2007 21.0757C16.4293 20.8472 16.7393 20.7188 17.0625 20.7188H18.2812C18.6045 20.7188 18.9145 20.8472 19.143 21.0757C19.3716 21.3043 19.5 21.6143 19.5 21.9375C19.5 22.2607 19.3716 22.5707 19.143 22.7993C18.9145 23.0278 18.6045 23.1562 18.2812 23.1562Z" fill="white"/>
<path d="M36.5625 29.5425L35.3438 34.4175C35.2916 34.626 35.1851 34.817 35.0353 34.9711C34.8855 35.1252 34.6976 35.237 34.4906 35.295C34.3727 35.3333 34.2488 35.3498 34.125 35.3438C33.9646 35.3447 33.8056 35.3139 33.6571 35.2533C33.5086 35.1926 33.3736 35.1033 33.2597 34.9903L32.3822 34.125C31.3801 35.0229 30.2852 35.8115 29.1159 36.4772L28.4944 36.8063C25.7184 38.2558 22.6316 39.0086 19.5 39C14.3283 39 9.36838 36.9455 5.71142 33.2886C2.05446 29.6316 9.11813e-07 24.6717 9.11813e-07 19.5C-0.000467499 17.9769 0.179537 16.4592 0.536251 14.9784C0.630266 14.6866 0.830834 14.4409 1.09796 14.2904C1.36508 14.1398 1.67914 14.0955 1.97748 14.1663C2.27583 14.237 2.53655 14.4176 2.70765 14.672C2.87875 14.9265 2.94766 15.2361 2.90063 15.5391C2.59371 16.837 2.43829 18.1662 2.4375 19.5C2.43662 22.4848 3.21875 25.4176 4.70579 28.0056C6.19283 30.5936 8.33276 32.7463 10.9119 34.2486C13.4911 35.751 16.4192 36.5505 19.404 36.5673C22.3887 36.5841 25.3257 35.8176 27.9216 34.3444L28.0312 34.2713C28.9691 33.7349 29.8509 33.1061 30.6637 32.3944L29.6034 31.3341C29.4468 31.1777 29.3356 30.9817 29.282 30.767C29.2283 30.5523 29.2341 30.327 29.2988 30.1153C29.3568 29.9084 29.4685 29.7205 29.6226 29.5706C29.7768 29.4208 29.9677 29.3144 30.1763 29.2622L35.0513 28.0434C35.2597 27.9834 35.4805 27.98 35.6907 28.0338C35.9009 28.0876 36.093 28.1965 36.247 28.3493C36.401 28.5021 36.5115 28.6932 36.567 28.903C36.6224 29.1128 36.6209 29.3335 36.5625 29.5425Z" fill="white"/>
<path d="M38.9982 19.5C38.9987 21.0231 38.8187 22.5408 38.4619 24.0216C38.3976 24.2942 38.2413 24.5364 38.0193 24.7073C37.7973 24.8783 37.5233 24.9675 37.2432 24.96C37.1502 24.9727 37.0559 24.9727 36.9629 24.96C36.6499 24.8848 36.3793 24.6887 36.2104 24.4147C36.0414 24.1407 35.9877 23.811 36.061 23.4975C36.3831 22.1891 36.5508 20.8474 36.5607 19.5C36.5616 16.5152 35.7794 13.5824 34.2924 10.9944C32.8054 8.40637 30.6654 6.25372 28.0863 4.75138C25.5071 3.24903 22.579 2.44954 19.5942 2.43274C16.6095 2.41594 13.6725 3.18241 11.0766 4.65563C10.0974 5.21347 9.17846 5.87102 8.33444 6.61781L9.39476 7.66594C9.55142 7.82227 9.66255 8.01832 9.71623 8.23303C9.76991 8.44775 9.7641 8.67302 9.69944 8.88469C9.6414 9.09164 9.52965 9.27956 9.37554 9.42938C9.22144 9.57921 9.03044 9.68562 8.82194 9.73781L3.94694 10.9566L3.65444 10.9688C3.49405 10.9697 3.33505 10.9389 3.18656 10.8783C3.03807 10.8176 2.90301 10.7283 2.78913 10.6153C2.63036 10.4603 2.51693 10.2648 2.46109 10.05C2.40525 9.83526 2.40911 9.60931 2.47226 9.39656L3.69101 4.52156C3.74508 4.3153 3.85233 4.12684 4.00203 3.975C4.15174 3.82316 4.33866 3.71325 4.54413 3.65625C4.7558 3.59159 4.98107 3.58579 5.19579 3.63947C5.4105 3.69315 5.60655 3.80428 5.76288 3.96094L6.60382 4.875C7.61379 3.98501 8.71234 3.20091 9.88225 2.535C12.8488 0.853474 16.2044 -0.0207551 19.6142 -0.000463359C23.0241 0.0198284 26.3691 0.933932 29.3153 2.65065C32.2616 4.36736 34.7062 6.82666 36.4053 9.78318C38.1043 12.7397 38.9983 16.0901 38.9982 19.5Z" fill="white"/>
</svg>
