<svg width="11" height="11" viewBox="0 0 11 11" fill="none" xmlns="http://www.w3.org/2000/svg">
<g clip-path="url(#clip0_400_2069)">
<path d="M5.99088 6.5558C5.81162 6.88156 5.70939 7.25538 5.70939 7.65271C5.70939 8.91154 6.73351 9.9357 7.99237 9.9357C8.45324 9.9357 8.88233 9.79801 9.24155 9.56219L10.2047 10.5253C10.2959 10.6165 10.4154 10.6621 10.5349 10.6621C10.6544 10.6621 10.7739 10.6165 10.8651 10.5253C11.0475 10.3429 11.0475 10.0473 10.8651 9.86491L9.90194 8.90177C10.1377 8.54257 10.2754 8.11352 10.2754 7.65268C10.2754 7.65025 10.2752 7.64789 10.2752 7.64549V0.804862C10.2752 0.546969 10.0661 0.337891 9.8082 0.337891C9.55031 0.337891 9.34123 0.546969 9.34123 0.804862V5.81238C9.06933 5.61255 8.7517 5.4718 8.40729 5.40826V0.804862C8.40729 0.546969 8.19821 0.337891 7.94032 0.337891C7.68243 0.337891 7.47335 0.546969 7.47335 0.804862V5.42999C7.12487 5.51137 6.80655 5.67216 6.53941 5.8931V0.804862C6.53941 0.546969 6.33033 0.337891 6.07244 0.337891C5.81455 0.337891 5.60547 0.546969 5.60547 0.804862V6.09642C5.60547 6.32642 5.77193 6.51716 5.99088 6.5558ZM7.99237 6.30373C8.73383 6.30373 9.33731 6.905 9.34123 7.64555V7.65274C9.34123 7.65355 9.34136 7.65433 9.34136 7.65514C9.34005 8.3979 8.73542 9.00179 7.99237 9.00179C7.24849 9.00179 6.64333 8.3966 6.64333 7.65274C6.64333 6.90889 7.24849 6.30373 7.99237 6.30373Z" fill="white"/>
<path d="M0.466971 9.36478C0.724864 9.36478 0.933942 9.1557 0.933942 8.89781V0.804861C0.933942 0.546969 0.724864 0.337891 0.466971 0.337891C0.209079 0.337891 0 0.546969 0 0.804861V8.89781C0 9.1557 0.209079 9.36478 0.466971 9.36478Z" fill="white"/>
<path d="M2.33416 6.56336C2.59205 6.56336 2.80113 6.35428 2.80113 6.09639V0.804862C2.80113 0.546969 2.59205 0.337891 2.33416 0.337891C2.07627 0.337891 1.86719 0.546969 1.86719 0.804862V6.09642C1.86719 6.35431 2.07627 6.56336 2.33416 6.56336Z" fill="white"/>
<path d="M2.33416 9.36452C2.59205 9.36452 2.80113 9.15544 2.80113 8.89755V7.96404C2.80113 7.70615 2.59205 7.49707 2.33416 7.49707C2.07627 7.49707 1.86719 7.70615 1.86719 7.96404V8.89755C1.86719 9.15544 2.07627 9.36452 2.33416 9.36452Z" fill="white"/>
<path d="M4.20135 6.56336C4.45924 6.56336 4.66832 6.35428 4.66832 6.09639V0.804862C4.66832 0.546969 4.45924 0.337891 4.20135 0.337891C3.94345 0.337891 3.73438 0.546969 3.73438 0.804862V6.09642C3.73438 6.35431 3.94345 6.56336 4.20135 6.56336Z" fill="white"/>
<path d="M4.20135 9.36452C4.45924 9.36452 4.66832 9.15544 4.66832 8.89755V7.96404C4.66832 7.70615 4.45924 7.49707 4.20135 7.49707C3.94345 7.49707 3.73438 7.70615 3.73438 7.96404V8.89755C3.73438 9.15544 3.94345 9.36452 4.20135 9.36452Z" fill="white"/>
</g>
<defs>
<clipPath id="clip0_400_2069">
<rect width="11" height="11" fill="white"/>
</clipPath>
</defs>
</svg>
