<svg width="55" height="64" viewBox="0 0 55 64" fill="none" xmlns="http://www.w3.org/2000/svg">
<path fill-rule="evenodd" clip-rule="evenodd" d="M33.3984 15.624L36.5 1.66699C36.5 1.66699 29.2465 6.30263 26.4924 6.30263C23.4131 6.30263 19 1.66699 19 1.66699L22.1016 15.624C23.9209 14.8881 25.8109 14.5003 27.75 14.5003C29.6891 14.5003 31.5791 14.8881 33.3984 15.624Z" fill="#F28544" stroke="#365D96" stroke-width="2" stroke-linecap="round" stroke-linejoin="round"/>
<path fill-rule="evenodd" clip-rule="evenodd" d="M54 62.3333C54 35.9157 42.2475 14.5 27.75 14.5C13.2525 14.5 1.5 35.9157 1.5 62.3333H54Z" fill="#F28544" stroke="#365D96" stroke-width="2" stroke-linecap="round" stroke-linejoin="round"/>
<path d="M34.125 14.8805C34.125 14.8805 38.025 8.84863 43.0465 8.84863" stroke="#365D96" stroke-width="2" stroke-linecap="round" stroke-linejoin="round"/>
<path d="M49.9437 11.3408C49.9437 11.3408 47.4143 16.3977 34.0508 15.0976" stroke="#365D96" stroke-width="2" stroke-linecap="round" stroke-linejoin="round"/>
<path d="M30.668 36.667C30.668 34.734 29.101 33.167 27.168 33.167C25.235 33.167 23.668 34.734 23.668 36.667C23.668 38.6 25.235 40.167 27.168 40.167" stroke="#365D96" stroke-width="2" stroke-linecap="round" stroke-linejoin="round"/>
<path d="M27.168 47.167V49.5003" stroke="#365D96" stroke-width="2" stroke-linecap="round" stroke-linejoin="round"/>
<path d="M27.168 30.834V33.1673" stroke="#365D96" stroke-width="2" stroke-linecap="round" stroke-linejoin="round"/>
<path d="M23.668 43.667C23.668 45.6 25.235 47.167 27.168 47.167C29.101 47.167 30.668 45.6 30.668 43.667C30.668 41.734 29.101 40.167 27.168 40.167" stroke="#365D96" stroke-width="2" stroke-linecap="round" stroke-linejoin="round"/>
</svg>
