<svg width="9" height="12" viewBox="0 0 9 12" fill="none" xmlns="http://www.w3.org/2000/svg">
<path d="M0.015625 12V0.625H3.51562C4.51562 0.625 5.40885 0.851562 6.19531 1.30469C6.98698 1.7526 7.60417 2.39323 8.04688 3.22656C8.48958 4.05469 8.71094 4.9974 8.71094 6.05469V6.57812C8.71094 7.63542 8.49219 8.57552 8.05469 9.39844C7.6224 10.2214 7.01042 10.8594 6.21875 11.3125C5.42708 11.7656 4.53385 11.9948 3.53906 12H0.015625ZM2.35938 2.52344V10.1172H3.49219C4.40885 10.1172 5.10938 9.81771 5.59375 9.21875C6.07812 8.61979 6.32552 7.76302 6.33594 6.64844V6.04688C6.33594 4.89062 6.09635 4.01562 5.61719 3.42188C5.13802 2.82292 4.4375 2.52344 3.51562 2.52344H2.35938Z" fill="white"/>
</svg>
