<svg width="11" height="11" viewBox="0 0 11 11" fill="none" xmlns="http://www.w3.org/2000/svg">
<path d="M0.424291 3.43566L2.92893 4.46839C2.97512 4.48732 3.02275 4.49637 3.06977 4.49637C3.19686 4.49637 3.31974 4.43065 3.38833 4.31541L4.516 2.41633L6.57641 1.40245L6.63988 2.33887C6.64211 2.3665 6.66084 2.39017 6.68727 2.3981C6.71367 2.40622 6.74252 2.39684 6.75954 2.37479L8.48545 0.124973C8.50269 0.102392 8.50594 0.0720771 8.49298 0.0466073C8.48069 0.0209818 8.45473 0.00489088 8.42648 0.00489088L5.59064 1.36884e-06C5.56286 -0.000176431 5.53828 0.0169813 5.52808 0.0430068C5.51837 0.0688101 5.52566 0.0982582 5.54615 0.116683L6.24952 0.738672L4.09088 1.80101C4.02625 1.83279 3.97273 1.88244 3.93588 1.94405L2.91511 3.66271L0.706681 2.75193C0.517036 2.67354 0.301342 2.76404 0.223377 2.95275C0.145345 3.14164 0.23569 3.3578 0.424291 3.43566Z" fill="white"/>
<path d="M10.4302 9.89062H0.566587C0.25986 9.89062 0.0117188 10.1389 0.0117188 10.4455C0.0117188 10.7519 0.25986 11.0003 0.566587 11.0003H10.4302C10.7365 11.0003 10.985 10.7519 10.985 10.4455C10.985 10.1389 10.7365 9.89062 10.4302 9.89062Z" fill="white"/>
<path d="M1.11452 5.375C0.991015 5.375 0.890625 5.47543 0.890625 5.59914V8.92662C0.890625 9.05033 0.991038 9.15078 1.11452 9.15078H2.42326C2.54708 9.15078 2.64753 9.05033 2.64753 8.92662V5.59914C2.64753 5.47543 2.54708 5.375 2.42326 5.375H1.11452Z" fill="white"/>
<path d="M8.35156 1.82279V8.92619C8.35156 9.0499 8.45202 9.15035 8.57548 9.15035H9.88457C10.0081 9.15035 10.1085 9.0499 10.1085 8.92619V1.82279C10.1085 1.69909 10.008 1.59863 9.88457 1.59863H8.57548C8.452 1.59863 8.35156 1.69909 8.35156 1.82279Z" fill="white"/>
<path d="M6.08753 3.5791C5.96374 3.5791 5.86328 3.67956 5.86328 3.80326V8.92632C5.86328 9.05002 5.96372 9.15048 6.08753 9.15048H7.39627C7.51978 9.15048 7.62019 9.05002 7.62019 8.92632V3.80326C7.62019 3.67956 7.51976 3.5791 7.39627 3.5791H6.08753Z" fill="white"/>
<path d="M3.59927 6.36523C3.47546 6.36523 3.375 6.46562 3.375 6.58935V8.92674C3.375 9.05045 3.47546 9.1509 3.59927 9.1509H4.90766C5.0315 9.1509 5.13195 9.05045 5.13195 8.92674V6.58935C5.13195 6.46562 5.0315 6.36523 4.90766 6.36523H3.59927Z" fill="white"/>
</svg>
