<svg width="16" height="9" viewBox="0 0 16 9" fill="none" xmlns="http://www.w3.org/2000/svg">
<path d="M0 0.130781C0.372938 0.0556877 1.13063 0 1.84106 0C2.71013 0 3.24338 0.084375 3.70153 0.355219C4.14113 0.588937 4.45838 1.01925 4.45838 1.58878C4.45838 2.14987 4.131 2.673 3.42141 2.93456V2.95313C4.14113 3.14972 4.67353 3.69141 4.67353 4.50478C4.67353 5.07516 4.41112 5.52319 4.01962 5.84128C3.56147 6.20578 2.7945 6.41166 1.54153 6.41166C0.841219 6.41166 0.31725 6.36441 0 6.318C0 6.318 0 0.130781 0 0.130781ZM1.41075 2.54222H1.87819C2.62575 2.54222 3.02738 2.23341 3.02738 1.76681C3.02738 1.29009 2.66288 1.03781 2.01825 1.03781C1.71028 1.03781 1.53225 1.05638 1.41075 1.07494V2.54222ZM1.41075 5.33756C1.55081 5.35612 1.71872 5.35612 1.96172 5.35612C2.60719 5.35612 3.17672 5.11312 3.17672 4.44909C3.17672 3.81375 2.60634 3.56147 1.89506 3.56147H1.41075V5.33756Z" fill="white"/>
<path d="M9.90487 4.87968C9.90487 5.4779 9.92344 5.9639 9.94284 6.34696H8.70844L8.64347 5.70234H8.61562C8.43759 5.98246 8.00813 6.4499 7.18547 6.4499C6.25987 6.4499 5.57812 5.87024 5.57812 4.45865V1.77637H7.00828V4.23505C7.00828 4.89824 7.22344 5.30071 7.71872 5.30071C8.11106 5.30071 8.3355 5.02987 8.42916 4.80543C8.46712 4.72106 8.47641 4.60884 8.47641 4.49662V1.77637H9.90572V4.87968H9.90487Z" fill="white"/>
<path d="M12.106 1.77623L12.7886 4.01977C12.8637 4.29061 12.9565 4.62727 13.0139 4.87027H13.0417C13.1067 4.62727 13.1818 4.28133 13.2468 4.01977L13.8078 1.77623H15.3317L14.266 4.78589C13.6121 6.59911 13.1717 7.32811 12.6578 7.78627C12.1625 8.21574 11.6394 8.36592 11.2842 8.41233L10.9855 7.20661C11.1627 7.17877 11.388 7.09439 11.6023 6.96361C11.8174 6.85139 12.0503 6.6278 12.1904 6.39324C12.2376 6.32827 12.2655 6.25317 12.2655 6.18736C12.2655 6.14095 12.2562 6.06586 12.2005 5.95364L10.5273 1.77539H12.106V1.77623Z" fill="white"/>
</svg>
