<svg width="21" height="21" viewBox="0 0 21 21" fill="none" xmlns="http://www.w3.org/2000/svg">
<path d="M10.5036 0C4.70482 0 0.00390625 4.70126 0.00390625 10.4998C0.00390625 16.2984 4.70482 21 10.5036 21C16.3024 21 21.0036 16.2986 21.0036 10.4998C21.0036 4.70105 16.3024 0 10.5036 0ZM9.91371 16.4231H5.14042C4.80674 16.4231 4.53528 16.1517 4.53528 15.8179V11.0446H9.91371V16.4231ZM9.91378 9.95537H9.91371H4.53528V5.18201C4.53528 4.84833 4.80667 4.57687 5.14042 4.57687H9.91378V9.95537ZM16.3815 15.818C16.3815 16.1517 16.1099 16.4231 15.7765 16.4231H11.003V11.0446H16.3815V15.818ZM16.3815 9.95537H11.003V4.57687H15.7765C16.1099 4.57687 16.3815 4.84826 16.3815 5.18201V9.95537Z" fill="white"/>
<path d="M6.64791 8.91157H7.73724V7.82225H8.82649V6.73293H7.73724V5.64368H6.64791V6.73293H5.55859V7.82225H6.64791V8.91157Z" fill="white"/>
<path d="M6.42247 15.2482L7.19281 14.4778L7.96314 15.2482L8.7332 14.478L7.96286 13.7077L8.7332 12.9374L7.96314 12.1672L7.19281 12.9376L6.42247 12.1672L5.65234 12.9374L6.42268 13.7077L5.65234 14.478L6.42247 15.2482Z" fill="white"/>
<path d="M15.3929 6.73291H12.125V7.82223H15.3929V6.73291Z" fill="white"/>
<path d="M15.3929 12.3433H12.125V13.4326H15.3929V12.3433Z" fill="white"/>
<path d="M15.3929 13.9829H12.125V15.0722H15.3929V13.9829Z" fill="white"/>
</svg>
