<svg width="14" height="17" viewBox="0 0 14 17" fill="none" xmlns="http://www.w3.org/2000/svg">
<path d="M12.4271 8.12598H1.57328C1.04831 8.12598 0.621094 8.63738 0.621094 9.26589V9.35945L1.81388 15.5509L1.83136 15.6253C1.97327 16.1357 2.39062 16.5062 2.82355 16.5062H11.177C11.6099 16.5062 12.0272 16.1358 12.1692 15.6253L13.3793 9.35949V9.26592C13.3792 8.63735 12.952 8.12598 12.4271 8.12598ZM8.88136 14.9287L8.95754 13.9222H9.583L9.44957 14.9287H8.88136ZM7.4339 14.9287V13.9222H8.08615L8.00997 14.9287H7.4339ZM5.99026 14.9287L5.91408 13.9222H6.56633V14.9287H5.99026ZM4.5508 14.9287L4.41725 13.9222H5.04282L5.119 14.9287H4.5508ZM2.38794 11.7945H3.25599L3.3943 12.8377H2.58894L2.38794 11.7945ZM4.13506 11.7945H4.88182L4.96076 12.8377H4.27345L4.13506 11.7945ZM4.72358 9.70342L4.79976 10.7101H3.99137L3.85794 9.70342H4.72358ZM10.1424 9.70342L10.009 10.7101H9.20049L9.27667 9.70342H10.1424ZM8.32913 10.7101H7.43381V9.70342H8.40539L8.32913 10.7101ZM7.4339 11.7945H8.24724L8.16829 12.8377H7.43398V11.7945H7.4339ZM6.56644 12.8377H5.83213L5.75319 11.7945H6.56653V12.8377H6.56644ZM6.56644 10.7101H5.67104L5.59487 9.70345H6.56644V10.7101ZM9.03949 12.8377L9.11843 11.7945H9.86519L9.72681 12.8377H9.03949ZM10.7443 11.7945H11.6124L11.4115 12.8377H10.6062L10.7443 11.7945ZM11.8213 10.7101H10.8882L11.0217 9.70345H12.0152L11.8213 10.7101ZM2.97856 9.70342L3.112 10.7101H2.17898L1.98503 9.70342H2.97856ZM2.79771 13.9222H3.5381L3.67153 14.9287H2.99166L2.79771 13.9222ZM11.0086 14.9287H10.3287L10.4622 13.9222H11.2025L11.0086 14.9287Z" fill="white"/>
<path d="M14 9.30599C14 9.53971 13.8403 9.72922 13.6434 9.72922H0.356562C0.15966 9.72922 0 9.53971 0 9.30599V7.57947C0 7.34576 0.15966 7.15625 0.356562 7.15625H13.6434C13.8403 7.15625 14 7.34576 14 7.57947V9.30599Z" fill="white" fill-opacity="0.85"/>
<path d="M7.83398 7.2571C7.83398 7.49082 7.67433 7.68033 7.47743 7.68033H6.18284C5.98594 7.68033 5.82617 7.49082 5.82617 7.2571V0.423225C5.82617 0.18951 5.98594 0 6.18284 0H7.47743C7.67433 0 7.83398 0.18951 7.83398 0.423225V7.2571Z" fill="white" fill-opacity="0.85"/>
<path d="M5.43945 6.7627V7.55243C5.43945 8.46473 6.06253 9.20419 6.83094 9.20419C7.59954 9.20419 8.22253 8.46463 8.22253 7.55243V6.7627H5.43945Z" fill="white"/>
<path d="M6.95117 6.32584C6.95117 6.40477 6.89721 6.4689 6.83051 6.4689C6.764 6.4689 6.70996 6.40487 6.70996 6.32584V0.727049C6.70996 0.648019 6.76392 0.583984 6.83051 0.583984C6.8971 0.583984 6.95117 0.648019 6.95117 0.727049V6.32584Z" fill="white"/>
</svg>
