<svg width="16" height="16" viewBox="0 0 16 16" fill="none" xmlns="http://www.w3.org/2000/svg">
<path d="M15.018 13.2969H4.27109V6.47815H2.99609V13.9375C2.99609 14.2906 3.28047 14.575 3.63359 14.575H5.02734V15.0188C5.02734 15.3719 5.31172 15.6563 5.66484 15.6563C6.01797 15.6563 6.30234 15.3719 6.30234 15.0188V14.575H13.0805V15.0188C13.0805 15.3719 13.3648 15.6563 13.718 15.6563C14.0711 15.6563 14.3555 15.3719 14.3555 15.0188V14.575H15.0148C15.368 14.575 15.6523 14.2906 15.6523 13.9375C15.6555 13.5844 15.3711 13.2969 15.018 13.2969V13.2969Z" fill="white"/>
<path d="M6.95 3.69062V1.85625C6.95 1.02187 6.27188 0.34375 5.4375 0.34375H1.85625C1.02188 0.34375 0.34375 1.02187 0.34375 1.85625V3.6875C0.34375 4.52187 1.02188 5.2 1.85625 5.2H5.4375C6.27188 5.20312 6.95 4.525 6.95 3.69062V3.69062Z" fill="white"/>
<path d="M6.75 6.94377V11.5375C6.75 11.8906 7.03437 12.175 7.3875 12.175H13.7219C14.075 12.175 14.3594 11.8906 14.3594 11.5375V6.94377C14.3594 6.59065 14.075 6.30627 13.7219 6.30627H7.3875C7.03437 6.30627 6.75 6.59377 6.75 6.94377V6.94377Z" fill="white"/>
</svg>
