<svg width="17" height="17" viewBox="0 0 17 17" fill="none" xmlns="http://www.w3.org/2000/svg">
<path d="M16.9123 13.2038L16.1369 12.0205C15.9768 11.776 15.6487 11.7077 15.4041 11.8679L11.0811 14.7005C10.8365 14.8607 10.7682 15.1888 10.9284 15.4333L11.7038 16.6166C11.864 16.8611 12.1921 16.9295 12.4366 16.7693L16.7597 13.9366C17.0043 13.7764 17.0726 13.4484 16.9123 13.2038Z" fill="white"/>
<path d="M11.8174 13.1783L13.2328 12.2508C13.8041 11.8765 14.1955 11.3021 14.3347 10.6335C14.4664 10.001 14.3639 9.31744 13.9702 8.71055C13.768 8.40195 12.0795 5.82511 11.8811 5.52232C11.6194 5.12294 11.0835 5.01134 10.6841 5.27302C10.4242 5.44334 10.2871 5.72988 10.2946 6.01933L10.1406 5.78422C9.87888 5.3849 9.34287 5.27325 8.9436 5.53492C8.68364 5.70525 8.54661 5.99178 8.55408 6.28117L8.44745 6.11843C8.18572 5.71905 7.64988 5.60745 7.25049 5.86913C6.99053 6.03946 6.85345 6.32605 6.86098 6.61549L5.42761 4.42789C5.16593 4.02851 4.63009 3.91697 4.23065 4.17859C3.83127 4.44027 3.71967 4.97616 3.98135 5.37554L7.54576 10.8154L6.05377 10.3071C5.60135 10.153 5.11056 10.3946 4.9566 10.8466C4.80264 11.2986 5.04419 11.7898 5.49615 11.9438L9.69128 13.3731C9.97029 13.4892 10.2701 13.5502 10.5725 13.5502C11.0006 13.5502 11.4334 13.4299 11.8174 13.1783Z" fill="white"/>
<path d="M5.86923 3.91283C6.04178 4.17622 6.39532 4.25 6.65871 4.07728C6.92215 3.90473 6.99577 3.5512 6.82316 3.28781C6.02029 2.06251 4.3704 1.71878 3.14517 2.52166C1.91993 3.32447 1.57625 4.97447 2.37901 6.19971C2.48844 6.36679 2.67063 6.45751 2.85652 6.45751C2.96366 6.45751 3.07212 6.42734 3.16849 6.36416C3.43187 6.19161 3.50555 5.83813 3.33294 5.57469C2.87482 4.87537 3.07092 3.93376 3.77019 3.47553C4.46939 3.01747 5.41106 3.21357 5.86923 3.91283Z" fill="white"/>
<path d="M1.2146 4.03869C1.40294 3.13437 1.93222 2.3575 2.70487 1.8512C3.47753 1.3449 4.40106 1.16984 5.30549 1.35818C6.20981 1.54653 6.98668 2.07581 7.49298 2.84846C7.66559 3.11185 8.01901 3.18563 8.28245 3.01291C8.5459 2.84036 8.61951 2.48683 8.44691 2.22344C7.77364 1.19595 6.74063 0.492129 5.53803 0.241687C4.33554 -0.00881208 3.10734 0.22401 2.07985 0.897272C1.05237 1.57053 0.348541 2.60355 0.0980991 3.80615C-0.152343 5.00875 0.0804792 6.2369 0.753685 7.26432C0.863167 7.4314 1.0453 7.52212 1.23119 7.52212C1.33833 7.52212 1.44679 7.49196 1.54316 7.42878C1.8066 7.25617 1.88022 6.90269 1.70761 6.6393C1.20125 5.86659 1.02619 4.943 1.2146 4.03869Z" fill="white"/>
</svg>
