<svg width="16" height="12" viewBox="0 0 16 12" fill="none" xmlns="http://www.w3.org/2000/svg">
<path d="M0.328627 8.06762H8.61226C8.73605 8.06762 8.83736 7.96631 8.83736 7.84255V1.13233C8.83736 0.759358 8.53503 0.457031 8.16207 0.457031H0.77885C0.405882 0.457031 0.103556 0.759358 0.103556 1.13233V7.84249C0.103529 7.96631 0.204837 8.06762 0.328627 8.06762ZM1.99783 3.54589C1.99783 3.39159 2.1229 3.26649 2.27723 3.26649H4.48711V2.4791C4.48711 2.23018 4.78813 2.10553 4.9641 2.28161L6.86837 4.18678C6.97741 4.29588 6.97741 4.47274 6.86837 4.58182L4.9641 6.48668C4.7881 6.66273 4.48711 6.5381 4.48711 6.28916V5.50158H2.2772C2.1229 5.50158 1.9978 5.37648 1.9978 5.22218V3.54589H1.99783ZM2.9668 9.87512H0.225098C0.101281 9.87512 0 9.77387 0 9.65005V8.96576C0 8.84195 0.101281 8.74064 0.225098 8.74064H3.58808C3.25942 9.02652 3.03208 9.42495 2.9668 9.87512ZM15.7749 8.74066H15.2279V5.68155C15.2279 5.32367 15.1199 4.97251 14.9195 4.67538L13.5487 2.64498C13.2133 2.14976 12.655 1.85264 12.0563 1.85264H9.93137C9.68149 1.85264 9.48115 2.05523 9.48115 2.30283V8.74066H6.00112C6.33203 9.02652 6.55937 9.42495 6.62465 9.87517H10.2938C10.4243 8.98153 11.1941 8.29047 12.1238 8.29047C13.0535 8.29047 13.821 8.98155 13.9516 9.87517H15.7749C15.8987 9.87517 16 9.77387 16 9.65005V8.96576C16 8.84197 15.8987 8.74066 15.7749 8.74066ZM13.5329 5.08053H10.7282C10.6044 5.08053 10.5031 4.98147 10.5031 4.85544V3.30001C10.5031 3.17622 10.6044 3.07491 10.7282 3.07491H12.4367C12.511 3.07491 12.5785 3.11091 12.6213 3.16945L13.7175 4.72715C13.821 4.87572 13.7152 5.08053 13.5329 5.08053ZM4.79461 8.74066C4.02254 8.74066 3.39448 9.36866 3.39448 10.143C3.39448 10.9151 4.02251 11.5431 4.79461 11.5431C5.56894 11.5431 6.19472 10.9151 6.19472 10.143C6.19469 9.36869 5.56894 8.74066 4.79461 8.74066ZM4.79461 10.8431C4.40742 10.8431 4.09456 10.5279 4.09456 10.143C4.09456 9.75583 4.40745 9.44299 4.79461 9.44299C5.18178 9.44299 5.49467 9.75585 5.49467 10.143C5.49467 10.5279 5.18175 10.8431 4.79461 10.8431ZM12.1238 8.74066C11.3495 8.74066 10.7237 9.36866 10.7237 10.143C10.7237 10.9151 11.3495 11.5431 12.1238 11.5431C12.8959 11.5431 13.5239 10.9151 13.5239 10.143C13.5239 9.36869 12.8959 8.74066 12.1238 8.74066ZM12.1238 10.8431C11.7366 10.8431 11.4237 10.5279 11.4237 10.143C11.4237 9.75583 11.7366 9.44299 12.1238 9.44299C12.511 9.44299 12.8238 9.75585 12.8238 10.143C12.8239 10.5279 12.511 10.8431 12.1238 10.8431Z" fill="white"/>
</svg>
