<svg width="15" height="18" viewBox="0 0 15 18" fill="none" xmlns="http://www.w3.org/2000/svg">
<path d="M14.4014 11.8394C14.3379 11.7628 14.2755 11.6863 14.2143 11.6124C13.3722 10.5939 12.8627 9.97915 12.8627 7.09575C12.8627 5.60296 12.5056 4.3781 11.8017 3.45946C11.2826 2.78081 10.581 2.26599 9.65626 1.88552C9.64436 1.8789 9.63373 1.87021 9.62487 1.85987C9.29225 0.746015 8.38202 0 7.35544 0C6.32886 0 5.41902 0.746015 5.08639 1.85872C5.07751 1.86868 5.06704 1.87709 5.05539 1.8836C2.89734 2.77201 1.84856 4.47647 1.84856 7.09461C1.84856 9.97915 1.33986 10.5939 0.497003 11.6113C0.43576 11.6851 0.373369 11.7602 0.309829 11.8383C0.145698 12.0362 0.0417082 12.277 0.0101652 12.5322C-0.0213778 12.7874 0.0208468 13.0463 0.131842 13.2782C0.36801 13.7758 0.87135 14.0847 1.44588 14.0847H13.2692C13.8411 14.0847 14.341 13.7762 14.5779 13.2809C14.6894 13.0489 14.732 12.7898 14.7007 12.5343C14.6694 12.2788 14.5656 12.0377 14.4014 11.8394V11.8394Z" fill="white"/>
<path d="M7.35618 17.148C7.90929 17.1476 8.45197 16.9974 8.92666 16.7135C9.40135 16.4296 9.79035 16.0225 10.0524 15.5354C10.0647 15.5121 10.0708 15.4859 10.0701 15.4595C10.0694 15.4331 10.0618 15.4074 10.0482 15.3848C10.0345 15.3622 10.0153 15.3435 9.99227 15.3305C9.96927 15.3175 9.9433 15.3107 9.91689 15.3107H4.79622C4.76978 15.3106 4.74377 15.3174 4.72072 15.3303C4.69766 15.3433 4.67836 15.362 4.66467 15.3846C4.65099 15.4072 4.6434 15.433 4.64264 15.4594C4.64188 15.4859 4.64798 15.512 4.66034 15.5354C4.92236 16.0225 5.3113 16.4295 5.78591 16.7134C6.26053 16.9973 6.80313 17.1475 7.35618 17.148Z" fill="white"/>
</svg>
