<svg width="46" height="46" viewBox="0 0 46 46" fill="none" xmlns="http://www.w3.org/2000/svg">
<circle cx="23" cy="23" r="23" transform="rotate(-90 23 23)" fill="url(#paint0_linear_3193_4)"/>
<g clip-path="url(#clip0_3193_4)">
<path fill-rule="evenodd" clip-rule="evenodd" d="M30.6723 29.0233C32.0055 27.3248 32.7377 25.2319 32.7541 23.0727C32.7705 20.9135 32.0702 18.8098 30.7629 17.0912C29.7984 15.8224 28.5379 14.8091 27.0914 14.1399C25.6449 13.4708 24.0565 13.1662 22.4651 13.2527C20.8737 13.3392 19.3277 13.8142 17.9622 14.6362C16.5968 15.4581 15.4535 16.6021 14.6322 17.968V14.6323H13.2383V19.5111L13.9353 20.208H18.814V18.8141H15.7627C16.6939 17.2043 18.1345 15.9502 19.8572 15.2496C21.58 14.549 23.4869 14.4418 25.2774 14.9448C27.0678 15.4479 28.6399 16.5326 29.7457 18.0279C30.8514 19.5232 31.4281 21.3441 31.3846 23.2033C31.3411 25.0626 30.6799 26.8545 29.5054 28.2964C28.3309 29.7384 26.7098 30.7484 24.8978 31.1671C23.0858 31.5859 21.186 31.3896 19.4979 30.6092C17.8097 29.8288 16.4294 28.5088 15.5745 26.8571L14.3381 27.5011C15.091 28.9493 16.1952 30.1855 17.5495 31.0965C18.9038 32.0075 20.465 32.5642 22.0902 32.7156C23.7153 32.8671 25.3525 32.6084 26.8519 31.9634C28.3512 31.3183 29.6648 30.3074 30.6723 29.0233ZM25.9873 27.6712L26.9742 26.6857L22.9959 22.706V17.4202H21.6019V22.9959L21.8054 23.4894L25.9873 27.6712Z" fill="white"/>
</g>
<defs>
<linearGradient id="paint0_linear_3193_4" x1="23" y1="0" x2="23" y2="46" gradientUnits="userSpaceOnUse">
<stop offset="0.0729167" stop-color="#FFE37A"/>
<stop offset="1" stop-color="#F1B783"/>
</linearGradient>
<clipPath id="clip0_3193_4">
<rect width="23.697" height="23.697" fill="white" transform="translate(11.0078 34.7051) rotate(-90.019)"/>
</clipPath>
</defs>
</svg>
