<svg width="16" height="18" viewBox="0 0 16 18" fill="none" xmlns="http://www.w3.org/2000/svg">
<path d="M0.134769 4.34731L0.178121 13.6648C0.178775 13.7846 0.244783 13.8944 0.350004 13.9511L7.79195 17.8477C7.84053 17.8736 7.89368 17.8867 7.94684 17.8867C7.94706 17.8867 7.94728 17.8867 7.94749 17.8867C7.96993 17.9122 7.99498 17.9361 8.02483 17.954C8.07624 17.9847 8.13419 18.0002 8.19236 18.0002C8.24595 18.0002 8.2991 17.9869 8.34746 17.9608L15.6953 13.9759C15.8007 13.9186 15.8667 13.8082 15.8667 13.6886V3.9944C15.8667 3.99157 15.8657 3.98896 15.8657 3.98591C15.8654 3.98351 15.8663 3.98133 15.8663 3.97872C15.8659 3.96935 15.8622 3.96085 15.8615 3.9517C15.8587 3.93384 15.8567 3.91598 15.8513 3.89877C15.8474 3.88679 15.8423 3.87611 15.8373 3.86457C15.8306 3.84932 15.8238 3.83429 15.8147 3.82034C15.8079 3.80945 15.7999 3.79965 15.7918 3.78963C15.7816 3.77699 15.7709 3.76523 15.7587 3.75412C15.7491 3.7454 15.7389 3.73756 15.728 3.72994C15.721 3.72514 15.7151 3.71839 15.7075 3.71403C15.7005 3.70968 15.6925 3.70793 15.6848 3.70423C15.6785 3.70096 15.6735 3.69639 15.6672 3.69356L8.0952 0.0256747C8.00697 -0.0115771 7.90697 -0.00809155 7.82114 0.0348242L0.33628 3.93667C0.226484 3.99201 0.157208 4.10442 0.156554 4.22706C0.156554 4.22902 0.157426 4.23077 0.157426 4.23251C0.144137 4.26889 0.134551 4.30723 0.134769 4.34731ZM14.7851 4.03035L8.18865 7.71849L1.20332 4.23164L7.97995 0.686403L14.7851 4.03035ZM8.51891 17.1249V8.28271L15.2132 4.54163V13.4929L8.51891 17.1249Z" fill="white"/>
</svg>
