<svg width="16" height="16" viewBox="0 0 16 16" fill="none" xmlns="http://www.w3.org/2000/svg">
<path d="M15.0141 6.09156L13.8418 1.75186C13.8058 1.61928 13.7502 1.49408 13.6834 1.37618C13.7826 1.2342 13.8418 1.06218 13.8418 0.875837C13.8418 0.392021 13.4494 0 12.9659 0H2.9329C2.44916 0 2.05728 0.392202 2.05728 0.875837C2.05728 1.11789 2.15519 1.33688 2.31423 1.49556C2.24894 1.61118 2.19496 1.73432 2.15978 1.86422L0.987549 6.20393C0.828868 6.79147 1.05939 7.28736 1.51103 7.40548V16H14.5641V7.26459C14.9645 7.11281 15.1633 6.64501 15.0141 6.09156ZM11.2539 2.47906L12.2444 6.14568C12.2597 6.20277 12.2824 6.25747 12.3042 6.31235C11.8618 7.03663 11.219 7.35117 10.5187 7.17698C9.90388 7.02445 9.47491 6.55264 9.46562 6.21799V2.64805C9.46562 2.59027 9.45691 2.53456 9.44837 2.4791H11.2539V2.47906ZM3.75729 6.25823L4.77807 2.47906H6.49688C6.48817 2.53456 6.47967 2.59024 6.47967 2.64801V6.28506L6.47747 6.28397C6.06878 7.05702 5.43709 7.40204 4.74521 7.23013C4.17169 7.0879 3.77186 6.64505 3.77186 6.3369H3.72873C3.73788 6.31037 3.74995 6.28524 3.75729 6.25823ZM10.874 15.1079H3.83184V12.2911H5.09561C5.21673 12.0178 5.48937 11.8266 5.80782 11.8266C6.12576 11.8266 6.39876 12.0178 6.51966 12.2911H9.09171C9.12787 11.8943 9.45788 11.5825 9.86422 11.5825C10.2702 11.5825 10.6004 11.8943 10.6363 12.2911H10.8742V15.1079H10.874ZM5.28185 11.2771C5.28185 10.9739 5.52795 10.7279 5.83121 10.7279C6.13447 10.7279 6.38036 10.974 6.38036 11.2771C6.38036 11.5806 6.13447 11.8266 5.83121 11.8266C5.52795 11.8266 5.28185 11.5806 5.28185 11.2771ZM9.33821 11.0329C9.33821 10.7298 9.58413 10.4837 9.88736 10.4837C10.1907 10.4837 10.4366 10.7299 10.4366 11.0329C10.4366 11.3364 10.1907 11.5825 9.88736 11.5825C9.58413 11.5825 9.33821 11.3364 9.33821 11.0329ZM13.8881 15.324H13.0243V9.62474H3.10901V15.324H2.18708V7.44239L2.38553 7.44622C2.85517 7.45573 3.34503 7.10283 3.61033 6.61236C3.76188 6.97904 4.18648 7.32388 4.6913 7.44915C4.78986 7.47356 4.92753 7.49749 5.089 7.49749C5.4868 7.49749 6.02829 7.35117 6.48134 6.7098C6.48987 7.32102 6.98938 7.5963 7.60646 7.5963H8.3388C8.87099 7.5963 9.31395 7.22626 9.43225 6.7303C9.65022 7.03009 10.0309 7.28837 10.4647 7.39583C10.5702 7.42211 10.718 7.44767 10.8907 7.44767C11.3277 7.44767 11.926 7.28216 12.419 6.55039C12.6896 7.01433 13.1624 7.34253 13.616 7.33368L13.8881 7.3284V15.324Z" fill="white"/>
</svg>
