<svg width="17" height="8" viewBox="0 0 17 8" fill="none" xmlns="http://www.w3.org/2000/svg">
<path d="M16.4688 3.77013H15.4161V1.77761C15.4161 1.48423 15.1783 1.24636 14.8849 1.24636H9.03112V0.292969H7.96862V1.24636H2.11511C1.82172 1.24636 1.58386 1.48423 1.58386 1.77761V3.77013H0.53125C0.237867 3.77013 0 4.008 0 4.30138V7.4691C0 7.76248 0.237867 8.00035 0.53125 8.00035H3.69896C3.99234 8.00035 4.23021 7.76248 4.23021 7.4691V4.30138C4.23021 4.008 3.99234 3.77013 3.69896 3.77013H2.64636V2.30886H7.96858V3.77013H6.91611C6.62273 3.77013 6.38486 4.008 6.38486 4.30138V7.4691C6.38486 7.76248 6.62273 8.00035 6.91611 8.00035H10.0838C10.3772 8.00035 10.6151 7.76248 10.6151 7.4691V4.30138C10.6151 4.008 10.3772 3.77013 10.0838 3.77013H9.03105V2.30886H14.3536V3.77013H13.301C13.0076 3.77013 12.7697 4.008 12.7697 4.30138V7.4691C12.7697 7.76248 13.0076 8.00035 13.301 8.00035H16.4688C16.7621 8.00035 17 7.76248 17 7.4691V4.30138C17 4.00797 16.7621 3.77013 16.4688 3.77013Z" fill="white"/>
</svg>
