<svg width="17" height="17" viewBox="0 0 17 17" fill="none" xmlns="http://www.w3.org/2000/svg">
<path d="M8.49974 0C3.8055 0 0 3.80578 0 8.49986C0 13.1939 3.8055 17 8.49974 17C13.194 17 16.9998 13.1941 16.9998 8.49986C16.9998 3.80561 13.194 0 8.49974 0ZM8.02222 13.2949H4.15813C3.88801 13.2949 3.66826 13.0752 3.66826 12.805V8.94089H8.02222V13.2949ZM8.02228 8.05911H8.02222H3.66826V4.19496C3.66826 3.92484 3.88795 3.70509 4.15813 3.70509H8.02228V8.05911ZM13.258 12.805C13.258 13.0752 13.0382 13.2949 12.7683 13.2949H8.90405V8.94089H13.258V12.805ZM13.258 8.05911H8.90405V3.70509H12.7683C13.0382 3.70509 13.258 3.92478 13.258 4.19496V8.05911Z" fill="white"/>
<path d="M5.37793 7.2138H6.25976V6.33197H7.14153V5.45013H6.25976V4.56836H5.37793V5.45013H4.49609V6.33197H5.37793V7.2138Z" fill="white"/>
<path d="M5.19765 12.3437L5.82126 11.7201L6.44487 12.3437L7.06824 11.7203L6.44464 11.0967L7.06824 10.473L6.44487 9.84961L5.82126 10.4732L5.19765 9.84961L4.57422 10.473L5.19782 11.0967L4.57422 11.7203L5.19765 12.3437Z" fill="white"/>
<path d="M12.4579 5.4502H9.8125V6.33203H12.4579V5.4502Z" fill="white"/>
<path d="M12.4579 9.99219H9.8125V10.874H12.4579V9.99219Z" fill="white"/>
<path d="M12.4579 11.3193H9.8125V12.2012H12.4579V11.3193Z" fill="white"/>
</svg>
