<svg width="24" height="23" viewBox="0 0 24 23" fill="none" xmlns="http://www.w3.org/2000/svg">
<path d="M20.6941 3.95818C18.6599 1.92401 15.9553 0.803711 13.0785 0.803711C12.7992 0.803711 12.5729 1.03006 12.5729 1.30928V4.03123C12.5729 4.31045 12.7992 4.5368 13.0785 4.5368C16.9587 4.5368 20.1154 7.69353 20.1154 11.5737C20.1154 15.4539 16.9587 18.6107 13.0785 18.6107C9.51948 18.6107 6.55183 15.9632 6.10096 12.4914H7.87816C7.87854 12.4914 7.87878 12.4915 7.87912 12.4914C8.15834 12.4914 8.38469 12.2651 8.38469 11.9859C8.38469 11.8469 8.3286 11.721 8.23779 11.6296L4.60995 7.5657C4.51399 7.45823 4.37681 7.39679 4.2328 7.39679C4.23198 7.39679 4.23116 7.39679 4.23039 7.39679C4.08551 7.39751 3.9479 7.4603 3.85242 7.56931L0.276826 11.6529C0.146148 11.8022 0.114803 12.0141 0.196753 12.1948C0.278704 12.3755 0.458783 12.4915 0.657208 12.4915H2.34774C2.56697 15.0926 3.71326 17.5056 5.60699 19.3304C7.62364 21.2736 10.277 22.3439 13.0784 22.3439C15.9553 22.3439 18.6599 21.2236 20.694 19.1894C22.7283 17.1552 23.8486 14.4506 23.8486 11.5738C23.8486 8.69697 22.7283 5.99236 20.6941 3.95818ZM13.0785 21.3328C7.8185 21.3328 3.53564 17.2184 3.32812 11.966C3.31738 11.6948 3.0944 11.4804 2.82293 11.4804H1.77187L4.23646 8.66572L6.74915 11.4804H5.54728C5.40847 11.4804 5.27577 11.5375 5.18034 11.6382C5.08485 11.739 5.03502 11.8746 5.04248 12.0131C5.27235 16.2797 8.8022 19.6219 13.0785 19.6219C17.5163 19.6219 21.1266 16.0115 21.1266 11.5738C21.1266 7.30583 17.7872 3.80319 13.5841 3.5414V1.8278C18.7313 2.09162 22.8375 6.3622 22.8375 11.5738C22.8375 16.9549 18.4596 21.3328 13.0785 21.3328Z" fill="white"/>
<path d="M12.4495 12.0341V15.8574H11.2297C10.9505 15.8574 10.7242 16.0838 10.7242 16.363C10.7242 16.6422 10.9505 16.8686 11.2297 16.8686H12.4495V17.4959C12.4495 17.7751 12.6758 18.0015 12.955 18.0015C13.2342 18.0015 13.4606 17.7751 13.4606 17.4959V16.8235C14.8195 16.5835 15.8552 15.395 15.8552 13.9682C15.8552 12.5416 14.8194 11.3531 13.4606 11.113V7.28961L14.5256 7.28956C14.8048 7.28956 15.0312 7.06321 15.0312 6.78399C15.0312 6.50477 14.8048 6.27842 14.5256 6.27842L13.4606 6.27847V5.65108C13.4606 5.37186 13.2342 5.14551 12.955 5.14551C12.6758 5.14551 12.4495 5.37186 12.4495 5.65108V6.32349C11.0905 6.56351 10.0547 7.75209 10.0547 9.17876C10.0547 10.6055 11.0905 11.7941 12.4495 12.0341ZM14.8441 13.9683C14.8441 14.8349 14.2574 15.5665 13.4606 15.7882V12.1484C14.2574 12.3701 14.8441 13.1017 14.8441 13.9683ZM12.4495 7.3589V10.9988C11.6525 10.7771 11.0658 10.0454 11.0658 9.17876C11.0658 8.31221 11.6525 7.58058 12.4495 7.3589Z" fill="white"/>
</svg>
