<svg width="19" height="25" viewBox="0 0 19 25" fill="none" xmlns="http://www.w3.org/2000/svg">
<path d="M16.8864 1.13638H16.3183C16.0041 1.13638 15.7501 1.39092 15.7501 1.70454C15.7501 2.01816 16.0041 2.27271 16.3183 2.27271H16.8864C17.2 2.27271 17.4546 2.52783 17.4546 2.84087V18.75C17.4546 19.0631 17.2 19.3182 16.8864 19.3182H2.11367C1.80005 19.3182 1.54551 19.063 1.54551 18.75V2.84092C1.54551 2.52783 1.80005 2.27275 2.11367 2.27275H4.38638V2.99888C4.04829 3.19604 3.81821 3.55855 3.81821 3.97729C3.81821 4.604 4.32788 5.11367 4.95459 5.11367C5.5813 5.11367 6.09097 4.604 6.09097 3.97729C6.09097 3.55855 5.86084 3.19604 5.5228 2.99888V0.568213C5.52275 0.254541 5.2688 0 4.95459 0C4.64038 0 4.38643 0.254541 4.38643 0.568164V1.13633H2.11372C1.17393 1.13633 0.40918 1.90112 0.40918 2.84087V18.75V23.2955C0.40918 24.2353 1.17397 25 2.11372 25H16.8864C17.8262 25 18.591 24.2352 18.591 23.2955V18.75V2.84092C18.591 1.90112 17.8262 1.13638 16.8864 1.13638ZM17.4546 23.2955C17.4546 23.6085 17.2 23.8636 16.8864 23.8636H2.11367C1.80005 23.8636 1.54551 23.6085 1.54551 23.2955V22.6228C1.72393 22.6864 1.91367 22.7273 2.11367 22.7273H16.8864C17.0864 22.7273 17.2762 22.6864 17.4545 22.6228V23.2955H17.4546ZM17.4546 21.0227C17.4546 21.3358 17.2 21.5909 16.8864 21.5909H2.11367C1.80005 21.5909 1.54551 21.3357 1.54551 21.0227V20.35C1.72393 20.4136 1.91367 20.4545 2.11367 20.4545H16.8864C17.0864 20.4545 17.2762 20.4136 17.4545 20.35V21.0227H17.4546Z" fill="white"/>
</svg>
