<svg width="12" height="4" viewBox="0 0 12 4" fill="none" xmlns="http://www.w3.org/2000/svg">
<path d="M0.910454 0.819336L1.10558 1.81946C1.15545 2.07452 1.20577 2.34446 1.24558 2.6249H1.25564C1.30595 2.3449 1.37595 2.06446 1.43589 1.82471L1.69577 0.819336H2.29602L2.54102 1.79452C2.60577 2.06971 2.67095 2.34446 2.72083 2.6249H2.73089C2.76589 2.3449 2.81577 2.06971 2.87089 1.78971L3.08089 0.819774H3.82595L3.07564 3.2654H2.36033L2.1302 2.40527C2.07027 2.16552 2.0252 1.94546 1.97533 1.6449H1.96527C1.92064 1.94984 1.87033 2.17515 1.80514 2.40527L1.56014 3.2654H0.844829L0.134766 0.819774L0.910454 0.819336Z" fill="#00D2FF"/>
<path d="M4.80259 0.819336L4.99772 1.81946C5.04759 2.07452 5.09791 2.34446 5.13772 2.6249H5.14778C5.19809 2.3449 5.2681 2.06446 5.32803 1.82471L5.58791 0.819336H6.18816L6.43316 1.79452C6.49791 2.06971 6.5631 2.34446 6.61297 2.6249H6.62303C6.65803 2.3449 6.70791 2.06971 6.76303 1.78971L6.97303 0.819774H7.7181L6.96778 3.2654H6.25247L6.02235 2.40527C5.96241 2.16552 5.91735 1.94546 5.86747 1.6449H5.85784C5.81322 1.94984 5.76291 2.17515 5.69772 2.40527L5.45272 3.2654H4.73741L4.02734 0.819774L4.80259 0.819336Z" fill="#00D2FF"/>
<path d="M8.69366 0.819336L8.88878 1.81946C8.93866 2.07452 8.98897 2.34446 9.02878 2.6249H9.03884C9.08916 2.3449 9.15916 2.06446 9.21909 1.82471L9.47897 0.819336H10.0792L10.3242 1.79452C10.389 2.06971 10.4542 2.34446 10.504 2.6249H10.5141C10.5491 2.3449 10.599 2.06971 10.6541 1.78971L10.8641 0.819774H11.6092L10.8588 3.2654H10.1435L9.91341 2.40527C9.85347 2.16552 9.80841 1.94546 9.75853 1.6449H9.74847C9.70384 1.94984 9.65353 2.17515 9.58834 2.40527L9.34334 3.2654H8.62803L7.91797 0.819774L8.69366 0.819336Z" fill="#00D2FF"/>
</svg>
