<svg width="14" height="14" viewBox="0 0 14 14" fill="none" xmlns="http://www.w3.org/2000/svg">
<path d="M13.8564 0.0181199C13.7691 -0.0180561 13.6686 0.00133073 13.6016 0.0685148L12.8332 0.836879L12.0649 0.0685148C11.9739 -0.0224858 11.8259 -0.0224858 11.7349 0.0685148L10.9666 0.836879L10.1982 0.0685148C10.1072 -0.0224858 9.95928 -0.0224858 9.86828 0.0685148L9.09991 0.836879L8.33155 0.0685148C8.24055 -0.0224858 8.09262 -0.0224858 8.00162 0.0685148L7.23325 0.836879L6.46489 0.0685148C6.39792 0.00179558 6.2976 -0.018521 6.21056 0.0178738C6.12353 0.0538037 6.0666 0.13898 6.0666 0.233481C6.0666 5.29722 5.65337 8.20079 4.80426 9.10005H0.233371C0.165941 9.10005 0.101764 9.12923 0.0574398 9.18009C0.0131153 9.23119 -0.00695514 9.29862 0.00215039 9.36534C0.315977 11.6312 0.921016 13.9538 3.03336 14H10.4999C10.5007 14 10.5016 14 10.5025 14C13.6959 13.9753 13.9868 3.45741 13.9999 0.23441C14.0004 0.139691 13.9436 0.0542959 13.8564 0.0181199ZM8.8169 13.5333H3.03848C1.70639 13.5044 0.944559 12.3534 0.524091 9.70391C0.51288 9.63298 0.567951 9.5667 0.639811 9.5667H4.89926C4.8995 9.56645 4.90019 9.56645 4.90065 9.5667H7.39729C7.45493 9.5667 7.50347 9.6087 7.51208 9.66563C7.72954 11.1079 8.08677 12.5312 8.89738 13.3345C8.97162 13.4083 8.92144 13.5333 8.8169 13.5333ZM12.3666 5.13346H7.46663C7.33784 5.13346 7.23331 5.02892 7.23331 4.90013C7.23331 4.77134 7.33784 4.66681 7.46663 4.66681H12.3666C12.4954 4.66681 12.5999 4.77134 12.5999 4.90013C12.5999 5.02892 12.4954 5.13346 12.3666 5.13346ZM12.3666 3.9668H7.46663C7.33784 3.9668 7.23331 3.86227 7.23331 3.73348C7.23331 3.60469 7.33784 3.50015 7.46663 3.50015H12.3666C12.4954 3.50015 12.5999 3.60469 12.5999 3.73348C12.5999 3.86227 12.4954 3.9668 12.3666 3.9668ZM12.3666 2.80015H7.46663C7.33784 2.80015 7.23331 2.69561 7.23331 2.56682C7.23331 2.43803 7.33784 2.33349 7.46663 2.33349H12.3666C12.4954 2.33349 12.5999 2.43803 12.5999 2.56682C12.5999 2.69561 12.4954 2.80015 12.3666 2.80015Z" fill="white"/>
</svg>
