<svg width="76" height="52" viewBox="0 0 76 52" fill="none" xmlns="http://www.w3.org/2000/svg">
<path d="M45.1451 32.5003C48.6393 30.1696 50.9551 26.1849 50.9551 21.667C50.9551 14.4972 45.1451 8.66699 38.0001 8.66699C30.8551 8.66699 25.0451 14.4972 25.0451 21.667C25.0451 26.1849 27.3609 30.1696 30.8551 32.5003C22.9404 35.4325 17.2734 43.0534 17.2734 52.0003H20.7267C20.7267 42.4451 28.478 34.667 38.0001 34.667C47.5222 34.667 55.2734 42.4451 55.2734 52.0003H58.7267C58.7267 43.0534 53.0598 35.4325 45.1451 32.5003ZM28.4984 21.667C28.4984 16.4109 32.7622 12.1323 38.0001 12.1323C43.2379 12.1323 47.5018 16.4109 47.5018 21.667C47.5018 26.923 43.2379 31.2017 38.0001 31.2017C32.7622 31.2017 28.4984 26.923 28.4984 21.667Z" fill="#365D96"/>
<path d="M62.4171 23.8333C65.9113 21.5026 68.2271 17.5179 68.2271 13C68.2271 5.83018 62.4171 0 55.2721 0C51.812 0 48.672 1.37382 46.3426 3.602C45.4843 4.42902 44.7351 5.3654 44.1289 6.40431C45.2051 6.84175 46.2336 7.3817 47.1803 8.03102C47.7934 7.03312 48.5767 6.15825 49.4962 5.44742C51.0968 4.2103 53.0925 3.47213 55.2653 3.47213C60.5032 3.47213 64.767 7.75079 64.767 13.0068C64.767 17.3675 61.8245 21.0515 57.8332 22.1793C57.0158 22.4117 56.1576 22.5415 55.2653 22.5415C54.9588 22.5415 54.6591 22.521 54.3594 22.4937C54.2981 23.7445 54.1006 24.9543 53.7805 26.1094C54.2709 26.0683 54.7613 26 55.2653 26C55.9669 26 56.6548 26.0547 57.3359 26.1367C65.8841 27.1688 72.5387 34.4821 72.5387 43.3333H75.992C75.9988 34.3864 70.3318 26.7655 62.4171 23.8333Z" fill="#FA6541"/>
<path d="M20.7267 26C21.2307 26 21.7211 26.0615 22.2115 26.1094C21.8846 24.9474 21.6939 23.7376 21.6326 22.4937C21.3329 22.521 21.0332 22.5415 20.7267 22.5415C19.8344 22.5415 18.9762 22.4117 18.1588 22.1793C14.1674 21.0515 11.225 17.3743 11.225 13.0068C11.225 7.75079 15.4888 3.47213 20.7267 3.47213C22.8994 3.47213 24.8951 4.21714 26.4958 5.44742C27.4153 6.15825 28.2054 7.03312 28.8116 8.03102C29.7652 7.3817 30.7869 6.84175 31.8631 6.40431C31.25 5.37224 30.5076 4.42902 29.6494 3.602C27.3268 1.37382 24.1868 0 20.7267 0C13.5816 0 7.77164 5.83018 7.77164 13C7.77164 17.5179 10.0875 21.5026 13.5816 23.8333C5.66697 26.7655 0 34.3864 0 43.3333H3.45331C3.45331 34.4821 10.1079 27.1688 18.656 26.1367C19.3372 26.0547 20.0251 26 20.7267 26Z" fill="#FA6541"/>
</svg>
