<svg width="47" height="47" viewBox="0 0 47 47" fill="none" xmlns="http://www.w3.org/2000/svg">
<circle cx="23.008" cy="23.008" r="23" transform="rotate(-90.019 23.008 23.008)" fill="url(#paint0_linear_3193_3)"/>
<path d="M27.5 27.5V32H15.5V14H23V12.5H15.5C15.1022 12.5 14.7206 12.658 14.4393 12.9393C14.158 13.2206 14 13.6022 14 14V32C14 32.3978 14.158 32.7794 14.4393 33.0607C14.7206 33.342 15.1022 33.5 15.5 33.5H27.5C27.8978 33.5 28.2794 33.342 28.5607 33.0607C28.842 32.7794 29 32.3978 29 32V27.5H27.5Z" fill="white"/>
<path d="M33.155 15.32L30.68 12.845C30.4557 12.6251 30.1541 12.502 29.84 12.502C29.5259 12.502 29.2243 12.6251 29 12.845L18.5 23.345V27.5H22.6475L33.1475 17C33.3674 16.7757 33.4905 16.4741 33.4905 16.16C33.4905 15.8459 33.3674 15.5443 33.1475 15.32H33.155ZM22.025 26H20V23.975L27.08 16.8875L29.1125 18.92L22.025 26ZM30.17 17.8625L28.1375 15.83L29.84 14.1275L31.8725 16.16L30.17 17.8625Z" fill="white"/>
<defs>
<linearGradient id="paint0_linear_3193_3" x1="23.008" y1="0.00800896" x2="23.008" y2="46.008" gradientUnits="userSpaceOnUse">
<stop stop-color="#F26D82"/>
<stop offset="1" stop-color="#EA7F6A"/>
</linearGradient>
</defs>
</svg>
