<svg width="17" height="14" viewBox="0 0 17 14" fill="none" xmlns="http://www.w3.org/2000/svg">
<path d="M15.7534 7.83141C15.7534 5.91487 14.4778 4.29216 12.7317 3.76379V1.13738C11.6764 0.568319 10.6209 0.378906 9.68344 0.378906C7.81663 0.378906 6.41763 1.12999 6.41763 1.12999C6.41763 1.12999 5.01842 0.379009 3.15185 0.378906C2.21427 0.378838 1.15908 0.568216 0.103516 1.13738V10.6393C0.103516 10.6393 1.4904 9.88825 3.36105 9.88825C4.29654 9.88825 5.35279 10.0759 6.41759 10.6393C6.91823 10.3744 7.41661 10.195 7.90195 10.0767C8.65368 11.2778 9.98505 12.081 11.5037 12.081C12.3778 12.081 13.1908 11.8152 13.8671 11.3609L16.1255 13.6725L16.8748 12.9396L14.6573 10.6698C15.3362 9.91642 15.7534 8.92295 15.7534 7.83141ZM1.15172 9.13687V1.80279C1.77835 1.5532 2.44865 1.42708 3.15175 1.42711C4.61516 1.42721 5.75143 1.96903 5.89371 2.03974V9.27655C5.08835 8.99174 4.24205 8.84002 3.36105 8.84002C2.51916 8.84002 1.76206 8.97377 1.15172 9.13687ZM7.45379 9.11763C7.28173 9.1648 7.11097 9.21621 6.94192 9.2734V2.03964C7.1032 1.95972 8.23235 1.42708 9.68341 1.42708C10.3866 1.42708 11.0569 1.5532 11.6835 1.80275V3.59037C11.6234 3.58783 11.5644 3.58126 11.5038 3.58126C9.16014 3.58126 7.25362 5.48778 7.25362 7.83141C7.25362 8.27975 7.32448 8.71156 7.45379 9.11763ZM9.06557 9.90153C8.81818 9.61067 8.62377 9.27484 8.49234 8.90864C8.37128 8.5714 8.30186 8.20979 8.30186 7.83141C8.30186 6.06588 9.73803 4.62947 11.5038 4.62947C11.5645 4.62947 11.6237 4.63522 11.6835 4.63857C12.0527 4.65921 12.4061 4.73944 12.7317 4.87525C13.8892 5.35803 14.7052 6.50087 14.7052 7.83138C14.7052 9.59664 13.269 11.0328 11.5038 11.0328C10.5275 11.0328 9.65332 10.5925 9.06557 9.90153Z" fill="white"/>
</svg>
