<svg width="31" height="26" viewBox="0 0 31 26" fill="none" xmlns="http://www.w3.org/2000/svg">
<path d="M0.987305 3.49824L2.6504 2.78613L3.04481 3.70739L1.38171 4.4195L0.987305 3.49824Z" fill="#FF912C"/>
<path d="M4.80176 2.17012L6.46485 1.45801L6.85926 2.37927L5.19617 3.09138L4.80176 2.17012Z" fill="#FF912C"/>
<path d="M3.69287 1.79619L3.90741 0L4.9025 0.118791L4.68795 1.91498L3.69287 1.79619Z" fill="#FF912C"/>
<path d="M1.37012 1.48096L1.971 0.678711L3.41887 1.76308L2.81799 2.56533L1.37012 1.48096Z" fill="#FF912C"/>
<path d="M13.3897 23.0335L14.7577 12.7705C14.8978 11.6747 15.3287 10.6365 16.0056 9.76378C15.5571 9.4347 15.079 9.14789 14.5774 8.90695V6.45638C14.5774 6.3235 14.5246 6.19598 14.4306 6.10202C14.3367 6.00806 14.2092 5.95526 14.0763 5.95526H11.0695V3.95077C11.0695 3.41923 10.8584 2.90936 10.4825 2.53332C10.1065 2.15748 9.59659 1.94629 9.06506 1.94629H8.56394C8.03239 1.94629 7.52252 2.15748 7.14648 2.53332C6.77064 2.90938 6.55945 3.41924 6.55945 3.95077C6.55945 4.30894 6.3684 4.6398 6.05833 4.81877C5.74826 4.99775 5.36615 4.99775 5.05609 4.81877C4.74602 4.6398 4.55497 4.30893 4.55497 3.95077V3.44965H3.55272V3.95077C3.55272 4.66689 3.93483 5.32866 4.55497 5.68677C5.1751 6.04472 5.93932 6.04472 6.55945 5.68677C7.17958 5.32861 7.56169 4.66683 7.56169 3.95077C7.56169 3.685 7.66729 3.42996 7.85521 3.24205C8.04313 3.05413 8.29816 2.94853 8.56394 2.94853H9.06506C9.33083 2.94853 9.58587 3.05413 9.77379 3.24205C9.9617 3.42996 10.0673 3.685 10.0673 3.95077V5.95526H7.06057C6.78384 5.95526 6.55945 6.17965 6.55945 6.45638V8.90695C3.78965 10.3215 1.94421 13.0631 1.67578 16.162C1.40755 19.2605 2.75431 22.2786 5.23976 24.1485C7.72503 26.0183 10.9984 26.4758 13.9008 25.3593C13.4646 24.6675 13.2839 23.8449 13.3897 23.0339L13.3897 23.0335Z" fill="#FF912C"/>
<path d="M18.6813 4.74744C19.2418 5.45015 19.682 6.24095 19.9843 7.08748C20.2708 6.9754 20.5796 6.93087 20.8863 6.95728C25.1257 6.95728 24.7699 6.87204 25.3713 7.16264C25.6963 6.30959 26.0883 5.48346 26.5438 4.69214C26.6494 4.51675 26.6375 4.29483 26.514 4.13151C26.3903 3.96842 26.18 3.89661 25.9825 3.95052C24.6545 4.23106 24.3389 4.49169 23.7776 4.28632L23.4368 4.16104C22.4896 3.81518 21.7731 4.24628 21.3973 4.32145C20.8961 4.4767 20.5955 4.25635 19.2073 3.95052H19.2075C18.9975 3.89124 18.7735 3.97469 18.6532 4.15679C18.533 4.33867 18.5445 4.5776 18.6814 4.74737L18.6813 4.74744Z" fill="#FF912C"/>
<path d="M20.9463 15.4759C20.9463 15.7416 21.0519 15.9967 21.24 16.1846C21.4279 16.3725 21.6828 16.4781 21.9485 16.4781H22.0939V14.4736H21.9485C21.6828 14.4736 21.4279 14.5792 21.24 14.7671C21.0519 14.9551 20.9463 15.2101 20.9463 15.4759Z" fill="#FF912C"/>
<path d="M23.0972 19.485H23.2426C23.6005 19.485 23.9314 19.2939 24.1104 18.9838C24.2896 18.6738 24.2896 18.2917 24.1104 17.9816C23.9314 17.6715 23.6005 17.4805 23.2426 17.4805H23.0972V19.485Z" fill="#FF912C"/>
<path d="M29.4406 12.9005C29.2097 11.1714 28.1356 9.6696 26.5743 8.89151C24.7752 8.00473 24.8052 7.95954 24.5998 7.95954C20.3402 7.95954 20.5557 7.9195 20.3653 8.01458L18.6163 8.88664C17.055 9.6645 15.9809 11.1665 15.75 12.8956L14.3818 23.1637C14.286 23.8834 14.5071 24.6091 14.9876 25.1532C15.4683 25.6975 16.1614 26.0063 16.8874 26H28.3233C29.0492 26.0062 29.7423 25.6975 30.223 25.1532C30.7038 24.6091 30.9248 23.8834 30.8289 23.1637L29.4406 12.9005ZM23.2421 16.4786C23.9582 16.4786 24.62 16.8607 24.9779 17.4808C25.3361 18.101 25.3361 18.8652 24.9779 19.4853C24.62 20.1055 23.9582 20.4876 23.2421 20.4876H23.0967V21.7053H22.0945V20.4876H21.949C21.4175 20.4876 20.9076 20.2764 20.5318 19.9005C20.1557 19.5245 19.9446 19.0146 19.9446 18.4831H20.9468C20.9468 18.7489 21.0524 19.0039 21.2405 19.1918C21.4284 19.3797 21.6833 19.4853 21.949 19.4853H22.0944V17.4808H21.949C21.2329 17.4808 20.5711 17.0987 20.2132 16.4786C19.855 15.8585 19.855 15.0943 20.2132 14.4741C20.5711 13.854 21.2329 13.4719 21.949 13.4719H22.0944V12.2542H23.0967V13.4719H23.2421C23.7736 13.4719 24.2835 13.6831 24.6593 14.0589C25.0354 14.435 25.2466 14.9448 25.2466 15.4764H24.2443C24.2443 15.2106 24.1388 14.9556 23.9506 14.7676C23.7627 14.5797 23.5079 14.4741 23.2421 14.4741H23.0967V16.4786H23.2421Z" fill="#FF912C"/>
</svg>
