<svg width="14" height="18" viewBox="0 0 14 18" fill="none" xmlns="http://www.w3.org/2000/svg">
<path d="M9.61406 11.9619C9.61357 12.1137 9.4908 12.2364 9.33906 12.2369H7.41406C7.26232 12.2364 7.13955 12.1137 7.13906 11.9619V9.89941H5.35156V14.5744H11.4016V9.89941H9.61406V11.9619Z" fill="white"/>
<path d="M2.60156 12.7817L4.80156 14.3217V9.79531L2.60156 8.69531V12.7817Z" fill="white"/>
<path d="M7.6875 9.90039H9.0625V11.6879H7.6875V9.90039Z" fill="white"/>
<path d="M8.85911 8.52539H3.48828L5.13828 9.3504H10.5091L8.85911 8.52539Z" fill="white"/>
<path d="M5.35156 15.125H11.4016V15.95H5.35156V15.125Z" fill="white"/>
<path d="M2.60156 14.1571L4.80156 15.6971V14.9931L2.60156 13.4531V14.1571Z" fill="white"/>
<path d="M3.14844 5.3623H3.97344V6.1873H3.14844V5.3623Z" fill="white"/>
<path d="M13.875 16.775V0.82501C13.8749 0.606238 13.7879 0.396544 13.6332 0.241852C13.4785 0.087164 13.2688 0.000122571 13.05 0H0.950009C0.731238 0.000122766 0.521544 0.087164 0.366852 0.241852C0.212164 0.396541 0.125123 0.606235 0.125 0.82501V16.775C0.125123 16.9938 0.212164 17.2035 0.366852 17.3582C0.52154 17.5129 0.731235 17.5999 0.950009 17.6H13.05C13.2688 17.5999 13.4785 17.5129 13.6332 17.3582C13.7879 17.2035 13.8749 16.9938 13.875 16.775ZM5.35002 2.75001H10.85C11.0019 2.75001 11.125 2.87315 11.125 3.02501C11.125 3.17687 11.0019 3.30001 10.85 3.30001H5.35002C5.19816 3.30001 5.07502 3.17687 5.07502 3.02501C5.07502 2.87315 5.19816 2.75001 5.35002 2.75001ZM5.35002 5.50001H10.85C11.0019 5.50001 11.125 5.62315 11.125 5.77501C11.125 5.92687 11.0019 6.05001 10.85 6.05001H5.35002C5.19816 6.05001 5.07502 5.92687 5.07502 5.77501C5.07502 5.62315 5.19816 5.50001 5.35002 5.50001ZM2.60002 2.61251C2.60002 2.46666 2.65797 2.3267 2.76109 2.22358C2.86421 2.12046 3.00417 2.06251 3.15002 2.06251H3.97502C4.12087 2.06251 4.26082 2.12046 4.36395 2.22358C4.46707 2.3267 4.52502 2.46666 4.52502 2.61251V3.43751C4.52502 3.58336 4.46707 3.72332 4.36395 3.82644C4.26082 3.92956 4.12087 3.98751 3.97502 3.98751H3.15002C3.00417 3.98751 2.86421 3.92956 2.76109 3.82644C2.65797 3.72332 2.60002 3.58336 2.60002 3.43751V2.61251ZM2.60002 5.36251C2.60002 5.21666 2.65797 5.0767 2.76109 4.97358C2.86421 4.87046 3.00417 4.81251 3.15002 4.81251H3.97502C4.12087 4.81251 4.26082 4.87046 4.36395 4.97358C4.46707 5.0767 4.52502 5.21666 4.52502 5.36251V6.18751C4.52502 6.33336 4.46707 6.47332 4.36395 6.57644C4.26082 6.67956 4.12087 6.73751 3.97502 6.73751H3.15002C3.00417 6.73751 2.86421 6.67956 2.76109 6.57644C2.65797 6.47332 2.60002 6.33336 2.60002 6.18751V5.36251ZM11.95 16.2249C11.9495 16.3766 11.8268 16.4994 11.675 16.4999H5.07502C5.01891 16.5001 4.96404 16.4828 4.91824 16.4504H4.91689L2.16689 14.5254C2.16137 14.5212 2.15867 14.5172 2.15449 14.5143C2.08894 14.4624 2.05039 14.3836 2.05002 14.2999V8.24985C2.05051 8.09811 2.17328 7.97535 2.32502 7.97485H8.92502C8.9675 7.97461 9.00948 7.98455 9.04742 8.00371L11.7974 9.37871C11.8025 9.38055 11.8071 9.38337 11.8112 9.38693C11.8966 9.43579 11.9495 9.52652 11.95 9.62485V16.2249Z" fill="white"/>
<path d="M3.14844 2.6123H3.97344V3.4373H3.14844V2.6123Z" fill="white"/>
</svg>
