<svg width="21" height="21" viewBox="0 0 21 21" fill="none" xmlns="http://www.w3.org/2000/svg">
<g filter="url(#filter0_d_172_648)">
<path d="M21 10.5011C21 4.70162 16.299 0.000976562 10.5002 0.000976562C4.70106 0.000976562 0 4.70162 0 10.5011C0 16.2997 4.70106 21.0007 10.5002 21.0007C16.299 21.0007 21 16.2997 21 10.5011Z" fill="#F8FAFF"/>
<path d="M10.5002 0.500977C16.0228 0.500977 20.5 4.97776 20.5 10.5011C20.5 16.0236 16.0228 20.5007 10.5002 20.5007C4.97719 20.5007 0.5 16.0235 0.5 10.5011C0.5 4.97777 4.97719 0.500977 10.5002 0.500977Z" stroke="black"/>
</g>
<path d="M7 8.27705C7 7.78056 7.16706 7.27747 7.50125 6.76788C7.83533 6.2583 8.32301 5.83627 8.96395 5.50174C9.60492 5.1673 10.3527 5 11.2073 5C12.0016 5 12.7029 5.1399 13.311 5.41942C13.9191 5.69908 14.3887 6.07933 14.7203 6.56012C15.0516 7.04105 15.2174 7.56363 15.2174 8.12809C15.2174 8.57238 15.1229 8.96183 14.9339 9.29622C14.7449 9.63076 14.5202 9.91952 14.26 10.1625C13.9998 10.4056 13.5328 10.8146 12.859 11.3895C12.6727 11.5515 12.5233 11.694 12.4111 11.8168C12.2988 11.9396 12.2152 12.052 12.1605 12.1539C12.1056 12.2558 12.0631 12.3577 12.0331 12.4596C12.0029 12.5615 11.9577 12.7406 11.8975 12.9967C11.7934 13.5403 11.4674 13.812 10.9197 13.812C10.6348 13.812 10.395 13.7232 10.2006 13.5455C10.0061 13.3678 9.90893 13.1038 9.90893 12.7536C9.90893 12.3146 9.98006 11.9343 10.1226 11.6129C10.265 11.2915 10.454 11.0092 10.6896 10.7662C10.9251 10.5232 11.2429 10.2345 11.6428 9.89993C11.9933 9.60728 12.2468 9.38642 12.4029 9.23746C12.5591 9.08849 12.6905 8.92265 12.7974 8.73961C12.9042 8.55671 12.9576 8.35815 12.9576 8.14379C12.9576 7.72568 12.7946 7.37291 12.4687 7.0854C12.1427 6.79803 11.7222 6.65421 11.2073 6.65421C10.6046 6.65421 10.1608 6.79925 9.87606 7.08933C9.59116 7.37941 9.35016 7.80668 9.15292 8.37114C8.96664 8.96183 8.61326 9.25704 8.09286 9.25704C7.78597 9.25704 7.52713 9.15389 7.31632 8.94738C7.10543 8.74093 7 8.5175 7 8.27705ZM11.0101 16.8696C10.6759 16.8696 10.3842 16.7663 10.1349 16.5599C9.8856 16.3535 9.76102 16.0647 9.76102 15.6936C9.76102 15.3643 9.88144 15.0873 10.1226 14.8626C10.3636 14.6379 10.6594 14.5254 11.0101 14.5254C11.3552 14.5254 11.6455 14.6379 11.8811 14.8626C12.1166 15.0873 12.2344 15.3643 12.2344 15.6936C12.2344 16.0595 12.1112 16.347 11.8647 16.556C11.6181 16.765 11.3333 16.8696 11.0101 16.8696Z" fill="#00D2FF"/>
<defs>
<filter id="filter0_d_172_648" x="-4" y="0.000976562" width="29" height="29" filterUnits="userSpaceOnUse" color-interpolation-filters="sRGB">
<feFlood flood-opacity="0" result="BackgroundImageFix"/>
<feColorMatrix in="SourceAlpha" type="matrix" values="0 0 0 0 0 0 0 0 0 0 0 0 0 0 0 0 0 0 127 0" result="hardAlpha"/>
<feOffset dy="4"/>
<feGaussianBlur stdDeviation="2"/>
<feComposite in2="hardAlpha" operator="out"/>
<feColorMatrix type="matrix" values="0 0 0 0 0 0 0 0 0 0 0 0 0 0 0 0 0 0 0.25 0"/>
<feBlend mode="normal" in2="BackgroundImageFix" result="effect1_dropShadow_172_648"/>
<feBlend mode="normal" in="SourceGraphic" in2="effect1_dropShadow_172_648" result="shape"/>
</filter>
</defs>
</svg>
