<svg width="46" height="46" viewBox="0 0 46 46" fill="none" xmlns="http://www.w3.org/2000/svg">
<path d="M23 46C10.318 46 0 35.682 0 23C0 10.318 10.318 0 23 0C35.682 0 46 10.318 46 23C46 35.682 35.682 46 23 46Z" fill="#00D2FF"/>
<path d="M29.8864 12.1364H29.3183C29.0041 12.1364 28.7501 12.3909 28.7501 12.7045C28.7501 13.0182 29.0041 13.2727 29.3183 13.2727H29.8864C30.2 13.2727 30.4546 13.5278 30.4546 13.8409V29.75C30.4546 30.0631 30.2 30.3182 29.8864 30.3182H15.1137C14.8 30.3182 14.5455 30.063 14.5455 29.75V13.8409C14.5455 13.5278 14.8 13.2728 15.1137 13.2728H17.3864V13.9989C17.0483 14.196 16.8182 14.5585 16.8182 14.9773C16.8182 15.604 17.3279 16.1137 17.9546 16.1137C18.5813 16.1137 19.091 15.604 19.091 14.9773C19.091 14.5585 18.8608 14.196 18.5228 13.9989V11.5682C18.5228 11.2545 18.2688 11 17.9546 11C17.6404 11 17.3864 11.2545 17.3864 11.5682V12.1363H15.1137C14.1739 12.1363 13.4092 12.9011 13.4092 13.8409V29.75V34.2955C13.4092 35.2353 14.174 36 15.1137 36H29.8864C30.8262 36 31.591 35.2352 31.591 34.2955V29.75V13.8409C31.591 12.9011 30.8262 12.1364 29.8864 12.1364ZM30.4546 34.2955C30.4546 34.6085 30.2 34.8636 29.8864 34.8636H15.1137C14.8 34.8636 14.5455 34.6085 14.5455 34.2955V33.6228C14.7239 33.6864 14.9137 33.7273 15.1137 33.7273H29.8864C30.0864 33.7273 30.2762 33.6864 30.4545 33.6228V34.2955H30.4546ZM30.4546 32.0227C30.4546 32.3358 30.2 32.5909 29.8864 32.5909H15.1137C14.8 32.5909 14.5455 32.3357 14.5455 32.0227V31.35C14.7239 31.4136 14.9137 31.4545 15.1137 31.4545H29.8864C30.0864 31.4545 30.2762 31.4136 30.4545 31.35V32.0227H30.4546Z" fill="white"/>
<path d="M27.6141 13.9989V11.5682C27.6141 11.2545 27.3602 11 27.0459 11C26.7317 11 26.4778 11.2545 26.4778 11.5682V12.1363H24.7732C24.459 12.1363 24.2051 12.3909 24.2051 12.7045C24.2051 13.0181 24.459 13.2727 24.7732 13.2727H26.4778V13.9988C26.1397 14.1959 25.9096 14.5584 25.9096 14.9772C25.9096 15.6039 26.4193 16.1136 27.046 16.1136C27.6727 16.1136 28.1824 15.6039 28.1824 14.9772C28.1823 14.5585 27.9522 14.196 27.6141 13.9989Z" fill="white"/>
<path d="M23.0682 13.9989V11.5682C23.0682 11.2545 22.8143 11 22.5 11C22.1858 11 21.9319 11.2545 21.9319 11.5682V12.1363H20.2273C19.9131 12.1363 19.6592 12.3909 19.6592 12.7045C19.6592 13.0181 19.9131 13.2727 20.2273 13.2727H21.9319V13.9988C21.5938 14.1959 21.3637 14.5584 21.3637 14.9772C21.3637 15.6039 21.8734 16.1136 22.5001 16.1136C23.1268 16.1136 23.6365 15.6039 23.6365 14.9772C23.6364 14.5585 23.4063 14.196 23.0682 13.9989Z" fill="white"/>
<path d="M22.5 18.9541H16.8182C16.504 18.9541 16.25 19.2086 16.25 19.5223C16.25 19.8359 16.504 20.0904 16.8182 20.0904H22.5C22.8142 20.0904 23.0682 19.8359 23.0682 19.5223C23.0682 19.2086 22.8142 18.9541 22.5 18.9541Z" fill="white"/>
<path d="M26.4777 21.2275H21.3641C21.0499 21.2275 20.7959 21.4821 20.7959 21.7957C20.7959 22.1093 21.0499 22.3639 21.3641 22.3639H26.4777C26.7919 22.3639 27.0458 22.1093 27.0458 21.7957C27.0459 21.4821 26.7919 21.2275 26.4777 21.2275Z" fill="white"/>
<path d="M24.7727 25.7725H16.8182C16.504 25.7725 16.25 26.027 16.25 26.3406C16.25 26.6542 16.504 26.9088 16.8182 26.9088H24.7727C25.0869 26.9088 25.3409 26.6542 25.3409 26.3406C25.3409 26.027 25.0869 25.7725 24.7727 25.7725Z" fill="white"/>
<path d="M28.1823 18.9541H24.7732C24.459 18.9541 24.2051 19.2086 24.2051 19.5223C24.2051 19.8359 24.459 20.0904 24.7732 20.0904H28.1823C28.4965 20.0904 28.7505 19.8359 28.7505 19.5223C28.7505 19.2086 28.4965 18.9541 28.1823 18.9541Z" fill="white"/>
<path d="M21.9318 23.5H16.8182C16.504 23.5 16.25 23.7545 16.25 24.0682C16.25 24.3818 16.504 24.6363 16.8182 24.6363H21.9318C22.246 24.6363 22.5 24.3818 22.5 24.0682C22.5 23.7545 22.246 23.5 21.9318 23.5Z" fill="white"/>
<path d="M19.0909 21.2275H16.8182C16.504 21.2275 16.25 21.4821 16.25 21.7957C16.25 22.1093 16.504 22.3639 16.8182 22.3639H19.0909C19.4051 22.3639 19.659 22.1093 19.659 21.7957C19.659 21.4821 19.4051 21.2275 19.0909 21.2275Z" fill="white"/>
<path d="M28.1822 23.5H24.2049C23.8907 23.5 23.6367 23.7545 23.6367 24.0682C23.6367 24.3818 23.8907 24.6363 24.2049 24.6363H28.1822C28.4964 24.6363 28.7503 24.3818 28.7503 24.0682C28.7503 23.7545 28.4964 23.5 28.1822 23.5Z" fill="white"/>
</svg>
