<svg width="28" height="28" viewBox="0 0 28 28" fill="none" xmlns="http://www.w3.org/2000/svg">
<path d="M21.2486 22.0758L22.0605 21.2637L18.7946 17.9986L17.9826 18.8108L21.2486 22.0758Z" fill="white"/>
<path d="M12.8432 4.82617C8.40787 4.82617 4.8125 8.42155 4.8125 12.8569C4.8125 17.2923 8.40787 20.8877 12.8432 20.8877C17.2786 20.8877 20.874 17.2923 20.874 12.8569C20.8744 8.42155 17.2786 4.82617 12.8432 4.82617Z" fill="white"/>
<path d="M7.91045 11.8193L8.10558 12.8195C8.15545 13.0745 8.20577 13.3445 8.24558 13.6249H8.25564C8.30595 13.3449 8.37595 13.0645 8.43589 12.8247L8.69577 11.8193H9.29602L9.54102 12.7945C9.60577 13.0697 9.67095 13.3445 9.72083 13.6249H9.73089C9.76589 13.3449 9.81577 13.0697 9.87089 12.7897L10.0809 11.8198H10.826L10.0756 14.2654H9.36033L9.1302 13.4053C9.07027 13.1655 9.0252 12.9455 8.97533 12.6449H8.96527C8.92064 12.9498 8.87033 13.1751 8.80514 13.4053L8.56014 14.2654H7.84483L7.13477 11.8198L7.91045 11.8193Z" fill="#00D2FF"/>
<path d="M11.8026 11.8193L11.9977 12.8195C12.0476 13.0745 12.0979 13.3445 12.1377 13.6249H12.1478C12.1981 13.3449 12.2681 13.0645 12.328 12.8247L12.5879 11.8193H13.1882L13.4332 12.7945C13.4979 13.0697 13.5631 13.3445 13.613 13.6249H13.623C13.658 13.3449 13.7079 13.0697 13.763 12.7897L13.973 11.8198H14.7181L13.9678 14.2654H13.2525L13.0223 13.4053C12.9624 13.1655 12.9173 12.9455 12.8675 12.6449H12.8578C12.8132 12.9498 12.7629 13.1751 12.6977 13.4053L12.4527 14.2654H11.7374L11.0273 11.8198L11.8026 11.8193Z" fill="#00D2FF"/>
<path d="M15.6937 11.8193L15.8888 12.8195C15.9387 13.0745 15.989 13.3445 16.0288 13.6249H16.0388C16.0892 13.3449 16.1592 13.0645 16.2191 12.8247L16.479 11.8193H17.0792L17.3242 12.7945C17.389 13.0697 17.4542 13.3445 17.504 13.6249H17.5141C17.5491 13.3449 17.599 13.0697 17.6541 12.7897L17.8641 11.8198H18.6092L17.8588 14.2654H17.1435L16.9134 13.4053C16.8535 13.1655 16.8084 12.9455 16.7585 12.6449H16.7485C16.7038 12.9498 16.6535 13.1751 16.5883 13.4053L16.3433 14.2654H15.628L14.918 11.8198L15.6937 11.8193Z" fill="#00D2FF"/>
</svg>
