<svg width="9" height="12" viewBox="0 0 9 12" fill="none" xmlns="http://www.w3.org/2000/svg">
<path d="M4.44531 7.94531H1.54688V6.11719H4.44531C4.89323 6.11719 5.25781 6.04427 5.53906 5.89844C5.82031 5.7474 6.02604 5.53906 6.15625 5.27344C6.28646 5.00781 6.35156 4.70833 6.35156 4.375C6.35156 4.03646 6.28646 3.72135 6.15625 3.42969C6.02604 3.13802 5.82031 2.90365 5.53906 2.72656C5.25781 2.54948 4.89323 2.46094 4.44531 2.46094H2.35938V12H0.015625V0.625H4.44531C5.33594 0.625 6.09896 0.786458 6.73438 1.10938C7.375 1.42708 7.86458 1.86719 8.20312 2.42969C8.54167 2.99219 8.71094 3.63542 8.71094 4.35938C8.71094 5.09375 8.54167 5.72917 8.20312 6.26562C7.86458 6.80208 7.375 7.21615 6.73438 7.50781C6.09896 7.79948 5.33594 7.94531 4.44531 7.94531Z" fill="white"/>
</svg>
