<svg width="111" height="111" viewBox="0 0 111 111" fill="none" xmlns="http://www.w3.org/2000/svg">
<path d="M23.962 44.0939C22.7667 43.2722 21.207 42.8604 19.2829 42.8604H11.8336C11.2438 42.8604 10.9179 43.1554 10.856 43.7446L7.82981 62.7399C7.79836 62.9264 7.84504 63.0971 7.96941 63.2522C8.09308 63.4077 8.24862 63.485 8.4349 63.485H11.9732C12.5938 63.485 12.935 63.1907 12.9976 62.6004L13.8355 57.4795C13.8661 57.2313 13.9752 57.0295 14.1615 56.8741C14.3476 56.719 14.5805 56.6174 14.8598 56.571C15.1392 56.5249 15.4026 56.5017 15.6513 56.5017C15.8994 56.5017 16.1941 56.5173 16.5361 56.5482C16.8772 56.5792 17.0946 56.5943 17.1878 56.5943C19.8569 56.5943 21.952 55.8422 23.4731 54.3365C24.9935 52.8313 25.7546 50.7441 25.7546 48.0744C25.7546 46.2431 25.1566 44.9163 23.962 44.0933V44.0939ZM20.1211 49.7976C19.9654 50.8841 19.5624 51.5976 18.9106 51.9392C18.2587 52.2811 17.3276 52.451 16.1172 52.451L14.5807 52.4977L15.3724 47.5159C15.4342 47.1748 15.6358 47.0041 15.9775 47.0041H16.8624C18.1033 47.0041 19.004 47.1829 19.5627 47.5393C20.1211 47.8965 20.3073 48.6496 20.1211 49.7976Z" fill="white"/>
<path d="M102.574 42.8604H99.129C98.7868 42.8604 98.5853 43.0311 98.5238 43.3725L95.4974 62.7406L95.4507 62.8336C95.4507 62.9896 95.5129 63.1363 95.6372 63.2761C95.7608 63.4154 95.9166 63.4854 96.1027 63.4854H99.1759C99.7647 63.4854 100.091 63.1911 100.154 62.601L103.18 43.5588V43.5125C103.18 43.0781 102.977 42.8604 102.574 42.8604Z" fill="#DBDBDB"/>
<path d="M60.9518 50.3568C60.9518 50.202 60.8895 50.0543 60.766 49.9148C60.6415 49.7752 60.5017 49.7051 60.3469 49.7051H56.762C56.4199 49.7051 56.1407 49.861 55.9238 50.1706L50.9887 57.434L48.9404 50.4502C48.7844 49.9538 48.4433 49.7051 47.916 49.7051H44.4238C44.2683 49.7051 44.1285 49.7751 44.0051 49.9148C43.8806 50.0543 43.8188 50.2022 43.8188 50.3568C43.8188 50.4195 44.1215 51.3346 44.7266 53.1038C45.3317 54.8733 45.9836 56.7822 46.6821 58.8309C47.3805 60.8792 47.7448 61.966 47.7761 62.0894C45.2308 65.566 43.9586 67.4285 43.9586 67.6764C43.9586 68.0803 44.1602 68.2818 44.5638 68.2818H48.1487C48.4901 68.2818 48.7693 68.127 48.9869 67.8163L60.8592 50.6824C60.9208 50.6208 60.9518 50.5127 60.9518 50.3567V50.3568Z" fill="white"/>
<path d="M94.3344 49.7049H90.7959C90.361 49.7049 90.098 50.2171 90.0048 51.2414C89.1969 50.0005 87.7235 49.3789 85.5814 49.3789C83.3466 49.3789 81.4453 50.2171 79.8782 51.8932C78.3105 53.5694 77.5271 55.5407 77.5271 57.8062C77.5271 59.6379 78.0623 61.0965 79.133 62.1825C80.2038 63.2696 81.6392 63.812 83.4401 63.812C84.34 63.812 85.2556 63.6255 86.1867 63.2533C87.1179 62.8809 87.8467 62.3846 88.3752 61.7635C88.3752 61.7947 88.3436 61.934 88.2822 62.1822C88.2196 62.4309 88.189 62.6177 88.189 62.7409C88.189 63.2381 88.3902 63.4857 88.7943 63.4857H92.0071C92.5959 63.4857 92.9379 63.1914 93.0307 62.6011L94.9398 50.4496C94.9703 50.2633 94.924 50.0929 94.8002 49.9375C94.6755 49.7828 94.5207 49.7049 94.3344 49.7049ZM88.2587 58.877C87.4672 59.653 86.5127 60.0409 85.3954 60.0409C84.4949 60.0409 83.7662 59.793 83.2072 59.2961C82.6482 58.8004 82.3688 58.1175 82.3688 57.2474C82.3688 56.0998 82.7569 55.1293 83.5331 54.3378C84.3081 53.5462 85.2712 53.1505 86.4196 53.1505C87.288 53.1505 88.0098 53.4066 88.5844 53.9185C89.1582 54.4307 89.4461 55.1371 89.4461 56.0372C89.446 57.1545 89.0501 58.1014 88.2587 58.877Z" fill="#DBDBDB"/>
<path d="M41.4443 49.7049H37.9059C37.4707 49.7049 37.2075 50.2171 37.1143 51.2414C36.2762 50.0005 34.8018 49.3789 32.6912 49.3789C30.4564 49.3789 28.555 50.2171 26.9878 51.8932C25.4201 53.5694 24.6367 55.5407 24.6367 57.8062C24.6367 59.6379 25.1722 61.0965 26.2431 62.1825C27.314 63.2696 28.7491 63.812 30.5496 63.812C31.4183 63.812 32.3189 63.6255 33.2499 63.2533C34.181 62.8809 34.926 62.3846 35.4847 61.7635C35.3602 62.1358 35.2984 62.4618 35.2984 62.7409C35.2984 63.2381 35.5001 63.4857 35.9037 63.4857H39.1161C39.7054 63.4857 40.0472 63.1914 40.1404 62.6011L42.0492 50.4496C42.0798 50.2633 42.0333 50.0929 41.9096 49.9375C41.7854 49.7828 41.6304 49.7049 41.4443 49.7049ZM35.3684 58.9C34.5768 59.6615 33.6064 60.0409 32.4587 60.0409C31.558 60.0409 30.8364 59.793 30.2936 59.2961C29.7501 58.8004 29.4787 58.1175 29.4787 57.2474C29.4787 56.0998 29.8665 55.1293 30.6428 54.3378C31.4183 53.5462 32.3805 53.1505 33.5294 53.1505C34.398 53.1505 35.1197 53.4066 35.6945 53.9187C36.2682 54.4308 36.5557 55.1372 36.5557 56.0373C36.5557 57.1856 36.16 58.1404 35.3684 58.9Z" fill="white"/>
<path d="M76.8518 44.0939C75.6567 43.2722 74.0973 42.8604 72.1728 42.8604H64.77C64.1489 42.8604 63.8073 43.1554 63.7458 43.7446L60.7195 62.7399C60.688 62.9266 60.7346 63.0972 60.8591 63.2523C60.9822 63.4077 61.1383 63.485 61.3246 63.485H65.1421C65.5145 63.485 65.7627 63.2835 65.8871 62.8799L66.7253 57.4795C66.756 57.2313 66.8647 57.0295 67.0512 56.8741C67.2375 56.719 67.47 56.6175 67.7496 56.571C68.0288 56.5249 68.2921 56.5017 68.5411 56.5017C68.7892 56.5017 69.0839 56.5173 69.4254 56.5482C69.7668 56.5792 69.9848 56.5943 70.0772 56.5943C72.7469 56.5943 74.8415 55.8422 76.3627 54.3365C77.8836 52.8313 78.644 50.7441 78.644 48.0744C78.6443 46.2433 78.0464 44.9164 76.8518 44.0934V44.0939ZM72.0796 51.7529C71.3967 52.2184 70.3724 52.451 69.0069 52.451L67.5169 52.4977L68.3085 47.5159C68.3699 47.1748 68.5716 47.0041 68.9136 47.0041H69.7513C70.4341 47.0041 70.9772 47.0351 71.3813 47.097C71.7842 47.1596 72.1728 47.353 72.5453 47.6789C72.9178 48.0049 73.1039 48.4784 73.1039 49.0991C73.1039 50.4027 72.7621 51.2871 72.0796 51.7529Z" fill="#DBDBDB"/>
</svg>
