<svg width="23" height="21" viewBox="0 0 23 21" fill="none" xmlns="http://www.w3.org/2000/svg">
<g filter="url(#filter0_d_400_2254)">
<path d="M17.798 12.4578H5.1981C4.70035 12.4578 4.29688 12.0543 4.29688 11.5566V6.30748C4.29688 5.80976 4.70035 5.40625 5.1981 5.40625H17.798C18.2957 5.40625 18.6992 5.80973 18.6992 6.30748V11.5566C18.6992 12.0543 18.2958 12.4578 17.798 12.4578Z" fill="white"/>
<path d="M17.7999 5.10822H13.7293L11.7419 2.36659C11.6857 2.28904 11.5958 2.24316 11.5 2.24316C11.4042 2.24316 11.3143 2.28907 11.2581 2.36659L9.27067 5.10822H5.20003C4.53833 5.10822 4 5.64655 4 6.30824V11.5573C4 12.219 4.53833 12.7574 5.20003 12.7574H17.8C18.4617 12.7574 19 12.219 19 11.5573V6.30824C19 5.64655 18.4616 5.10822 17.7999 5.10822ZM11.5 3.05108L12.9912 5.10819H10.0088L11.5 3.05108ZM18.4024 11.5573C18.4024 11.8895 18.1321 12.1598 17.7999 12.1598H5.20003C4.86786 12.1598 4.5976 11.8895 4.5976 11.5573V6.30824C4.5976 5.97608 4.86783 5.70581 5.20003 5.70581H17.8C18.1321 5.70581 18.4024 5.97605 18.4024 6.30824V11.5573H18.4024Z" fill="white"/>
<path d="M14.9145 11.2275H14.7832C14.6181 11.2275 14.4844 11.3613 14.4844 11.5263C14.4844 11.6914 14.6181 11.8251 14.7832 11.8251H14.9145C15.0796 11.8251 15.2133 11.6914 15.2133 11.5263C15.2133 11.3613 15.0796 11.2275 14.9145 11.2275Z" fill="white"/>
<path d="M17.6094 11.2275H15.8691C15.7041 11.2275 15.5703 11.3613 15.5703 11.5263C15.5703 11.6914 15.7041 11.8251 15.8691 11.8251H17.6094C17.7745 11.8251 17.9082 11.6914 17.9082 11.5263C17.9082 11.3613 17.7745 11.2275 17.6094 11.2275Z" fill="white"/>
<path d="M8.91187 9.50673C8.91187 9.14069 7.9529 9.20418 7.9529 8.49631C7.9529 8.0425 8.3492 7.87012 8.72733 7.87012C8.88764 7.87012 9.32932 7.90035 9.32932 8.13631C9.32932 8.21796 9.27486 8.38436 9.14177 8.38436C9.03284 8.38436 8.97539 8.2694 8.72733 8.2694C8.51256 8.2694 8.42481 8.35712 8.42481 8.45093C8.42481 8.75345 9.38379 8.69594 9.38379 9.4583C9.38379 9.89391 9.06612 10.1299 8.62749 10.1299C8.23119 10.1299 7.89844 9.9363 7.89844 9.73665C7.89844 9.63379 7.98917 9.48256 8.10413 9.48256C8.24634 9.48256 8.33707 9.70641 8.61844 9.70641C8.75757 9.70635 8.91187 9.65192 8.91187 9.50673Z" fill="#18BDF6"/>
<path d="M9.83594 9.40428V8.60261C9.83594 8.08226 10.1596 7.88867 10.5771 7.88867C10.9946 7.88867 11.3213 8.08226 11.3213 8.60261V9.40425C11.3213 9.92459 10.9945 10.1182 10.5771 10.1182C10.1596 10.1182 9.83594 9.92462 9.83594 9.40428ZM10.8493 8.60261C10.8493 8.39387 10.7465 8.30006 10.5771 8.30006C10.4077 8.30006 10.3079 8.39387 10.3079 8.60261V9.40425C10.3079 9.61299 10.4077 9.70677 10.5771 9.70677C10.7465 9.70677 10.8493 9.61299 10.8493 9.40425V8.60261Z" fill="#18BDF6"/>
<path d="M12.0729 10.1001C11.97 10.1001 11.8672 10.0517 11.8672 9.95486V8.03085C11.8672 7.93101 11.9852 7.88867 12.1031 7.88867C12.2211 7.88867 12.3391 7.93101 12.3391 8.03085V9.68861H13.0288C13.1196 9.68861 13.165 9.79147 13.165 9.89433C13.165 9.99719 13.1196 10.1 13.0288 10.1H12.0729V10.1001Z" fill="#18BDF6"/>
<path d="M14.3388 7.8887C14.7563 7.8887 15.083 8.08229 15.083 8.60264V9.38615C15.083 9.90649 14.7563 10.1001 14.3388 10.1001H13.8034C13.6793 10.1001 13.5977 10.0335 13.5977 9.95791V8.03085C13.5977 7.95523 13.6793 7.88867 13.8034 7.88867H14.3388V7.8887ZM14.0696 8.30015V9.6887H14.3389C14.5083 9.6887 14.6111 9.59187 14.6111 9.38618V8.60264C14.6111 8.39691 14.5083 8.30009 14.3389 8.30009L14.0696 8.30015Z" fill="#18BDF6"/>
</g>
<defs>
<filter id="filter0_d_400_2254" x="0" y="0" width="23" height="23" filterUnits="userSpaceOnUse" color-interpolation-filters="sRGB">
<feFlood flood-opacity="0" result="BackgroundImageFix"/>
<feColorMatrix in="SourceAlpha" type="matrix" values="0 0 0 0 0 0 0 0 0 0 0 0 0 0 0 0 0 0 127 0" result="hardAlpha"/>
<feOffset dy="4"/>
<feGaussianBlur stdDeviation="2"/>
<feComposite in2="hardAlpha" operator="out"/>
<feColorMatrix type="matrix" values="0 0 0 0 0 0 0 0 0 0 0 0 0 0 0 0 0 0 0.25 0"/>
<feBlend mode="normal" in2="BackgroundImageFix" result="effect1_dropShadow_400_2254"/>
<feBlend mode="normal" in="SourceGraphic" in2="effect1_dropShadow_400_2254" result="shape"/>
</filter>
</defs>
</svg>
