<svg width="20" height="20" viewBox="0 0 20 20" fill="none" xmlns="http://www.w3.org/2000/svg">
<g clip-path="url(#clip0_429_379)">
<path d="M9.99953 19.2547C10.1652 19.1719 14.4716 17.3085 15.838 16.1905C17.2459 15.0311 17.9912 13.3748 17.9912 11.3872V2.0704L17.867 2.029C14.4302 0.165643 10.1652 0.289866 9.95812 0.289866C9.79249 0.289866 5.52748 0.165643 2.09063 2.029L2.00781 2.0704V11.4286C2.00781 13.4162 2.75315 15.0725 4.16102 16.2319C5.52748 17.3499 9.8339 19.2133 9.99953 19.2547Z" fill="#341B14"/>
<path d="M10.0011 19.4617C10.0011 19.4617 5.44623 17.4741 4.03837 16.3561C2.54768 15.1138 1.84375 13.4161 1.84375 11.4699V1.7805C5.44623 -0.165667 10.0011 -3.57791e-05 10.0011 -3.57791e-05C10.0011 -3.57791e-05 14.556 -0.165667 18.1585 1.7805V11.4285C18.1585 13.3747 17.4545 15.0724 15.9638 16.3147C14.556 17.4741 10.0011 19.4617 10.0011 19.4617ZM2.50628 11.4699C2.50628 13.2919 3.1688 14.7826 4.45245 15.8178C5.61187 16.7701 9.04872 18.3022 10.0011 18.7163C10.9535 18.3022 14.4317 16.7287 15.5498 15.8178C16.8334 14.7826 17.4959 13.2505 17.4959 11.4699V1.94613C12.6926 1.49065 6.97833 1.73909 2.50628 5.87988V11.4699Z" fill="#FFB406"/>
<path d="M14.5981 10.1036C15.2192 10.4762 15.4677 10.7247 15.5091 11.1802C15.5091 11.6771 15.1778 11.9669 14.6395 11.9669C14.184 11.9669 13.6457 11.7185 13.273 11.3872V12.7123C13.7285 12.9607 14.2668 13.1678 14.8465 13.1678C16.2544 13.1678 16.9169 12.174 16.9169 11.263C16.9583 10.4348 16.7099 9.77231 15.5091 9.06838C14.9708 8.73711 14.5567 8.53008 14.5567 8.03318C14.5567 7.53629 15.0122 7.32925 15.3848 7.32925C15.8817 7.32925 16.3786 7.6191 16.6685 7.90896V6.66672C16.42 6.45968 15.8817 6.16983 15.095 6.21123C14.1426 6.25264 13.1488 6.91517 13.1488 8.07459C13.1902 8.86134 13.4387 9.44105 14.5981 10.1036ZM9.71197 13.0849C9.8362 13.1263 10.0432 13.1678 10.3745 13.1678C11.9894 13.1678 12.9004 11.7185 12.9004 9.64809C12.9004 7.53629 11.948 6.25264 10.2503 6.25264C9.46352 6.25264 8.84241 6.41827 8.3041 6.74954V16.1077H9.71197V13.0849ZM9.71197 7.45347C9.8362 7.41206 10.0432 7.32925 10.2089 7.32925C11.037 7.32925 11.3683 7.99177 11.3683 9.60668C11.3683 11.1802 10.9542 11.9255 10.1261 11.9255C9.91901 11.9255 9.75338 11.8841 9.67056 11.8427V7.45347H9.71197ZM5.36415 13.1678C6.23371 13.1678 6.97905 12.9607 7.51735 12.588V6.33546H6.06808V11.7599C5.90245 11.8841 5.69541 11.9255 5.40555 11.9255C4.74303 11.9255 4.66021 11.3044 4.66021 10.9317V6.33546H3.21094V10.8489C3.21094 12.381 3.95628 13.1678 5.36415 13.1678ZM15.0122 18.7578V19.7102H15.1778V19.3375H15.2192L15.4677 19.7102H15.6747C15.6747 19.7102 15.4263 19.3375 15.3848 19.2961C15.5091 19.2547 15.5919 19.1719 15.5919 19.0477C15.5919 18.9235 15.5091 18.7578 15.2606 18.7578H15.0122ZM15.2606 18.882C15.3848 18.882 15.4263 18.9649 15.4263 19.0063C15.4263 19.0891 15.3848 19.1719 15.2192 19.1719H15.1778V18.882H15.2606Z" fill="#FFB406"/>
<path d="M15.9196 19.2133C15.9196 19.5445 15.6297 19.8344 15.2985 19.8344C14.9672 19.8344 14.6773 19.5445 14.6773 19.2133C14.6773 18.882 14.9672 18.5921 15.2985 18.5921C15.6711 18.5921 15.9196 18.882 15.9196 19.2133ZM15.2985 18.4265C14.8844 18.4265 14.5117 18.7578 14.5117 19.2133C14.5117 19.6273 14.843 20 15.2985 20C15.7125 20 16.0852 19.6688 16.0852 19.2133C16.0852 18.7992 15.7125 18.4265 15.2985 18.4265Z" fill="#FFB406"/>
</g>
<defs>
<clipPath id="clip0_429_379">
<rect width="20" height="20" fill="white"/>
</clipPath>
</defs>
</svg>
