<svg width="18" height="18" viewBox="0 0 18 18" fill="none" xmlns="http://www.w3.org/2000/svg">
<path fill-rule="evenodd" clip-rule="evenodd" d="M10.125 0H7.875L7.25561 2.47757C6.67676 2.63198 6.12853 2.8614 5.62196 3.15479L3.43154 1.84054L1.84056 3.43153L3.1548 5.62194C2.86142 6.12852 2.63198 6.67675 2.47757 7.25561L0 7.875V10.125L2.47757 10.7444C2.63198 11.3232 2.8614 11.8714 3.1548 12.378L1.84056 14.5684L3.43154 16.1595L5.62195 14.8452C6.12852 15.1386 6.67675 15.3681 7.25561 15.5224L7.875 18H10.125L10.7444 15.5224C11.3232 15.3681 11.8714 15.1386 12.378 14.8452L14.5685 16.1595L16.1595 14.5684L14.8452 12.378C15.1386 11.8714 15.3681 11.3232 15.5224 10.7444L18 10.125V7.875L15.5224 7.25561C15.3681 6.67676 15.1386 6.12853 14.8452 5.62196L16.1595 3.43153L14.5685 1.84053L12.378 3.15479C11.8714 2.8614 11.3232 2.63198 10.7444 2.47757L10.125 0ZM9 11.25C10.2426 11.25 11.25 10.2426 11.25 9C11.25 7.75736 10.2426 6.75 9 6.75C7.75736 6.75 6.75 7.75736 6.75 9C6.75 10.2426 7.75736 11.25 9 11.25Z" fill="#F8FAFF"/>
</svg>
