<svg width="13" height="16" viewBox="0 0 13 16" fill="none" xmlns="http://www.w3.org/2000/svg">
<path d="M11.4962 6.44431V3.93202C11.4962 1.76391 9.68484 0 7.45844 0H5.54152C3.31512 0 1.50379 1.76391 1.50379 3.93202V6.44431C0.532597 7.57993 0 9.00985 0 10.4929C0 11.6074 0.301761 12.7034 0.872639 13.6624C1.42615 14.5924 2.21955 15.3758 3.16704 15.9279C3.24806 15.9751 3.3407 16 3.43508 16H9.56492C9.6593 16 9.75197 15.9751 9.83296 15.9279C10.7805 15.3758 11.5738 14.5924 12.1274 13.6624C12.6982 12.7034 13 11.6074 13 10.4929C13 9.00985 12.4674 7.57993 11.4962 6.44431ZM11.2241 13.1526C10.7828 13.894 10.1599 14.5246 9.41708 14.9833H3.58292C2.84012 14.5246 2.21722 13.894 1.7759 13.1526C1.29711 12.3483 1.04403 11.4285 1.04403 10.4929C1.04403 9.1931 1.53142 7.94195 2.41642 6.96991C2.50109 6.87692 2.54783 6.75695 2.54783 6.63268V3.93205C2.54783 2.32451 3.8908 1.01673 5.54152 1.01673H7.45844C9.10916 1.01673 10.4521 2.32455 10.4521 3.93205V6.63268C10.4521 6.75695 10.4989 6.87692 10.5835 6.96991C11.4685 7.94195 11.9559 9.19313 11.9559 10.4929C11.9559 11.4285 11.7029 12.3482 11.2241 13.1526Z" fill="white"/>
</svg>
