<svg width="20" height="20" viewBox="0 0 20 20" fill="none" xmlns="http://www.w3.org/2000/svg">
<path fill-rule="evenodd" clip-rule="evenodd" d="M17.8278 16.1786C19.161 14.48 19.8932 12.3872 19.9096 10.228C19.926 8.06875 19.2257 5.96506 17.9184 4.24646C16.954 2.97763 15.6934 1.96435 14.2469 1.29521C12.8004 0.626071 11.212 0.321437 9.6206 0.407939C8.02918 0.494441 6.48318 0.969446 5.11773 1.79143C3.75229 2.61341 2.60898 3.75735 1.78774 5.12325V1.78755H0.393799V6.66634L1.09077 7.36331H5.96956V5.96937H2.91822C3.84942 4.35953 5.28998 3.10544 7.01275 2.40485C8.73551 1.70427 10.6425 1.59705 12.4329 2.1001C14.2233 2.60316 15.7954 3.68786 16.9012 5.18317C18.007 6.67849 18.5836 8.49933 18.5401 10.3586C18.4966 12.2178 17.8354 14.0097 16.6609 15.4517C15.4864 16.8937 13.8653 17.9036 12.0533 18.3224C10.2413 18.7412 8.34149 18.5449 6.65338 17.7645C4.96527 16.9841 3.58493 15.664 2.73004 14.0124L1.49362 14.6564C2.24652 16.1046 3.35068 17.3408 4.705 18.2518C6.05932 19.1628 7.62053 19.7195 9.24569 19.8709C10.8709 20.0224 12.5081 19.7637 14.0074 19.1187C15.5067 18.4736 16.8203 17.4627 17.8278 16.1786ZM13.1428 14.8265L14.1297 13.8409L10.1514 9.86125V4.57543H8.75744V10.1512L8.96095 10.6446L13.1428 14.8265Z" fill="white"/>
</svg>
