<svg width="15" height="15" viewBox="0 0 15 15" fill="none" xmlns="http://www.w3.org/2000/svg">
<path d="M14.7365 5.89617L12.8597 4.36652V1.92018C12.8597 1.6447 12.6355 1.42055 12.3601 1.42055H11.1791C10.9036 1.42055 10.6795 1.6447 10.6795 1.92018V2.58955L8.17164 0.545642C7.99022 0.397842 7.75113 0.316401 7.4984 0.316401C7.24668 0.316401 7.00872 0.397342 6.82831 0.544371L0.263446 5.89613C-0.0348352 6.13918 -0.0169392 6.35088 0.0202607 6.45544C0.0573698 6.55978 0.176873 6.73483 0.560046 6.73483H1.45898V13.7727C1.45898 14.275 1.8665 14.6835 2.3674 14.6835H5.20622C5.70291 14.6835 6.09194 14.2834 6.09194 13.7727V10.8866C6.09194 10.6392 6.31927 10.414 6.56886 10.414H8.47655C8.71447 10.414 8.90805 10.626 8.90805 10.8866V13.7727C8.90805 14.2664 9.33447 14.6835 9.83918 14.6835H12.6326C13.1335 14.6835 13.541 14.2749 13.541 13.7727V6.73483H14.4399C14.8231 6.73483 14.9426 6.55978 14.9797 6.45544C15.0169 6.35088 15.0348 6.13918 14.7365 5.89617Z" fill="white"/>
</svg>
