<svg width="19" height="19" viewBox="0 0 19 19" fill="none" xmlns="http://www.w3.org/2000/svg">
<path d="M18.6006 15.2915C18.5185 15.1926 18.4379 15.0938 18.3588 14.9983C17.2712 13.6828 16.6132 12.8888 16.6132 9.16472C16.6132 7.23666 16.1519 5.65466 15.2428 4.46816C14.5724 3.59163 13.6662 2.9267 12.4718 2.43529C12.4564 2.42674 12.4427 2.41552 12.4313 2.40217C12.0017 0.963536 10.826 0 9.50012 0C8.17421 0 6.99908 0.963536 6.56947 2.40068C6.558 2.41355 6.54447 2.42441 6.52942 2.43282C3.74214 3.58026 2.38755 5.78171 2.38755 9.16323C2.38755 12.8888 1.73053 13.6828 0.641918 14.9969C0.562818 15.0923 0.482235 15.1892 0.400168 15.29C0.188181 15.5457 0.0538694 15.8567 0.0131292 16.1863C-0.0276111 16.5159 0.0269252 16.8503 0.170284 17.1499C0.475313 17.7925 1.12542 18.1915 1.86747 18.1915H17.1382C17.8768 18.1915 18.5225 17.793 18.8285 17.1533C18.9725 16.8537 19.0275 16.519 18.9871 16.189C18.9467 15.8591 18.8126 15.5476 18.6006 15.2915Z" fill="#3B69E4"/>
</svg>
