<svg width="16" height="21" viewBox="0 0 16 21" fill="none" xmlns="http://www.w3.org/2000/svg">
<path d="M7.83511 20.7998C7.62705 20.7024 7.4525 20.5453 7.33383 20.3484C5.40154 17.6132 3.45463 14.8884 1.53286 12.1451C0.800885 11.0921 0.357771 9.86586 0.247531 8.58818C-0.0768893 5.2601 1.72221 2.05884 4.77376 0.738406C7.7356 -0.544917 10.5331 -0.153877 13.0377 1.89912C13.7929 2.51298 14.4193 3.27006 14.8812 4.12669C15.343 4.98343 15.6313 5.92273 15.7292 6.89108C15.978 8.83629 15.4686 10.8026 14.3065 12.3823C12.4358 15.017 10.564 17.6566 8.69047 20.3008C8.5686 20.5174 8.3836 20.6916 8.16003 20.8L7.83511 20.7998ZM10.5912 7.82913C10.5938 7.14258 10.3244 6.483 9.84197 5.9946C9.35941 5.50625 8.70302 5.22898 8.01659 5.2233C7.33004 5.21764 6.6693 5.48416 6.17887 5.96456C5.68847 6.44496 5.40831 7.10001 5.39973 7.7866C5.39102 8.473 5.65479 9.13492 6.133 9.62747C6.61121 10.1199 7.26511 10.403 7.95155 10.4145C8.64478 10.4229 9.31276 10.1549 9.8081 9.66971C10.3033 9.18466 10.585 8.52232 10.5911 7.82909L10.5912 7.82913Z" fill="#FFB406"/>
</svg>
