<svg width="20" height="24" viewBox="0 0 20 24" fill="none" xmlns="http://www.w3.org/2000/svg">
<path d="M16.9937 13.5518C17.1812 13.8084 17.3374 14.0704 17.4199 14.3407H16.2577C15.7438 14.781 15.3027 14.9136 14.8476 14.9136C14.3941 14.9136 13.9444 14.7795 13.4249 14.3407H10.367V10.9121C10.593 10.9223 10.8081 10.9568 11.0292 10.9772C10.239 9.54671 9.23462 7.45233 8.91924 6.08461C8.90821 6.03749 8.90429 5.99043 8.89413 5.94336C4.27772 6.34973 0.644531 10.232 0.644531 14.9513C0.644531 19.9404 4.70379 23.9997 9.69368 23.9997C14.6828 23.9997 18.7412 19.9404 18.7412 14.9513C18.7412 14.9513 18.7412 14.9513 18.7412 14.9509C18.7412 14.9509 18.7412 14.9505 18.7412 14.9501C18.7412 13.8425 18.5309 12.7851 18.1654 11.8034C17.7251 12.5426 17.3406 13.1135 16.9937 13.5518ZM6.3736 7.87293C5.8699 8.56388 5.44688 9.4133 5.12284 10.38C4.15534 10.7045 3.30549 11.1282 2.61425 11.6327C3.39096 9.98293 4.7242 8.64969 6.3736 7.87293ZM4.73121 11.8419C4.5681 12.6273 4.46609 13.4642 4.43314 14.3407H1.96993C2.27284 13.3517 3.28585 12.4669 4.73121 11.8419ZM1.96993 15.5617H4.43314C4.46609 16.4379 4.5681 17.2748 4.73121 18.0602C3.28658 17.4352 2.27356 16.5509 1.96993 15.5617ZM2.6142 18.2693C3.30472 18.7743 4.15529 19.198 5.12201 19.5225C5.44688 20.4892 5.8699 21.3387 6.3736 22.0296C4.7242 21.2527 3.39096 19.9196 2.6142 18.2693ZM9.14601 22.6947C8.1313 22.4164 7.22268 21.3897 6.58469 19.9141C7.38903 20.0812 8.24667 20.1836 9.14601 20.2135V22.6947ZM9.14601 18.9932C8.0631 18.952 7.03364 18.7931 6.1077 18.5377C5.8565 17.629 5.69798 16.6214 5.65319 15.5617H9.14596V18.9932H9.14601ZM9.14601 14.3407H5.65324C5.69803 13.2806 5.8565 12.2731 6.10774 11.3644C7.03369 11.109 8.06314 10.9501 9.14606 10.9089V14.3407H9.14601ZM9.14601 9.68873C8.24667 9.71886 7.38903 9.82132 6.58469 9.98805C7.22268 8.5128 8.13217 7.486 9.14601 7.20786V9.68873ZM10.367 15.5617H13.7341C13.6894 16.6234 13.53 17.633 13.2789 18.5428C12.3773 18.7907 11.3942 18.9438 10.367 18.9901V15.5617ZM10.367 22.6947V20.2107C11.2089 20.1754 12.0266 20.0734 12.8042 19.911C12.1922 21.3269 11.3313 22.3678 10.367 22.6947ZM13.0138 22.0293C13.5191 21.3363 13.9436 20.4842 14.2677 19.5143C14.8719 19.3106 15.4416 19.0701 15.9557 18.7857C16.2561 18.6193 16.5253 18.4396 16.7794 18.2537C16.0042 19.911 14.6687 21.2496 13.0138 22.0293ZM15.3646 17.7173C15.1402 17.8412 14.9017 17.9543 14.6561 18.0614C14.8193 17.2755 14.9213 16.4386 14.9543 15.5617H17.419C17.1765 16.3543 16.4734 17.1041 15.3646 17.7173Z" fill="#F8FAFF"/>
<path d="M14.848 0C11.6308 0 9.80477 2.77434 10.4852 5.7236C10.9701 7.82383 13.897 13.3069 14.848 13.3069C15.7371 13.3069 18.719 7.82223 19.2109 5.7236C19.8968 2.80332 18.0857 0 14.848 0ZM14.899 5.65143C13.9559 5.65143 13.1916 4.8871 13.1916 3.94389C13.1916 3.00068 13.9559 2.2364 14.899 2.2364C15.8423 2.2364 16.6065 3.00068 16.6065 3.94389C16.6065 4.8871 15.8423 5.65143 14.899 5.65143Z" fill="#F8FAFF"/>
</svg>
