<svg width="22" height="21" viewBox="0 0 22 21" fill="none" xmlns="http://www.w3.org/2000/svg">
<path d="M19.3674 9.24625C19.5784 9.53488 19.7541 9.82973 19.8469 10.1338H18.5394C17.9613 10.6291 17.4651 10.7783 16.9531 10.7783C16.4429 10.7783 15.937 10.6274 15.3525 10.1338H11.9124V6.27656C12.1666 6.28804 12.4086 6.32684 12.6574 6.34981C11.7684 4.74053 10.6385 2.38436 10.2837 0.84567C10.2712 0.792666 10.2668 0.739717 10.2554 0.686768C5.06195 1.14394 0.974609 5.51154 0.974609 10.8207C0.974609 16.4334 5.54127 21.0001 11.1549 21.0001C16.7677 21.0001 21.3334 16.4334 21.3334 10.8207C21.3334 10.8207 21.3334 10.8207 21.3334 10.8202C21.3334 10.8202 21.3334 10.8198 21.3334 10.8193C21.3334 9.5733 21.0967 8.38371 20.6855 7.27933C20.1903 8.11096 19.7576 8.75316 19.3674 9.24625ZM7.41981 2.85753C6.85315 3.63485 6.37725 4.59045 6.0127 5.67801C4.92427 6.04305 3.96819 6.51976 3.19054 7.08729C4.06435 5.23128 5.56424 3.73139 7.41981 2.85753ZM5.57213 7.3226C5.38863 8.20625 5.27386 9.14775 5.2368 10.1338H2.46568C2.80646 9.02112 3.94609 8.02574 5.57213 7.3226ZM2.46568 11.5075H5.2368C5.27386 12.4931 5.38863 13.4346 5.57213 14.3182C3.94691 13.6151 2.80727 12.6202 2.46568 11.5075ZM3.19049 14.5535C3.96732 15.1216 4.92422 15.5982 6.01178 15.9633C6.37725 17.0508 6.85315 18.0065 7.41981 18.7837C5.56424 17.9098 4.06435 16.41 3.19049 14.5535ZM10.5388 19.532C9.39723 19.219 8.37502 18.0639 7.65729 16.4038C8.56217 16.5919 9.52702 16.7071 10.5388 16.7406V19.532ZM10.5388 15.3679C9.3205 15.3215 8.16236 15.1427 7.12067 14.8554C6.83807 13.8332 6.65974 12.6996 6.60935 11.5074H10.5387V15.3679H10.5388ZM10.5388 10.1338H6.60941C6.6598 8.94117 6.83807 7.80774 7.12072 6.78548C8.16241 6.49815 9.32055 6.31939 10.5388 6.27302V10.1338H10.5388ZM10.5388 4.90031C9.52702 4.93421 8.56217 5.04947 7.65729 5.23705C8.37502 3.57739 9.39821 2.42224 10.5388 2.10933V4.90031ZM11.9124 11.5075H15.7003C15.6501 12.7018 15.4708 13.8376 15.1883 14.8612C14.174 15.1401 13.0679 15.3123 11.9124 15.3643V11.5075ZM11.9124 19.532V16.7375C12.8596 16.6978 13.7794 16.583 14.6542 16.4004C13.9657 17.9933 12.9972 19.1643 11.9124 19.532ZM14.89 18.7834C15.4585 18.0039 15.936 17.0452 16.3007 15.9541C16.9804 15.725 17.6213 15.4544 18.1996 15.1344C18.5377 14.9472 18.8405 14.745 19.1264 14.5359C18.2543 16.4004 16.7518 17.9063 14.89 18.7834ZM17.5347 13.9324C17.2822 14.0719 17.014 14.1991 16.7376 14.3195C16.9213 13.4354 17.0359 12.494 17.0731 11.5074H19.8459C19.5731 12.3991 18.7821 13.2426 17.5347 13.9324Z" fill="#F8FAFF"/>
</svg>
