<svg width="18" height="18" viewBox="0 0 18 18" fill="none" xmlns="http://www.w3.org/2000/svg">
<path d="M17.7331 10.2845C17.625 9.93554 17.2985 9.757 17.0052 9.88553L9.60305 13.1193C9.1414 12.3165 8.34204 11.8762 7.5281 11.9749L4.10487 0.935666L0.692375 0.0169193C0.38811 -0.0656133 0.0832944 0.161825 0.0141382 0.524279C-0.0550181 0.886733 0.136221 1.24743 0.441589 1.32951L3.25354 2.08675L6.46573 12.4457C5.65464 13.1222 5.2922 14.3821 5.65107 15.5383C6.07872 16.9171 7.36697 17.6239 8.52878 17.1163C9.49972 16.6919 10.0723 15.5536 9.98538 14.3863L17.397 11.1487C17.6906 11.02 17.8412 10.6333 17.7331 10.2845ZM8.17008 15.9598C7.54645 16.2326 6.85463 15.8528 6.62504 15.1129C6.39562 14.3722 6.71498 13.5515 7.33878 13.2787C7.9624 13.0062 8.65443 13.3857 8.88402 14.1257C9.11362 14.8661 8.7937 15.6871 8.17008 15.9598Z" fill="white"/>
<path d="M16.2209 8.29323L13.8448 0.629883L10.8866 1.92233L11.5404 4.03056L10.3482 4.55115L9.69454 2.44316L6.73633 3.73537L9.11249 11.3987L16.2209 8.29323ZM14.5884 6.88348L14.8494 7.72553L12.2083 8.87934L11.9473 8.03729L14.5884 6.88348Z" fill="white"/>
</svg>
