<svg width="39" height="13" viewBox="0 0 39 13" fill="none" xmlns="http://www.w3.org/2000/svg">
<path d="M20 0.90625H21.8088V0.975159V11.5869V11.6653H19.9381V11.4083V10.9083H19.4381H19.4095H19.1372L18.9894 11.1372C18.5961 11.7466 17.9636 12.0938 17.2815 12.0938C15.9081 12.0938 14.7945 11.1351 14.3268 9.81569L14.4901 9.39679H14.2032C14.1653 9.23765 14.1364 9.07457 14.1172 8.90846L14.0658 8.46606H13.8996L14.2351 7.27334C14.6453 5.81528 15.7864 4.77673 17.2458 4.77673C17.9813 4.77673 18.5499 4.9783 19.0186 5.53978L19.1685 5.71936H19.4024H19.5H20V5.21936V0.90625ZM11.4463 10.3968H12.9548C11.1203 13.3672 6.32477 12.2277 6.32477 8.38763C6.32477 8.0193 6.36901 7.67018 6.45009 7.34805L6.60664 6.72601H5.96521H2.98499H2.48499V7.22601V11.6653H0.5V0.913391H6.14124V2.5318H2.98499H2.48499V3.0318V4.70282V5.20282H2.98499H5.82465V6.2453L6.76514 6.48187C7.40416 5.292 8.78408 4.64106 10.1561 4.72813C11.5021 4.81355 12.7899 5.60749 13.2735 7.27705L13.6179 8.46606H8.40985H7.90985V8.96606C7.90985 9.94191 8.53109 10.6849 9.29862 10.9628C10.0118 11.221 10.8583 11.0791 11.4463 10.3968ZM11.321 7.7522H11.9186L11.8132 7.16398C11.6232 6.10408 10.7985 5.51978 9.94018 5.51204C9.08101 5.5043 8.23772 6.07268 8.00025 7.14399L7.86544 7.7522H8.4884H11.321ZM17.8361 10.8705C18.5464 10.8705 19.0808 10.5217 19.4166 10.0249C19.7409 9.54529 19.8777 8.93766 19.8694 8.36136C19.8611 7.78453 19.7066 7.1826 19.3822 6.70954C19.0492 6.22383 18.5264 5.8667 17.8361 5.8667C17.1325 5.8667 16.5974 6.21609 16.2555 6.70622C15.9235 7.18204 15.7712 7.7875 15.7685 8.36631C15.7659 8.94496 15.9127 9.55223 16.2446 10.0301C16.5873 10.5236 17.1262 10.8705 17.8361 10.8705Z" stroke="#FF912C"/>
</svg>
