<svg width="23" height="20" viewBox="0 0 23 20" fill="none" xmlns="http://www.w3.org/2000/svg">
<path d="M0 2.67673L1.27257 2.13184L1.57437 2.83677L0.301796 3.38167L0 2.67673Z" fill="#FF912C"/>
<path d="M2.91895 1.66013L4.19152 1.11523L4.49332 1.82017L3.22074 2.36507L2.91895 1.66013Z" fill="#FF912C"/>
<path d="M2.0708 1.37442L2.23497 0L2.99639 0.0908976L2.83222 1.46532L2.0708 1.37442Z" fill="#FF912C"/>
<path d="M0.292969 1.1334L0.75276 0.519531L1.86065 1.34928L1.40086 1.96315L0.292969 1.1334Z" fill="#FF912C"/>
<path d="M9.49009 17.6249L10.5369 9.7718C10.644 8.93333 10.9737 8.13887 11.4917 7.47109C11.1485 7.21928 10.7827 6.99982 10.3989 6.81546V4.94032C10.3989 4.83863 10.3585 4.74106 10.2866 4.66916C10.2147 4.59727 10.1171 4.55687 10.0154 4.55687H7.71473V3.02306C7.71473 2.61633 7.55313 2.22618 7.26555 1.93844C6.97779 1.65086 6.58765 1.48926 6.18093 1.48926H5.79748C5.39075 1.48926 5.0006 1.65086 4.71286 1.93844C4.42527 2.2262 4.26367 2.61634 4.26367 3.02306C4.26367 3.29713 4.11748 3.5503 3.88022 3.68724C3.64296 3.82419 3.35058 3.82419 3.11332 3.68724C2.87606 3.5503 2.72987 3.29712 2.72987 3.02306V2.63961H1.96297V3.02306C1.96297 3.57102 2.25535 4.0774 2.72987 4.35142C3.20438 4.62532 3.78916 4.62532 4.26367 4.35142C4.73819 4.07736 5.03057 3.57098 5.03057 3.02306C5.03057 2.8197 5.11138 2.62454 5.25517 2.48075C5.39896 2.33696 5.59411 2.25616 5.79748 2.25616H6.18093C6.38429 2.25616 6.57944 2.33696 6.72324 2.48075C6.86703 2.62454 6.94783 2.8197 6.94783 3.02306V4.55687H4.64712C4.43537 4.55687 4.26367 4.72856 4.26367 4.94032V6.81546C2.14426 7.89784 0.732155 9.99569 0.526757 12.367C0.321507 14.7379 1.35203 17.0472 3.25386 18.4781C5.15556 19.9088 7.66026 20.2589 9.88121 19.4045C9.5474 18.8752 9.4091 18.2458 9.49005 17.6252L9.49009 17.6249Z" fill="#FF912C"/>
<path d="M13.5396 3.63205C13.9684 4.16976 14.3053 4.77487 14.5365 5.42261C14.7558 5.33685 14.9921 5.30278 15.2267 5.32299C18.4706 5.32299 18.1985 5.25776 18.6586 5.48013C18.9073 4.82739 19.2073 4.19524 19.5558 3.58974C19.6366 3.45553 19.6275 3.28572 19.533 3.16075C19.4384 3.03596 19.2774 2.98101 19.1263 3.02226C18.1101 3.23692 17.8686 3.43635 17.4391 3.27921L17.1784 3.18335C16.4536 2.9187 15.9053 3.24857 15.6177 3.30609C15.2343 3.42489 15.0042 3.25627 13.942 3.02226H13.9422C13.7815 2.9769 13.6101 3.04075 13.518 3.1801C13.4261 3.31927 13.4348 3.50209 13.5396 3.632L13.5396 3.63205Z" fill="#FF912C"/>
<path d="M15.2725 11.8421C15.2725 12.0455 15.3533 12.2406 15.4972 12.3844C15.641 12.5282 15.836 12.609 16.0394 12.609H16.1506V11.0752H16.0394C15.836 11.0752 15.641 11.156 15.4972 11.2998C15.3533 11.4436 15.2725 11.6387 15.2725 11.8421Z" fill="#FF912C"/>
<path d="M16.918 14.9098H17.0292C17.3031 14.9098 17.5563 14.7636 17.6932 14.5263C17.8304 14.2891 17.8304 13.9967 17.6932 13.7594C17.5563 13.5222 17.3031 13.376 17.0292 13.376H16.918V14.9098Z" fill="#FF912C"/>
<path d="M21.7724 9.87113C21.5958 8.54807 20.7739 7.3989 19.5792 6.80352C18.2026 6.12497 18.2255 6.09039 18.0683 6.09039C14.809 6.09039 14.9739 6.05975 14.8282 6.1325L13.4899 6.79979C12.2952 7.395 11.4733 8.54434 11.2966 9.8674L10.2497 17.7244C10.1764 18.2751 10.3455 18.8304 10.7132 19.2467C11.0811 19.6632 11.6114 19.8995 12.1669 19.8947H20.9175C21.473 19.8995 22.0033 19.6632 22.3712 19.2467C22.7391 18.8304 22.9082 18.2751 22.8348 17.7244L21.7724 9.87113ZM17.0295 12.6091C17.5774 12.6091 18.0838 12.9014 18.3577 13.376C18.6318 13.8505 18.6318 14.4352 18.3577 14.9098C18.0838 15.3843 17.5774 15.6767 17.0295 15.6767H16.9182V16.6084H16.1513V15.6767H16.04C15.6333 15.6767 15.2432 15.5151 14.9556 15.2275C14.6678 14.9397 14.5062 14.5496 14.5062 14.1429H15.2731C15.2731 14.3462 15.3539 14.5414 15.4979 14.6852C15.6417 14.829 15.8367 14.9098 16.04 14.9098H16.1513V13.376H16.04C15.4921 13.376 14.9857 13.0836 14.7118 12.6091C14.4377 12.1345 14.4377 11.5498 14.7118 11.0753C14.9857 10.6007 15.4921 10.3084 16.04 10.3084H16.1513V9.37659H16.9182V10.3084H17.0295C17.4362 10.3084 17.8264 10.4699 18.1139 10.7575C18.4017 11.0453 18.5633 11.4354 18.5633 11.8422H17.7964C17.7964 11.6388 17.7156 11.4436 17.5716 11.2998C17.4278 11.1561 17.2328 11.0753 17.0295 11.0753H16.9182V12.6091H17.0295Z" fill="#FF912C"/>
</svg>
