<svg width="16" height="23" viewBox="0 0 16 23" fill="none" xmlns="http://www.w3.org/2000/svg">
<path d="M8 23C12.4112 23 16 19.4044 16 14.9848C16 12.9099 15.2088 11.0166 13.913 9.59177V5.92424C13.913 2.65762 11.2605 0 8 0C4.73955 0 2.08703 2.65762 2.08703 5.92424V9.59163C0.791165 11.0166 0 12.9099 0 14.9848C0 19.4044 3.5888 23 8 23ZM9.04348 15.3324V16.7273C9.04348 17.3046 8.57628 17.7727 8 17.7727C7.42372 17.7727 6.95652 17.3046 6.95652 16.7273V15.3324C6.5344 15.0142 6.26087 14.5083 6.26087 13.9394C6.26087 12.9786 7.04104 12.197 8 12.197C8.95896 12.197 9.73913 12.9786 9.73913 13.9394C9.73913 14.5083 9.4656 15.0142 9.04348 15.3324ZM4.17398 5.92424C4.17398 3.81054 5.89037 2.09091 8 2.09091C10.1097 2.09091 11.8261 3.81054 11.8261 5.92424V7.94748C10.6888 7.32432 9.38504 6.9697 8 6.9697C6.61503 6.9697 5.31123 7.32432 4.17398 7.94741V5.92424Z" fill="#D60000"/>
</svg>
