<svg width="21" height="21" viewBox="0 0 21 21" fill="none" xmlns="http://www.w3.org/2000/svg">
<g clip-path="url(#clip0_1857_1076)">
<path d="M10.5 21C4.7104 21 0 16.2896 0 10.5C0 4.7104 4.7104 0 10.5 0C16.2896 0 21 4.7104 21 10.5C21 16.2896 16.2896 21 10.5 21Z" fill="#00D2FF"/>
<path d="M15.4 17.4999C9.61041 17.4999 4.90001 12.7895 4.90001 6.99989C4.90001 4.5764 5.73337 2.34831 7.11777 0.569336C2.98462 1.98138 0 5.89464 0 10.4999C0 16.2895 4.7104 20.9999 10.5 20.9999C13.8661 20.9999 16.8594 19.4013 18.7822 16.9304C17.7192 17.2936 16.5843 17.4999 15.4 17.4999Z" fill="#18BDF6"/>
<path d="M15.752 11.9837C15.752 10.7641 14.9403 9.73146 13.8291 9.39523V7.72388C13.1575 7.36175 12.4858 7.24121 11.8893 7.24121C10.7013 7.24121 9.81104 7.71917 9.81104 7.71917C9.81104 7.71917 8.92064 7.24128 7.73282 7.24121C7.13617 7.24117 6.46469 7.36168 5.79297 7.72388V13.7706C5.79297 13.7706 6.67553 13.2926 7.86594 13.2926C8.46126 13.2926 9.13342 13.412 9.81102 13.7706C10.1296 13.602 10.4468 13.4878 10.7556 13.4125C11.234 14.1769 12.0812 14.688 13.0477 14.688C13.6039 14.688 14.1213 14.5189 14.5516 14.2298L15.9888 15.7008L16.4656 15.2344L15.0545 13.79C15.4865 13.3105 15.752 12.6783 15.752 11.9837ZM6.46001 12.8145V8.14732C6.85877 7.98849 7.28533 7.90823 7.73275 7.90825C8.66402 7.90832 9.3871 8.25311 9.47764 8.29811V12.9033C8.96514 12.7221 8.42658 12.6256 7.86594 12.6256C7.3302 12.6256 6.84841 12.7107 6.46001 12.8145ZM10.4704 12.8022C10.3609 12.8322 10.2523 12.8649 10.1447 12.9013V8.29804C10.2473 8.24718 10.9659 7.90823 11.8893 7.90823C12.3367 7.90823 12.7633 7.98849 13.1621 8.1473V9.28487C13.1238 9.28326 13.0863 9.27907 13.0477 9.27907C11.5563 9.27907 10.343 10.4923 10.343 11.9837C10.343 12.269 10.3881 12.5438 10.4704 12.8022ZM11.4961 13.3011C11.3387 13.116 11.2149 12.9023 11.1313 12.6692C11.0543 12.4546 11.0101 12.2245 11.0101 11.9837C11.0101 10.8602 11.924 9.94611 13.0477 9.94611C13.0863 9.94611 13.124 9.94977 13.1621 9.95191C13.397 9.96504 13.6219 10.0161 13.8291 10.1025C14.5657 10.4097 15.085 11.137 15.085 11.9837C15.085 13.107 14.171 14.021 13.0477 14.021C12.4264 14.021 11.8701 13.7408 11.4961 13.3011Z" fill="white"/>
</g>
<defs>
<clipPath id="clip0_1857_1076">
<rect width="21" height="21" fill="white"/>
</clipPath>
</defs>
</svg>
