<svg width="20" height="20" viewBox="0 0 20 20" fill="none" xmlns="http://www.w3.org/2000/svg">
<path d="M9.99975 10.6757C11.7204 10.6757 13.1152 9.03703 13.1152 7.0156C13.1152 4.99417 11.7204 3.35547 9.99975 3.35547C8.27912 3.35547 6.88428 4.99417 6.88428 7.0156C6.88428 9.03703 8.27912 10.6757 9.99975 10.6757Z" fill="#3B69E4"/>
<path d="M10 0C4.47434 0 0 4.478 0 10C0 15.5043 4.45277 20 10 20C15.5115 20 20 15.5406 20 10C20 4.48017 15.5292 0 10 0ZM16.3776 15.2455C15.9869 13.2981 14.6494 11.6706 12.8448 10.8228C12.0634 11.5604 11.064 11.9826 10 11.9826C8.90706 11.9826 7.90989 11.5389 7.14671 10.8148C5.33791 11.6554 4.00715 13.2765 3.62057 15.2434C3.25425 14.7993 2.93861 14.3224 2.67586 13.8201C3.07429 12.772 3.71373 11.815 4.56501 11.0157C5.0942 10.5189 5.68458 10.1032 6.31887 9.77434C5.83695 8.9641 5.57734 8.00998 5.57734 7.01525C5.57734 4.25129 7.56505 2.04793 10 2.04793C12.4397 2.04793 14.4227 4.25647 14.4227 7.01525C14.4227 8.01129 14.1624 8.96662 13.6793 9.77756C15.3505 10.6453 16.659 12.0844 17.3226 13.8231C17.0597 14.3251 16.744 14.8017 16.3776 15.2455Z" fill="#3B69E4"/>
</svg>
