<svg width="15" height="20" viewBox="0 0 15 20" fill="none" xmlns="http://www.w3.org/2000/svg">
<path d="M7.34164 19.9998C7.14158 19.9062 6.97374 19.7551 6.85964 19.5658C5.00167 16.9358 3.12964 14.3158 1.28178 11.6779C0.577962 10.6655 0.151891 9.4864 0.0458907 8.25786C-0.266052 5.05779 1.46385 1.97965 4.39803 0.710006C7.24596 -0.523959 9.93589 -0.147958 12.3441 1.82608C13.0702 2.41633 13.6726 3.14429 14.1167 3.96797C14.5608 4.79176 14.838 5.69494 14.9321 6.62604C15.1714 8.49644 14.6816 10.3871 13.5641 11.906C11.7654 14.4394 9.96553 16.9775 8.1641 19.52C8.04692 19.7283 7.86904 19.8958 7.65406 20L7.34164 19.9998ZM9.99174 7.52801C9.99425 6.86786 9.73519 6.23365 9.27131 5.76404C8.80731 5.29447 8.17617 5.02786 7.51614 5.0224C6.85599 5.01696 6.22067 5.27323 5.7491 5.73515C5.27757 6.19708 5.00817 6.82694 4.99992 7.48711C4.99155 8.14711 5.24518 8.78358 5.70499 9.25719C6.16482 9.73069 6.79356 10.0029 7.4536 10.0139C8.12017 10.022 8.76246 9.76432 9.23874 9.29779C9.71488 8.8314 9.98581 8.19454 9.99167 7.52797L9.99174 7.52801Z" fill="#FFB406"/>
</svg>
