<svg width="18" height="15" viewBox="0 0 18 15" fill="none" xmlns="http://www.w3.org/2000/svg">
<path d="M7.93518 14.4672H6.85004C6.71087 14.4672 6.59965 14.3281 6.62745 14.2169L7.6848 8.87521C7.7126 8.76399 7.62918 8.68043 7.51782 8.68043H3.2332C3.17759 8.68043 3.14979 8.70823 3.12198 8.73604L1.09102 11.073C1.06322 11.1008 1.00761 11.1286 0.951855 11.1286L0.172876 11.1288C0.0616512 11.1288 -0.0219078 11.0175 0.00589752 10.9062L1.03527 7.56762L1.11869 7.31723V7.206L1.03527 6.95561L0.00589752 3.61706C-0.0219078 3.50583 0.061512 3.39447 0.172876 3.39447H0.951855C1.00747 3.39447 1.03527 3.42227 1.09102 3.45008L3.12198 5.78705C3.14978 5.81486 3.2054 5.84266 3.2332 5.84266L7.51782 5.84252C7.62904 5.84252 7.7126 5.7313 7.6848 5.64774L6.65528 0.2782C6.62747 0.13917 6.71103 0 6.85006 0L7.93506 0C8.01848 0 8.07423 0.0278062 8.12984 0.111226L11.4962 5.73116C11.524 5.78678 11.5796 5.81458 11.6354 5.81458L15.1967 5.81472H15.3636C16.3096 5.84253 17.5338 6.14853 17.6172 7.17791V7.23352V7.28913C17.5338 8.31851 16.3096 8.62452 15.3636 8.65232H15.1967H11.6633C11.6077 8.65232 11.5521 8.68012 11.5242 8.73573L8.15781 14.3557C8.10206 14.4117 8.01865 14.4673 7.93522 14.4673L7.93518 14.4672Z" fill="#405982"/>
</svg>
