<svg width="17" height="9" viewBox="0 0 17 9" fill="none" xmlns="http://www.w3.org/2000/svg">
<path d="M16.5043 0H0.495687C0.233297 0 0 0.242453 0 0.515128V8.48487C0 8.75755 0.233303 9 0.495687 9H16.5043C16.7667 9 17 8.75755 17 8.48487V0.515128C17 0.21222 16.7958 0 16.5043 0ZM2.56602 7.15156C2.56602 7.39401 2.39109 7.57579 2.1578 7.57579C1.92449 7.57579 1.74957 7.39401 1.74957 7.15156V1.8485C1.74957 1.60604 1.9245 1.42426 2.1578 1.42426C2.3911 1.42426 2.56602 1.60605 2.56602 1.8485V7.15156ZM5.10285 7.15156C5.10285 7.39401 4.92793 7.57579 4.69463 7.57579C4.46133 7.57579 4.2864 7.39401 4.2864 7.15156V1.8485C4.2864 1.60604 4.46133 1.42426 4.69463 1.42426C4.92793 1.42426 5.10285 1.60605 5.10285 1.8485V7.15156ZM7.63969 7.15156C7.63969 7.39401 7.46476 7.57579 7.23146 7.57579C6.99816 7.57579 6.82324 7.39401 6.82324 7.15156V1.8485C6.82324 1.60604 6.99817 1.42426 7.23146 1.42426C7.46477 1.42426 7.63969 1.60605 7.63969 1.8485V7.15156ZM10.1767 7.15156C10.1767 7.39401 10.0018 7.57579 9.76851 7.57579C9.5352 7.57579 9.36028 7.39401 9.36028 7.15156V1.8485C9.36028 1.60604 9.53521 1.42426 9.76851 1.42426C10.0018 1.42426 10.1767 1.60605 10.1767 1.8485V7.15156ZM12.7136 7.15156C12.7136 7.39401 12.5386 7.57579 12.3053 7.57579C12.072 7.57579 11.8971 7.39401 11.8971 7.15156V1.8485C11.8971 1.60604 12.072 1.42426 12.3053 1.42426C12.5386 1.42426 12.7136 1.60605 12.7136 1.8485V7.15156ZM15.2504 7.15156C15.2504 7.39401 15.0755 7.57579 14.8422 7.57579C14.6089 7.57579 14.4339 7.39401 14.4339 7.15156V1.8485C14.4339 1.60604 14.6089 1.42426 14.8422 1.42426C15.0755 1.42426 15.2504 1.60605 15.2504 1.8485V7.15156Z" fill="#405982"/>
</svg>
