<svg width="24" height="24" viewBox="0 0 24 24" fill="none" xmlns="http://www.w3.org/2000/svg">
<path d="M14.8237 14.6959C14.8237 15.3311 14.3087 15.846 13.6737 15.846C13.0385 15.846 12.5234 15.3311 12.5234 14.6959C12.5234 14.0607 13.0385 13.5459 13.6737 13.5459C14.3087 13.5459 14.8237 14.0607 14.8237 14.6959Z" fill="#18BDF6"/>
<path d="M10.478 8.05044C10.478 8.68564 9.96299 9.20067 9.32779 9.20067C8.69277 9.20067 8.17773 8.68564 8.17773 8.05044C8.17773 7.41542 8.69277 6.90039 9.32779 6.90039C9.96299 6.90039 10.478 7.41542 10.478 8.05044Z" fill="#18BDF6"/>
<path d="M22.2354 9.66083C21.2131 8.63861 20.3952 6.64511 20.3952 5.21375C20.3952 3.78256 19.2195 2.60682 17.7883 2.60682C16.3571 2.60682 14.3636 1.78888 13.3412 0.766662C12.319 -0.255554 10.6576 -0.255554 9.66083 0.766662C8.63861 1.78888 6.64511 2.60682 5.21375 2.60682C3.78256 2.60682 2.60682 3.78256 2.60682 5.21375C2.60682 6.64493 1.78888 8.63843 0.766662 9.66083C-0.255554 10.683 -0.255554 12.3444 0.766662 13.3412C1.78888 14.3634 2.60682 16.3569 2.60682 17.7883C2.60682 19.2195 3.78256 20.3952 5.21375 20.3952C6.64493 20.3952 8.63843 21.2131 9.66083 22.2354C10.683 23.2576 12.3444 23.2576 13.3412 22.2354C14.3634 21.2131 16.3569 20.3952 17.7883 20.3952C19.2195 20.3952 20.3952 19.2195 20.3952 17.7883C20.3952 16.3571 21.2131 14.3636 22.2354 13.3412C23.2578 12.319 23.2578 10.6831 22.2354 9.66083ZM7.15631 8.05065C7.15631 6.84944 8.12755 5.87816 9.32881 5.87816C10.53 5.87816 11.5013 6.84939 11.5013 8.05065C11.5011 9.25186 10.5299 10.2231 9.32867 10.2231C8.12746 10.2231 7.15636 9.25191 7.15636 8.05065H7.15631ZM8.71533 15.8969C8.61318 16.0247 8.45968 16.1013 8.30637 16.1013C8.20422 16.1013 8.10188 16.0759 7.99973 15.9992C7.76975 15.8202 7.74408 15.5136 7.89758 15.2836L14.517 6.59396C14.696 6.36398 15.0027 6.33831 15.2326 6.49181C15.4626 6.6708 15.4883 6.97745 15.3348 7.20742L8.71533 15.8969ZM13.6735 16.8681C12.4723 16.8681 11.501 15.8969 11.501 14.6956C11.501 13.4943 12.4723 12.5231 13.6735 12.5231C14.8747 12.5231 15.846 13.4943 15.846 14.6956C15.8458 15.8968 14.8748 16.8681 13.6735 16.8681Z" fill="white"/>
</svg>
