<svg width="14" height="18" viewBox="0 0 14 18" fill="none" xmlns="http://www.w3.org/2000/svg">
<path d="M13.9983 3.25868C14.0123 3.14376 13.9395 3.03598 13.8277 3.00624C11.6026 2.02621 9.37797 1.03705 7.15418 0.0387222C7.05235 -0.0129074 6.93196 -0.0129074 6.83011 0.0387222C4.61193 1.03017 2.3932 2.01766 0.173672 3.00112C0.0557792 3.04181 -0.0160752 3.16101 0.00307765 3.28426V5.74526V7.71338V7.71326C-0.00620154 9.94287 0.745894 12.1091 2.13489 13.8529C3.27468 15.3591 4.86401 16.4635 6.67323 17.0061C6.88522 17.0736 7.11281 17.0736 7.3248 17.0061C9.28781 16.4161 10.8347 15.2479 12.0456 13.6175V13.6176C12.9941 12.3477 13.6197 10.8663 13.8687 9.30097C13.9456 8.80953 13.9855 8.313 13.9881 7.81561C14.0051 6.29599 13.9881 4.77647 13.9983 3.25871L13.9983 3.25868ZM13.1352 7.90269C13.1306 8.34096 13.093 8.77813 13.0225 9.21068C12.8047 10.5802 12.2582 11.8764 11.4297 12.9883C10.4143 14.4101 8.95637 15.4556 7.28366 15.9608C7.19348 15.9886 7.09998 16.0035 7.00564 16.0051V1.05167C7.04989 1.05346 7.09331 1.06393 7.13352 1.08236C9.08797 1.9533 11.0408 2.82138 12.9918 3.68659C13.0869 3.71502 13.1476 3.80805 13.1351 3.90656V7.90249L13.1352 7.90269Z" fill="#405982"/>
</svg>
