<svg width="18" height="17" viewBox="0 0 18 17" fill="none" xmlns="http://www.w3.org/2000/svg">
<path d="M17.7855 2.00821V4.87684H0V2.00821C0 1.69125 0.256727 1.43453 0.573675 1.43453H2.29496V2.58188C2.29496 2.89884 2.55168 3.15556 2.86863 3.15556H3.72927C4.04623 3.15556 4.30295 2.89883 4.30295 2.58188V1.43453H6.02423V2.58188C6.02423 2.89884 6.28096 3.15556 6.5979 3.15556H7.45855C7.77551 3.15556 8.03222 2.89883 8.03222 2.58188V1.43453H9.7535V2.58188C9.7535 2.89884 10.0102 3.15556 10.3272 3.15556H11.1878C11.5048 3.15556 11.7615 2.89883 11.7615 2.58188V1.43453H13.4828V2.58188C13.4828 2.89884 13.7395 3.15556 14.0565 3.15556H14.9171C15.2341 3.15556 15.4908 2.89883 15.4908 2.58188V1.43453H17.212C17.529 1.43453 17.7857 1.69126 17.7857 2.00821H17.7855ZM14.0562 2.86885H14.9169C15.0752 2.86885 15.2038 2.74038 15.2038 2.5819V0.286945C15.2038 0.128668 15.0754 0 14.9169 0H14.0562C13.898 0 13.7693 0.128464 13.7693 0.286945V2.5819C13.7693 2.74038 13.8978 2.86885 14.0562 2.86885ZM6.5978 2.86885H7.45844C7.61672 2.86885 7.74539 2.74038 7.74539 2.5819V0.286945C7.74539 0.128668 7.61693 0 7.45844 0H6.5978C6.43953 0 6.31086 0.128464 6.31086 0.286945V2.5819C6.31106 2.74038 6.43952 2.86885 6.5978 2.86885ZM10.3271 2.86885H11.1877C11.346 2.86885 11.4747 2.74038 11.4747 2.5819V0.286945C11.4747 0.128668 11.3462 0 11.1877 0H10.3271C10.1688 0 10.0401 0.128464 10.0401 0.286945V2.5819C10.0401 2.74038 10.1688 2.86885 10.3271 2.86885ZM2.86863 2.86885H3.72927C3.88755 2.86885 4.01622 2.74038 4.01622 2.5819V0.286945C4.01622 0.128668 3.88776 0 3.72927 0H2.86863C2.71036 0 2.58169 0.128464 2.58169 0.286945V2.5819C2.58189 2.74038 2.71035 2.86885 2.86863 2.86885ZM0 5.45072H17.7855V15.4909C17.7855 15.8079 17.5288 16.0646 17.2118 16.0646H0.573778C0.25682 16.0646 0.000102395 15.8079 0.000102395 15.4909L0 5.45072ZM14.3432 8.60611H16.0644V6.88483H14.3432V8.60611ZM14.3432 11.4747H16.0644V9.75346H14.3432V11.4747ZM11.1878 8.60611H12.909V6.88483H11.1878V8.60611ZM11.1878 11.4747H12.909V9.75346H11.1878V11.4747ZM11.1878 14.3434H12.909V12.6221H11.1878V14.3434ZM8.03217 8.60611H9.75345V6.88483H8.03217V8.60611ZM8.03217 11.4747H9.75345V9.75346H8.03217V11.4747ZM8.03217 14.3434H9.75345V12.6221H8.03217V14.3434ZM4.87678 8.60611H6.59806V6.88483H4.87678V8.60611ZM4.87678 11.4747H6.59806V9.75346H4.87678V11.4747ZM4.87678 14.3434H6.59806V12.6221H4.87678V14.3434ZM1.72118 11.4747H3.44246V9.75346H1.72118V11.4747ZM1.72118 14.3434H3.44246V12.6221H1.72118V14.3434Z" fill="#405982"/>
</svg>
