<svg width="15" height="15" viewBox="0 0 15 15" fill="none" xmlns="http://www.w3.org/2000/svg">
<path fill-rule="evenodd" clip-rule="evenodd" d="M7.5 0C11.6421 0 15 3.35786 15 7.5C15 11.6421 11.6421 15 7.5 15C3.35786 15 0 11.6421 0 7.5C0 3.35786 3.35786 0 7.5 0ZM7.4413 2.74446C8.99549 2.74446 10.4185 3.91382 10.4185 5.52455C10.4185 6.62381 9.73686 7.56801 8.75123 8.01908C8.32025 8.21642 8.06924 8.61233 8.06924 9.08558V9.7504H6.81334V9.08558C6.81334 8.12004 7.35366 7.28258 8.23078 6.88058C8.7665 6.63522 9.16274 6.12806 9.16274 5.52455C9.16274 4.60358 8.30549 4.0005 7.44133 4.0005C6.62825 4.0005 6.04638 4.41996 5.75761 5.16946L4.58102 4.75262C5.00969 3.50855 6.13062 2.74463 7.44146 2.74463L7.4413 2.74446ZM7.4413 10.4502C7.93965 10.4502 8.34395 10.8545 8.34395 11.3528C8.34395 11.8512 7.93965 12.2555 7.4413 12.2555C6.94295 12.2555 6.53865 11.8512 6.53865 11.3528C6.53865 10.8545 6.94295 10.4502 7.4413 10.4502Z" fill="#405982"/>
</svg>
