<svg width="25" height="13" viewBox="0 0 25 13" fill="none" xmlns="http://www.w3.org/2000/svg">
<path d="M0.289112 10.1143H1.38726V10.0564V10.0276V9.99878V9.96995V9.94113V9.9123V9.88348V9.85465V9.82583V9.79701V9.76818V9.73936V9.71053V9.68171V9.65288V9.62406C1.38726 9.59523 1.38726 9.59523 1.41609 9.56621C1.41609 9.53738 1.44491 9.53738 1.44491 9.50836C1.44491 9.47953 1.44491 9.47953 1.47374 9.4505V9.42168C1.47374 9.42168 1.47374 9.39285 1.50256 9.39285V9.36403C1.50256 9.36403 1.50256 9.33521 1.53139 9.33521V9.30638C1.53139 9.30638 1.53139 9.27756 1.56021 9.27756V9.24873C1.56021 9.24873 1.56021 9.21991 1.58903 9.21991V9.19108C1.58903 9.19108 1.58904 9.16226 1.61786 9.16226V9.13343C1.61786 9.13343 1.61786 9.10461 1.64668 9.10461V9.07578L1.67551 9.04696V9.01814C1.67551 8.98931 1.70433 8.98931 1.70433 8.96028C1.70433 8.93146 1.73316 8.93146 1.73316 8.90243L1.76198 8.87361L1.96376 8.67183L1.99258 8.64301L2.16553 8.47006C2.19436 8.47006 2.19436 8.44123 2.22338 8.44123C2.25221 8.44123 2.25221 8.41241 2.28124 8.41241H2.31006L2.48301 8.23946C2.48301 8.23946 2.51184 8.23946 2.51184 8.21063C2.51184 8.21063 2.54066 8.21063 2.54066 8.18181C2.54066 8.18181 2.56949 8.18181 2.56949 8.15298H2.59831C2.59831 8.15298 2.62713 8.15298 2.62713 8.12416H2.65596C2.65596 8.12416 2.68478 8.12416 2.68478 8.09533H2.71361L2.74243 8.06651C2.77126 8.06651 2.77126 8.03769 2.80028 8.03769C2.82911 8.03769 2.82911 8.00886 2.85814 8.00886H2.88696C2.88696 8.00886 2.91579 8.00886 2.91579 7.98004H2.94461C2.94461 7.98004 2.97343 7.98004 2.97343 7.95121H3.00226H3.03108H3.05991H3.08873H3.11756H3.14638H3.17521H3.20403H3.23286H3.26168H3.2905H3.34836C3.37718 7.95121 3.37718 7.95121 3.40621 7.92239H3.43503H3.49288H3.52171H3.55053H3.57936H3.60818H3.63701H3.66583H3.69466H3.72348H3.75231H3.78113H3.80995H3.83878H3.8676H3.92545H3.95428H4.01213H4.06998H4.09881H4.15666H4.18548H4.21431H4.24313H4.27196H4.30078H4.32961H4.35843H4.38726H4.41608H4.4449H4.47373H4.50255H4.53138H4.58923H4.61805C4.64688 7.92239 4.64688 7.92239 4.67591 7.95121H4.73376H4.76258H4.79141H4.82023H4.84906H4.87788H4.9067H4.93553H4.96435H4.99318H5.022H5.05083C5.05083 7.95121 5.07965 7.95121 5.07965 7.98004H5.10848C5.10848 7.98004 5.1373 7.98004 5.1373 8.00886H5.16613C5.19495 8.00886 5.19495 8.03769 5.22398 8.03769C5.2528 8.03769 5.2528 8.06651 5.28183 8.06651L5.31065 8.09533H5.33948C5.33948 8.09533 5.3683 8.09533 5.3683 8.12416H5.39713C5.39713 8.12416 5.42595 8.12416 5.42595 8.15298H5.45478C5.45478 8.15298 5.4836 8.15298 5.4836 8.18181C5.4836 8.18181 5.51243 8.18181 5.51243 8.21063C5.51243 8.21063 5.54125 8.21063 5.54125 8.23946L5.7142 8.41241H5.74303C5.77185 8.41241 5.77185 8.44123 5.80088 8.44123C5.8297 8.44123 5.8297 8.47006 5.85873 8.47006L6.03168 8.64301L6.0605 8.67183L6.26228 8.87361L6.2911 8.90243C6.2911 8.93126 6.31993 8.93126 6.31993 8.96028C6.31993 8.98911 6.34875 8.98911 6.34875 9.01814V9.04696L6.37758 9.07578V9.10461C6.37758 9.10461 6.37758 9.13343 6.4064 9.13343V9.16226C6.4064 9.16226 6.4064 9.19108 6.43523 9.19108V9.21991C6.43523 9.21991 6.43523 9.24873 6.46405 9.24873V9.27756C6.46405 9.27756 6.46405 9.30638 6.49288 9.30638V9.33521C6.49288 9.33521 6.49288 9.36403 6.5217 9.36403V9.39285C6.5217 9.39285 6.5217 9.42168 6.55052 9.42168V9.4505C6.55052 9.47933 6.55052 9.47933 6.57935 9.50836C6.57935 9.53718 6.60817 9.53718 6.60817 9.56621C6.60817 9.59503 6.60817 9.59503 6.637 9.62406V9.65288V9.68171V9.71053V9.73936V9.76818V9.79701V9.82583V9.85465V9.88348V9.9123V9.94113V9.96995V9.99878V10.0276V10.0564V10.1143H14.786C14.9594 10.1143 15.0751 9.96975 15.0751 9.82522V9.42067L15.0846 2.28302V0.289056C15.0846 0.115703 14.9401 0 14.7955 0L0.289056 0.000201572C0.115703 0.000201572 0 0.14473 0 0.289258V9.82538C0.000201559 9.96971 0.144528 10.1142 0.289056 10.1142L0.289112 10.1143Z" fill="#405982"/>
<path d="M22.4542 1.99392C22.3387 1.7339 22.0785 1.56055 21.8185 1.56055H18.7266V5.20156H23.8414L22.4542 1.99392Z" fill="#405982"/>
<path d="M6.03916 10.5186C6.03916 11.5718 5.1853 12.4257 4.13189 12.4257C3.07868 12.4257 2.22461 11.5718 2.22461 10.5186C2.22461 9.46519 3.07868 8.61133 4.13189 8.61133C5.1853 8.61133 6.03916 9.46519 6.03916 10.5186Z" fill="#405982"/>
<path d="M24.188 6.04013H18.2929C18.0617 6.04013 17.8884 5.86678 17.8884 5.63558L17.8882 1.58984H16.8479C16.4722 1.58984 16.1543 1.90773 16.1543 2.28343V9.42108C16.1543 9.7968 16.4722 10.1147 16.8479 10.1147H17.917V10.0568V10.028V9.97014V9.94131V9.91249V9.88366V9.85484V9.82601V9.79719V9.76836V9.73954V9.71072V9.68189V9.65307C17.917 9.65307 17.917 9.62424 17.9459 9.62424V9.59542C17.9459 9.56659 17.9459 9.56659 17.9747 9.53757C17.9747 9.50874 18.0035 9.50874 18.0035 9.47971C18.0035 9.45089 18.0035 9.45089 18.0323 9.42186V9.39304C18.0323 9.39304 18.0323 9.36421 18.0612 9.36421V9.33539C18.0612 9.33539 18.0612 9.30657 18.09 9.30657V9.27774C18.09 9.27774 18.09 9.24892 18.1188 9.24892V9.22009C18.1188 9.22009 18.1188 9.19127 18.1476 9.19127V9.16244C18.1476 9.16244 18.1476 9.13362 18.1765 9.13362V9.10479C18.1765 9.10479 18.1765 9.07597 18.2053 9.07597V9.04714L18.2341 9.01832V8.98949C18.2629 8.96067 18.292 8.93164 18.3208 8.87399L18.3496 8.84517V8.81634L18.4073 8.75869L18.4361 8.72987L18.6379 8.52809L18.6667 8.49927L18.811 8.35494H18.8398L18.8687 8.32612H18.8975L18.9263 8.29729L19.0704 8.15317C19.0704 8.15317 19.0993 8.15317 19.0993 8.12434H19.1281C19.1281 8.12434 19.1569 8.12434 19.1569 8.09552H19.1857C19.1857 8.09552 19.2146 8.09552 19.2146 8.06669H19.2434L19.2722 8.03787C19.301 8.03787 19.301 8.00904 19.3301 8.00904C19.3589 8.00904 19.3589 7.98022 19.3879 7.98022H19.4167C19.4167 7.98022 19.4456 7.98022 19.4456 7.95139H19.4744C19.4744 7.95139 19.5032 7.95139 19.5032 7.92257H19.532H19.5609H19.5897H19.6185H19.6473H19.6762H19.705H19.7338H19.7626H19.7915H19.8203H19.8781C19.907 7.92257 19.907 7.92257 19.936 7.89374H19.9648H20.0227H20.0515H20.0803H20.1091H20.138H20.1668H20.1956H20.2244H20.2533H20.2821H20.3109H20.3397H20.3686H20.3974H20.4552H20.4841H20.5419H20.5998H20.6286H20.6864H20.7153H20.7441H20.7729H20.8017H20.8306H20.8594H20.8882H20.917H20.9459H20.9747H21.0035H21.0323H21.0611H21.119H21.1478C21.1766 7.89374 21.1767 7.89374 21.2057 7.92257H21.2635H21.2924H21.3212H21.35H21.3788H21.4077H21.4365H21.4653H21.4941H21.523H21.5518H21.5806C21.5806 7.92257 21.6094 7.92257 21.6094 7.95139H21.6382C21.6382 7.95139 21.6671 7.95139 21.6671 7.98022H21.6959C21.7247 7.98022 21.7247 8.00904 21.7538 8.00904C21.7826 8.00904 21.7826 8.03787 21.8116 8.03787L21.8404 8.06669H21.8693C21.8693 8.06669 21.8981 8.06669 21.8981 8.09552H21.9269C21.9269 8.09552 21.9557 8.09552 21.9557 8.12434H21.9845C21.9845 8.12434 22.0134 8.12434 22.0134 8.15317C22.0134 8.15317 22.0422 8.15317 22.0422 8.18199C22.0422 8.18199 22.071 8.18199 22.071 8.21082L22.2151 8.35494L22.244 8.38377H22.2728C22.3016 8.38377 22.3016 8.41259 22.3306 8.41259C22.3595 8.41259 22.3595 8.44142 22.3885 8.44142L22.5038 8.55672L22.5326 8.58554L22.7344 8.78732L22.7632 8.81614V8.84497L22.7921 8.87379C22.7921 8.90262 22.8209 8.90261 22.8209 8.93164C22.8209 8.96047 22.8497 8.96047 22.8497 8.98949V9.01832L22.8785 9.04714V9.07597C22.8785 9.07597 22.8785 9.10479 22.9073 9.10479V9.13362C22.9073 9.13362 22.9073 9.16244 22.9362 9.16244V9.19126C22.9362 9.19126 22.9362 9.22009 22.965 9.22009V9.24891C22.965 9.24891 22.965 9.27774 22.9938 9.27774V9.30656C22.9938 9.30656 22.9938 9.33539 23.0226 9.33539V9.36421C23.0226 9.36421 23.0226 9.39304 23.0515 9.39304V9.42186C23.0515 9.45069 23.0515 9.45069 23.0803 9.47971V9.50854C23.0803 9.53736 23.1091 9.53736 23.1091 9.56639C23.1091 9.59521 23.1091 9.59521 23.1379 9.62424V9.65306V9.68189V9.71071V9.73954V9.76836V9.79719V9.82601V9.85484V9.88366V9.91249V9.94131V9.97014V9.99896V10.0278V10.0566V10.1145V10.1433H23.687C24.0628 10.1433 24.3806 9.8254 24.3806 9.4497V7.22455C24.3806 7.13787 24.3518 7.02217 24.3228 6.93549L24.188 6.04013Z" fill="#405982"/>
<path d="M22.5409 10.5186C22.5409 11.5718 21.687 12.4257 20.6338 12.4257C19.5804 12.4257 18.7266 11.5718 18.7266 10.5186C18.7266 9.46519 19.5804 8.61133 20.6338 8.61133C21.687 8.61133 22.5409 9.46519 22.5409 10.5186Z" fill="#405982"/>
</svg>
