<svg xmlns="http://www.w3.org/2000/svg" version="1.1" xmlns:xlink="http://www.w3.org/1999/xlink" xmlns:svgjs="http://svgjs.dev/svgjs" viewBox="0 0 800 800" opacity="1"><defs><symbol id="bbburst-shape-10" viewBox="0 0 145 145"><circle cx="72.5" cy="72.5" r="61.5" fill="none" stroke-width="22"></circle></symbol><symbol id="bbburst-shape-11" viewBox="0 0 194 167"><path d="M10.398 161 97 11l86.603 150H10.397Z" stroke-width="11"></path></symbol><symbol id="bbburst-shape-13" viewBox="0 0 159 159"><path stroke-width="22" d="M11 11h137v137H11z"></path></symbol></defs><use xlink:href="#bbburst-shape-11" width="8.88449667961816" opacity="0.8737801227215276" transform="matrix(0.8474577313570827,-0.5308628764220631,0.5308628764220631,0.8474577313570827,130.88286380784604,83.83969451282269)" fill="none" stroke="#00a19d"></use><use xlink:href="#bbburst-shape-13" width="24.053083554199542" opacity="0.48499649899327135" transform="matrix(0.8403228855589608,0.5420861997928573,-0.5420861997928573,0.8403228855589608,801.3102907137585,183.23485506772744)" fill="none" stroke="#00a19d"></use><use xlink:href="#bbburst-shape-13" width="8.420506531053585" opacity="0.8941526842809459" transform="matrix(0.9957948749483693,-0.09161095473010696,0.09161095473010696,0.9957948749483693,406.01408276888134,10.653928311473692)" fill="none" stroke="#00a19d"></use><use xlink:href="#bbburst-shape-13" width="12.307895783393123" opacity="0.7557122469866343" transform="matrix(0.8634423271399077,0.5044475668523148,-0.5044475668523148,0.8634423271399077,698.7467323991339,11.231866167584144)" fill="none" stroke="#00a19d"></use><use xlink:href="#bbburst-shape-11" width="9.611703888952043" opacity="0.7803560196867897" transform="matrix(0.7702369613705058,0.6377578093122263,-0.6377578093122263,0.7702369613705058,671.699665120668,-8.004768573304261)" fill="none" stroke="#ffa6d5"></use><use xlink:href="#bbburst-shape-11" width="16.890417846154136" opacity="0.7049144530828292" transform="matrix(0.918980830486809,-0.39430221049060166,0.39430221049060166,0.918980830486809,138.65176808852408,127.50972332638798)" fill="none" stroke="#ffa6d5"></use><use xlink:href="#bbburst-shape-11" width="34.22541819934281" opacity="0.14552025172692373" transform="matrix(0.9029727645395098,0.42969778507676176,-0.42969778507676176,0.9029727645395098,193.57714480671808,157.76772842870207)" fill="none" stroke="#ffa6d5"></use><use xlink:href="#bbburst-shape-11" width="32.44027491377487" opacity="0.11019211283024821" transform="matrix(0.8465864982435529,-0.532251163447971,0.532251163447971,0.8465864982435529,11.719548102071656,436.07714153500245)" fill="none" stroke="#ffa6d5"></use><use xlink:href="#bbburst-shape-10" width="26.63871927646544" opacity="0.1697605847093706" transform="matrix(0.9980688329199747,-0.06211766861175244,0.06211766861175244,0.9980688329199747,531.909912543478,334.2641263370536)" fill="none" stroke="#ff5c58"></use><use xlink:href="#bbburst-shape-11" width="18.73435799834013" opacity="0.47276695030338667" transform="matrix(0.9598252353909609,0.28059849876057186,-0.28059849876057186,0.9598252353909609,467.455272436482,-221.3192666850898)" fill="none" stroke="#ff5c58"></use><use xlink:href="#bbburst-shape-10" width="6.422014990704118" opacity="0.9178725063719745" transform="matrix(0.725519718847125,-0.6882013786414474,0.6882013786414474,0.725519718847125,89.41013126220065,95.32293975529711)" fill="none" stroke="#00a19d"></use><use xlink:href="#bbburst-shape-11" width="8.83230717427285" opacity="0.9177856586739372" transform="matrix(0.9667784818399354,0.2556156627659376,-0.2556156627659376,0.9667784818399354,461.0595671903206,13.97447538662567)" fill="none" stroke="#ffa6d5"></use><use xlink:href="#bbburst-shape-10" width="33.813106934022166" opacity="0.15401130302604382" transform="matrix(0.7123728581850512,0.7018011904530093,-0.7018011904530093,0.7123728581850512,1029.8555806314687,223.51221150157772)" fill="none" stroke="#ff5c58"></use><use xlink:href="#bbburst-shape-10" width="22.082719616266516" opacity="0.5721369334824465" transform="matrix(0.7694305901292781,-0.6387304337303108,0.6387304337303108,0.7694305901292781,87.27732521353767,285.54865239018784)" fill="none" stroke="#ffbd9b"></use><use xlink:href="#bbburst-shape-13" width="18.21630783933019" opacity="0.7020904869903619" transform="matrix(0.9847009056181519,0.1742530529855689,-0.1742530529855689,0.9847009056181519,515.2963464316883,126.9852341539505)" fill="none" stroke="#ffa6d5"></use><use xlink:href="#bbburst-shape-11" width="7.370494808846641" opacity="0.9322550156602214" transform="matrix(0.7873336192349474,-0.6165271867666493,0.6165271867666493,0.7873336192349474,132.40195802898242,62.67979882996826)" fill="none" stroke="#00a19d"></use><use xlink:href="#bbburst-shape-13" width="10.932829527605225" opacity="0.8425760791983735" transform="matrix(0.9596708449879656,-0.28112607363971776,0.28112607363971776,0.9596708449879656,211.8772048872583,25.319106022881556)" fill="none" stroke="#00a19d"></use><use xlink:href="#bbburst-shape-10" width="7.205427685783414" opacity="0.9587201752154715" transform="matrix(0.9425010023520076,-0.3342033221939317,0.3342033221939317,0.9425010023520076,244.37735390168055,25.26185611441406)" fill="none" stroke="#00a19d"></use><use xlink:href="#bbburst-shape-11" width="15.32453814600256" opacity="0.6630183904897209" transform="matrix(0.7214350883438914,0.6924820671369343,-0.6924820671369343,0.7214350883438914,620.8844474901737,-36.931419406370594)" fill="none" stroke="#ff5c58"></use><use xlink:href="#bbburst-shape-11" width="20.3390468900596" opacity="0.6275156505097605" transform="matrix(0.8083639888680242,0.588682988968916,-0.588682988968916,0.8083639888680242,777.415448333413,145.24358180151728)" fill="none" stroke="#00a19d"></use><use xlink:href="#bbburst-shape-13" width="25.179835619006894" opacity="0.38520718297374856" transform="matrix(0.9833170893096868,0.18189970278020148,-0.18189970278020148,0.9833170893096868,655.8062297618898,200.2084019492229)" fill="none" stroke="#00a19d"></use><use xlink:href="#bbburst-shape-11" width="27.107758459433192" opacity="0.4248977472458094" transform="matrix(0.9803392005748797,-0.19731966910626506,0.19731966910626506,0.9803392005748797,558.8642222985416,-52.252375564344106)" fill="none" stroke="#00a19d"></use><use xlink:href="#bbburst-shape-11" width="13.696121060281165" opacity="0.7476678849067404" transform="matrix(0.7958098866070031,0.6055465501334715,-0.6055465501334715,0.7958098866070031,745.1325691159465,111.65157583755246)" fill="none" stroke="#00a19d"></use><use xlink:href="#bbburst-shape-13" width="26.452431364487573" opacity="0.17233042454840075" transform="matrix(0.9957408403476072,-0.09219641459319912,0.09219641459319912,0.9957408403476072,293.7007631772437,371.1021381739349)" fill="none" stroke="#ffbd9b"></use><use xlink:href="#bbburst-shape-11" width="32.357565284158056" opacity="0.20509447763035915" transform="matrix(0.7671693129016696,-0.6414446549328946,0.6414446549328946,0.7671693129016696,-71.49249487026063,398.2419352442238)" fill="none" stroke="#00a19d"></use><use xlink:href="#bbburst-shape-13" width="25.088631029046063" opacity="0.573614118351847" transform="matrix(0.7990075613946268,0.6013209765459805,-0.6013209765459805,0.7990075613946268,816.5855533618344,119.6477644211746)" fill="none" stroke="#ffa6d5"></use><use xlink:href="#bbburst-shape-13" width="30.076780886813772" opacity="0.3183979169607538" transform="matrix(0.9999205684758735,0.012603838260068553,-0.012603838260068553,0.9999205684758735,293.2132086191605,-291.2062395093973)" fill="none" stroke="#ffa6d5"></use><use xlink:href="#bbburst-shape-10" width="13.114077640234111" opacity="0.7124587859333805" transform="matrix(0.967608796115699,0.25245438732477504,-0.25245438732477504,0.967608796115699,535.8162678297685,-111.3649480525923)" fill="none" stroke="#ffa6d5"></use><use xlink:href="#bbburst-shape-11" width="9.472205868135546" opacity="0.9113934594251244" transform="matrix(0.9672163744095172,0.2539537065571371,-0.2539537065571371,0.9672163744095172,515.4820255433575,-23.55470121811112)" fill="none" stroke="#ffbd9b"></use><use xlink:href="#bbburst-shape-11" width="28.236894568151207" opacity="0.11386133473858229" transform="matrix(0.9162101529600843,0.40069808536210766,-0.40069808536210766,0.9162101529600843,905.0795310567657,-148.9424488159681)" fill="none" stroke="#00a19d"></use><use xlink:href="#bbburst-shape-11" width="5.970294149556187" opacity="0.9703464430862699" transform="matrix(0.8740903479958037,0.48576338225577986,-0.48576338225577986,0.8740903479958037,602.5959819887856,41.09604385481384)" fill="none" stroke="#00a19d"></use><use xlink:href="#bbburst-shape-10" width="10.946365216472929" opacity="0.8701649137943854" transform="matrix(0.9945646571086039,0.104120808825351,-0.104120808825351,0.9945646571086039,482.22332444677585,37.60252541567752)" fill="none" stroke="#ffa6d5"></use><use xlink:href="#bbburst-shape-10" width="7.775674932165481" opacity="0.9482943079554883" transform="matrix(0.7561226229161518,0.6544299650187169,-0.6544299650187169,0.7561226229161518,662.4012683402725,72.01442077581834)" fill="none" stroke="#ff5c58"></use><use xlink:href="#bbburst-shape-13" width="18.827461055694236" opacity="0.16538648764950625" transform="matrix(0.9998556799432817,-0.016988798814445233,0.016988798814445233,0.9998556799432817,429.2867808711618,-372.59278534877)" fill="none" stroke="#00a19d"></use><use xlink:href="#bbburst-shape-10" width="18.161867720880377" opacity="0.5748766587222316" transform="matrix(0.8644812682523388,-0.5026650344323024,0.5026650344323024,0.8644812682523388,8.625243267243292,116.27622249688721)" fill="none" stroke="#ffbd9b"></use><use xlink:href="#bbburst-shape-11" width="34.26520724450627" opacity="0.13861151684968498" transform="matrix(0.8212731634695262,-0.5705351794278395,0.5705351794278395,0.8212731634695262,297.94315667062045,-280.37053281759916)" fill="none" stroke="#ffa6d5"></use><use xlink:href="#bbburst-shape-11" width="15.907637173112752" opacity="0.5685453962406253" transform="matrix(0.9986068745893797,-0.05276656159757688,0.05276656159757688,0.9986068745893797,317.80997218725673,-185.97147074924152)" fill="none" stroke="#ffa6d5"></use><use xlink:href="#bbburst-shape-11" width="7.545195339861157" opacity="0.907496876027259" transform="matrix(0.9735089211377157,0.22864903337928402,-0.22864903337928402,0.9735089211377157,471.6832586263233,48.01510890892962)" fill="none" stroke="#ff5c58"></use><use xlink:href="#bbburst-shape-13" width="13.245743570337527" opacity="0.7511704423047322" transform="matrix(0.9619246370218999,-0.2733148234002066,0.2733148234002066,0.9619246370218999,371.60554753879256,-53.07644257577505)" fill="none" stroke="#ffa6d5"></use><use xlink:href="#bbburst-shape-11" width="6.800453129037145" opacity="0.9002996025015422" transform="matrix(0.9352868877347248,0.3538904316755289,-0.3538904316755289,0.9352868877347248,554.3606236556458,66.53285408015756)" fill="none" stroke="#00a19d"></use><use xlink:href="#bbburst-shape-11" width="14.84035630525793" opacity="0.6809747539345665" transform="matrix(0.9575614592894856,-0.28822916521995284,0.28822916521995284,0.9575614592894856,163.98287413598314,-68.89179567877778)" fill="none" stroke="#ff5c58"></use><use xlink:href="#bbburst-shape-11" width="26.527389612289795" opacity="0.4815315032815094" transform="matrix(0.9614475536411099,-0.2749883662948763,0.2749883662948763,0.9614475536411099,416.7654260592017,-168.19290440311127)" fill="none" stroke="#ffa6d5"></use><use xlink:href="#bbburst-shape-13" width="18.006633964978672" opacity="0.6713265890657272" transform="matrix(0.8044223798482459,0.5940577705907771,-0.5940577705907771,0.8044223798482459,773.0047706593759,33.72048645932085)" fill="none" stroke="#00a19d"></use><use xlink:href="#bbburst-shape-11" width="9.744226676330335" opacity="0.8535207574208881" transform="matrix(0.9371316776518477,-0.3489759572541259,0.3489759572541259,0.9371316776518477,289.7148764127611,83.25118192903551)" fill="none" stroke="#ffa6d5"></use><use xlink:href="#bbburst-shape-10" width="27.154520110205226" opacity="0.31635192421168146" transform="matrix(0.8042386589974132,0.5943064692345545,-0.5943064692345545,0.8042386589974132,402.6606184326512,280.95677636152897)" fill="none" stroke="#00a19d"></use><use xlink:href="#bbburst-shape-10" width="32.04408519731927" opacity="0.12576605677658814" transform="matrix(0.9672683971445272,0.2537554883848962,-0.2537554883848962,0.9672683971445272,122.3044737514254,-140.93953555057269)" fill="none" stroke="#ffbd9b"></use><use xlink:href="#bbburst-shape-10" width="32.26319715113393" opacity="0.2127457498814186" transform="matrix(0.9487387491369054,-0.3160613641148505,0.3160613641148505,0.9487387491369054,-44.275502693628226,209.90993879269695)" fill="none" stroke="#00a19d"></use><use xlink:href="#bbburst-shape-13" width="10.504093586421755" opacity="0.8206005891842829" transform="matrix(0.7256519338987482,0.6880619672885624,-0.6880619672885624,0.7256519338987482,614.130502077271,163.01075868655363)" fill="none" stroke="#ffa6d5"></use><use xlink:href="#bbburst-shape-11" width="21.164881691370795" opacity="0.6657302369082332" transform="matrix(0.7855039689241758,0.6188566189388034,-0.6188566189388034,0.7855039689241758,567.936209694444,211.39709775965161)" fill="none" stroke="#00a19d"></use><use xlink:href="#bbburst-shape-13" width="7.962898204368447" opacity="0.9763091206260983" transform="matrix(0.7320468491678189,0.6812542921871896,-0.6812542921871896,0.7320468491678189,662.7960100672387,96.25087107696373)" fill="none" stroke="#00a19d"></use><use xlink:href="#bbburst-shape-10" width="26.277583459745397" opacity="0.1494683914705739" transform="matrix(0.933899701651401,0.35753509933351185,-0.35753509933351185,0.933899701651401,639.8849856336749,388.5905948125097)" fill="none" stroke="#ff5c58"></use><use xlink:href="#bbburst-shape-11" width="6.421860217135168" opacity="0.9131643154071021" transform="matrix(0.8061702936936074,-0.5916835789220137,0.5916835789220137,0.8061702936936074,156.13833475363228,40.554857864945404)" fill="none" stroke="#ff5c58"></use><use xlink:href="#bbburst-shape-11" width="23.865096267543777" opacity="0.3393270773211572" transform="matrix(0.7364665806624965,-0.6764739282243556,0.6764739282243556,0.7364665806624965,374.7552988271056,-40.688142331787105)" fill="none" stroke="#00a19d"></use><use xlink:href="#bbburst-shape-11" width="8.623815502380731" opacity="0.8743286631213597" transform="matrix(0.8330720014075401,-0.5531645690667792,0.5531645690667792,0.8330720014075401,218.93696580352864,33.36008358463636)" fill="none" stroke="#00a19d"></use><use xlink:href="#bbburst-shape-13" width="26.51670844015602" opacity="0.34730581323796805" transform="matrix(0.9742218676715482,-0.22559200462463305,0.22559200462463305,0.9742218676715482,33.81775934180857,144.0033468635126)" fill="none" stroke="#ff5c58"></use><use xlink:href="#bbburst-shape-10" width="21.038105162498372" opacity="0.5656478744668174" transform="matrix(0.9490399728936105,0.31515572317521845,-0.31515572317521845,0.9490399728936105,333.822290207695,-53.545533406142226)" fill="none" stroke="#00a19d"></use><use xlink:href="#bbburst-shape-11" width="35.371168409017024" opacity="0.039764517546225675" transform="matrix(0.9920689998950935,-0.125694468641818,0.125694468641818,0.9920689998950935,577.786657582134,-350.53291068444486)" fill="none" stroke="#00a19d"></use><use xlink:href="#bbburst-shape-11" width="8.05136458315815" opacity="0.9250682682463232" transform="matrix(0.8863452478814208,0.4630249470147616,-0.4630249470147616,0.8863452478814208,606.3450330713595,66.50840443491)" fill="none" stroke="#ffa6d5"></use><use xlink:href="#bbburst-shape-10" width="17.29616514625647" opacity="0.6579613884307755" transform="matrix(0.8689730667123898,-0.4948593833893265,0.4948593833893265,0.8689730667123898,326.98674920973855,-21.723638443164305)" fill="none" stroke="#00a19d"></use><use xlink:href="#bbburst-shape-11" width="8.628160975997647" opacity="0.8748060579578439" transform="matrix(0.9903223117196872,-0.13878659485042052,0.13878659485042052,0.9903223117196872,299.0036675412771,42.79078262012092)" fill="none" stroke="#00a19d"></use><use xlink:href="#bbburst-shape-11" width="27.142068875777046" opacity="0.30751698054301435" transform="matrix(0.7656369694782088,-0.6432729055138451,0.6432729055138451,0.7656369694782088,430.56907150310457,191.68845452513068)" fill="none" stroke="#ffbd9b"></use><use xlink:href="#bbburst-shape-13" width="10.572406457149658" opacity="0.8618680588156906" transform="matrix(0.7572558550964099,0.6531183429687188,-0.6531183429687188,0.7572558550964099,689.0595298798067,40.244948566832875)" fill="none" stroke="#ff5c58"></use><use xlink:href="#bbburst-shape-13" width="26.70398015481622" opacity="0.45351110130699057" transform="matrix(0.9697465659077439,-0.24411390355761747,0.24411390355761747,0.9697465659077439,209.03604897071165,247.77691394305265)" fill="none" stroke="#00a19d"></use><use xlink:href="#bbburst-shape-11" width="25.314557506173678" opacity="0.16492651090133126" transform="matrix(0.7658839456212256,-0.6429788346747219,0.6429788346747219,0.7658839456212256,501.0295243988585,26.056322104605727)" fill="none" stroke="#ffa6d5"></use><use xlink:href="#bbburst-shape-13" width="36.46686971347811" opacity="-0.09100567304631224" transform="matrix(0.9935225975787,0.11363471344827912,-0.11363471344827912,0.9935225975787,779.6914975516984,342.39881711594035)" fill="none" stroke="#00a19d"></use><use xlink:href="#bbburst-shape-10" width="10.152440891793674" opacity="0.7599498714006427" transform="matrix(0.9935518747010871,0.11337844714916236,-0.11337844714916236,0.9935518747010871,334.9376312774052,25.793995490519535)" fill="none" stroke="#ffa6d5"></use><use xlink:href="#bbburst-shape-11" width="12.389223999765747" opacity="0.7638403206114402" transform="matrix(0.9589797994293615,0.28347441557647063,-0.28347441557647063,0.9589797994293615,534.7751988575388,117.2095899432091)" fill="none" stroke="#00a19d"></use><use xlink:href="#bbburst-shape-10" width="11.717414261857328" opacity="0.8196807514979708" transform="matrix(0.8323391360306833,-0.5542666890872079,0.5542666890872079,0.8323391360306833,254.4172907060763,65.49182710177081)" fill="none" stroke="#ffbd9b"></use><use xlink:href="#bbburst-shape-11" width="9.622151965209705" opacity="0.7137654786902499" transform="matrix(0.8013701615295222,0.5981687589720374,-0.5981687589720374,0.8013701615295222,514.6412946000153,121.054661112318)" fill="none" stroke="#ffbd9b"></use><use xlink:href="#bbburst-shape-10" width="10.196776379999772" opacity="0.8239273701970748" transform="matrix(0.9869610317731635,0.16095937922734566,-0.16095937922734566,0.9869610317731635,429.52574188471726,-69.00956185608845)" fill="none" stroke="#ff5c58"></use><use xlink:href="#bbburst-shape-10" width="6.342346861639062" opacity="0.8400635984531115" transform="matrix(0.825020533788352,0.5651027506813099,-0.5651027506813099,0.825020533788352,563.3441985203663,28.574009579368294)" fill="none" stroke="#ffa6d5"></use><use xlink:href="#bbburst-shape-11" width="12.593765774548777" opacity="0.7130768584723131" transform="matrix(0.7718797203628271,-0.6357685878467132,0.6357685878467132,0.7718797203628271,11.623914295666111,93.48805863316278)" fill="none" stroke="#ffa6d5"></use><use xlink:href="#bbburst-shape-13" width="11.780328913765967" opacity="0.7593644492227275" transform="matrix(0.9503709944536306,-0.3111189047634636,0.3111189047634636,0.9503709944536306,265.10839084938095,129.86163925361427)" fill="none" stroke="#00a19d"></use><use xlink:href="#bbburst-shape-11" width="16.40671534230222" opacity="0.678636458306783" transform="matrix(0.9909431412771867,0.13428213118543192,-0.13428213118543192,0.9909431412771867,363.91064514709,-117.01120812896806)" fill="none" stroke="#ff5c58"></use><use xlink:href="#bbburst-shape-13" width="22.123431390940212" opacity="0.5807975565409732" transform="matrix(0.9437131121375052,-0.33076511602607767,0.33076511602607767,0.9437131121375052,163.1928311926453,-137.34337654824884)" fill="none" stroke="#ff5c58"></use><use xlink:href="#bbburst-shape-11" width="8.784228809258563" opacity="0.8783540045630107" transform="matrix(0.77152157431159,0.6362031596681722,-0.6362031596681722,0.77152157431159,596.9156526805257,81.18932921580017)" fill="none" stroke="#00a19d"></use><use xlink:href="#bbburst-shape-10" width="24.637863424927254" opacity="0.2709536281374765" transform="matrix(0.8677814255464262,-0.49694607099424,0.49694607099424,0.8677814255464262,496.8415700740391,-58.483623241421526)" fill="none" stroke="#ffa6d5"></use><use xlink:href="#bbburst-shape-13" width="22.47836042214218" opacity="0.28942528800628275" transform="matrix(0.9874040875280312,-0.15821873445624626,0.15821873445624626,0.9874040875280312,351.3302564913896,-311.90629469496656)" fill="none" stroke="#00a19d"></use><use xlink:href="#bbburst-shape-13" width="23.222609902107543" opacity="0.37992433284355764" transform="matrix(0.9999058945673166,0.013718673752748474,-0.013718673752748474,0.9999058945673166,524.8860969110269,-246.48862429415743)" fill="none" stroke="#ffa6d5"></use><use xlink:href="#bbburst-shape-13" width="17.906369461625747" opacity="0.6283724330049487" transform="matrix(0.8571628217711824,0.5150455290294871,-0.5150455290294871,0.8571628217711824,627.7048018874514,-112.11121964777396)" fill="none" stroke="#00a19d"></use><use xlink:href="#bbburst-shape-11" width="31.64989849975709" opacity="0.11884626134966969" transform="matrix(0.9435090108988219,-0.3313468671237543,0.3313468671237543,0.9435090108988219,-35.078235987760024,300.5604690969058)" fill="none" stroke="#ffbd9b"></use><use xlink:href="#bbburst-shape-13" width="11.287229671693572" opacity="0.7390700117158373" transform="matrix(0.7649692570945122,-0.644066794440041,0.644066794440041,0.7649692570945122,100.79515347607577,208.99671329910768)" fill="none" stroke="#ff5c58"></use><use xlink:href="#bbburst-shape-11" width="7.861808938053176" opacity="0.8788952399185215" transform="matrix(0.9291109548581109,0.3698010729603815,-0.3698010729603815,0.9291109548581109,497.60679411020885,-1.284079879167166)" fill="none" stroke="#00a19d"></use><use xlink:href="#bbburst-shape-13" width="24.204845035151813" opacity="0.500458387461165" transform="matrix(0.887188315347205,0.46140751306343974,-0.46140751306343974,0.887188315347205,694.6246998796088,229.11866784028012)" fill="none" stroke="#00a19d"></use><use xlink:href="#bbburst-shape-10" width="25.553053009825877" opacity="0.5009263454013979" transform="matrix(0.8052358813039444,-0.5929546150091589,0.5929546150091589,0.8052358813039444,7.437082505531009,-85.94080858500578)" fill="none" stroke="#ffbd9b"></use><use xlink:href="#bbburst-shape-10" width="25.62092503126174" opacity="0.526794575041468" transform="matrix(0.9751315248390401,-0.2216269596982471,0.2216269596982471,0.9751315248390401,374.75466601226645,-186.1709512251798)" fill="none" stroke="#00a19d"></use><use xlink:href="#bbburst-shape-11" width="33.38781115911643" opacity="0.25124805766556124" transform="matrix(0.9900561547060199,-0.1406727071209248,0.1406727071209248,0.9900561547060199,34.89032014412082,-161.77874285383265)" fill="none" stroke="#ffa6d5"></use><use xlink:href="#bbburst-shape-10" width="37.79916245951871" opacity="0.19819188758527218" transform="matrix(0.9778035593351465,-0.20952374412347288,0.20952374412347288,0.9778035593351465,535.9731369303015,283.794876103399)" fill="none" stroke="#ff5c58"></use><use xlink:href="#bbburst-shape-11" width="7.926770196694941" opacity="0.9764171673556249" transform="matrix(0.9640670029001767,0.2656592063510518,-0.2656592063510518,0.9640670029001767,506.72972882466024,22.941567369106338)" fill="none" stroke="#ff5c58"></use><use xlink:href="#bbburst-shape-10" width="9.533747874621902" opacity="0.8141983319736992" transform="matrix(0.9139762952780646,-0.40576758331560225,0.40576758331560225,0.9139762952780646,265.65828462249505,-40.76682974934761)" fill="none" stroke="#ffbd9b"></use><use xlink:href="#bbburst-shape-11" width="10.40256978196727" opacity="0.7641678254943813" transform="matrix(0.9788966991164655,0.20435570082307,-0.20435570082307,0.9788966991164655,388.1316429248448,65.74439079333922)" fill="none" stroke="#ff5c58"></use><use xlink:href="#bbburst-shape-11" width="33.28379014256977" opacity="0.003974857121668229" transform="matrix(0.9999422617237468,-0.010745846583585825,0.010745846583585825,0.9999422617237468,738.1622095718873,-268.4361944831436)" fill="none" stroke="#ffa6d5"></use><use xlink:href="#bbburst-shape-10" width="15.585813451931536" opacity="0.6657437399039456" transform="matrix(0.9375532724076641,0.3478417188861631,-0.3478417188861631,0.9375532724076641,400.16915216208406,95.00090303042145)" fill="none" stroke="#ffbd9b"></use><use xlink:href="#bbburst-shape-10" width="12.223887229288328" opacity="0.7787227417899278" transform="matrix(0.9660801796175583,0.2582423020151932,-0.2582423020151932,0.9660801796175583,486.28613613071144,-86.96389711924701)" fill="none" stroke="#ff5c58"></use><use xlink:href="#bbburst-shape-11" width="19.114056286367706" opacity="0.58108365933386" transform="matrix(0.8728624372764194,0.48796635702870816,-0.48796635702870816,0.8728624372764194,427.32896350943423,146.2427859904039)" fill="none" stroke="#00a19d"></use><use xlink:href="#bbburst-shape-13" width="23.40679783093228" opacity="0.5405424614158336" transform="matrix(0.7962951409349435,0.6049082976149347,-0.6049082976149347,0.7962951409349435,426.18913988826444,85.5562290900196)" fill="none" stroke="#ffa6d5"></use><use xlink:href="#bbburst-shape-13" width="22.38576557648859" opacity="0.40316805035043723" transform="matrix(0.8565505348851672,-0.5160631562008026,0.5160631562008026,0.8565505348851672,-25.794639196510417,-104.5451037527265)" fill="none" stroke="#ff5c58"></use><use xlink:href="#bbburst-shape-10" width="27.994887520024726" opacity="0.42569490008639566" transform="matrix(0.9863241467117212,0.16481710352204051,-0.16481710352204051,0.9863241467117212,218.26759765316913,-106.84807085786076)" fill="none" stroke="#00a19d"></use><use xlink:href="#bbburst-shape-10" width="19.023183214936427" opacity="0.528390451687079" transform="matrix(0.974386840972448,-0.22487837632759053,0.22487837632759053,0.974386840972448,494.7883956420386,-73.63994073522503)" fill="none" stroke="#00a19d"></use><use xlink:href="#bbburst-shape-11" width="24.037670615775788" opacity="0.17309784575692544" transform="matrix(0.7886576424623846,-0.6148325975301517,0.6148325975301517,0.7886576424623846,-226.3096743558828,123.91357089867222)" fill="none" stroke="#ffa6d5"></use><use xlink:href="#bbburst-shape-11" width="21.485801325143523" opacity="0.4641309516169928" transform="matrix(0.9969993983041273,0.07740930035343366,-0.07740930035343366,0.9969993983041273,611.5674159764907,-146.7271425449562)" fill="none" stroke="#ffa6d5"></use><use xlink:href="#bbburst-shape-11" width="8.756167339384737" opacity="0.9252691364544271" transform="matrix(0.9137122142111059,0.406361894868894,-0.406361894868894,0.9137122142111059,587.7916345489557,15.954067456027474)" fill="none" stroke="#ff5c58"></use><use xlink:href="#bbburst-shape-10" width="8.060154662712536" opacity="0.949026441280838" transform="matrix(0.874233727990129,0.4855052922929688,-0.4855052922929688,0.874233727990129,576.9798661501712,66.74807234044886)" fill="none" stroke="#ffa6d5"></use><use xlink:href="#bbburst-shape-11" width="11.137833626924705" opacity="0.8256589867556504" transform="matrix(0.9516855331372462,0.3070743330486534,-0.3070743330486534,0.9516855331372462,441.5959818057115,-2.0731314997845516)" fill="none" stroke="#ffbd9b"></use><use xlink:href="#bbburst-shape-13" width="25.840222665160745" opacity="0.3350213900784461" transform="matrix(0.8611705613419703,0.5083161066481718,-0.5083161066481718,0.8611705613419703,661.3298466684404,340.11006990145256)" fill="none" stroke="#ff5c58"></use><use xlink:href="#bbburst-shape-11" width="10.861748265245792" opacity="0.7922384995759023" transform="matrix(0.9441707121281757,-0.3294566228798163,0.3294566228798163,0.9441707121281757,169.5726849585679,26.006390022379662)" fill="none" stroke="#00a19d"></use><use xlink:href="#bbburst-shape-11" width="24.362847373079283" opacity="0.5137503644006963" transform="matrix(0.9783118400999502,-0.20713749906825032,0.20713749906825032,0.9783118400999502,523.9505527050451,14.16840147751418)" fill="none" stroke="#00a19d"></use><use xlink:href="#bbburst-shape-10" width="25.934404228625873" opacity="0.3219791396255255" transform="matrix(0.9400115030826877,-0.34114274735398725,0.34114274735398725,0.9400115030826877,-42.2742262230104,-54.493220973221355)" fill="none" stroke="#ff5c58"></use><use xlink:href="#bbburst-shape-13" width="29.129862653313424" opacity="0.36821908578215323" transform="matrix(0.932161484848343,-0.3620427684201583,0.3620427684201583,0.932161484848343,76.15251886818623,-198.78928728722695)" fill="none" stroke="#00a19d"></use><use xlink:href="#bbburst-shape-11" width="26.962339574383336" opacity="0.45026593772504775" transform="matrix(0.8429079816571179,-0.5380577426807683,0.5380577426807683,0.8429079816571179,405.5133779300831,154.88500073864407)" fill="none" stroke="#00a19d"></use><use xlink:href="#bbburst-shape-10" width="12.931674851554101" opacity="0.6808282871895524" transform="matrix(0.9452172126779063,0.3264420635540245,-0.3264420635540245,0.9452172126779063,621.0286519512489,-86.51925118392023)" fill="none" stroke="#ffa6d5"></use><use xlink:href="#bbburst-shape-13" width="8.744861966042443" opacity="0.8773750794702303" transform="matrix(0.9842954721082899,-0.17652881800748166,0.17652881800748166,0.9842954721082899,292.6275337471998,-37.57253342652177)" fill="none" stroke="#ffbd9b"></use><use xlink:href="#bbburst-shape-11" width="15.323647416973309" opacity="0.7303413523595803" transform="matrix(0.8157326648443362,0.5784290963514525,-0.5784290963514525,0.8157326648443362,704.4898068006687,161.00398516428254)" fill="none" stroke="#ff5c58"></use><use xlink:href="#bbburst-shape-11" width="21.083979104974382" opacity="0.5880894517734779" transform="matrix(0.910032196271995,-0.414537575797863,0.414537575797863,0.910032196271995,234.24781822019392,225.21206086357063)" fill="none" stroke="#ffa6d5"></use><use xlink:href="#bbburst-shape-10" width="19.176008053926235" opacity="0.6675256838999236" transform="matrix(0.9263062624164836,0.3767714270058234,-0.3767714270058234,0.9263062624164836,690.7978619015979,39.718092975760555)" fill="none" stroke="#ffbd9b"></use><use xlink:href="#bbburst-shape-13" width="23.90716687465641" opacity="0.36187987786885045" transform="matrix(0.9952378514355451,0.0974762487478865,-0.0974762487478865,0.9952378514355451,406.1883599798928,-285.65239404170984)" fill="none" stroke="#ffbd9b"></use><use xlink:href="#bbburst-shape-13" width="8.318023705064652" opacity="0.860322661844076" transform="matrix(0.9931164164331323,0.11713147916343139,-0.11713147916343139,0.9931164164331323,415.651168780771,58.992685921312216)" fill="none" stroke="#ffa6d5"></use><use xlink:href="#bbburst-shape-10" width="40.378652633979826" opacity="-0.10071331473245015" transform="matrix(0.9862508105801546,0.1652553739821736,-0.1652553739821736,0.9862508105801546,791.4584868529832,-352.9885561169634)" fill="none" stroke="#ffa6d5"></use><use xlink:href="#bbburst-shape-11" width="17.517075351708876" opacity="0.612233703153011" transform="matrix(0.9804512475701698,-0.1967621689708103,0.1967621689708103,0.9804512475701698,190.42594797676645,133.8464471270035)" fill="none" stroke="#ffa6d5"></use><use xlink:href="#bbburst-shape-11" width="23.464100615029114" opacity="0.2938920080927433" transform="matrix(0.9998198205570179,-0.01898226596938475,0.01898226596938475,0.9998198205570179,63.031461806131546,-8.315864746271757)" fill="none" stroke="#00a19d"></use><use xlink:href="#bbburst-shape-11" width="20.854148719067503" opacity="0.5750418344103294" transform="matrix(0.9390291622354969,-0.3438375088196468,0.3438375088196468,0.9390291622354969,251.31688223884674,-163.5058013642951)" fill="none" stroke="#00a19d"></use><use xlink:href="#bbburst-shape-11" width="15.857374888649739" opacity="0.6106585727328089" transform="matrix(0.7375749998262507,0.6752652216953767,-0.6752652216953767,0.7375749998262507,490.1292303275186,81.37147875963069)" fill="none" stroke="#ffa6d5"></use><use xlink:href="#bbburst-shape-11" width="7.448528270966151" opacity="0.9172170127115988" transform="matrix(0.8338379393414905,-0.5520093214020364,0.5520093214020364,0.8338379393414905,144.4621990712619,88.20713512050907)" fill="none" stroke="#ff5c58"></use><use xlink:href="#bbburst-shape-11" width="10.960599216716407" opacity="0.8122201335365924" transform="matrix(0.8244625132925799,0.5659165699776625,-0.5659165699776625,0.8244625132925799,567.7145328223495,2.1798615367376897)" fill="none" stroke="#ffbd9b"></use><use xlink:href="#bbburst-shape-13" width="10.484836606976899" opacity="0.8249997854307032" transform="matrix(0.95286745198043,-0.3033869129615235,0.3033869129615235,0.95286745198043,289.4926756495544,97.58352898137241)" fill="none" stroke="#ffa6d5"></use><use xlink:href="#bbburst-shape-10" width="12.737570454778389" opacity="0.7224805246109696" transform="matrix(0.9874959685171723,-0.15764425825995704,0.15764425825995704,0.9874959685171723,340.13548320652484,-118.51763156483395)" fill="none" stroke="#ffbd9b"></use><use xlink:href="#bbburst-shape-11" width="13.045028245537996" opacity="0.833766849476456" transform="matrix(0.975612234807248,0.2195011783440059,-0.2195011783440059,0.975612234807248,552.8746771272209,30.468827681839116)" fill="none" stroke="#00a19d"></use><use xlink:href="#bbburst-shape-11" width="16.090646198311177" opacity="0.6446154371674531" transform="matrix(0.7650677764418765,-0.6439497631417244,0.6439497631417244,0.7650677764418765,-6.1224350745396805,25.924933418927196)" fill="none" stroke="#ffbd9b"></use><use xlink:href="#bbburst-shape-10" width="11.639225223761056" opacity="0.8225537101541187" transform="matrix(0.99992299454968,-0.012409873923637686,0.012409873923637686,0.99992299454968,460.0066622665081,-36.84240253474019)" fill="none" stroke="#00a19d"></use><use xlink:href="#bbburst-shape-11" width="10.84399902986188" opacity="0.8765325598844687" transform="matrix(0.8520625176479368,0.5234400309676929,-0.5234400309676929,0.8520625176479368,658.6705312158256,42.503920005993734)" fill="none" stroke="#ffa6d5"></use><use xlink:href="#bbburst-shape-11" width="21.462661808074156" opacity="0.5760144246424597" transform="matrix(0.7297176652092712,-0.683748586164191,0.683748586164191,0.7297176652092712,265.11962401755903,-6.813458078169276)" fill="none" stroke="#ffa6d5"></use><use xlink:href="#bbburst-shape-10" width="19.267179616696342" opacity="0.47654155863619574" transform="matrix(0.9656730481083131,-0.259760590077093,0.259760590077093,0.9656730481083131,352.63559916538185,242.40019070836456)" fill="none" stroke="#00a19d"></use><use xlink:href="#bbburst-shape-13" width="12.32974902821194" opacity="0.7962882724085775" transform="matrix(0.9358055654466525,-0.3525165863885997,0.3525165863885997,0.9358055654466525,327.47017794770795,81.61885750579717)" fill="none" stroke="#00a19d"></use><use xlink:href="#bbburst-shape-11" width="28.220375024700786" opacity="0.11231033887879083" transform="matrix(0.9595818399071251,-0.28142972927616683,0.28142972927616683,0.9595818399071251,584.7528802315258,270.5244262533239)" fill="none" stroke="#ffa6d5"></use><use xlink:href="#bbburst-shape-11" width="10.623022563105154" opacity="0.8115937974012462" transform="matrix(0.9965250296445669,-0.08329384906399173,0.08329384906399173,0.9965250296445669,417.5172889760287,-61.83749201869068)" fill="none" stroke="#ffa6d5"></use><use xlink:href="#bbburst-shape-10" width="11.81226734783188" opacity="0.6741662029673527" transform="matrix(0.9229874268356515,0.3848301052455522,-0.3848301052455522,0.9229874268356515,406.2414609065697,-7.0619244509560986)" fill="none" stroke="#00a19d"></use><use xlink:href="#bbburst-shape-13" width="10.59296328670107" opacity="0.7901797831116962" transform="matrix(0.9472826467682948,-0.3203991060094488,0.3203991060094488,0.9472826467682948,186.26233050978266,-26.45966795149019)" fill="none" stroke="#00a19d"></use><use xlink:href="#bbburst-shape-10" width="25.8947923748272" opacity="0.1307895487605265" transform="matrix(0.7829744105719397,0.622053914375212,-0.622053914375212,0.7829744105719397,496.69949275267805,-285.7084958587892)" fill="none" stroke="#ffa6d5"></use><use xlink:href="#bbburst-shape-11" width="35.143597422548346" opacity="0.03835337080173851" transform="matrix(0.9912265528834797,-0.13217382819126552,0.13217382819126552,0.9912265528834797,-27.16746023313631,-239.4515015449644)" fill="none" stroke="#ff5c58"></use><use xlink:href="#bbburst-shape-13" width="17.29636570367702" opacity="0.6805556129304298" transform="matrix(0.831478465449771,0.5555569831199082,-0.5555569831199082,0.831478465449771,599.0662780043192,-80.25655322992395)" fill="none" stroke="#ffa6d5"></use><use xlink:href="#bbburst-shape-11" width="35.428821439129074" opacity="0.18870774532625778" transform="matrix(0.9989551147784087,0.04570206404590783,-0.04570206404590783,0.9989551147784087,764.7491720758676,25.307928181918555)" fill="none" stroke="#00a19d"></use><use xlink:href="#bbburst-shape-13" width="31.917494308268648" opacity="0.2216490178638757" transform="matrix(0.9978384241950048,0.06571513676490201,-0.06571513676490201,0.9978384241950048,604.6889633987703,-291.59031160656923)" fill="none" stroke="#00a19d"></use><use xlink:href="#bbburst-shape-11" width="17.371466461927238" opacity="0.6425638770425526" transform="matrix(0.9613321703878106,0.2753914635159585,-0.2753914635159585,0.9613321703878106,569.304917507753,-133.16685533145505)" fill="none" stroke="#ffa6d5"></use><use xlink:href="#bbburst-shape-10" width="10.026571020881399" opacity="0.7616466904977705" transform="matrix(0.7932725734086465,-0.608866672004326,0.608866672004326,0.7932725734086465,47.87493796983773,62.01533336169746)" fill="none" stroke="#ffa6d5"></use><use xlink:href="#bbburst-shape-10" width="31.8764926536655" opacity="0.3045027856587966" transform="matrix(0.9084150241616535,-0.41806954430738247,0.41806954430738247,0.9084150241616535,-86.8304298577454,112.95265407183433)" fill="none" stroke="#00a19d"></use><use xlink:href="#bbburst-shape-11" width="33.74098060142243" opacity="0.03615350975395892" transform="matrix(0.9970743957804231,-0.0764372244335452,0.0764372244335452,0.9970743957804231,-12.637062504550855,236.00440623160557)" fill="none" stroke="#00a19d"></use><use xlink:href="#bbburst-shape-13" width="13.619162955730959" opacity="0.6978847829919159" transform="matrix(0.9552936967534016,-0.29565850730736626,0.29565850730736626,0.9552936967534016,386.01674480417387,98.69633752062987)" fill="none" stroke="#00a19d"></use><use xlink:href="#bbburst-shape-11" width="39.59545658252073" opacity="-0.10536208049300422" transform="matrix(0.8428952020812802,-0.5380777623247013,0.5380777623247013,0.8428952020812802,-184.6177636031447,-277.9574699469072)" fill="none" stroke="#00a19d"></use><use xlink:href="#bbburst-shape-13" width="14.807268134876207" opacity="0.593146390438885" transform="matrix(0.8365625879526352,0.5478713685145351,-0.5478713685145351,0.8365625879526352,719.8482853301022,-87.32046809494943)" fill="none" stroke="#ff5c58"></use><use xlink:href="#bbburst-shape-13" width="26.50091251958046" opacity="0.10243481487312567" transform="matrix(0.9873948452636441,-0.15827640236871787,0.15827640236871787,0.9873948452636441,42.14178816298683,-282.544326672155)" fill="none" stroke="#00a19d"></use><use xlink:href="#bbburst-shape-11" width="29.560375767810303" opacity="0.2049814059810856" transform="matrix(0.9079442952083593,-0.41909086938108736,0.41909086938108736,0.9079442952083593,244.0690356458281,399.5344114897476)" fill="none" stroke="#ffa6d5"></use><use xlink:href="#bbburst-shape-10" width="39.103727254250735" opacity="0.29098417955664946" transform="matrix(0.8649871335534064,0.5017940402067979,-0.5017940402067979,0.8649871335534064,854.8862606792111,212.45785637443464)" fill="none" stroke="#ffa6d5"></use><use xlink:href="#bbburst-shape-13" width="21.338545759017357" opacity="0.4485622628000441" transform="matrix(0.9955828168476046,-0.0938874581495785,0.0938874581495785,0.9955828168476046,110.16866589532465,59.16147410398622)" fill="none" stroke="#00a19d"></use><use xlink:href="#bbburst-shape-10" width="26.982663174555807" opacity="0.3056648355582505" transform="matrix(0.999764273635614,-0.02171168261220164,0.02171168261220164,0.999764273635614,689.0880919861609,-26.85517110013825)" fill="none" stroke="#ffa6d5"></use><use xlink:href="#bbburst-shape-11" width="21.064419907618245" opacity="0.5995423744614854" transform="matrix(0.8368085444402994,0.5474956255091976,-0.5474956255091976,0.8368085444402994,671.3037245366311,228.86139966981642)" fill="none" stroke="#00a19d"></use><use xlink:href="#bbburst-shape-11" width="29.294598160509977" opacity="0.16858152366485346" transform="matrix(0.7662417175220119,0.6425524339140872,-0.6425524339140872,0.7662417175220119,926.053917301653,-164.33421400739743)" fill="none" stroke="#00a19d"></use><use xlink:href="#bbburst-shape-11" width="16.347268085030635" opacity="0.636042891573041" transform="matrix(0.9862856687153124,-0.16504720441979315,0.16504720441979315,0.9862856687153124,421.6656461634743,139.4808486689493)" fill="none" stroke="#ffa6d5"></use><use xlink:href="#bbburst-shape-11" width="14.637168568292491" opacity="0.6139624503582399" transform="matrix(0.9767766362839158,0.21426012883847287,-0.21426012883847287,0.9767766362839158,356.4406744741789,-115.97685505256516)" fill="none" stroke="#ffa6d5"></use><use xlink:href="#bbburst-shape-11" width="28.04738667874779" opacity="0.3509625096738177" transform="matrix(0.96179726989404,-0.27376269217037424,0.27376269217037424,0.96179726989404,248.75750825259277,309.47970938003425)" fill="none" stroke="#ffa6d5"></use><use xlink:href="#bbburst-shape-11" width="19.317122048022306" opacity="0.5387059107855336" transform="matrix(0.9036408357599419,-0.4282910691890196,0.4282910691890196,0.9036408357599419,49.73517546754795,-76.50544977545161)" fill="none" stroke="#00a19d"></use><use xlink:href="#bbburst-shape-11" width="16.75911298226488" opacity="0.5678468278628982" transform="matrix(0.880254578355508,0.4745017147325885,-0.4745017147325885,0.880254578355508,724.2646045471497,176.88082247720467)" fill="none" stroke="#ffa6d5"></use><use xlink:href="#bbburst-shape-11" width="14.98404273473977" opacity="0.6679480282863739" transform="matrix(0.8455606427845995,-0.5338793865412813,0.5338793865412813,0.8455606427845995,154.14911650417648,212.7807499601609)" fill="none" stroke="#ff5c58"></use><use xlink:href="#bbburst-shape-11" width="14.619418541102828" opacity="0.7312647219518102" transform="matrix(0.9256082047132785,0.378483092578072,-0.378483092578072,0.9256082047132785,435.6096270127513,-25.374942140733197)" fill="none" stroke="#ffa6d5"></use><use xlink:href="#bbburst-shape-10" width="30.554659989527877" opacity="0.3469163181697257" transform="matrix(0.99996532357125,0.008327764108412405,-0.008327764108412405,0.99996532357125,534.118273948186,254.90677335634626)" fill="none" stroke="#ffa6d5"></use><use xlink:href="#bbburst-shape-10" width="20.606670100121942" opacity="0.39344321771978064" transform="matrix(0.8044990502772665,-0.5939539360110144,0.5939539360110144,0.8044990502772665,425.8359574367897,110.3497888005208)" fill="none" stroke="#00a19d"></use><use xlink:href="#bbburst-shape-11" width="19.85773613322882" opacity="0.47494623876865305" transform="matrix(0.9809073358604423,-0.1944757014517996,0.1944757014517996,0.9809073358604423,101.72816998163938,116.24762717691402)" fill="none" stroke="#ff5c58"></use><use xlink:href="#bbburst-shape-11" width="31.696640704456424" opacity="0.3476220946123604" transform="matrix(0.7969255558172779,0.6040775268831995,-0.6040775268831995,0.7969255558172779,486.501898385291,327.85936414177)" fill="none" stroke="#ffa6d5"></use><use xlink:href="#bbburst-shape-10" width="27.126381155775213" opacity="0.3107231509763594" transform="matrix(0.9764581961811502,-0.21570672476919792,0.21570672476919792,0.9764581961811502,391.8940544446542,-284.0535186550845)" fill="none" stroke="#ffa6d5"></use><use xlink:href="#bbburst-shape-10" width="22.463912883757114" opacity="0.05647160705804921" transform="matrix(0.8676833680599297,-0.4971172626173592,0.4971172626173592,0.8676833680599297,558.800629549096,271.3410171002645)" fill="none" stroke="#ff5c58"></use><use xlink:href="#bbburst-shape-13" width="8.204308816202158" opacity="0.9362995056296166" transform="matrix(0.9501812728926267,0.311697848314915,-0.311697848314915,0.9501812728926267,522.6612065973266,47.25237352496066)" fill="none" stroke="#00a19d"></use><use xlink:href="#bbburst-shape-13" width="29.776376961666756" opacity="0.17428497802390042" transform="matrix(0.7717853396174967,-0.6358831571535019,0.6358831571535019,0.7717853396174967,-231.92411928852323,37.107588566580944)" fill="none" stroke="#00a19d"></use><use xlink:href="#bbburst-shape-11" width="28.56463881061547" opacity="0.0244494410826257" transform="matrix(0.9852612458163814,0.17105635764961188,-0.17105635764961188,0.9852612458163814,208.8578117329273,-360.80765084642735)" fill="none" stroke="#ffa6d5"></use><use xlink:href="#bbburst-shape-13" width="23.401985518237424" opacity="0.5581717065461842" transform="matrix(0.9749576638340549,-0.22239054325946966,0.22239054325946966,0.9749576638340549,195.00770199197166,181.68550096749436)" fill="none" stroke="#ffa6d5"></use><use xlink:href="#bbburst-shape-10" width="33.51595177247445" opacity="0.3387635975914829" transform="matrix(0.9743697090915956,0.2249525950167263,-0.2249525950167263,0.9743697090915956,680.4236379109445,-207.49314595321823)" fill="none" stroke="#ffa6d5"></use><use xlink:href="#bbburst-shape-10" width="9.73114775091867" opacity="0.8318089253865593" transform="matrix(0.9832041062906159,0.1825094117388775,-0.1825094117388775,0.9832041062906159,468.2018909547063,-69.85563718087462)" fill="none" stroke="#ffa6d5"></use><use xlink:href="#bbburst-shape-10" width="9.317953192124888" opacity="0.8754081712300803" transform="matrix(0.7234240281827202,-0.6904039943742264,0.6904039943742264,0.7234240281827202,120.87095768912945,169.9118385817569)" fill="none" stroke="#ffbd9b"></use><use xlink:href="#bbburst-shape-11" width="10.798719969676032" opacity="0.7933062941790576" transform="matrix(0.9774103472860419,0.21135045071676287,-0.21135045071676287,0.9774103472860419,528.9405762010632,86.41174516590524)" fill="none" stroke="#ff5c58"></use><use xlink:href="#bbburst-shape-10" width="6.471406372194076" opacity="0.9430631202009018" transform="matrix(0.9897014464422504,0.1431469416722455,-0.1431469416722455,0.9897014464422504,479.45629725944843,7.019441821214912)" fill="none" stroke="#00a19d"></use><use xlink:href="#bbburst-shape-13" width="8.198481214412467" opacity="0.8733183642970147" transform="matrix(0.8908731586314164,0.4542521493951166,-0.4542521493951166,0.8908731586314164,564.8109676065951,-13.659738544496975)" fill="none" stroke="#ffa6d5"></use><use xlink:href="#bbburst-shape-11" width="26.164025753125216" opacity="0.4728408399477637" transform="matrix(0.8663992250077959,0.4993519629538775,-0.4993519629538775,0.8663992250077959,587.0255232632712,283.83222298915774)" fill="none" stroke="#ff5c58"></use><use xlink:href="#bbburst-shape-13" width="9.418744138180536" opacity="0.8043689434722201" transform="matrix(0.9587986029299294,-0.2840866751884283,0.2840866751884283,0.9587986029299294,245.0264290205631,97.7809566602993)" fill="none" stroke="#00a19d"></use><use xlink:href="#bbburst-shape-13" width="27.005180603779763" opacity="0.1876726239691009" transform="matrix(0.8796480743821675,0.47562513099682263,-0.47562513099682263,0.8796480743821675,527.3358693198566,-320.24839740877655)" fill="none" stroke="#00a19d"></use><use xlink:href="#bbburst-shape-11" width="16.86595808116702" opacity="0.6533967852300426" transform="matrix(0.9999096011664865,0.013445798417269882,-0.013445798417269882,0.9999096011664865,243.0230155149941,24.882456769482985)" fill="none" stroke="#ffbd9b"></use><use xlink:href="#bbburst-shape-11" width="7.972763642996674" opacity="0.8713584787885226" transform="matrix(0.7771807506890867,-0.6292774274978785,0.6292774274978785,0.7771807506890867,155.9278320531579,34.684384111889926)" fill="none" stroke="#00a19d"></use><use xlink:href="#bbburst-shape-13" width="23.292684891723635" opacity="0.45680227486326164" transform="matrix(0.9901881024488697,0.13974090943137182,-0.13974090943137182,0.9901881024488697,343.8267785703876,-220.5089571210433)" fill="none" stroke="#ffa6d5"></use><use xlink:href="#bbburst-shape-11" width="13.677064741551073" opacity="0.7430752101686746" transform="matrix(0.787548684396423,-0.6162524399184666,0.6162524399184666,0.787548684396423,64.07476554127001,9.539606424605154)" fill="none" stroke="#00a19d"></use><use xlink:href="#bbburst-shape-11" width="10.25292087830135" opacity="0.8169395553111469" transform="matrix(0.9952065512770537,-0.09779529791985395,0.09779529791985395,0.9952065512770537,280.2150477082563,35.118511900598605)" fill="none" stroke="#ffa6d5"></use><use xlink:href="#bbburst-shape-11" width="36.484645915868974" opacity="0.2193500959018838" transform="matrix(0.9355753412010793,-0.35312714556726454,0.35312714556726454,0.9355753412010793,56.4565831391254,-266.8238402136606)" fill="none" stroke="#00a19d"></use><use xlink:href="#bbburst-shape-11" width="10.52715147116303" opacity="0.7508048909914943" transform="matrix(0.9918886401832296,-0.12710989526965905,0.12710989526965905,0.9918886401832296,284.55422634210043,-91.3568580769205)" fill="none" stroke="#00a19d"></use><use xlink:href="#bbburst-shape-13" width="33.06319499818031" opacity="0.022395302973068354" transform="matrix(0.9515720580923793,0.30742579309133045,-0.30742579309133045,0.9515720580923793,759.2457004793608,374.8776829365543)" fill="none" stroke="#ffbd9b"></use><use xlink:href="#bbburst-shape-11" width="24.27042423969777" opacity="0.4880766061974978" transform="matrix(0.7212430917236065,0.6926820357429327,-0.6926820357429327,0.7212430917236065,443.2196781592752,54.909202699302455)" fill="none" stroke="#00a19d"></use><use xlink:href="#bbburst-shape-13" width="24.34310327746639" opacity="0.45674658297174087" transform="matrix(0.9995116597684837,0.031248071730124817,-0.031248071730124817,0.9995116597684837,439.0549976724786,-241.56296405733843)" fill="none" stroke="#00a19d"></use><use xlink:href="#bbburst-shape-13" width="12.86798205929715" opacity="0.7474324463619479" transform="matrix(0.7701239112009729,-0.6378943183604288,0.6378943183604288,0.7701239112009729,253.3795213642884,89.9665973909784)" fill="none" stroke="#00a19d"></use><use xlink:href="#bbburst-shape-11" width="10.57852447197655" opacity="0.7558949180464876" transform="matrix(0.909736450770931,0.41518621140243733,-0.41518621140243733,0.909736450770931,497.2374115246096,123.00389222688716)" fill="none" stroke="#ff5c58"></use><use xlink:href="#bbburst-shape-13" width="19.8224847608183" opacity="0.47546981077390005" transform="matrix(0.938085572820574,0.346403605734547,-0.346403605734547,0.938085572820574,348.1233357397233,172.66763832579932)" fill="none" stroke="#ffbd9b"></use><use xlink:href="#bbburst-shape-11" width="28.424241450700244" opacity="0.2656243481366485" transform="matrix(0.9543491200532283,-0.2986934164885946,0.2986934164885946,0.9543491200532283,163.8608240328013,336.16703472407335)" fill="none" stroke="#00a19d"></use><use xlink:href="#bbburst-shape-13" width="10.347834018420118" opacity="0.7462793102687699" transform="matrix(0.9663666563374038,-0.25716820472069635,0.25716820472069635,0.9663666563374038,352.413728095613,-82.17994284532637)" fill="none" stroke="#ff5c58"></use><use xlink:href="#bbburst-shape-11" width="16.131705998954747" opacity="0.5832218090152123" transform="matrix(0.958996168588284,0.2834190336462809,-0.2834190336462809,0.958996168588284,690.6908688087292,-16.910352012578187)" fill="none" stroke="#ffa6d5"></use><use xlink:href="#bbburst-shape-11" width="13.043363494874775" opacity="0.7498186545998257" transform="matrix(0.9865914141020431,-0.16320962477786308,0.16320962477786308,0.9865914141020431,292.04056986596305,-100.33616178118501)" fill="none" stroke="#00a19d"></use><use xlink:href="#bbburst-shape-11" width="21.652104307411527" opacity="0.4189776560167203" transform="matrix(0.879159363698824,0.476527872448904,-0.476527872448904,0.879159363698824,319.8324850608452,37.04645619128496)" fill="none" stroke="#00a19d"></use><use xlink:href="#bbburst-shape-11" width="14.159520741969498" opacity="0.6858988076687841" transform="matrix(0.8778644049289632,-0.47890926756403157,0.47890926756403157,0.8778644049289632,219.50003449188566,192.35926260494176)" fill="none" stroke="#ffbd9b"></use><use xlink:href="#bbburst-shape-13" width="36.71764838898785" opacity="-0.10384352556567644" transform="matrix(0.8255632466084128,0.5643096010607801,-0.5643096010607801,0.8255632466084128,253.71633795683738,404.954142286409)" fill="none" stroke="#00a19d"></use><use xlink:href="#bbburst-shape-11" width="10.117903205829126" opacity="0.8234214833477383" transform="matrix(0.9872040962544857,-0.15946182094270797,0.15946182094270797,0.9872040962544857,319.8463680975951,84.44135142041796)" fill="none" stroke="#ff5c58"></use><use xlink:href="#bbburst-shape-10" width="31.80412355195285" opacity="0.2575826945450628" transform="matrix(0.933753335674956,0.3579171805262958,-0.3579171805262958,0.933753335674956,283.5856971170766,-206.6146128041026)" fill="none" stroke="#ffbd9b"></use><use xlink:href="#bbburst-shape-10" width="26.83618602510817" opacity="0.4452351060437989" transform="matrix(0.9578885415434645,0.2871402827534559,-0.2871402827534559,0.9578885415434645,349.7822294725558,210.85793319472953)" fill="none" stroke="#00a19d"></use><use xlink:href="#bbburst-shape-11" width="34.53439658310438" opacity="0.008321252344664742" transform="matrix(0.9884955604047236,-0.1512498828434304,0.1512498828434304,0.9884955604047236,59.47359344459599,367.37364739955837)" fill="none" stroke="#ffbd9b"></use></svg>