<svg width="51" height="54" viewBox="0 0 51 54" fill="none" xmlns="http://www.w3.org/2000/svg">
<path d="M50.0744 0C49.7295 0 49.3846 0.275624 49.3158 0.620515C49.3158 0.896139 47.1782 25.8593 25.3183 36.6168C3.59639 25.8594 1.38972 0.896348 1.38972 0.689473C1.38972 0.275797 1.04483 -0.000307681 0.631152 0.0689585C0.217476 0.0689585 -0.0586277 0.413849 0.0106385 0.827525C0.0106385 1.10315 2.14822 26.1352 23.8702 37.5134C22.2151 37.789 20.6979 38.6168 19.5257 39.789C17.9398 41.3749 17.1119 43.4438 17.1119 45.6507C17.1119 47.8576 17.9393 49.926 19.5257 51.5124C21.1117 53.0983 23.1805 53.9262 25.3874 53.9262C27.5944 53.9262 29.6627 53.0989 31.2491 51.5124C32.8351 49.9265 33.6629 47.8576 33.6629 45.6507C33.6629 43.4438 32.8356 41.3754 31.2491 39.789C30.0081 38.548 28.5598 37.7895 26.9046 37.5134C48.5576 26.0662 50.6953 1.0344 50.6953 0.758566C50.7645 0.413676 50.4884 0.068786 50.0748 0H50.0744ZM32.2831 45.5815C32.2831 46.2713 32.2143 46.8918 32.0075 47.581L29.3181 46.4088C29.3869 46.1332 29.3869 45.9259 29.3869 45.6502C29.3869 45.3053 29.3181 44.9604 29.2488 44.6161L32.0069 43.6507C32.145 44.2024 32.283 44.8917 32.283 45.5815L32.2831 45.5815ZM28.0078 45.5815C28.0078 46.2713 27.7322 46.9605 27.2492 47.4435C26.7663 47.9264 26.077 48.202 25.3872 48.202C24.6975 48.202 24.0082 47.9264 23.5252 47.4435C23.0423 46.9605 22.7667 46.2712 22.7667 45.5815C22.7667 44.8917 23.0423 44.2024 23.5252 43.7195C24.0082 43.2365 24.6975 42.9609 25.3872 42.9609C26.077 42.9609 26.7663 43.2365 27.2492 43.7195C27.7317 44.2024 28.0078 44.8917 28.0078 45.5815ZM18.4914 45.5815C18.4914 44.8917 18.5602 44.2024 18.767 43.5819L21.4564 44.6161C21.3876 44.961 21.3184 45.2366 21.3184 45.5815C21.3184 45.7883 21.3184 46.0644 21.3872 46.2713L18.7676 47.5123C18.6295 46.8918 18.4915 46.2708 18.4915 45.5815L18.4914 45.5815ZM25.3873 41.5819C25.1116 41.5819 24.7667 41.6507 24.4906 41.7199L23.3877 38.9614C24.0082 38.7545 24.698 38.6857 25.3872 38.6857C26.077 38.6857 26.6976 38.7545 27.3868 38.9614L26.2145 41.6507C25.9389 41.582 25.6633 41.582 25.3872 41.582L25.3873 41.5819ZM20.4915 40.6853C20.9744 40.2023 21.5256 39.7887 22.0774 39.5131L23.1808 42.2024C22.974 42.3405 22.6979 42.5473 22.491 42.7542C22.2842 42.961 22.1462 43.1678 22.0081 43.3747L19.25 42.3405C19.6637 41.72 20.0086 41.1683 20.4915 40.6854L20.4915 40.6853ZM19.3187 48.8226L21.9393 47.5816C22.1461 47.8572 22.2842 48.2021 22.5598 48.409C22.7666 48.6158 22.9047 48.7539 23.1115 48.8919L22.0774 51.65C21.5256 51.3051 20.9739 50.9602 20.4914 50.4778C20.0085 49.9256 19.5948 49.3743 19.3187 48.8226L19.3187 48.8226ZM23.3877 52.1325L24.4218 49.4431C24.7667 49.5119 25.0424 49.5812 25.3872 49.5812C25.6629 49.5812 25.939 49.5124 26.2146 49.5124L27.318 52.2018C26.6975 52.4086 26.0077 52.4774 25.3185 52.4774C24.698 52.4774 24.0081 52.3393 23.3876 52.1325H23.3877ZM30.2143 50.4085C29.7313 50.8915 29.1801 51.3051 28.6284 51.5808L27.5249 48.8914C27.8006 48.7533 28.0079 48.5465 28.2147 48.3397C28.4215 48.1328 28.6284 47.8567 28.8352 47.5811L31.4558 48.7533C31.1109 49.3743 30.6972 49.9256 30.2143 50.4085L30.2143 50.4085ZM31.3865 42.2712L28.6284 43.3054C28.4904 43.0985 28.3528 42.8917 28.1455 42.7537C27.9387 42.5468 27.6625 42.34 27.3869 42.2019L28.5592 39.5814C29.1797 39.9263 29.6626 40.2712 30.1451 40.7536C30.6973 41.1683 31.111 41.72 31.3866 42.2712L31.3865 42.2712Z" fill="#156800"/>
<path d="M15.2507 24.9628C16.0093 26.0662 17.1816 26.8248 18.4918 27.1004C18.8367 27.1691 19.1816 27.1691 19.4572 27.1691C20.4226 27.1691 21.4567 26.8935 22.2846 26.2725C23.388 25.514 24.1466 24.3417 24.4222 23.0315C24.6978 21.7212 24.4222 20.3421 23.6636 19.2387C23.1807 18.4801 22.4914 17.8596 21.6641 17.5147C22.147 17.0318 22.4914 16.4805 22.6295 15.7907C22.7675 14.9634 22.6295 14.0668 22.1465 13.377C21.7328 12.7564 21.0431 12.2735 20.2845 12.0666C20.3533 11.9286 20.3533 11.791 20.3533 11.7217C20.3533 11.5149 20.2845 11.2388 20.1465 11.1012V9.10168C20.5601 9.03289 21.0431 8.82605 21.4568 8.4119C22.3534 7.58454 22.7671 6.27431 22.7671 4.48102V4.2054C22.7671 2.4126 21.3188 0.964355 19.5261 0.964355C17.7333 0.964355 16.285 2.41273 16.285 4.2054C16.285 4.61908 16.5607 4.89518 16.9748 4.89518C17.3885 4.89518 17.6646 4.61956 17.6646 4.2054C17.6646 3.17122 18.492 2.3434 19.5266 2.3434C20.5608 2.3434 21.3886 3.17075 21.3886 4.2054L21.3881 4.48198C21.3881 5.86103 21.1125 6.82644 20.5608 7.37823C20.0778 7.86118 19.5266 7.79191 19.5266 7.86118C19.3198 7.86118 19.1129 7.92996 18.9749 8.06802C18.8368 8.20607 18.768 8.41291 18.768 8.55096V11.1023C18.63 11.2403 18.4924 11.516 18.4924 11.7228C18.4924 11.8609 18.4924 11.9984 18.5612 12.0677C18.2163 12.1365 17.9407 12.2745 17.5958 12.4814C16.906 12.9643 16.4236 13.7224 16.2167 14.5502C16.0787 15.3776 16.2167 16.2742 16.6997 16.964C16.8377 17.1709 16.9753 17.3777 17.1826 17.5158C16.9758 17.6538 16.769 17.7226 16.5621 17.8607C14.3547 19.5154 13.7337 22.6871 15.2509 24.9629L15.2507 24.9628ZM17.6645 14.8951C17.7333 14.4122 18.0094 13.9985 18.4231 13.7229C18.6987 13.516 19.1129 13.378 19.4573 13.378C19.5953 13.378 19.6641 13.378 19.8022 13.4468C20.2851 13.5156 20.6988 13.7917 20.9744 14.2053C21.5261 15.0327 21.3193 16.2049 20.4915 16.7567C19.6641 17.3084 18.4919 17.1016 17.9401 16.2737C17.6645 15.8605 17.5264 15.3776 17.6645 14.8952L17.6645 14.8951ZM17.3884 19.1016C18.0089 18.6879 18.6988 18.4811 19.4573 18.4811C19.6641 18.4811 19.9402 18.4811 20.1471 18.5498C21.1125 18.7567 21.9399 19.3084 22.4915 20.1358C23.0433 20.9631 23.2501 21.9285 23.0433 22.8938C22.8364 23.8592 22.2847 24.6866 21.4574 25.2383C20.63 25.79 19.6646 25.9969 18.6993 25.79C17.7339 25.5832 16.9065 25.0315 16.3548 24.2041C15.2509 22.5494 15.7338 20.2045 17.3885 19.1014L17.3884 19.1016Z" fill="#156800"/>
<path d="M26.9738 25.0318C27.9392 26.4802 29.5251 27.2387 31.1802 27.2387C32.1456 27.2387 33.1798 26.9631 34.0765 26.3421C35.1799 25.5836 35.9385 24.4113 36.1454 23.1011C36.3522 21.7908 36.0766 20.4117 35.318 19.3083C34.7663 18.5497 34.077 17.9979 33.3185 17.5843C34.4219 16.4808 34.6975 14.7569 33.7321 13.3778C33.3185 12.7573 32.6287 12.2744 31.8701 12.1368C31.9389 11.9988 31.9389 11.8612 31.9389 11.7232C31.9389 11.5163 31.8701 11.2402 31.6633 11.1026V9.10309C32.077 9.03431 32.5599 8.82747 32.9736 8.34453C33.8702 7.51717 34.284 6.20694 34.2146 4.41365V4.13803C34.2146 2.34523 32.6975 0.965698 30.9736 0.965698C30.1462 0.965698 29.3185 1.31059 28.698 1.93109C28.0774 2.5516 27.8014 3.37946 27.8014 4.20672C27.8014 4.62039 28.1462 4.8965 28.4911 4.8965C28.9048 4.8965 29.1809 4.55161 29.1809 4.20672C29.1809 3.72377 29.3877 3.24132 29.7326 2.89638C30.0775 2.55149 30.56 2.34466 31.043 2.34466C32.0772 2.34466 32.905 3.17201 32.905 4.13745V4.41307C32.905 5.79212 32.6293 6.75754 32.0776 7.30933C31.5947 7.79227 31.0434 7.79227 31.0434 7.79227C30.8366 7.79227 30.6298 7.86105 30.4917 7.99911C30.3537 8.13716 30.2849 8.344 30.2849 8.48205V11.0334C30.1468 11.1714 30.0092 11.4471 30.0092 11.6539C30.0092 11.792 30.0092 11.9295 30.078 11.9988C29.7331 12.0676 29.4575 12.2056 29.1126 12.4125C28.4229 12.8954 27.9404 13.6535 27.8023 14.4813C27.6643 15.3087 27.8023 16.2053 28.354 16.8951C28.4921 17.102 28.6989 17.3088 28.837 17.4469C28.6301 17.5849 28.4233 17.6537 28.2165 17.7917C26.0086 19.5845 25.3881 22.7568 26.974 25.032L26.9738 25.0318ZM29.2494 14.8954C29.3182 14.4125 29.5943 13.9988 30.008 13.7232C30.3528 13.5164 30.6977 13.3783 31.0421 13.3783H31.387C31.87 13.4471 32.2836 13.7232 32.5593 14.1369C33.111 14.9642 32.9041 16.1364 32.0763 16.6882C31.6626 16.9638 31.1797 17.1019 30.6973 16.9638C30.2143 16.8951 29.8007 16.619 29.525 16.2053C29.2494 15.8609 29.1806 15.3779 29.2494 14.8954H29.2494ZM29.0426 19.1019C29.6631 18.6882 30.4216 18.4814 31.1114 18.4814C32.2837 18.4814 33.4559 19.0331 34.1457 20.0673C35.3179 21.7224 34.9043 24.0669 33.1803 25.1703C31.5252 26.3426 29.1807 25.9289 28.0773 24.2049C26.9738 22.6185 27.388 20.2741 29.0427 19.1019L29.0426 19.1019Z" fill="#156800"/>
</svg>
