<svg width="83" height="112" viewBox="0 0 83 112" fill="none" xmlns="http://www.w3.org/2000/svg">
<path d="M32.1077 0L0.943876 16.7025L11.2793 22.6766L42.7576 5.62148L32.107 0.00202089L32.1077 0ZM44.7619 6.68101L13.2432 23.8161L20.6312 28.06L51.9522 10.4924L44.7608 6.67989L44.7619 6.68101ZM53.9579 11.554L53.8789 11.5935H53.8798C53.8666 11.6066 53.8535 11.6198 53.8403 11.6321L22.5575 29.161L32.3825 34.8595L63.7439 16.7429L53.9585 11.5548L53.9579 11.554ZM0 18.3525V54.7061L15.7587 63.8242V55.8467L15.7595 55.8459C15.7262 55.7038 15.7262 55.5555 15.7595 55.4134V55.3748C15.7753 55.2932 15.8016 55.2134 15.8376 55.1388V55.1002C15.8736 55.0572 15.913 55.0177 15.956 54.9818V54.9423C15.9683 54.9291 15.9815 54.916 15.9955 54.9037C16.0622 54.8256 16.142 54.759 16.2306 54.7072L31.4402 46.4937V36.5117L21.9686 31.0492L21.7721 37.6128L21.773 37.6119C21.7616 37.9435 21.5783 38.2444 21.2879 38.4058C20.9984 38.5672 20.6449 38.5637 20.358 38.3979L10.926 32.8564C10.6436 32.6941 10.4655 32.3967 10.4541 32.0704V24.4069L2.05602e-05 18.3549L0 18.3525ZM64.7665 18.3525L41.1865 31.9496L33.3265 36.5086V45.5081L49.322 36.9016H49.3229C49.4098 36.8613 49.5028 36.835 49.5975 36.8227C49.6238 36.8218 49.6501 36.8218 49.6765 36.8227C49.8633 36.7937 50.0554 36.8209 50.2265 36.9016L62.8025 43.5827L62.8814 43.6221L64.7675 44.6046V18.3522L64.7665 18.3525ZM12.3402 25.466V31.518L19.9642 35.9584L20.0818 29.946L12.3392 25.466H12.3402ZM49.7921 38.828L32.9721 47.8275H32.973C32.923 47.8591 32.8703 47.8854 32.8151 47.9065L32.7756 47.9459L32.7765 47.9451C32.7501 47.96 32.7238 47.9731 32.6975 47.9845L18.6276 55.569L28.9631 61.5431L60.4413 44.488L49.7908 38.829L49.7921 38.828ZM62.4462 45.5486L30.849 62.6441L38.316 66.9671L69.637 49.3611L62.4462 45.5486ZM71.6027 50.4215L71.5238 50.461H71.5255H71.486L40.165 68.0286L50.0295 73.7271L81.391 55.6105L71.6055 50.4224L71.6027 50.4215ZM17.6448 57.22V65.4335L17.6457 65.4344C17.6527 65.4993 17.6527 65.5651 17.6457 65.6309V93.5339L49.0858 111.73V75.3766L39.6538 69.9141L39.4573 76.4382V76.4373C39.4467 76.7689 39.2625 77.0707 38.973 77.2312C38.6827 77.3926 38.33 77.3891 38.0423 77.2233L28.6103 71.7213C28.3164 71.5511 28.1357 71.2362 28.1392 70.8958L28.0997 63.2718L17.6457 57.2198L17.6448 57.22ZM82.4113 57.22L50.9713 75.3771V111.731L82.4113 93.5344V57.22ZM29.9851 64.3335L30.0245 70.346L37.609 74.7865L37.766 68.8519L29.9851 64.3324V64.3335Z" fill="#454FDB"/>
</svg>
