<svg width="61" height="65" viewBox="0 0 61 65" fill="none" xmlns="http://www.w3.org/2000/svg">
<path fill-rule="evenodd" clip-rule="evenodd" d="M1.28148 15.9293H11.2773C12.8151 6.93743 20.7606 0 30.4991 0C39.9824 0 47.9285 6.93666 49.4663 15.9293H59.7182C60.2308 15.9293 61 16.4431 61 17.2141V63.9724C61 64.4862 60.2308 65 59.7182 65H1.28179C0.512595 65 0 64.4862 0 63.9724V17.2141C0 16.4431 0.512595 15.9293 1.28179 15.9293H1.28148ZM16.1472 17.7279C17.9415 17.7279 19.4793 19.2693 19.4793 21.0679C19.4793 23.1231 17.9415 24.6645 16.1472 24.6645C14.3529 24.6645 12.8151 23.1231 12.8151 21.0679C12.8151 19.2693 14.3529 17.7279 16.1472 17.7279ZM44.8534 17.7279C46.6477 17.7279 48.1855 19.2693 48.1855 21.0679C48.1855 23.1231 46.6477 24.6645 44.8534 24.6645C43.0591 24.6645 41.5213 23.1231 41.5213 21.0679C41.5213 19.2693 43.0591 17.7279 44.8534 17.7279ZM21.2743 15.9293H39.4718C39.4718 11.0479 35.3711 6.93743 30.5012 6.93743C25.3753 6.93743 21.5306 11.0479 21.2746 15.9293H21.2743Z" fill="#FF5B7E"/>
</svg>
