<svg width="63" height="54" viewBox="0 0 63 54" fill="none" xmlns="http://www.w3.org/2000/svg">
<path d="M2.31462 46.9713H21.42V41.736H5.43255C5.35512 41.7212 5.28264 41.6888 5.22004 41.6416C5.16458 41.596 5.11901 41.54 5.08606 41.4763V41.4368C5.07398 41.372 5.07398 41.3055 5.08606 41.2402V5.03675H2.31521C1.85396 5.03565 1.40312 5.17568 1.02423 5.43816C0.368033 5.87141 -0.0185452 6.61217 0.000685297 7.39846V44.6576C-0.00645319 45.126 0.130826 45.5851 0.394405 45.9722C0.829313 46.6031 1.54864 46.9771 2.31521 46.9721L2.31462 46.9713Z" fill="#533C32"/>
<path d="M60.6639 5.03662H58.0034V41.1459C58.015 41.2112 58.015 41.2776 58.0034 41.3424V41.382C57.9699 41.4457 57.9244 41.5017 57.8695 41.5473C57.8069 41.5945 57.7338 41.6269 57.6569 41.6417H32.6699V46.8764L60.6638 46.8769C61.4128 46.9039 62.1289 46.5667 62.5846 45.9715C62.8433 45.5909 62.9805 45.1406 62.9783 44.6805V7.39886C62.991 6.77671 62.7527 6.17598 62.3172 5.73179C61.8818 5.287 61.286 5.03716 60.6638 5.03716L60.6639 5.03662Z" fill="#533C32"/>
<path d="M31.4891 53.1593V41.7366H22.6016V53.1593L27.0489 50.199L31.4891 53.1593Z" fill="#533C32"/>
<path d="M47.4548 38.4061L46.7783 38.0991C42.2436 36.1152 37.1193 33.8797 32.6084 40.5471H53.4302C51.4781 39.9332 49.1718 39.1463 47.4553 38.4061L47.4548 38.4061Z" fill="#533C32"/>
<path d="M16.2018 38.0996L15.5248 38.3989C13.8088 39.1391 11.502 39.926 9.5498 40.5482L30.404 40.5476C25.8617 33.8879 20.7367 36.1239 16.2018 38.0996H16.2018Z" fill="#533C32"/>
<path d="M6.15625 5.50197V40.3587C7.91174 39.8392 12.336 38.4929 15.0519 37.3199L15.729 37.0289C20.066 35.1317 25.8992 32.5893 30.8983 39.2095V5.2257C26.2303 -2.36304 20.9006 -0.0326076 16.2013 2.0216L15.5242 2.32087C12.4569 3.5377 9.33027 4.59915 6.15625 5.50135V5.50197Z" fill="#533C32"/>
<path d="M32.0801 5.22503V39.2088C34.5286 35.9657 37.1736 34.9504 39.7474 34.9504C42.3216 34.9504 45.0376 36.092 47.2494 37.0601L47.9265 37.3511C50.6424 38.5241 55.0666 39.8705 56.8221 40.3899V5.50088C53.6488 4.60911 50.5222 3.55815 47.4541 2.35174L46.7771 2.05247C42.0777 -0.033644 36.748 -2.36352 32.0801 5.22523V5.22503Z" fill="#533C32"/>
</svg>
