<svg width="46" height="26" viewBox="0 0 46 26" fill="none" xmlns="http://www.w3.org/2000/svg">
<path d="M44.552 13.384L40.0399 12.7599L38.2158 8.10389C37.7357 6.85598 36.5356 6.08789 35.0477 6.08789H29.8158C29.3839 6.08789 28.9998 6.37584 28.952 6.80775L27.224 16.3598C27.1279 16.7917 26.792 17.0796 26.3601 17.0796H3.41614C2.98421 17.0796 2.60018 17.3676 2.55231 17.7995L2.07217 20.5356C1.97607 21.0637 2.40833 21.5916 2.936 21.5916H4.808C4.61614 23.6555 6.05591 25.2877 8.12008 25.2877C10.1839 25.2877 12.2481 23.6558 12.7761 21.5916H33.6561C33.4642 23.6555 34.904 25.2877 36.9682 25.2877C39.0803 25.2877 41.0962 23.6558 41.6242 21.5916H43.8802C44.3121 21.5916 44.6961 21.3037 44.744 20.8718L45.7522 15.1597C45.9437 14.2476 45.4157 13.4799 44.5518 13.3838L44.552 13.384ZM10.952 21.256C10.7601 22.4081 9.65588 23.3681 8.45588 23.3681C7.30379 23.3681 6.48779 22.4082 6.72788 21.256C6.91973 20.1039 8.02396 19.1439 9.22396 19.1439C10.3758 19.1439 11.1917 20.1038 10.952 21.256ZM30.776 12.616L31.4958 8.58408H34.5678C35.0958 8.58408 35.576 8.87203 35.7678 9.35216L37.0639 12.616L30.776 12.616ZM39.8 21.256C39.6081 22.4081 38.5039 23.3681 37.3039 23.3681C36.1039 23.3681 35.3358 22.4082 35.5759 21.256C35.7677 20.1039 36.872 19.1439 38.072 19.1439C39.272 19.1439 39.9918 20.1038 39.8 21.256Z" fill="#9B5DE5"/>
<path d="M26.168 15.0639L28.52 1.76791C28.6161 1.2399 28.1839 0.711914 27.6562 0.711914H4.76021C3.94425 0.711914 3.27229 1.3839 3.27229 2.19983C3.27229 3.01578 3.94428 3.68774 4.76021 3.68774H7.25629C8.07225 3.68774 8.74421 4.35972 8.74421 5.17565C8.74421 5.99161 8.07223 6.66357 7.25629 6.66357L3.22404 6.6639C2.40808 6.6639 1.73612 7.33589 1.73612 8.15182C1.73612 8.96775 2.40811 9.63973 3.22404 9.63973L5.71978 9.64007C6.53574 9.64007 7.20769 10.312 7.20769 11.128C7.20769 11.9439 6.53571 12.6159 5.71978 12.6642L1.68787 12.6638C0.871908 12.6638 0.199951 13.3358 0.199951 14.1517C0.199951 14.9677 0.871934 15.6396 1.68787 15.6396H25.2559C25.736 15.8318 26.1197 15.496 26.168 15.0637V15.0639Z" fill="#9B5DE5"/>
</svg>
