<svg width="42" height="44" viewBox="0 0 42 44" fill="none" xmlns="http://www.w3.org/2000/svg">
<path d="M34.0672 17.7167H34.5115C38.2803 17.7167 41.356 14.641 41.356 10.8722C41.356 7.08534 38.2803 4.01 34.5115 4.01H34.2446L34.245 2.53408C34.245 1.50285 33.4096 0.66748 32.3784 0.66748H9.62296C8.57399 0.66748 7.75636 1.50286 7.75636 2.53408V4.00965H7.48984C3.70299 4.00965 0.645386 7.08534 0.645386 10.8719C0.645386 14.6406 3.70299 17.7163 7.48984 17.7163H7.93415C8.70055 22.8823 12.553 27.0197 17.3524 28.3817C17.1867 29.7723 16.8917 31.0329 16.3941 32.1619L14.3403 32.1623C12.2885 32.1623 10.6128 33.8206 10.6128 35.8727V39.6442H8.71603C7.69783 39.6442 6.87181 40.4698 6.87181 41.4884C6.87181 42.5066 7.69747 43.3323 8.71603 43.3323H33.2843C34.3025 43.3323 35.1285 42.5066 35.1285 41.4884C35.1285 40.4702 34.3029 39.6442 33.2843 39.6442H31.3879V35.8727C31.3879 33.8206 29.7121 32.1623 27.6603 32.1623H25.6089C25.1113 31.0332 24.8167 29.7726 24.6506 28.3818C29.5373 26.9937 33.2863 22.8348 34.068 17.7172L34.0672 17.7167ZM34.5115 7.56551C36.3249 7.56551 37.8004 9.04108 37.8004 10.8722C37.8004 12.6856 36.3249 14.1611 34.5115 14.1611H34.2446V7.56551H34.5115ZM4.20037 10.8722C4.20037 9.04108 5.67594 7.56551 7.48931 7.56551H7.75616V14.1611H7.48931C5.67594 14.1611 4.20037 12.6852 4.20037 10.8722ZM16.6804 15.6541L17.0359 13.5387L15.5071 12.0454C15.0628 11.6011 14.9028 10.9432 15.0983 10.3388C15.2939 9.7167 15.8095 9.28982 16.4316 9.20111L18.547 8.88102L19.507 6.96119C19.7912 6.39233 20.3604 6.03676 21.0003 6.03676C21.6401 6.03676 22.2268 6.39234 22.5113 6.97893L23.4358 8.88102L25.5512 9.20111C26.191 9.28984 26.7066 9.71673 26.9022 10.3388C27.1155 10.9432 26.9377 11.6011 26.4756 12.0454L24.9468 13.5387L25.3202 15.6364C25.427 16.2766 25.1601 16.9164 24.6445 17.272C24.1111 17.663 23.4355 17.6985 22.8847 17.3962L21.0004 16.4008L19.1157 17.4143C18.4956 17.7247 17.8366 17.6503 17.3559 17.2897C16.8228 16.9164 16.5741 16.2766 16.6805 15.6541L16.6804 15.6541Z" fill="#7B2CBF"/>
</svg>
