<svg width="26" height="26" viewBox="0 0 26 26" fill="none" xmlns="http://www.w3.org/2000/svg">
<g clip-path="url(#clip0_560_1057)">
<path d="M12.96 13.9893V24.2505L21.1293 22.7002V17.7005C21.1293 17.4913 21.3116 17.3287 21.5195 17.3526L22.5246 17.5081C22.7014 17.5284 22.8349 17.6781 22.8349 17.8561V23.6643C22.8349 23.8293 22.7196 23.972 22.5582 24.0068L13.6154 25.9296C13.1833 26.0226 12.7364 26.0235 12.3038 25.9325L3.457 24.0716C3.29819 24.0382 3.18315 23.9001 3.17894 23.7379L3.02609 17.8392C3.02133 17.6542 3.16123 17.4973 3.3456 17.4811L10.8604 16.8208C10.9907 16.8094 11.1038 16.7263 11.1536 16.6053L12.2857 13.8559C12.4319 13.5011 12.96 13.6055 12.96 13.9893ZM2.94112 10.6296L0.582892 15.6703C0.467634 15.9166 0.664801 16.1945 0.935379 16.1672L9.79169 15.2723C9.91685 15.2597 10.0256 15.1809 10.0766 15.066L12.9262 8.64622L3.19509 10.4335C3.08374 10.454 2.98912 10.527 2.94112 10.6296ZM12.9262 8.64618L15.9415 15.2667C15.9942 15.3824 16.1055 15.4605 16.2322 15.4707L25.0717 16.1815C25.3382 16.2029 25.5294 15.9302 25.4185 15.687L23.1132 10.633C23.0655 10.5285 22.9696 10.454 22.8566 10.4336L12.9262 8.64618ZM10.4485 3.41878L12.637 7.20862C12.8056 7.50043 13.2268 7.50039 13.3953 7.20862L15.5834 3.41878C15.7519 3.12692 15.5413 2.76211 15.2043 2.76211H14.1104V0.437836C14.1104 0.196019 13.9144 0 13.6726 0H12.3593C12.1175 0 11.9215 0.196019 11.9215 0.437793V2.76207H10.8276C10.4906 2.76207 10.28 3.12692 10.4485 3.41878Z" fill="white"/>
</g>
<defs>
<clipPath id="clip0_560_1057">
<rect width="26" height="26" fill="white"/>
</clipPath>
</defs>
</svg>
