<svg width="42" height="46" viewBox="0 0 42 46" fill="none" xmlns="http://www.w3.org/2000/svg">
<path d="M38.472 19.2561H34.7759V2.88811C34.7759 1.4002 33.5759 0.200195 32.088 0.200195H9.91199C8.42408 0.200195 7.22408 1.4002 7.22408 2.88811V19.2561H3.52799C1.36807 19.2561 0.168071 21.7522 1.5599 23.432L19.0319 44.84C20.0401 46.0879 21.9599 46.0879 22.9681 44.84L40.4401 23.432C41.8319 21.8001 40.6319 19.2561 38.472 19.2561ZM16.152 10.5681C17.5438 10.5681 18.696 11.7202 18.696 13.1121C18.696 14.504 17.5439 15.6561 16.152 15.6561C14.7602 15.6561 13.608 14.504 13.608 13.1121C13.608 11.7199 14.7119 10.5681 16.152 10.5681ZM16.8719 24.2481C16.2478 24.8722 15.2879 24.8722 14.6637 24.2481C14.0395 23.624 14.0396 22.6641 14.6637 22.0399L25.1277 11.5759C25.4156 11.288 25.8476 11.0958 26.2316 11.0958C26.6156 11.0958 27.0476 11.2398 27.3355 11.5759C27.9596 12.2 27.9596 13.1599 27.3355 13.7841L16.8719 24.2481ZM25.8479 25.3524C24.456 25.3524 23.3039 24.2003 23.3039 22.8084C23.3039 21.4164 24.4559 20.2644 25.8479 20.2644C27.2397 20.2644 28.3919 21.4164 28.3919 22.8084C28.3919 24.2003 27.2879 25.3524 25.8479 25.3524Z" fill="#71CAE9"/>
</svg>
