<svg width="28" height="22" viewBox="0 0 28 22" fill="none" xmlns="http://www.w3.org/2000/svg">
<path d="M22.75 0.5C19.8508 0.5 17.5 2.85083 17.5 5.75C17.5 8.64917 19.8508 11 22.75 11C25.6492 11 28 8.64917 28 5.75C28 2.85083 25.6492 0.5 22.75 0.5ZM22.1667 8.66667V6.33333H19.8333V5.16667H22.1667V2.83333L25.6667 5.75L22.1667 8.66667ZM18.0833 18C19.0493 18 19.8333 18.7828 19.8333 19.75C19.8333 20.7172 19.0493 21.5 18.0833 21.5C17.1173 21.5 16.3333 20.7172 16.3333 19.75C16.3333 18.784 17.1173 18 18.0833 18ZM0 0.5L0.866833 2.83333H3.11733L7.17033 16.8333H22.6158L24.1407 13.2003C23.6892 13.2843 23.2248 13.3333 22.75 13.3333C18.5617 13.3333 15.1667 9.93833 15.1667 5.75C15.1667 5.14683 15.2448 4.56233 15.3778 4H8.386L11.3517 14.5H8.89817L4.89533 0.5H0H0ZM10.5 19.75C10.5 20.7172 11.284 21.5 12.25 21.5C13.216 21.5 14 20.7172 14 19.75C14 18.784 13.216 18 12.25 18C11.284 18 10.5 18.784 10.5 19.75Z" fill="white"/>
</svg>
