<svg width="24" height="24" viewBox="0 0 24 24" fill="none" xmlns="http://www.w3.org/2000/svg">
<g clip-path="url(#clip0_348_175)">
<path d="M12.0001 24.0001C18.6275 24.0001 24.0001 18.6275 24.0001 12.0001C24.0001 5.37263 18.6275 3.05176e-05 12.0001 3.05176e-05C5.37263 3.05176e-05 3.05176e-05 5.37263 3.05176e-05 12.0001C3.05176e-05 18.6275 5.37263 24.0001 12.0001 24.0001Z" fill="#3C5A9A"/>
<path d="M15.9018 3.68338H13.2436C11.6661 3.68338 9.91147 4.34687 9.91147 6.63355C9.91917 7.43032 9.91147 8.19339 9.91147 9.05218H8.08653V11.9563H9.96795V20.3166H13.4251V11.9011H15.707L15.9135 9.04403H13.3656C13.3656 9.04403 13.3713 7.77309 13.3656 7.404C13.3656 6.50035 14.3058 6.5521 14.3624 6.5521C14.8098 6.5521 15.6798 6.5534 15.9031 6.5521V3.68338H15.9018Z" fill="white"/>
</g>
<defs>
<clipPath id="clip0_348_175">
<rect width="24" height="24" fill="white"/>
</clipPath>
</defs>
</svg>
