<svg width="222" height="131" viewBox="0 0 222 131" fill="none" xmlns="http://www.w3.org/2000/svg">
<path d="M129.692 33.0493L142.047 36.5823L130.897 43.0011L132.006 37.6168L129.692 33.0493Z" fill="#ED5A23"/>
<path d="M65.9429 59.4078C67.1539 59.4078 68.0711 59.668 68.7005 60.1943C69.33 60.7206 69.7616 61.4163 69.9954 62.2875C70.2292 63.1586 70.3491 64.1266 70.3491 65.1974V71.7008C70.3491 72.1424 70.2052 72.5114 69.9235 72.8079C69.6357 73.1043 69.276 73.2556 68.8384 73.2556C68.4008 73.2556 68.0411 73.1043 67.7533 72.8079C67.4656 72.5114 67.3277 72.1424 67.3277 71.7008V65.1974C67.3277 64.6408 67.2618 64.1326 67.1239 63.6849C66.992 63.2373 66.7462 62.8743 66.3925 62.6021C66.0388 62.3298 65.5353 62.1967 64.8818 62.1967C64.2464 62.1967 63.7009 62.3298 63.2452 62.6021C62.7896 62.8743 62.4539 63.2312 62.2261 63.6849C61.9983 64.1326 61.8844 64.6408 61.8844 65.1974V71.7008C61.8844 72.1424 61.7405 72.5114 61.4588 72.8079C61.171 73.1043 60.8114 73.2556 60.3737 73.2556C59.9361 73.2556 59.5764 73.1043 59.2887 72.8079C59.0009 72.5114 58.863 72.1424 58.863 71.7008V56.0018C58.863 55.5602 59.0069 55.1912 59.2887 54.8947C59.5764 54.5983 59.9361 54.4531 60.3737 54.4531C60.8114 54.4531 61.171 54.6044 61.4588 54.8947C61.7465 55.1912 61.8844 55.5602 61.8844 56.0018V62.3056L61.5067 62.227C61.6566 61.9366 61.8664 61.6281 62.1362 61.3014C62.406 60.9686 62.7297 60.6601 63.1194 60.3758C63.503 60.0854 63.9347 59.8555 64.4022 59.674C64.8758 59.4986 65.3854 59.4078 65.9429 59.4078Z" fill="white"/>
<path d="M74.9291 58.0102C74.3596 58.0102 73.958 57.9195 73.7182 57.7319C73.4844 57.5444 73.3645 57.2177 73.3645 56.7398V56.2558C73.3645 55.7658 73.4964 55.433 73.7542 55.2515C74.0119 55.0761 74.4136 54.9854 74.9531 54.9854C75.5406 54.9854 75.9543 55.0761 76.1881 55.2636C76.4219 55.4512 76.5418 55.7779 76.5418 56.2558V56.7398C76.5418 57.2298 76.4159 57.5625 76.1641 57.744C75.9123 57.9194 75.4987 58.0102 74.9291 58.0102ZM76.4638 71.7067C76.4638 72.1483 76.3199 72.5174 76.0382 72.8138C75.7504 73.1102 75.3908 73.2615 74.9531 73.2615C74.5155 73.2615 74.1558 73.1102 73.8681 72.8138C73.5803 72.5174 73.4424 72.1483 73.4424 71.7067V61.2105C73.4424 60.7689 73.5863 60.3998 73.8681 60.1034C74.1558 59.807 74.5155 59.6557 74.9531 59.6557C75.3908 59.6557 75.7504 59.807 76.0382 60.1034C76.3259 60.3998 76.4638 60.7689 76.4638 61.2105V71.7067Z" fill="white"/>
<path d="M86.5351 59.4077C87.7101 59.4077 88.7651 59.7102 89.6943 60.3091C90.6235 60.908 91.3669 61.7368 91.9124 62.7834C92.458 63.8361 92.7277 65.0521 92.7277 66.4435C92.7277 67.8349 92.452 69.057 91.9124 70.1157C91.3669 71.1744 90.6355 72.0032 89.7243 72.6081C88.8071 73.2071 87.782 73.5096 86.643 73.5096C85.9716 73.5096 85.3421 73.4007 84.7546 73.1768C84.1671 72.959 83.6516 72.6747 83.208 72.3359C82.7643 71.9971 82.4166 71.6523 82.1768 71.3075C81.9311 70.9626 81.8112 70.6662 81.8112 70.4303L82.5905 70.0975V76.7824C82.5905 77.2241 82.4466 77.5931 82.1648 77.8895C81.8771 78.186 81.5174 78.3372 81.0798 78.3372C80.6422 78.3372 80.2825 78.192 79.9947 77.9077C79.707 77.6173 79.5691 77.2483 79.5691 76.7885V61.2105C79.5691 60.7689 79.713 60.3999 79.9947 60.1034C80.2825 59.807 80.6422 59.6558 81.0798 59.6558C81.5174 59.6558 81.8771 59.807 82.1648 60.1034C82.4526 60.3999 82.5905 60.7689 82.5905 61.2105V62.4568L82.1648 62.2269C82.1648 62.0091 82.2847 61.7429 82.5185 61.4283C82.7523 61.1137 83.0701 60.7991 83.4777 60.4906C83.8794 60.176 84.347 59.9219 84.8745 59.7163C85.3901 59.5106 85.9476 59.4077 86.5351 59.4077ZM86.1574 62.2027C85.42 62.2027 84.7726 62.3902 84.2211 62.7592C83.6696 63.1343 83.2319 63.6365 82.9262 64.2717C82.6145 64.9069 82.4586 65.6329 82.4586 66.4435C82.4586 67.2421 82.6145 67.962 82.9262 68.6153C83.2379 69.2687 83.6696 69.7829 84.2211 70.152C84.7726 70.5271 85.42 70.7085 86.1574 70.7085C86.8948 70.7085 87.5362 70.521 88.0817 70.152C88.6273 69.7769 89.0529 69.2687 89.3646 68.6153C89.6764 67.962 89.8322 67.2421 89.8322 66.4435C89.8322 65.6329 89.6764 64.9069 89.3646 64.2717C89.0529 63.6365 88.6273 63.1343 88.0817 62.7592C87.5422 62.3902 86.9008 62.2027 86.1574 62.2027Z" fill="white"/>
<path d="M105.671 70.7633C106.042 70.7633 106.348 70.8843 106.588 71.1203C106.834 71.3562 106.953 71.6526 106.953 72.0096C106.953 72.3665 106.834 72.6629 106.588 72.8989C106.342 73.1348 106.036 73.2558 105.671 73.2558H97.2359C96.8642 73.2558 96.5585 73.1348 96.3187 72.8868C96.0729 72.6388 95.953 72.3302 95.953 71.9612V56.7644C95.953 56.3893 96.0789 56.0807 96.3307 55.8388C96.5825 55.5907 96.9122 55.4697 97.3138 55.4697C97.6495 55.4697 97.9493 55.5907 98.2071 55.8388C98.4648 56.0868 98.5967 56.3953 98.5967 56.7644V71.1989L98.0692 70.7694H105.671V70.7633Z" fill="#ED5A23"/>
<path d="M120.496 66.5707C120.496 67.9258 120.202 69.1237 119.615 70.1642C119.027 71.2048 118.23 72.0215 117.223 72.6143C116.215 73.2072 115.082 73.5036 113.824 73.5036C112.565 73.5036 111.432 73.2072 110.424 72.6143C109.417 72.0215 108.614 71.2048 108.021 70.1642C107.427 69.1237 107.127 67.9258 107.127 66.5707C107.127 65.1974 107.427 63.9935 108.021 62.953C108.614 61.9124 109.417 61.0897 110.424 60.4908C111.432 59.8918 112.565 59.5894 113.824 59.5894C115.082 59.5894 116.215 59.8918 117.223 60.4908C118.23 61.0897 119.027 61.9124 119.615 62.953C120.202 63.9935 120.496 65.2035 120.496 66.5707ZM117.978 66.5707C117.978 65.639 117.792 64.8284 117.426 64.1448C117.055 63.4612 116.557 62.9227 115.928 62.5295C115.298 62.1423 114.597 61.9427 113.824 61.9427C113.05 61.9427 112.349 62.1363 111.707 62.5295C111.072 62.9167 110.568 63.4551 110.197 64.1448C109.825 64.8284 109.645 65.639 109.645 66.5707C109.645 67.466 109.831 68.2646 110.197 68.9603C110.568 69.656 111.072 70.1945 111.707 70.5877C112.343 70.9749 113.05 71.1745 113.824 71.1745C114.597 71.1745 115.298 70.9809 115.928 70.5877C116.557 70.2005 117.055 69.656 117.426 68.9603C117.798 68.2646 117.978 67.4721 117.978 66.5707Z" fill="#ED5A23"/>
<path d="M131.448 59.8921C131.802 59.8921 132.096 60.0131 132.342 60.2611C132.587 60.5092 132.707 60.8177 132.707 61.1867V67.8716C132.707 69.6321 132.222 71.0114 131.245 71.9975C130.273 72.9897 128.895 73.4857 127.114 73.4857C125.334 73.4857 123.961 72.9897 122.996 71.9975C122.031 71.0054 121.545 69.6321 121.545 67.8716V61.1867C121.545 60.8116 121.665 60.5031 121.911 60.2611C122.156 60.0131 122.462 59.8921 122.828 59.8921C123.182 59.8921 123.475 60.0131 123.721 60.2611C123.967 60.5092 124.087 60.8177 124.087 61.1867V67.8716C124.087 68.9727 124.345 69.7954 124.854 70.3339C125.364 70.8783 126.119 71.1445 127.108 71.1445C128.115 71.1445 128.877 70.8723 129.386 70.3339C129.896 69.7894 130.153 68.9727 130.153 67.8716V61.1867C130.153 60.8116 130.273 60.5031 130.519 60.2611C130.777 60.0131 131.083 59.8921 131.448 59.8921Z" fill="#ED5A23"/>
<path d="M141.268 59.5835C142.461 59.5835 143.384 59.8315 144.037 60.3337C144.691 60.8358 145.146 61.5012 145.41 62.3422C145.668 63.1831 145.8 64.1147 145.8 65.1492V71.9611C145.8 72.3362 145.68 72.6448 145.434 72.8868C145.188 73.1348 144.895 73.2558 144.541 73.2558C144.169 73.2558 143.864 73.1348 143.624 72.8868C143.378 72.6387 143.258 72.3302 143.258 71.9611V65.1795C143.258 64.5684 143.174 64.024 143.006 63.54C142.838 63.056 142.551 62.6749 142.149 62.3845C141.747 62.0941 141.178 61.955 140.435 61.955C139.745 61.955 139.14 62.1002 138.624 62.3845C138.103 62.6749 137.695 63.056 137.401 63.54C137.107 64.024 136.964 64.5684 136.964 65.1795V71.9611C136.964 72.3362 136.844 72.6448 136.598 72.8868C136.352 73.1348 136.058 73.2558 135.705 73.2558C135.333 73.2558 135.027 73.1348 134.787 72.8868C134.542 72.6387 134.422 72.3302 134.422 71.9611V61.1867C134.422 60.8116 134.542 60.503 134.787 60.2611C135.033 60.013 135.339 59.892 135.705 59.892C136.058 59.892 136.352 60.013 136.598 60.2611C136.844 60.5091 136.964 60.8176 136.964 61.1867V62.6083L136.508 62.8624C136.628 62.4873 136.832 62.1123 137.125 61.7311C137.419 61.35 137.773 60.9931 138.198 60.6664C138.618 60.3337 139.086 60.0735 139.607 59.8799C140.129 59.6863 140.68 59.5835 141.268 59.5835Z" fill="#ED5A23"/>
<path d="M153.054 59.5835C153.761 59.5835 154.414 59.7045 155.02 59.9404C155.625 60.1764 156.147 60.4789 156.591 60.8418C157.034 61.2048 157.382 61.5859 157.634 61.9731C157.885 62.3603 158.011 62.6991 158.011 62.9895L157.46 63.0137V60.981C157.46 60.624 157.58 60.3216 157.813 60.0675C158.047 59.8134 158.353 59.6863 158.719 59.6863C159.09 59.6863 159.39 59.8073 159.624 60.0554C159.858 60.3034 159.978 60.6119 159.978 60.981V72.2092C159.978 73.6309 159.678 74.7985 159.072 75.7059C158.467 76.6134 157.664 77.2788 156.668 77.7023C155.667 78.1258 154.576 78.3375 153.383 78.3375C152.964 78.3375 152.466 78.2831 151.897 78.1742C151.327 78.0653 150.8 77.9322 150.326 77.781C149.846 77.6297 149.517 77.4785 149.331 77.3212C148.947 77.1155 148.689 76.8796 148.563 76.6073C148.438 76.3351 148.432 76.0629 148.551 75.7967C148.701 75.4216 148.923 75.1977 149.217 75.1131C149.511 75.0284 149.84 75.0526 150.212 75.1917C150.362 75.2401 150.62 75.3369 150.979 75.47C151.339 75.6031 151.741 75.7301 152.178 75.839C152.616 75.9479 153.024 76.0024 153.413 76.0024C154.738 76.0024 155.745 75.6878 156.435 75.0647C157.124 74.4355 157.466 73.5885 157.466 72.5238V70.237L157.742 70.4124C157.694 70.7512 157.532 71.1021 157.262 71.4651C156.992 71.8281 156.65 72.1608 156.243 72.4693C155.829 72.7718 155.356 73.0259 154.81 73.2195C154.265 73.4131 153.707 73.5099 153.138 73.5099C151.945 73.5099 150.877 73.2074 149.93 72.6085C148.983 72.0096 148.234 71.1868 147.688 70.1463C147.143 69.1057 146.873 67.9079 146.873 66.5527C146.873 65.1976 147.143 63.9998 147.688 62.9592C148.234 61.9187 148.977 61.0959 149.918 60.497C150.847 59.886 151.897 59.5835 153.054 59.5835ZM153.431 61.9489C152.61 61.9489 151.885 62.1486 151.267 62.5478C150.644 62.9471 150.158 63.4916 149.804 64.1873C149.451 64.883 149.277 65.6695 149.277 66.5527C149.277 67.436 149.451 68.2225 149.804 68.9182C150.158 69.6139 150.644 70.1644 151.267 70.5697C151.891 70.9751 152.61 71.1808 153.431 71.1808C154.235 71.1808 154.948 70.9811 155.571 70.5818C156.195 70.1826 156.68 69.632 157.034 68.9303C157.388 68.2285 157.562 67.436 157.562 66.5527C157.562 65.6695 157.388 64.883 157.034 64.1873C156.68 63.4916 156.195 62.9471 155.571 62.5478C154.948 62.1486 154.235 61.9489 153.431 61.9489Z" fill="#ED5A23"/>
<path d="M167.885 73.5099C166.494 73.5099 165.283 73.2195 164.258 72.6327C163.233 72.0458 162.442 71.2412 161.878 70.2188C161.314 69.1964 161.033 68.0228 161.033 66.6979C161.033 65.2097 161.332 63.9332 161.926 62.8745C162.519 61.8158 163.299 61.0052 164.258 60.4365C165.217 59.8678 166.23 59.5835 167.303 59.5835C168.125 59.5835 168.904 59.7468 169.647 60.0796C170.385 60.4123 171.044 60.866 171.626 61.4529C172.207 62.0397 172.663 62.7233 172.998 63.5097C173.334 64.2962 173.508 65.1553 173.526 66.0869C173.508 66.4257 173.376 66.704 173.124 66.9278C172.872 67.1456 172.579 67.2605 172.243 67.2605H162.448L161.842 65.1008H171.308L170.828 65.5606V64.9254C170.78 64.3325 170.576 63.8183 170.223 63.3767C169.869 62.935 169.437 62.5902 168.928 62.3361C168.418 62.082 167.873 61.955 167.303 61.955C166.8 61.955 166.314 62.0336 165.853 62.197C165.391 62.3603 164.977 62.6144 164.618 62.9713C164.258 63.3283 163.97 63.7941 163.76 64.3809C163.551 64.9677 163.449 65.6876 163.449 66.5527C163.449 67.4844 163.64 68.295 164.03 68.9908C164.414 69.6865 164.935 70.2249 165.589 70.606C166.242 70.9872 166.968 71.1807 167.753 71.1807C168.376 71.1807 168.88 71.1202 169.276 70.9932C169.671 70.8662 170.007 70.7089 170.283 70.5213C170.558 70.3338 170.798 70.1583 171.002 69.989C171.254 69.8377 171.5 69.7591 171.733 69.7591C172.051 69.7591 172.315 69.868 172.513 70.0737C172.717 70.2854 172.813 70.5334 172.813 70.8238C172.813 71.1989 172.627 71.5377 172.261 71.8402C171.805 72.2818 171.182 72.669 170.385 73.0078C169.593 73.3405 168.754 73.5099 167.885 73.5099Z" fill="#ED5A23"/>
<path d="M129.692 38.101C97.194 37.9316 66.4765 42.6262 37.3058 51.5313C34.1405 52.4993 31.263 54.3202 29.1528 56.8853C21.6173 66.0203 28.6612 78.0774 46.4598 75.4276C50.2366 74.865 53.6836 72.7657 55.6619 69.4687C58.0178 65.5364 57.6582 61.4589 53.186 58.3675C52.3408 57.7807 51.4236 57.3148 50.4824 56.9156C48.0245 55.869 41.7419 53.1889 41.7419 53.1889C62.2382 44.6105 129.332 37.2117 129.692 38.101ZM49.8649 70.2309C48.1564 71.5558 46.0342 72.2031 43.8821 72.3241C27.9119 73.2558 26.2513 60.9144 36.7782 55.3608C36.7782 55.3608 44.4696 58.918 46.5977 59.9041C46.9574 60.0735 47.3291 60.2187 47.7008 60.3699C54.3011 63.0136 53.4618 67.436 49.8649 70.2309Z" fill="white"/>
<path d="M39.4279 50.8899C38.0731 47.3145 42.0836 42.7591 47.5569 42.3356C47.9286 42.3054 48.2942 42.2751 48.6659 42.2388C50.6742 42.0694 52.6405 42.632 54.5768 43.7149C54.9305 43.9146 55.3381 43.9993 55.7458 43.9448C57.4663 43.6968 57.8859 41.3979 56.3753 40.5268C53.7375 39.0022 50.8061 38.2823 47.5389 38.5122C45.5426 38.6514 43.5883 39.1837 41.7779 40.0428C37.3297 42.1602 34.5961 46.159 35.3514 52.2571" fill="white"/>
</svg>
