<svg width="28" height="24" viewBox="0 0 28 24" fill="none" xmlns="http://www.w3.org/2000/svg">
<path d="M27.5571 15.2666H21.126C20.2846 15.2666 19.6 14.5821 19.6 13.7406V11.5333C19.6 11.2757 19.8091 11.0666 20.0666 11.0666C20.3242 11.0666 20.5333 11.2757 20.5333 11.5333V13.7406C20.5333 14.0673 20.7993 14.3333 21.1259 14.3333H25.5644L24.4295 9.79356C24.2736 9.16963 23.715 8.73328 23.071 8.73328H18.6666V7.33328C18.6666 6.81856 18.248 6.39993 17.7332 6.39993H10.2429C10.2569 6.24593 10.2666 6.091 10.2666 5.93328C10.2666 3.10293 7.96365 0.799927 5.1333 0.799927C2.303 0.799981 0 3.10298 0 5.93333C0 8.6064 2.05428 10.8063 4.66665 11.0428V14.3333V19.9333C4.66665 20.4481 5.08523 20.8667 5.6 20.8667H7.50865C7.73216 22.1888 8.88207 23.2 10.2666 23.2C11.6512 23.2 12.8011 22.1888 13.0246 20.8667H19.642C19.8655 22.1888 21.0154 23.2 22.4 23.2C23.7846 23.2 24.9345 22.1888 25.158 20.8667H27.0666C27.5814 20.8667 28 20.4481 28 19.9333V16.0493C28 15.7221 27.8269 15.4351 27.5571 15.2666ZM5.05493 8.52563C4.97744 8.64184 4.85144 8.71742 4.71286 8.73098C4.697 8.73284 4.68207 8.73333 4.66665 8.73333C4.54344 8.73333 4.42444 8.68482 4.33672 8.59661L2.47007 6.72997C2.28758 6.54747 2.28758 6.25254 2.47007 6.07011C2.65256 5.88767 2.94749 5.88767 3.12993 6.07011L4.59435 7.53404L7.07842 3.80768C7.2217 3.59347 7.51056 3.53468 7.7257 3.6784C7.93991 3.82119 7.99777 4.11098 7.85498 4.32568L5.05493 8.52563ZM10.2666 22.2666C9.23716 22.2666 8.4 21.4294 8.4 20.4C8.4 19.3705 9.23721 18.5333 10.2666 18.5333C11.2961 18.5333 12.1333 19.3705 12.1333 20.4C12.1334 21.4295 11.2961 22.2666 10.2666 22.2666ZM17.7334 9.19998V9.66805C17.7334 11.9832 15.8499 13.8666 13.5348 13.8666H5.6V11.0451C5.60935 11.0442 5.61821 11.0423 5.62751 11.0414C5.67372 11.0372 5.719 11.0293 5.76472 11.0237C5.87021 11.0106 5.97521 10.9952 6.07923 10.9756C6.14365 10.9635 6.20709 10.95 6.27058 10.9355C6.35409 10.9163 6.43672 10.8944 6.51837 10.8716C6.58602 10.8524 6.65372 10.8342 6.71994 10.8128C6.80444 10.7853 6.88702 10.7531 6.96959 10.7213C7.08438 10.6769 7.19687 10.6289 7.30745 10.5766C7.36952 10.5477 7.43159 10.5192 7.4918 10.488C7.56366 10.4506 7.63323 10.411 7.70273 10.3704C7.76152 10.3363 7.81938 10.3009 7.87631 10.2649C7.94166 10.2234 8.00696 10.1818 8.06996 10.1375C8.1381 10.0899 8.20389 10.039 8.26968 9.98814C8.33454 9.93772 8.39896 9.88735 8.46103 9.83463C8.52496 9.78005 8.58752 9.72405 8.64861 9.66663H14.9332C15.1908 9.66663 15.3998 9.45756 15.3998 9.19998C15.3998 8.9424 15.1908 8.73333 14.9332 8.73333H9.43414C9.50786 8.62084 9.57649 8.50468 9.64179 8.38568C9.64879 8.37261 9.65486 8.35911 9.66186 8.34554C9.72628 8.22512 9.786 8.10104 9.84107 7.97454C9.85693 7.93768 9.87186 7.90033 9.88728 7.86254C9.93114 7.75519 9.97128 7.64554 10.0077 7.53404C10.0212 7.49346 10.0352 7.45282 10.0474 7.41175C10.0553 7.38561 10.0656 7.35997 10.073 7.33333H17.7334V9.19998ZM20.0666 17.1333C19.8091 17.1333 19.6 16.9243 19.6 16.6667C19.6 16.4091 19.8091 16.2 20.0666 16.2H21C21.2576 16.2 21.4666 16.4091 21.4666 16.6667C21.4666 16.9243 21.2576 17.1333 21 17.1333H20.0666ZM22.4 22.2666C21.3705 22.2666 20.5334 21.4294 20.5334 20.4C20.5334 19.3705 21.3706 18.5333 22.4 18.5333C23.4295 18.5333 24.2666 19.3705 24.2666 20.4C24.2666 21.4295 23.4295 22.2666 22.4 22.2666Z" fill="white"/>
</svg>
