<svg width="105" height="100" viewBox="0 0 105 100" fill="none" xmlns="http://www.w3.org/2000/svg">
<path d="M1.73078 3.46066H14.7295C16.9624 3.4633 19.1037 4.35154 20.6823 5.93029C22.261 7.509 23.1492 9.65012 23.1519 11.8831V75.4255C20.1138 75.7963 17.3237 77.2894 15.3291 79.6123C13.3355 81.9343 12.2813 84.918 12.374 87.9773C12.4667 91.0376 13.6993 93.9523 15.8298 96.1489C17.9612 98.3465 20.836 99.6682 23.892 99.8547C26.947 100.042 29.9614 99.0795 32.3445 97.1581C34.7266 95.236 36.3052 92.4935 36.7688 89.4678H103.132C104.087 89.4678 104.863 88.6935 104.863 87.7372C104.863 86.7819 104.087 86.0067 103.132 86.0067H36.8027C36.4548 83.394 35.277 80.9616 33.4423 79.0695C31.6084 77.1765 29.2139 75.9236 26.6127 75.4946V11.8844C26.6101 8.73392 25.3563 5.71253 23.1286 3.48498C20.901 1.25643 17.8804 0.00361653 14.7293 0H1.73055C0.77432 0 0 0.775226 0 1.73055C0 2.68588 0.774343 3.46111 1.73055 3.46111L1.73078 3.46066Z" fill="#4285F4"/>
<path d="M60.1924 49.3126H77.0036V53.7627H60.1924V49.3126Z" fill="#4285F4"/>
<path d="M69.1273 38.6484V23.5731H53.607C53.3315 23.5731 53.0737 23.7135 52.9262 23.9466L43.5547 38.6485L69.1273 38.6484Z" fill="#4285F4"/>
<path d="M42.9368 76.3032H98.7782C99.2241 76.3023 99.5852 75.9412 99.5852 75.4953V42.108H42.1299V75.4953C42.1299 75.9412 42.491 76.3023 42.9369 76.3032H42.9368ZM80.9939 62.2247V68.6816L81.9581 67.7174C82.5373 67.1382 83.4768 67.1382 84.056 67.7174C84.6351 68.2966 84.6352 69.2361 84.0551 69.8153L80.5586 73.3118H80.5595C80.2813 73.5899 79.9034 73.7462 79.5105 73.7462C79.1167 73.7462 78.7397 73.5899 78.4616 73.3118L74.9651 69.8144C74.3859 69.2352 74.3859 68.2957 74.9651 67.7165C75.5443 67.1373 76.4838 67.1373 77.0629 67.7165L78.0271 68.6807V62.2247C78.0271 61.4054 78.6911 60.7414 79.5105 60.7414C80.3298 60.7414 80.9938 61.4054 80.9938 62.2247H80.9939ZM57.2266 47.8276C57.2266 47.0082 57.8905 46.3442 58.7099 46.3442H78.4878C79.3072 46.3442 79.9711 47.0082 79.9711 47.8276V55.2441C79.9711 56.0635 79.3072 56.7275 78.4878 56.7275H58.7099C57.8905 56.7275 57.2266 56.0635 57.2266 55.2441V47.8276ZM57.661 64.6715L61.1575 61.175C61.4356 60.8969 61.8126 60.7406 62.2064 60.7406C62.6002 60.7406 62.9772 60.8969 63.2553 61.175L66.75 64.6724C67.3301 65.2516 67.3301 66.1911 66.7509 66.7703C66.1717 67.3495 65.2322 67.3495 64.6531 66.7703L63.6889 65.8061V72.2621C63.6889 73.0815 63.024 73.7454 62.2056 73.7454C61.3862 73.7454 60.7222 73.0815 60.7222 72.2621V65.8061L59.758 66.7703C59.1788 67.3495 58.2394 67.3495 57.6602 66.7703C57.0801 66.1902 57.0801 65.2516 57.6602 64.6715H57.661Z" fill="#4285F4"/>
<path d="M72.5879 38.6483H98.1613L88.7897 23.9465H88.7888C88.6414 23.7134 88.3844 23.573 88.1081 23.573H72.5887L72.5879 38.6483Z" fill="#4285F4"/>
</svg>
