<svg width="56" height="51" viewBox="0 0 56 51" fill="none" xmlns="http://www.w3.org/2000/svg">
<path d="M51.3537 31.6825L51.837 30.8458C52.3338 29.8475 52.5471 28.7313 52.4526 27.6201C53.8384 13.1657 42.3034 -0.217712 27.5974 0.00322274C11.7353 -0.259795 -0.564489 15.6223 3.35869 30.8458L3.84157 31.6825C-4.98059 38.3562 2.79937 51.8655 12.9946 47.5362C15.7957 53.7533 24.4096 49.8035 21.458 43.7824C21.0396 43.3061 10.6206 24.318 10.1061 24.864C9.79996 21.3503 10.5393 17.8246 12.2312 14.7296C13.9227 11.6346 16.4917 9.10882 19.6147 7.46948C20.8286 9.14132 22.7696 10.1313 24.836 10.1322H30.3594C32.4232 10.1367 34.3635 9.14667 35.57 7.472C42.1236 10.7705 45.584 17.6504 45.0891 24.8649C44.7402 24.0684 34.0476 43.4718 33.7373 43.7822C30.7852 49.8016 39.3975 53.7542 42.2007 47.536C52.4045 51.8667 60.1711 38.3484 51.3537 31.6823L51.3537 31.6825ZM46.1319 30.845C46.3863 30.4048 46.9489 30.254 47.389 30.5084C47.8296 30.7624 47.9804 31.325 47.7264 31.7655L42.6633 40.535C42.5413 40.7467 42.3403 40.9012 42.1044 40.9645C41.8685 41.0278 41.617 40.9945 41.4054 40.8724C41.1941 40.7504 41.0396 40.5494 40.9763 40.3131C40.9134 40.0772 40.9463 39.8257 41.0688 39.6145L46.1319 30.845ZM39.5647 44.0611C39.1348 43.8026 38.9914 43.247 39.2425 42.8126C39.4936 42.3782 40.0463 42.2249 40.4852 42.4682C40.915 42.7271 41.0585 43.2823 40.8074 43.7167C40.5563 44.1511 40.0035 44.3044 39.5647 44.0611ZM14.1256 39.614C14.248 39.8252 14.2809 40.0767 14.218 40.3126C14.1547 40.5485 14.0002 40.7499 13.789 40.8719C13.5773 40.994 13.3258 41.0273 13.0899 40.964C12.854 40.9007 12.6531 40.7462 12.531 40.5345L7.46792 31.765C7.34544 31.5533 7.31257 31.3018 7.37545 31.0659C7.43874 30.83 7.59326 30.6291 7.80449 30.5066C8.01614 30.3846 8.26765 30.3517 8.50354 30.415C8.73944 30.4783 8.9404 30.6328 9.06246 30.8444L14.1256 39.614ZM14.7091 42.4681C14.9553 42.3305 15.2512 42.314 15.5109 42.4238C15.7711 42.5331 15.9659 42.7566 16.039 43.0287C16.1122 43.3012 16.0555 43.5921 15.8857 43.8173C15.7156 44.0426 15.4513 44.1765 15.1694 44.1806C14.7506 44.1872 14.3812 43.9082 14.2727 43.5038C14.1638 43.0994 14.3438 42.6728 14.7091 42.4681V42.4681ZM2.8407 42.8368C1.94603 41.2829 1.64807 39.4562 2.00275 37.6985C2.357 35.9408 3.34003 34.3725 4.76686 33.2867C6.5882 36.4412 10.2529 42.789 12.0738 45.9431C10.4205 46.6368 8.57073 46.7038 6.871 46.1322C5.17169 45.5605 3.73867 44.3889 2.84062 42.8371L2.8407 42.8368ZM27.597 3.68496C16.7523 3.48852 7.58239 13.2703 8.26519 24.0552C6.97471 23.77 5.62427 24.0757 4.58293 24.889C4.5817 18.7821 7.00512 12.9249 11.3203 8.60401C15.6359 4.28273 21.4901 1.85139 27.5969 1.84444C39.9819 1.58677 50.8824 12.5114 50.611 24.889C49.5713 24.0766 48.2233 23.7704 46.9345 24.0544L46.9288 23.0171C47.1519 12.6378 37.9763 3.48221 27.5969 3.68526L27.597 3.68496ZM52.3533 42.8368C51.4554 44.389 50.0224 45.5603 48.3229 46.1319C46.6232 46.7035 44.7735 46.6365 43.1201 45.9428C44.9412 42.7883 48.6062 36.4405 50.4271 33.2864C51.8539 34.3721 52.837 35.9405 53.1912 37.6982C53.5459 39.4559 53.2479 41.2826 52.3532 42.8365L52.3533 42.8368Z" fill="#F5E235"/>
<path d="M19.3141 34.0676C19.633 34.1609 21.8584 32.69 22.165 32.5634C22.5969 32.3053 22.742 31.7485 22.4905 31.3124C22.2386 30.8768 21.6837 30.7235 21.2444 30.9684L18.853 32.3493C18.5004 32.563 18.3311 32.9838 18.438 33.3816C18.5448 33.7798 18.9019 34.0593 19.3141 34.0675L19.3141 34.0676Z" fill="#F5E235"/>
<path d="M18.096 27.7836C17.6053 27.6529 17.1011 27.9442 16.9687 28.4345L16.254 31.1025C16.1908 31.3384 16.224 31.5899 16.3461 31.8011C16.4682 32.0123 16.6691 32.1669 16.905 32.2302C17.3961 32.3617 17.9008 32.0703 18.0323 31.5792L18.747 28.9108C18.8785 28.4201 18.5871 27.9155 18.096 27.7835V27.7836Z" fill="#F5E235"/>
<path d="M19.5542 36.8187L22.2226 37.5334C22.71 37.6559 23.206 37.3645 23.3363 36.8787C23.4661 36.393 23.1826 35.8928 22.6989 35.7551L20.0309 35.0404C19.5431 34.9175 19.0467 35.2089 18.9164 35.6947C18.7861 36.1809 19.0705 36.681 19.5542 36.8187L19.5542 36.8187Z" fill="#F5E235"/>
<path d="M33.9515 30.9681C33.5122 30.7232 32.957 30.8761 32.7054 31.3121C32.4539 31.7481 32.599 32.305 33.0309 32.5631L35.4223 33.944C35.862 34.1893 36.4168 34.036 36.6684 33.6004C36.9203 33.1644 36.7752 32.6071 36.3429 32.349L33.9515 30.9681Z" fill="#F5E235"/>
<path d="M38.0523 32.2611C38.3384 32.2599 38.6075 32.1267 38.7814 31.8999C38.9556 31.673 39.0152 31.3788 38.9425 31.1022L38.2278 28.4342C38.0963 27.9431 37.5916 27.6518 37.1005 27.7833C36.6094 27.9148 36.318 28.4195 36.4495 28.9106L37.1642 31.5789C37.2719 31.9809 37.636 32.2607 38.0523 32.2612L38.0523 32.2611Z" fill="#F5E235"/>
<path d="M31.846 36.8829C31.9783 37.3736 32.4826 37.6646 32.9733 37.5339L35.6417 36.8192C36.1328 36.6873 36.4242 36.1827 36.2922 35.6915C36.1607 35.2008 35.6561 34.9095 35.1649 35.041L32.497 35.7556C32.0059 35.8872 31.7145 36.3918 31.846 36.8829L31.846 36.8829Z" fill="#F5E235"/>
</svg>
