<svg width="48" height="40" viewBox="0 0 48 40" fill="none" xmlns="http://www.w3.org/2000/svg">
<path d="M34.8378 0.005377C34.4333 0.00638149 34.0261 0.144997 33.685 0.427254L31.3104 2.39268C30.5306 3.03821 30.4245 4.16388 31.0697 4.94405L40.8797 16.8043L41.4529 17.4974C42.0981 18.2776 43.2234 18.384 44.0036 17.7385L46.3778 15.7734C47.1576 15.1279 47.2641 14.0025 46.6189 13.2224L36.2354 0.66866C35.8725 0.229708 35.3579 0.00403986 34.8379 0.005377H34.8378ZM15.3257 1.02829C14.9213 1.02963 14.5141 1.16791 14.173 1.45017L1.62354 11.8362C0.843737 12.4817 0.737254 13.6074 1.38247 14.3875L3.34687 16.7628C3.99207 17.5429 5.11738 17.6491 5.89721 17.0035L18.4466 6.61751C19.2265 5.97197 19.3333 4.84631 18.6881 4.06613L16.7237 1.69091C16.3607 1.25195 15.8461 1.02695 15.3261 1.02829H15.3257ZM30.0446 6.68372C27.8184 6.67836 25.5815 7.4143 23.7246 8.95112C23.7179 8.95715 23.7105 8.96351 23.7035 8.9692C23.7004 8.97255 23.6974 8.97556 23.6944 8.97824L16.9611 14.5514C18.6758 16.2251 21.3988 16.3681 23.3324 14.7673C23.3328 14.767 23.3334 14.7667 23.3338 14.7663L25.6568 12.8585C25.7502 12.752 25.8842 12.6901 26.0258 12.6884C26.1691 12.6871 26.306 12.7473 26.4018 12.8538C26.4075 12.8598 26.4128 12.8659 26.4182 12.8722L26.4192 12.8732L36.1546 24.5167L36.4161 24.3C38.6173 22.4783 39.8162 19.9212 39.9783 17.2848L31.2783 6.76598C30.8692 6.71342 30.4577 6.68697 30.0452 6.68563L30.0446 6.68372ZM17.9297 8.34306L7.67146 16.8328C7.49836 18.8534 8.04311 21.1064 9.25152 22.9657C10.3932 22.2144 11.9448 22.417 12.8304 23.4881C13.4093 24.1879 13.5701 25.0979 13.3471 25.9185C14.1945 25.8529 15.0577 26.1813 15.6366 26.8811C16.2155 27.5809 16.3762 28.4905 16.1529 29.3112C17.0003 29.2456 17.8638 29.5741 18.4427 30.2738C19.1566 31.137 19.2356 32.3196 18.7414 33.2598C19.7573 32.95 20.9037 33.2507 21.6175 34.1122C22.5142 35.1963 22.409 36.7851 21.424 37.7638L22.8685 39.5099C23.3931 40.144 24.5051 40.1886 25.3897 39.4567C26.2739 38.7251 26.4386 37.6255 25.9153 36.991L25.914 36.9897L19.996 29.8348L19.9957 29.8342C19.988 29.8251 19.9809 29.8161 19.9739 29.8067C19.8125 29.5877 19.8561 29.28 20.0714 29.1143C20.287 28.9482 20.5953 28.9851 20.7658 29.197L26.6837 36.3515C27.2084 36.9856 28.3204 37.0302 29.205 36.2983C30.0895 35.5663 30.2543 34.4658 29.7299 33.8317L29.7296 33.8313L29.7293 33.831L23.8113 26.6762C23.8036 26.6671 23.7966 26.6581 23.7895 26.6487C23.6305 26.4297 23.6744 26.1237 23.889 25.9586C24.1036 25.7936 24.4106 25.8291 24.5814 26.0393L30.499 33.1938C31.0237 33.828 32.1357 33.8725 33.0206 33.1406C33.9048 32.409 34.0695 31.3091 33.5462 30.6749C33.5459 30.6739 33.5452 30.6736 33.5449 30.6732L27.6269 23.5181C27.6196 23.509 27.6122 23.5 27.6052 23.4906C27.4431 23.2716 27.4863 22.9633 27.7023 22.7972C27.9179 22.6311 28.2269 22.6683 28.397 22.8809L34.3146 30.0354C34.8393 30.6695 35.9513 30.7141 36.8358 29.9822C37.7204 29.2502 37.8882 28.1463 37.3625 27.5172L25.9702 13.892L23.9693 15.535C21.4947 17.5832 17.8532 17.2764 15.8331 14.8339L15.8335 14.8342C15.6574 14.6216 15.6872 14.3066 15.9001 14.1308L21.5566 9.44864C21.4712 9.40176 21.3855 9.35589 21.2988 9.31169C20.24 8.7733 19.095 8.45318 17.9301 8.34303L17.9297 8.34306ZM10.7424 23.5076C10.3594 23.5113 9.972 23.6446 9.64589 23.9148L7.73977 25.4924C6.99379 26.1098 6.88932 27.1742 7.49368 27.9049C8.09803 28.6358 9.16245 28.7325 9.90842 28.1151L11.8145 26.5378C12.5605 25.9204 12.665 24.8557 12.0606 24.1251C11.7208 23.714 11.235 23.5034 10.7424 23.5081V23.5076ZM13.5485 26.9007C13.1655 26.9044 12.7781 27.0377 12.4517 27.3079L10.5455 28.8855C9.79956 29.5029 9.6951 30.5673 10.2994 31.2979C10.9038 32.0289 11.9686 32.1256 12.7145 31.5079L14.6203 29.9302C15.3663 29.3128 15.4708 28.2484 14.8664 27.5178C14.5266 27.1066 14.0411 26.896 13.5485 26.9007ZM16.3543 30.2938C15.9713 30.2975 15.5839 30.4304 15.2574 30.7006L13.3513 32.2783C12.6053 32.8957 12.5012 33.9601 13.1056 34.691C13.7099 35.4219 14.7743 35.5186 15.5203 34.9009L17.4264 33.3236C18.1724 32.7062 18.2769 31.6418 17.6725 30.9111C17.3327 30.5 16.8468 30.2894 16.3543 30.2941L16.3543 30.2938ZM19.5294 34.1322C19.1464 34.1359 18.759 34.2691 18.4325 34.5393L16.5264 36.117C15.7805 36.7344 15.676 37.7988 16.2803 38.5294C16.8847 39.2603 17.9491 39.3571 18.6951 38.7393L20.6012 37.1617C21.3472 36.5443 21.4516 35.4799 20.8473 34.7492C20.5075 34.3381 20.022 34.1278 19.5294 34.1322Z" fill="#7079FF"/>
</svg>
