<svg width="34" height="28" viewBox="0 0 34 28" fill="none" xmlns="http://www.w3.org/2000/svg">
<path d="M30.9817 14.6377C29.8734 14.6377 28.8277 14.2406 28.0389 13.5197C27.7342 13.2415 27.2384 13.2415 26.934 13.5197C26.1445 14.2406 25.0995 14.6377 23.9912 14.6377C22.8829 14.6377 21.8373 14.2406 21.0485 13.5197C20.7438 13.2415 20.2483 13.2415 19.9435 13.5197C19.1544 14.2406 18.1091 14.6377 17.0008 14.6377C15.8918 14.6377 14.8458 14.2409 14.0567 13.5197C13.752 13.2415 13.2561 13.2415 12.9517 13.5197C12.1622 14.2406 11.1173 14.6377 10.009 14.6377C8.90071 14.6377 7.85508 14.2406 7.06625 13.5197C6.76156 13.2415 6.26603 13.2415 5.96131 13.5197C5.17214 14.2406 4.12685 14.6377 3.01856 14.6377C2.65327 14.6377 2.28697 14.5921 1.93042 14.5081V26.0898C1.93042 26.9607 2.6389 27.6692 3.50979 27.6692H21.6915L21.6908 17.0372H26.299V27.6683H30.3631C31.253 27.6683 31.9769 26.9445 31.9769 26.0545V14.5294C31.6494 14.5997 31.3153 14.6378 30.9818 14.6378L30.9817 14.6377ZM14.0796 21.9214H7.12436V17.0374H14.0796V21.9214Z" fill="#C200FB"/>
<path d="M5.01794 12.4879C5.856 11.7222 7.1698 11.7222 8.00826 12.4879C8.53962 12.9731 9.25009 13.2399 10.0085 13.2399C10.7675 13.2399 11.4777 12.9731 12.0087 12.4879C12.8468 11.7229 14.1606 11.7222 14.9987 12.4879C15.53 12.9731 16.2405 13.2399 16.9989 13.2399C17.7573 13.2399 18.4681 12.9731 18.9991 12.4879C19.8372 11.7222 21.151 11.7222 21.9895 12.4879C22.5208 12.9731 23.2313 13.2399 23.9897 13.2399C24.7487 13.2399 25.4589 12.9731 25.9899 12.4879C26.4091 12.1052 26.9472 11.9137 27.4852 11.9137C28.0233 11.9137 28.561 12.1052 28.9805 12.4879C29.5119 12.9731 30.2223 13.2399 30.9807 13.2399C31.9524 13.2399 32.9611 12.7849 33.4922 12.1072C33.7952 11.7208 33.8977 11.3191 33.7979 10.9146C33.2964 8.88188 30.4048 4.27371 28.8509 1.79803C28.5874 1.37817 28.3591 1.01355 28.1809 0.724286C28.0296 0.478526 27.7668 0.331543 27.4772 0.331543H6.43515C6.14754 0.331543 5.87634 0.484217 5.72801 0.729309C5.54854 1.02562 5.31751 1.39995 5.05167 1.83091C3.52827 4.29922 0.691986 8.89359 0.200757 10.9123C0.101989 11.3198 0.206114 11.7236 0.511471 12.1113C1.04183 12.7866 2.04927 13.2403 3.01759 13.2403C3.77663 13.2407 4.48647 12.9731 5.01781 12.4883L5.01794 12.4879Z" fill="#C200FB"/>
</svg>
