<svg width="62" height="71" viewBox="0 0 62 71" fill="none" xmlns="http://www.w3.org/2000/svg">
<path d="M23.9078 27.3335V14.0837C23.464 13.8887 23.0115 13.6931 22.541 13.5068L22.5416 27.3336C22.7632 27.2537 22.9855 27.1918 23.2337 27.1918C23.464 27.1918 23.6949 27.2451 23.9078 27.3336V27.3335Z" fill="#E87B50"/>
<path d="M21.8223 29.1528C21.8223 29.9247 22.4611 30.5462 23.233 30.5462C24.005 30.5462 24.6265 29.9247 24.6265 29.1528C24.6265 28.3808 24.005 27.742 23.233 27.742C22.4524 27.7414 21.8223 28.3808 21.8223 29.1528Z" fill="#E87B50"/>
<path d="M36.8477 29.1528C36.8477 29.9247 37.4865 30.5462 38.2584 30.5462C39.0304 30.5462 39.6519 29.9247 39.6519 29.1528C39.6519 28.3808 39.0304 27.742 38.2584 27.742C37.4778 27.7414 36.8477 28.3808 36.8477 29.1528Z" fill="#E87B50"/>
<path d="M38.9332 27.3335V13.5067C38.4807 13.7017 38.0189 13.8973 37.5664 14.0837V27.3335C37.788 27.2536 38.0103 27.1917 38.2585 27.1917C38.4894 27.1917 38.7203 27.2449 38.9332 27.3335V27.3335Z" fill="#E87B50"/>
<path d="M48.6673 6.21198V6.18536L48.6852 6.16741C48.6673 4.00203 46.0494 2.23584 41.7186 1.14459C45.2508 2.34243 47.2652 4.0819 47.2652 6.17676C47.2652 6.59399 47.0875 7.04651 46.7681 7.49903V7.52565H46.7501C45.756 8.97234 43.4401 10.5607 40.8223 12.0249C44.9841 10.0725 48.6314 7.88047 48.6673 6.21206L48.6673 6.21198Z" fill="#E87B50"/>
<path d="M24.3591 6.91342H37.1026C37.7774 5.32504 38.1055 4.02001 38.2206 3.43445H23.2412C23.3656 4.01139 23.6851 5.32504 24.3592 6.91342H24.3591Z" fill="#E87B50"/>
<path d="M46.1461 7.46409C43.3771 5.71597 39.8276 4.03837 38.7622 3.55914C38.5845 4.4555 37.9636 7.01149 36.2507 9.75387C34.804 12.0703 32.7896 14.4574 31.6982 15.6817C36.6239 13.7732 44.0784 10.1439 46.146 7.46409H46.1461Z" fill="#E87B50"/>
<path d="M35.7823 9.46089C36.2082 8.7688 36.5722 8.09406 36.8564 7.46381H24.6094C24.9108 8.10264 25.2575 8.77741 25.6834 9.46089C27.423 12.2299 30.0142 15.1406 30.7328 15.9304C31.4695 15.1498 34.0429 12.2385 35.7823 9.46089H35.7823Z" fill="#E87B50"/>
<path d="M25.2118 9.75247C23.4989 7.01008 22.878 4.45407 22.7003 3.55774C21.6356 4.03687 18.1033 5.71441 15.3164 7.46269C17.4019 10.1425 24.8391 13.7639 29.7641 15.689C28.6814 14.4559 26.6671 12.0689 25.2117 9.75247H25.2118Z" fill="#E87B50"/>
<path d="M12.7969 6.16809V6.18604V6.20399C12.8235 7.89031 16.4795 10.0823 20.6507 12.0434C18.0327 10.5794 15.7077 8.99027 14.7228 7.5442H14.7049V7.51759C14.4034 7.06506 14.2078 6.60327 14.2078 6.19531C14.2078 4.10109 16.2221 2.36168 19.7543 1.16315C15.4236 2.23655 12.797 4.00268 12.797 6.16806L12.7969 6.16809Z" fill="#E87B50"/>
<path d="M14.7574 6.17682C14.7574 6.42505 14.8639 6.71787 15.0323 6.99332C18.3423 4.8991 22.7621 2.92008 22.7975 2.91073C22.8241 2.89278 22.842 2.91073 22.8686 2.91073C22.8866 2.89278 22.8953 2.88411 22.9132 2.88411H38.5588C38.5854 2.88411 38.5854 2.90206 38.6121 2.91073C38.63 2.91073 38.6566 2.89278 38.6653 2.91073C38.7185 2.92868 43.1205 4.89846 46.4484 6.99332C46.5995 6.71847 46.7146 6.42505 46.7146 6.17682C46.7146 2.79563 40.2983 0.310767 30.7405 0C21.1739 0.319419 14.7568 2.80419 14.7568 6.17682H14.7574Z" fill="#E87B50"/>
<path d="M47.9213 56.5212C47.6905 56.1751 46.6969 54.7019 45.2855 51.889C43.8481 49.0222 43.4481 43.7598 43.3776 42.5173H31.0068V60.5326H47.9207L47.9213 56.5212Z" fill="#E87B50"/>
<path d="M50.7526 61.0916H31.0068V66.5137H49.6608L50.7526 61.0916Z" fill="#E87B50"/>
<path d="M49.6609 10.4894C49.5191 10.1699 49.217 9.79728 48.7645 9.38872C48.7645 9.38872 48.7645 9.37077 48.7466 9.37077C48.7286 9.35282 48.7199 9.31753 48.702 9.29091C48.684 9.24634 48.6574 9.21972 48.6574 9.18444V7.58734C47.2374 9.52183 43.3058 11.5901 39.4721 13.2849V27.6615C39.916 28.0162 40.1909 28.5579 40.1909 29.1614C40.1909 30.2354 39.3211 31.1053 38.247 31.1053C37.173 31.1053 36.2859 30.2355 36.2859 29.1614C36.2859 28.5579 36.5787 28.0168 37.0046 27.6615L37.0059 14.3058C34.2462 15.4238 31.8853 16.2497 31.0068 16.5424V41.9678H43.6438C43.7949 41.9678 43.91 42.0743 43.9187 42.234C43.9187 42.3052 44.2201 48.5353 45.7826 51.6409C47.3445 54.7739 48.4006 56.2645 48.4185 56.273C48.4631 56.3176 48.4718 56.3709 48.4718 56.4414V60.5413H50.9566C51.2315 60.142 52.1545 58.6507 52.0573 56.9825C52.0127 56.3077 51.7026 53.5567 51.2853 50.087C50.4868 43.2181 49.2531 32.826 49.0933 28.7263C48.8624 22.6294 48.8624 15.7692 48.8624 15.6987C48.8624 15.5476 48.9869 15.4238 49.1373 15.4238C49.2883 15.4238 49.4122 15.5483 49.4122 15.6987C49.4122 15.7699 49.4122 22.6208 49.6431 28.691C49.8114 32.7736 51.0365 43.1474 51.8351 50.0072C52.2523 53.4949 52.5631 56.2459 52.607 56.9473C52.7048 58.7932 51.7106 60.3996 51.4092 60.8522L52.8825 64.8283C53.0508 65.2542 53.504 65.5031 53.9472 65.4232L60.6564 64.1808C60.7275 63.4794 60.9312 61.0659 60.9312 58.5098C60.9312 55.5812 55.1365 27.4839 54.0711 22.4349C53.4415 19.4265 51.0013 13.5065 49.6611 10.4894L49.6609 10.4894Z" fill="#E87B50"/>
<path d="M54.064 65.9724H54.0107L55.3243 70.9953L61.4831 69.478L60.6845 64.73L54.064 65.9724Z" fill="#E87B50"/>
<path d="M30.4577 61.0916H10.7119L11.8212 66.5137H30.4577V61.0916Z" fill="#E87B50"/>
<path d="M7.47244 65.9725H7.41921L0.781227 64.7301L0 69.4781L6.15875 70.9954L7.47244 65.9725Z" fill="#E87B50"/>
<path d="M30.4575 42.5184H18.0867C18.0155 43.7608 17.6162 49.0146 16.1789 51.8901C14.7681 54.7036 13.7826 56.1763 13.543 56.5223V60.5335H30.4568L30.4575 42.5184Z" fill="#E87B50"/>
<path d="M7.51693 65.4226C7.96945 65.5025 8.43124 65.2542 8.58168 64.8277L10.0723 60.8516C9.75289 60.3991 8.75871 58.7927 8.85652 56.9467C8.90109 56.2453 9.22919 53.4943 9.62846 50.0246C10.445 43.1557 11.6607 32.7811 11.8205 28.6988C12.0514 22.6285 12.0514 15.7683 12.0514 15.7065C12.0514 15.5554 12.1758 15.4316 12.3262 15.4316C12.4773 15.4316 12.6011 15.5561 12.6011 15.7065C12.6011 15.7777 12.6011 22.6286 12.3702 28.7341C12.2018 32.834 10.9947 43.2172 10.1782 50.1043C9.76095 53.5653 9.45018 56.3163 9.40623 56.9911C9.32638 58.6593 10.2494 60.1507 10.5069 60.5499L12.9924 60.5505V56.4413C12.9924 56.3701 13.019 56.3169 13.0456 56.2729C13.0636 56.255 14.1196 54.773 15.6815 51.6407C17.2433 48.5343 17.5455 42.3051 17.5455 42.2339C17.5634 42.0829 17.6872 41.9677 17.8203 41.9677H30.4573V16.5407C29.5876 16.2478 27.218 15.4227 24.4583 14.3041V27.6425C24.9022 27.9972 25.177 28.5389 25.177 29.1424C25.177 30.2165 24.3073 31.0863 23.2332 31.0863C22.1591 31.0863 21.2721 30.2165 21.2721 29.1424C21.2721 28.5389 21.5649 27.9978 21.9908 27.6425V13.266C18.1571 11.5711 14.2256 9.50348 12.8055 7.56836V9.16546C12.8055 9.21003 12.7789 9.23664 12.7609 9.27193C12.743 9.29855 12.743 9.34312 12.7164 9.35179V9.36974C12.2638 9.78697 11.9531 10.1596 11.802 10.4704C10.5596 13.2839 8.02166 19.3802 7.40012 22.4153C6.48581 26.6662 0.53125 55.5268 0.53125 58.4902C0.53125 61.0462 0.75286 63.4598 0.824062 64.1612L7.51693 65.4226Z" fill="#E87B50"/>
</svg>
