<svg width="28" height="44" viewBox="0 0 28 44" fill="none" xmlns="http://www.w3.org/2000/svg">
<path fill-rule="evenodd" clip-rule="evenodd" d="M14 0.873047C6.36273 0.873047 0.170044 7.25242 0.170044 15.063C0.170044 16.6746 0.853753 18.6938 1.86487 21.1079C2.87604 23.5223 4.24516 26.2685 5.68987 29.013C8.57939 34.5021 11.8111 40.0196 13.145 42.603C13.3091 42.9241 13.6396 43.1264 14.0002 43.1264C14.3608 43.1264 14.6913 42.9241 14.8553 42.603C16.1892 40.0195 19.4206 34.502 22.3105 29.013C23.7552 26.2685 25.1092 23.5223 26.1204 21.1079C27.1316 18.6935 27.8303 16.6745 27.8303 15.063C27.8303 7.25302 21.6418 0.873047 14.0003 0.873047H14ZM14 8.67305C16.7271 8.67305 18.95 10.9073 18.95 13.6381C18.95 16.3652 16.7268 18.6032 14 18.6032C11.2733 18.6032 9.03496 16.3653 9.03496 13.6381C9.03496 10.9077 11.2729 8.67305 14 8.67305Z" fill="#00F5D4"/>
</svg>
