<svg width="54" height="54" viewBox="0 0 54 54" fill="none" xmlns="http://www.w3.org/2000/svg">
<path fill-rule="evenodd" clip-rule="evenodd" d="M3.30052 27.2205H28.0167C29.8353 27.2205 31.3177 28.7029 31.3177 30.5215V49.986C31.3177 51.8045 29.8354 53.287 28.0167 53.287H3.30052C1.48285 53.287 0 51.8047 0 49.986V30.5215C0 28.703 1.48236 27.2205 3.30052 27.2205ZM47.0895 51.7078L40.3866 26.6941L43.6187 25.8262L46.8537 24.9607L53.5566 49.9744C52.5629 53.4914 49.7071 54.2571 47.0895 51.7078ZM39.8979 24.8591C38.6785 24.1667 34.8755 21.2257 33.8755 16.2918C31.7127 5.59549 43.8172 2.3508 47.2938 12.6957C48.8962 17.4705 47.071 21.9158 46.3627 23.1286L43.1311 23.9941L39.8991 24.8587L39.8979 24.8591ZM15.6591 32.3773C11.3047 32.3773 7.7809 35.9011 7.7809 40.2551C7.7809 44.6062 11.308 48.13 15.6591 48.13C20.0102 48.13 23.537 44.6062 23.537 40.2551C23.537 35.9012 20.0141 32.3773 15.6591 32.3773ZM3.30101 26.0665H28.0172C29.8357 26.0665 31.3182 24.5841 31.3182 22.7655V3.301C31.3182 1.48248 29.8359 0 28.0172 0H3.30101C1.48334 0 0.000491271 1.48236 0.000491271 3.301V22.7655C0.000491271 24.584 1.48285 26.0665 3.30101 26.0665ZM6.44899 21.9028H24.8692C26.1039 21.9028 27.1139 20.8938 27.1139 19.6581V6.41006C27.1139 5.17535 26.1044 4.1654 24.8692 4.1654H6.44899C5.2133 4.1654 4.20384 5.17487 4.20384 6.41006V19.6581C4.20384 20.8938 5.21331 21.9028 6.44899 21.9028Z" fill="#F15BB5"/>
</svg>
