<svg width="44" height="30" viewBox="0 0 44 30" fill="none" xmlns="http://www.w3.org/2000/svg">
<path d="M24.6315 16.4084C25.3691 15.636 25.8777 14.6867 26.0297 14.1256C26.1294 13.7646 26.2001 13.3846 26.2456 13.0984C26.559 12.9467 26.8014 12.6895 26.9323 12.3658C27.1172 11.8984 27.2176 10.8946 27.2189 10.851C27.3 10.0551 27.0194 9.59479 26.9933 9.56899C27.3191 6.34099 26.2878 5.70516 25.6004 5.59133C25.3557 5.54915 24.9857 5.45874 24.822 5.27459C24.4356 4.84937 24.2648 4.37691 23.5988 4.41548C23.3544 4.42854 23.0213 4.3522 22.8331 4.19417C22.5773 3.97955 22.2257 3.73145 21.9682 3.73145C21.7114 3.73145 21.3883 3.97085 21.1549 4.18078C20.9691 4.34685 20.6447 4.42888 20.3999 4.41549C19.7336 4.37698 19.5632 4.84942 19.1778 5.2746C19.0127 5.45942 18.6431 5.54916 18.3987 5.59134C17.7093 5.70518 16.6784 6.34168 17.0051 9.57106C16.9767 9.60086 16.6998 10.0612 16.7795 10.8508C16.7825 10.895 16.8823 11.8991 17.0671 12.3662C17.2 12.6903 17.4391 12.9471 17.7538 13.0988C17.8 13.3847 17.8703 13.7688 17.9684 14.126C18.1265 14.7005 18.6414 15.6692 19.3887 16.4453H19.3723C19.2685 20.9353 9.84687 18.4509 11.8565 26.5151C12.4964 28.7979 20.734 29.2151 22.0017 29.1257C23.2656 29.2151 31.5005 28.7972 32.1417 26.5151C34.1503 18.4579 24.7541 20.8844 24.6306 16.4085L24.6315 16.4084Z" fill="#00BBF9"/>
<path d="M36.082 13.0974C36.7938 12.3524 37.285 11.4366 37.4317 10.8946C37.5267 10.5467 37.5954 10.1797 37.6389 9.90416C37.9419 9.75718 38.1766 9.50974 38.3022 9.19668C38.4803 8.74534 38.5777 7.77639 38.5791 7.73448C38.6574 6.96539 38.3862 6.5224 38.3608 6.49762C38.6752 3.38277 37.6808 2.76837 37.0161 2.65857C36.7804 2.61772 36.4228 2.53033 36.2648 2.35287C35.8928 1.94306 35.727 1.48639 35.0848 1.52285C34.8501 1.53625 34.527 1.46225 34.3472 1.31024C34.0984 1.10298 33.7606 0.864258 33.5122 0.864258C33.2634 0.864258 32.952 1.09528 32.7263 1.29685C32.5479 1.45723 32.2352 1.53625 31.9978 1.52285C31.3559 1.48636 31.1905 1.94238 30.8185 2.35287C30.6601 2.531 30.3046 2.61772 30.0672 2.65857C29.4032 2.76838 28.4078 3.38278 28.7225 6.49959C28.695 6.52839 28.4278 6.97203 28.5045 7.73474C28.5075 7.77659 28.6043 8.74522 28.7814 9.19694C28.9107 9.50932 29.141 9.75743 29.4454 9.90442C29.4896 10.18 29.5572 10.551 29.6523 10.8948C29.8036 11.4493 30.3012 12.3848 31.022 13.1331H31.0066C30.9534 15.4632 28.2992 15.8475 26.1587 16.9139C26.4319 17.4041 27.1437 17.7663 28.6086 18.3663C30.9121 19.3081 34.2841 20.6896 33.7581 25.3782C35.4848 25.4147 42.7393 24.9516 43.3281 22.8506C45.2671 15.0757 36.2005 17.4168 36.0816 13.0972L36.082 13.0974Z" fill="#00BBF9"/>
<path d="M15.4 18.3937C16.8964 17.7903 17.6049 17.428 17.8633 16.9244C15.7191 15.8497 13.0479 15.471 12.9934 13.1326H12.978C13.6995 12.3843 14.1967 11.4488 14.3484 10.8944C14.4425 10.5502 14.5114 10.1795 14.5553 9.90393C14.859 9.75695 15.0897 9.50951 15.2196 9.19645C15.3967 8.74511 15.4938 7.77617 15.4955 7.73425C15.5721 6.97153 15.3049 6.52757 15.2782 6.49911C15.5939 3.38262 14.5981 2.76856 13.9335 2.65808C13.6974 2.61723 13.3402 2.53051 13.1821 2.35239C12.8098 1.94257 12.6441 1.4859 12.0029 1.52236C11.7652 1.53576 11.4528 1.45674 11.2736 1.29636C11.048 1.0948 10.7366 0.86377 10.4888 0.86377C10.2387 0.86377 9.90088 1.10216 9.65378 1.30975C9.47298 1.46176 9.15021 1.53642 8.91617 1.52236C8.27331 1.48587 8.10724 1.94189 7.73528 2.35239C7.57724 2.52984 7.21966 2.61723 6.98394 2.65808C6.31966 2.7679 5.32495 3.3823 5.63926 6.49714C5.61515 6.52225 5.34361 6.96555 5.42196 7.73399C5.42397 7.77585 5.51972 8.74448 5.69785 9.19619C5.82509 9.50858 6.05845 9.75669 6.36114 9.90367C6.40466 10.1792 6.4733 10.5465 6.5694 10.8941C6.71571 11.4362 7.20589 12.3519 7.91974 13.0969C7.79921 17.4164 -1.26712 15.0753 0.671826 22.8503C1.26111 24.9506 8.51365 25.414 10.241 25.3778C9.71497 20.6873 13.0936 19.3236 15.3999 18.3935L15.4 18.3937Z" fill="#00BBF9"/>
</svg>
