<svg width="30" height="30" viewBox="0 0 30 30" fill="none" xmlns="http://www.w3.org/2000/svg">
<path d="M14.7577 0.088501C6.76103 0.088501 0.27832 6.57169 0.27832 14.5681C0.27832 22.5645 6.76103 29.0482 14.7577 29.0482C22.7544 29.0482 29.2376 22.5648 29.2376 14.5681C29.2376 6.5714 22.7544 0.088501 14.7577 0.088501ZM13.9443 22.7364H7.36174C6.90158 22.7364 6.52723 22.3622 6.52723 21.9019V15.3194H13.9443V22.7364ZM13.9444 13.8173H13.9443H6.52723V7.23466C6.52723 6.7745 6.90148 6.40016 7.36174 6.40016H13.9444V13.8173ZM22.8635 21.902C22.8635 22.3622 22.489 22.7365 22.0293 22.7365H15.4465V15.3194H22.8635V21.902ZM22.8635 13.8173H15.4465V6.40016H22.0293C22.489 6.40016 22.8635 6.77441 22.8635 7.23466V13.8173Z" fill="white"/>
<path d="M9.44069 12.3777H10.9429V10.8755H12.445V9.37333H10.9429V7.87122H9.44069V9.37333H7.93848V10.8755H9.44069V12.3777Z" fill="white"/>
<path d="M9.13039 21.1163L10.1927 20.0539L11.255 21.1163L12.317 20.0542L11.2546 18.9919L12.317 17.9296L11.255 16.8676L10.1927 17.9299L9.13039 16.8676L8.06836 17.9296L9.13068 18.9919L8.06836 20.0542L9.13039 21.1163Z" fill="white"/>
<path d="M21.5007 9.37341H16.9941V10.8756H21.5007V9.37341Z" fill="white"/>
<path d="M21.5007 17.1102H16.9941V18.6124H21.5007V17.1102Z" fill="white"/>
<path d="M21.5007 19.3715H16.9941V20.8737H21.5007V19.3715Z" fill="white"/>
</svg>
