<svg width="97" height="43" viewBox="0 0 97 43" fill="none" xmlns="http://www.w3.org/2000/svg">
<path d="M64.623 14.7316L64.909 14.3354C65.0345 14.2708 65.1732 14.2338 65.3198 14.2338C65.4831 14.2338 65.6442 14.2809 65.7821 14.3673C66.1972 14.6271 66.3242 15.154 66.0724 15.567C65.9621 15.7469 64.9351 17.3407 62.7027 18.1578C62.4886 18.2369 62.2556 18.2195 62.0531 18.131C61.876 18.0308 61.7294 17.8748 61.6569 17.6774C61.4907 17.2194 61.7258 16.7121 62.1823 16.543C63.8276 15.9428 64.6193 14.7432 64.623 14.7316V14.7316Z" fill="#3C5A9A"/>
<path d="M59.6302 11.4598L60.2812 10.9576C60.2812 10.9576 60.3966 10.9163 60.4634 10.9163C60.7014 10.9163 60.922 11.0092 61.0897 11.1761C61.433 11.5244 61.4359 12.068 61.094 12.412C60.9445 12.563 59.5467 13.9136 56.4318 14.884C56.2184 14.9507 55.9971 14.9275 55.8054 14.839C55.6233 14.7294 55.4796 14.561 55.4121 14.3491C55.3424 14.1241 55.3642 13.8853 55.4738 13.6756C55.5841 13.4666 55.7684 13.3127 55.9941 13.2438C57.9312 12.64 59.1032 11.8678 59.6301 11.4599L59.6302 11.4598Z" fill="#3C5A9A"/>
<path d="M54.5888 8.19363L55.2456 7.67763C55.2456 7.67763 55.3632 7.62683 55.4416 7.62683C55.6789 7.62683 55.8981 7.71828 56.0635 7.88374C56.4112 8.22993 56.4162 8.77352 56.0773 9.12116C55.9046 9.29679 54.276 10.8796 50.5877 11.9907C50.3787 12.0553 50.1588 12.0284 49.9679 11.9399C49.7851 11.8296 49.6392 11.659 49.5739 11.4464C49.4331 10.9812 49.6987 10.4862 50.1639 10.3469C52.5495 9.62622 53.9604 8.68927 54.5887 8.19356L54.5888 8.19363Z" fill="#3C5A9A"/>
<path d="M48.2696 4.45179L49.1456 3.94231C49.1456 3.94231 49.2392 3.85522 49.3299 3.85522C49.6245 3.85522 49.8982 4.0011 50.0622 4.24569C50.3351 4.64703 50.2284 5.19787 49.8263 5.46929C49.7204 5.53969 47.2223 7.21327 44.1255 8.0269C43.9208 8.08134 43.7096 8.05086 43.5282 7.96231C43.3402 7.84692 43.1929 7.66475 43.1348 7.44194C43.0746 7.21405 43.108 6.97602 43.2263 6.77207C43.3446 6.56813 43.5362 6.42371 43.7641 6.36203C45.7026 5.85328 47.419 4.94682 48.2695 4.4519L48.2696 4.45179Z" fill="#3C5A9A"/>
<path d="M5.49475 12.2811L5.58184 12.1352L5.57748 11.9646C5.5753 11.9284 5.49765 8.11744 6.71328 5.03088C7.83457 2.18306 11.3755 1.87094 11.4307 1.86666C11.5766 1.86666 12.3357 1.93416 12.9998 3.26155C13.1754 3.61136 13.3721 4.20285 13.6014 4.88868C14.534 7.68355 16.0944 12.361 20.2675 13.2878C20.8045 13.4082 21.4047 13.4678 22.0506 13.4678C26.5059 13.4678 32.3301 10.6584 33.7671 9.92898C33.9057 10.0255 34.0697 10.138 34.2809 10.2744C34.5494 10.4428 34.8448 10.6678 35.1873 10.8543C35.5234 11.0466 35.8833 11.2528 36.2433 11.4589C36.4211 11.5619 36.6026 11.6635 36.7767 11.7637C36.9596 11.8522 37.1411 11.9371 37.3167 12.0206C37.6643 12.1861 37.9887 12.3421 38.2667 12.4742C38.8212 12.7376 39.1913 12.914 39.1913 12.914C39.1913 12.914 38.8582 12.6745 38.3603 12.3145C38.1128 12.1367 37.8233 11.9277 37.5134 11.7034C37.3595 11.5931 37.1998 11.4784 37.038 11.3609C36.8863 11.2317 36.7303 11.1011 36.575 10.9704C36.2658 10.7106 35.9559 10.45 35.6663 10.2055C35.3717 9.96595 35.138 9.70904 34.9181 9.50801C34.6583 9.26778 34.4623 9.06821 34.3404 8.93975C34.2664 8.62115 34.0399 7.1994 34.4514 2.65627C34.6162 0.842622 35.5248 0 37.3117 0C39.2675 0 41.4601 1.06032 41.4768 1.06758C43.0749 1.87171 44.824 2.81664 46.684 3.87694C45.8152 4.32254 44.646 4.84073 43.3774 5.17314C42.8447 5.31248 42.3991 5.6514 42.1219 6.12749C41.8439 6.60286 41.767 7.15734 41.9078 7.68785C42.0609 8.27352 42.4594 8.74164 42.9732 9.00218C43.2751 9.17418 43.6228 9.2736 43.9863 9.2736C44.1642 9.2736 44.3398 9.24965 44.5111 9.20465C47.7986 8.34319 50.4601 6.56084 50.5725 6.48373C50.6538 6.4293 50.7307 6.36834 50.8033 6.30302C51.5392 6.74935 52.2911 7.2131 53.0735 7.70153C52.3804 8.13407 51.2853 8.70016 49.735 9.16827C48.6478 9.4963 48.0273 10.6488 48.3561 11.7359C48.5266 12.3006 48.9171 12.7433 49.4171 12.9886C49.7154 13.154 50.0551 13.2484 50.4157 13.2484C50.6168 13.2484 50.8185 13.2179 51.0109 13.1598C54.5169 12.1024 56.3501 10.5922 56.8663 10.1167C57.2959 10.3969 57.7161 10.6712 58.1305 10.9419C57.5601 11.2845 56.7131 11.7076 55.5564 12.0676C55.0302 12.2323 54.6006 12.5901 54.3444 13.0778C54.0882 13.5655 54.0367 14.1236 54.2007 14.649C54.3741 15.2064 54.7639 15.6426 55.261 15.885C55.5586 16.0483 55.8968 16.1419 56.2546 16.1419C56.4636 16.1419 56.6697 16.11 56.8693 16.0483C59.773 15.144 61.3565 13.8819 61.8574 13.4312C62.3495 13.7651 62.8118 14.0815 63.2472 14.3819C62.9424 14.6918 62.4286 15.1179 61.6927 15.3871C60.6251 15.7776 60.075 16.962 60.4647 18.0289C60.6548 18.5478 61.041 18.9535 61.5207 19.1807C61.8131 19.3374 62.1426 19.4281 62.4881 19.4281C62.7305 19.4281 62.9685 19.3868 63.1964 19.3026C65.0152 18.6356 66.1576 17.5172 66.7307 16.8183C67.0406 17.0397 67.2076 17.1609 67.2083 17.1609L67.3425 17.2589L67.508 17.2712C76.0914 17.9266 82.5027 20.8447 87.1852 22.9756C89.1223 23.8581 90.6521 24.5541 91.9317 24.9054C95.6323 25.9258 96.3472 27.7889 96.8886 30.6984C83.7336 40.3509 57.3948 36.1618 39.9192 33.3786C34.712 32.5491 30.2153 31.8335 26.9145 31.6006C14.013 30.6934 4.61764 27.0988 2.7653 26.3439C2.35234 17.7024 5.46225 12.3341 5.49347 12.2812L5.49475 12.2811Z" fill="#3C5A9A"/>
<path d="M85.4022 40.3653C78.9641 42.179 53.5761 42.8241 31.961 42.8241H31.9567C22.8478 42.8241 16.4481 42.7116 14.1431 42.6006C5.88634 42.2022 0.837263 38.8985 0.115833 35.8409C-0.527899 33.1142 1.68708 28.8433 2.44399 27.4933C4.64005 28.3765 14.051 31.8863 26.8329 32.7846C30.0813 33.0133 34.5563 33.7252 39.7352 34.5489C49.0241 36.0302 60.7892 37.9042 71.8326 37.9042C81.4938 37.9042 90.5976 36.4599 97 32.0707C96.8331 34.1463 94.9665 37.6714 85.401 40.3653H85.4022Z" fill="#3C5A9A"/>
</svg>
