<svg width="43" height="55" viewBox="0 0 43 55" fill="none" xmlns="http://www.w3.org/2000/svg">
<path d="M42.1402 28.3588H34.2308L41.0917 5.82682C41.8726 3.26102 40.9446 0.705523 39.0188 0.12047C38.7547 0.0402885 38.4802 -0.000380349 38.2041 2.68051e-06C36.5095 2.68051e-06 34.7895 1.49657 34.1164 3.70596L26.6102 28.3593H24.8518V8.58025H24.8284L21.9996 0.247891C21.8449 0.0898279 21.6329 0.000444637 21.4118 0.000444637C21.1906 0.000444637 20.9787 0.0898338 20.824 0.247891L17.9952 8.58025H17.9718V28.3593H16.2518V8.16481C16.2518 7.70905 16.0706 7.27169 15.7481 6.94943C15.4256 6.62718 14.9879 6.44609 14.5318 6.44609H14.1018V6.23125C14.1283 5.86142 14.0073 5.49619 13.7658 5.21455C13.5244 4.93296 13.1815 4.75802 12.8118 4.72733C12.4421 4.75802 12.0992 4.93297 11.8577 5.21455C11.6162 5.49615 11.4957 5.86137 11.5218 6.23125V6.44609H11.0918C10.6357 6.44609 10.1984 6.62718 9.87548 6.94943C9.55299 7.27169 9.37177 7.70905 9.37177 8.16481V8.59449H6.79176C6.54873 8.59449 6.31684 8.69731 6.15405 8.87724C5.99088 9.05755 5.9118 9.2981 5.93637 9.53979L6.75721 17.7037C6.77987 17.9308 6.89159 18.1395 7.0682 18.2842C7.24481 18.4288 7.47171 18.4971 7.699 18.4745C7.92629 18.4514 8.13514 18.3394 8.2795 18.1626C8.42385 17.9857 8.49181 17.7586 8.46839 17.5318L7.74277 10.3132H9.37215L9.37177 28.3598H0.860003C0.385085 28.3598 0 28.7446 0 29.2191C0 29.6937 0.385085 30.0785 0.860003 30.0785H4.58563L8.20875 51.8748H8.20913C8.20913 52.7035 8.53855 53.4984 9.1248 54.0846C9.71145 54.6708 10.5069 55 11.3362 55H31.6637C32.493 55 33.2885 54.6708 33.8752 54.0846C34.4614 53.4984 34.7909 52.7036 34.7909 51.8748L38.4144 30.0785H42.14C42.6149 30.0785 43 29.6937 43 29.2191C43 28.7446 42.6149 28.3598 42.14 28.3598L42.1402 28.3588ZM34.9146 6.79323L38.8076 7.62689L38.3062 9.29189L34.4976 8.46054L34.9146 6.79323ZM13.672 15.8982C13.672 16.3728 13.287 16.7576 12.812 16.7576C12.3371 16.7576 11.952 16.3728 11.952 15.8982V10.7421C11.952 10.2675 12.3371 9.88271 12.812 9.88271C13.287 9.88271 13.672 10.2675 13.672 10.7421V15.8982ZM18.0603 47.2654C18.0603 47.7399 17.6752 48.1247 17.2003 48.1247C16.7254 48.1247 16.3403 47.7399 16.3403 47.2654V36.9531C16.3403 36.4785 16.7254 36.0937 17.2003 36.0937C17.6752 36.0937 18.0603 36.4785 18.0603 36.9531V47.2654ZM22.3603 47.2654C22.3603 47.7399 21.9752 48.1247 21.5003 48.1247C21.0254 48.1247 20.6403 47.7399 20.6403 47.2654V36.9531C20.6403 36.4785 21.0254 36.0937 21.5003 36.0937C21.9752 36.0937 22.3603 36.4785 22.3603 36.9531V47.2654ZM20.3405 6.87838L21.412 3.72212L22.4835 6.87838H20.3405ZM26.6603 47.2654C26.6603 47.7399 26.2753 48.1247 25.8003 48.1247C25.3254 48.1247 24.9403 47.7399 24.9403 47.2654V36.9531C24.9403 36.4785 25.3254 36.0937 25.8003 36.0937C26.2753 36.0937 26.6603 36.4785 26.6603 36.9531V47.2654Z" fill="#EA4335"/>
</svg>
