<svg width="96" height="35" viewBox="0 0 96 35" fill="none" xmlns="http://www.w3.org/2000/svg">
<path d="M92.969 2.55967H89.4787C88.847 2.55967 88.2191 2.44881 87.6097 2.22931C79.5629 -0.671068 70.2452 -0.74459 62.0478 2.02767C58.353 3.27693 54.8059 3.81041 50.1876 3.81041H45.8118C41.1943 3.81041 37.6475 3.27693 33.9517 2.02767C25.753 -0.743181 16.4384 -0.67023 8.3898 2.22931C7.78043 2.4488 7.15245 2.55967 6.52075 2.55967H3.03047C1.35861 2.55967 0 3.91979 0 5.59015V8.66538C0 9.89231 0.752228 10.9972 1.91447 11.4793C3.77756 12.2538 4.16076 15.2115 4.46799 17.5871C4.51933 17.9859 4.56919 18.3698 4.6235 18.7285C5.44567 24.1964 7.71131 28.07 11.5469 30.5692C14.4323 32.4509 18.4665 33.6519 23.8764 34.2418C24.7909 34.3407 25.68 34.3913 26.5423 34.3913C29.1458 34.3913 31.5088 33.9389 33.5922 33.0386C39.9092 30.308 42.985 23.9925 45.7008 18.4188C46.107 17.5848 46.5081 16.7604 46.9128 15.9657C47.1472 15.523 47.6799 14.8653 47.9977 14.6562C48.3154 14.8653 48.8563 15.5312 49.0825 15.9605C49.488 16.7604 49.8898 17.584 50.296 18.418C53.0111 23.9917 56.0891 30.3079 62.4061 33.0386C65.1785 34.2372 68.4455 34.6405 72.1211 34.2417C77.531 33.6517 81.5645 32.4508 84.4501 30.5691C88.2872 28.0676 90.5512 24.1949 91.3735 18.7284C91.4278 18.369 91.4777 17.9851 91.5305 17.5848C91.8378 15.209 92.2217 12.2522 94.084 11.4783C95.2492 10.9954 96 9.89202 96 8.66499V5.58976C96 3.91938 94.6414 2.55928 92.9695 2.55928L92.969 2.55967ZM92.8976 8.62138C89.3828 10.0819 88.8507 14.189 88.4624 17.1877C88.4133 17.5649 88.3664 17.9287 88.315 18.268C87.632 22.8112 85.8158 25.9867 82.7623 27.9771C80.2928 29.5865 76.7029 30.6297 71.7876 31.1653C68.656 31.5076 65.9111 31.1802 63.6358 30.1981C58.3709 27.9228 55.6819 22.4019 53.0816 17.0634C52.6679 16.213 52.2579 15.3737 51.845 14.5611C51.8301 14.5299 50.2787 11.521 48.0004 11.521H47.9996C45.7318 11.521 44.2229 14.4339 44.1574 14.5596C43.7437 15.3743 43.3352 16.2144 42.92 17.0655C40.3196 22.404 37.6313 27.9242 32.3665 30.1994C30.0913 31.183 27.3486 31.5089 24.2147 31.1667C19.2987 30.631 15.708 29.5878 13.2385 27.9785C10.1858 25.9882 8.37015 22.8126 7.68577 18.2693C7.63592 17.9301 7.58905 17.5677 7.53994 17.1912C7.15154 14.192 6.61956 10.0842 3.09728 8.66665V5.65485H6.52356C7.51314 5.65485 8.4946 5.48223 9.44089 5.14072C16.7325 2.51424 25.5249 2.4451 32.9628 4.95917C36.997 6.32226 40.8399 6.90488 45.8147 6.90488H50.1906C55.1645 6.90488 59.0075 6.32378 63.0418 4.95917C70.4762 2.44508 79.2709 2.51193 86.5637 5.14072C87.5101 5.48075 88.4915 5.65411 89.481 5.65411H92.9057L92.8976 8.62138Z" fill="#EE591F"/>
<path d="M35.9484 9.44725C31.5206 7.26573 26.5534 6.11316 21.5816 6.11316C21.124 6.11316 20.6657 6.12283 20.2088 6.14218C14.7237 6.37656 11.5622 7.92789 10.5452 10.8826C9.24911 14.6467 10.5497 21.0328 13.2216 24.0216C15.8801 26.9955 21.3547 28.1622 25.5951 28.262C25.7157 28.2649 25.8354 28.2664 25.9545 28.2664C26.1308 28.2664 26.3057 28.2635 26.4805 28.2568C30.7603 28.1042 34.3182 26.128 36.7729 22.5417C39.5087 18.5417 41.7737 14.7196 39.4575 11.9271C38.5267 10.8073 37.1613 10.0446 35.9485 9.44706L35.9484 9.44725Z" fill="#EE591F"/>
<path d="M75.792 6.14254C75.3344 6.1232 74.8768 6.11353 74.4192 6.11353C69.4482 6.11353 64.4802 7.2668 60.0531 9.44762C58.8396 10.0458 57.4728 10.8077 56.545 11.9276C54.228 14.7215 56.4929 18.5428 59.2295 22.5428C61.6842 26.1291 65.2436 28.1053 69.5227 28.2579C69.6968 28.2646 69.8716 28.2676 70.0472 28.2676C70.167 28.2676 70.286 28.2668 70.4081 28.2631C74.6462 28.1641 80.1223 26.9967 82.7816 24.0227C85.4534 21.0332 86.7526 14.6477 85.4579 10.8822C84.4371 7.92673 81.2764 6.37702 75.7921 6.14254H75.792Z" fill="#EE591F"/>
</svg>
