<svg width="82" height="68" viewBox="0 0 82 68" fill="none" xmlns="http://www.w3.org/2000/svg">
<path d="M71.8549 26.6822L69.7396 24.5668L71.6706 22.6357C72.0728 23.6785 72.4619 24.7075 72.8306 25.7064L71.8549 26.6822ZM14.785 22.1702L12.6696 20.0549L14.8047 17.9197L16.9201 20.0351L14.785 22.1702ZM14.0272 22.3648L12.07 24.322L10.2365 22.4886L12.1938 20.5313L14.0272 22.3648ZM13.598 23.7421L14.6808 22.6593L16.7962 24.7746L14.6611 26.9098L12.5457 24.7944L13.598 23.7421ZM15.435 22.4683L17.3922 20.5111L19.2256 22.3445L17.2684 24.3017L15.435 22.4683ZM19.9835 22.1499L17.8682 20.0345L20.0033 17.8994L22.1187 20.0147L19.9835 22.1499ZM19.88 22.6395L21.9954 24.7549L19.8602 26.89L17.7448 24.7746L19.88 22.6395ZM20.6342 22.4486L22.5914 20.4913L24.4248 22.3247L22.4711 24.282L20.6342 22.4486ZM25.1827 22.1301L23.0674 20.0148L25.2025 17.8796L27.3179 19.995L25.1827 22.1301ZM25.0786 22.6192L27.194 24.7345L25.0588 26.8697L22.9434 24.7543L25.0786 22.6192ZM25.8328 22.4252L27.79 20.468L29.6234 22.3014L27.6662 24.2586L25.8328 22.4252ZM30.3819 22.1098L28.2666 19.9944L30.4017 17.8593L32.5171 19.9746L30.3819 22.1098ZM30.2778 22.5994L32.3932 24.7148L30.258 26.8499L28.1426 24.7345L30.2778 22.5994ZM31.0356 22.4049L32.9928 20.4476L34.8262 22.2811L32.869 24.2383L31.0356 22.4049ZM35.5805 22.09L33.4651 19.9747L35.6002 17.8395L37.7156 19.9549L35.5805 22.09ZM35.4799 22.5791L37.5953 24.6944L35.4601 26.8296L33.3448 24.7142L35.4799 22.5791ZM36.2341 22.3845L38.1913 20.4273L40.0248 22.2607L38.0675 24.218L36.2341 22.3845ZM40.7826 22.0697L38.6673 19.9543L40.8024 17.8192L42.9178 19.9345L40.7826 22.0697ZM40.6791 22.5557L42.7945 24.6711L40.6593 26.8062L38.544 24.6909L40.6791 22.5557ZM41.4333 22.3648L43.3905 20.4075L45.224 22.241L43.2667 24.1982L41.4333 22.3648ZM45.9818 22.0463L43.8665 19.931L46.0016 17.7958L48.117 19.9112L45.9818 22.0463ZM45.8777 22.5354L47.9931 24.6507L45.8579 26.7859L43.7426 24.6705L45.8777 22.5354ZM46.6319 22.3444L48.5891 20.3872L50.4226 22.2206L48.4653 24.1779L46.6319 22.3444ZM51.1811 22.026L49.0657 19.9106L51.2008 17.7755L53.3162 19.8908L51.1811 22.026ZM51.0769 22.5156L53.1923 24.631L51.0571 26.7661L48.9418 24.6508L51.0769 22.5156ZM51.8347 22.3211L53.7919 20.3638L55.6254 22.1973L53.6681 24.1545L51.8347 22.3211ZM56.3796 22.0062L54.2642 19.8909L56.3993 17.7557L58.5147 19.8711L56.3796 22.0062ZM56.279 22.4953L58.3944 24.6106L56.2592 26.7458L54.1439 24.6304L56.279 22.4953ZM57.0332 22.3007L58.9905 20.3435L60.8239 22.1769L58.8666 24.1342L57.0332 22.3007ZM61.5818 21.9859L59.4664 19.8705L61.6015 17.7354L63.7169 19.8507L61.5818 21.9859ZM61.4782 22.4755L63.5936 24.5909L61.4584 26.726L59.3431 24.6107L61.4782 22.4755ZM62.2324 22.281L64.1897 20.3237L66.0231 22.1572L64.0658 24.1144L62.2324 22.281ZM67.431 22.2606L69.3882 20.3034L71.2216 22.1368L69.2644 24.0941L67.431 22.2606ZM66.7809 21.9655L64.6656 19.8502L66.8007 17.715L68.9161 19.8304L66.7809 21.9655ZM66.6768 22.4516L68.7922 24.567L66.657 26.7021L64.5416 24.5867L66.6768 22.4516ZM71.0313 20.9935L69.8647 19.8269L70.3639 19.3277C70.592 19.8873 70.8135 20.444 71.0313 20.9935V20.9935ZM31.649 1.65552C31.9172 6.58287 35.9563 10.4209 40.9136 10.4209C45.8614 10.4209 49.8969 6.59605 50.1752 1.68249L50.4972 1.48796C50.5241 1.4712 50.5642 1.44427 50.6181 1.40416C50.8396 1.24675 51.3154 0.907951 52.1331 0.69367C52.1295 0.723598 52.1265 0.757118 52.1229 0.787645C52.1127 0.875035 52.0996 0.958836 52.0894 1.04264C52.0726 1.15637 52.0595 1.2707 52.0391 1.38142C52.0223 1.4754 52.0056 1.56938 51.9888 1.65975C51.9685 1.7639 51.9517 1.86446 51.932 1.96502C51.9116 2.06558 51.8883 2.16255 51.8685 2.26311C51.8482 2.35708 51.8284 2.44746 51.8051 2.54144C51.7781 2.64559 51.7512 2.74914 51.7249 2.8533C51.7015 2.9371 51.6782 3.0209 51.6542 3.10469C51.6243 3.21183 51.5908 3.31897 51.5573 3.42672C51.5339 3.50394 51.507 3.58115 51.4836 3.65777C51.4465 3.7685 51.41 3.87565 51.3699 3.98279C51.343 4.05342 51.316 4.12704 51.2897 4.19707C51.2496 4.30781 51.2059 4.41495 51.1592 4.52209C51.1323 4.58913 51.1053 4.65617 51.0754 4.71962C51.0287 4.83036 50.9784 4.9375 50.9312 5.04464C50.9012 5.10809 50.8743 5.16855 50.8438 5.2326C50.7935 5.33974 50.7396 5.44688 50.6828 5.55463C50.6528 5.61509 50.6223 5.67195 50.5924 5.73241C50.5355 5.83956 50.4786 5.94371 50.4182 6.05085C50.3883 6.10771 50.3547 6.16158 50.3212 6.21845C50.2608 6.3226 50.1973 6.42616 50.1333 6.52671C50.0997 6.58058 50.0662 6.63385 50.0327 6.68773C49.9693 6.78829 49.9022 6.88885 49.8352 6.98941C49.7981 7.03969 49.7645 7.09356 49.728 7.14384C49.6574 7.24081 49.5904 7.33837 49.5167 7.43235C49.4796 7.48262 49.4395 7.53291 49.403 7.57959C49.3294 7.67357 49.2588 7.76395 49.1851 7.85434C49.145 7.90462 49.1049 7.95131 49.0642 7.99859C48.9906 8.08598 48.9134 8.17637 48.8362 8.26016C48.7925 8.30685 48.7488 8.35414 48.7057 8.40083C48.6285 8.48462 48.5513 8.56843 48.471 8.64863C48.4244 8.69532 48.3807 8.74261 48.3334 8.7863C48.2532 8.86352 48.176 8.94073 48.0951 9.01735C48.0449 9.06404 47.9946 9.10773 47.9443 9.15502C47.8641 9.22864 47.7833 9.29927 47.7031 9.3693C47.6492 9.41299 47.5959 9.45669 47.5421 9.50338C47.4619 9.57042 47.3781 9.63746 47.2973 9.70091C47.2404 9.74461 47.1835 9.7883 47.1261 9.8314C47.0459 9.89185 46.9621 9.9523 46.8783 10.0122C46.8178 10.0559 46.7544 10.096 46.6939 10.1397C46.6137 10.1935 46.5299 10.2504 46.4461 10.3037C46.3791 10.3438 46.312 10.3839 46.245 10.4246C46.1648 10.4749 46.084 10.5215 46.0002 10.5688C45.9295 10.6089 45.8559 10.649 45.7823 10.6861C45.7021 10.7298 45.6249 10.7735 45.544 10.8136C45.4668 10.8537 45.3896 10.8873 45.3094 10.9244C45.2322 10.9615 45.155 10.998 45.0784 11.0351C44.9946 11.0722 44.9108 11.1057 44.827 11.1393C44.7534 11.1692 44.6761 11.2027 44.6025 11.2332C44.5121 11.2668 44.4217 11.3003 44.3308 11.3302C44.2601 11.3571 44.1901 11.3805 44.1165 11.4038C44.0195 11.4373 43.919 11.4643 43.8184 11.4942C43.7514 11.5146 43.6879 11.5343 43.6209 11.5511C43.5101 11.581 43.3994 11.6049 43.2893 11.6313C43.2324 11.6444 43.172 11.6612 43.1151 11.675C42.9942 11.7019 42.8703 11.7217 42.7464 11.7456C42.6997 11.7558 42.6494 11.766 42.6021 11.7725C42.4615 11.7959 42.3172 11.8126 42.173 11.8294C42.143 11.833 42.1125 11.8396 42.0826 11.8426C41.7306 11.8797 41.3721 11.8994 41.0135 11.8994C40.8328 11.8994 40.655 11.8958 40.4736 11.8863C40.4605 11.8863 40.4467 11.8827 40.4365 11.8827C40.2725 11.8725 40.1115 11.8593 39.9469 11.8426C39.9002 11.839 39.8565 11.8294 39.8092 11.8258C39.6817 11.8091 39.5542 11.7959 39.4273 11.7755C39.3669 11.7654 39.3064 11.7522 39.243 11.742C39.1322 11.7217 39.0215 11.7019 38.9144 11.6786C38.8437 11.6654 38.7767 11.645 38.7067 11.6283C38.6061 11.6049 38.5091 11.5816 38.4086 11.5547C38.335 11.5343 38.2613 11.511 38.1871 11.4912C38.0967 11.4643 38.0028 11.4373 37.9124 11.4074C37.8352 11.3805 37.7579 11.3535 37.6813 11.3272C37.5975 11.2973 37.5101 11.2668 37.4263 11.2368C37.3461 11.2069 37.2689 11.1734 37.1881 11.1399C37.1079 11.1063 37.0271 11.0728 36.9469 11.0393C36.8667 11.0022 36.7859 10.9657 36.7087 10.9286C36.6314 10.8915 36.5578 10.8579 36.4806 10.8178C36.4004 10.7777 36.3196 10.734 36.2394 10.6903C36.1688 10.6532 36.0951 10.6131 36.0251 10.573C35.9449 10.5263 35.8641 10.479 35.7869 10.4324C35.7162 10.3922 35.6492 10.3486 35.5822 10.3085C35.502 10.2582 35.4247 10.2043 35.3475 10.154C35.2841 10.1103 35.217 10.0666 35.153 10.0235C35.0728 9.96667 34.9956 9.90981 34.9184 9.85234C34.8549 9.80566 34.7945 9.76196 34.734 9.71168C34.6568 9.65123 34.5796 9.59077 34.506 9.52733C34.4455 9.48064 34.3886 9.43036 34.3282 9.38008C34.251 9.31663 34.1773 9.24959 34.1037 9.18255C34.0469 9.13227 33.99 9.08199 33.9325 9.02812C33.8589 8.96108 33.7883 8.89045 33.7147 8.82041L33.5536 8.6594C33.483 8.58577 33.413 8.51215 33.3424 8.43793C33.2921 8.38107 33.2382 8.32719 33.1879 8.27032C33.1209 8.19311 33.0538 8.1159 32.9868 8.03928C32.9365 7.98242 32.8898 7.92196 32.8396 7.8651C32.7725 7.78489 32.7091 7.70408 32.645 7.62388C32.5983 7.56343 32.5511 7.50297 32.5044 7.43953C32.4409 7.35573 32.3805 7.27192 32.32 7.18813C32.2733 7.12469 32.2296 7.06064 32.1859 6.99719C32.1291 6.9098 32.0686 6.826 32.0117 6.73921C31.9681 6.67217 31.9244 6.60513 31.8843 6.53809C31.8304 6.4507 31.7735 6.36031 31.7232 6.26993C31.6831 6.1993 31.643 6.12927 31.6023 6.05864C31.5521 5.96826 31.5018 5.87787 31.4515 5.7869C31.4114 5.71327 31.3743 5.63965 31.3378 5.56543C31.2911 5.47505 31.2438 5.38108 31.2001 5.2871C31.163 5.20988 31.1265 5.13267 31.0894 5.05606C31.0457 4.96208 31.0056 4.8717 30.9619 4.77474C30.9283 4.69453 30.8948 4.61372 30.8613 4.52992C30.8212 4.43594 30.7841 4.34196 30.7476 4.2486C30.7141 4.1648 30.6841 4.07741 30.6536 3.99061C30.6201 3.89664 30.5866 3.80266 30.553 3.70929C30.5231 3.61891 30.4926 3.52853 30.4657 3.43755C30.4357 3.34358 30.4052 3.2532 30.3783 3.15922C30.3513 3.06225 30.3244 2.96469 30.2981 2.87071C30.2747 2.78033 30.2478 2.68995 30.2244 2.59597C30.1975 2.49182 30.1742 2.38826 30.1508 2.28411C30.1305 2.19672 30.1107 2.10633 30.0904 2.01954C30.067 1.9088 30.0467 1.79807 30.0269 1.68793C30.0101 1.60413 29.997 1.52032 29.9802 1.43653C29.9599 1.31562 29.9431 1.19531 29.9263 1.0744C29.9162 0.997183 29.903 0.916983 29.8928 0.839769C29.8892 0.816426 29.8892 0.78949 29.8862 0.766145C30.3388 0.906808 30.7308 1.05107 31.0594 1.19831L31.649 1.65552ZM16.4551 5.71144C17.1219 4.4311 19.2672 2.15184 21.2383 1.34078C21.282 1.32402 21.3556 1.28691 21.4561 1.23663C22.0798 0.931363 23.9833 0 26.4272 0C26.6247 0 27.8452 0.190943 29.1926 0.556663C29.1991 0.62011 29.2093 0.684157 29.2159 0.747606C29.2291 0.864924 29.2428 0.97865 29.2596 1.09298C29.2728 1.19354 29.2895 1.2941 29.3063 1.39466C29.323 1.5054 29.3398 1.61254 29.3601 1.72327C29.3805 1.82742 29.4003 1.92797 29.4206 2.03153C29.441 2.13568 29.4607 2.23923 29.4841 2.33979C29.5074 2.44693 29.5343 2.55108 29.5577 2.65463C29.581 2.7516 29.6044 2.84916 29.6313 2.94613C29.6612 3.05327 29.6918 3.16041 29.7217 3.26816C29.7486 3.35854 29.7756 3.44893 29.8019 3.5399C29.8354 3.65064 29.8725 3.75778 29.909 3.86492C29.939 3.94872 29.9659 4.03612 29.9964 4.11992C30.0365 4.23065 30.0766 4.34139 30.1203 4.44853C30.1503 4.52873 30.1808 4.60954 30.2143 4.68676C30.258 4.79749 30.3047 4.90822 30.355 5.01837C30.3885 5.09199 30.4184 5.16921 30.4519 5.24282C30.5022 5.35356 30.5561 5.46429 30.6064 5.57143C30.6399 5.64206 30.6734 5.71209 30.7069 5.78272C30.7638 5.89346 30.8206 6.00419 30.8781 6.11133C30.9116 6.17478 30.9487 6.24182 30.9823 6.30586C31.0427 6.41659 31.1062 6.52374 31.1702 6.63088C31.2073 6.69134 31.2408 6.75478 31.2774 6.81524C31.3444 6.92238 31.4114 7.02951 31.4821 7.13367C31.5192 7.19053 31.5557 7.25099 31.5958 7.30486C31.6664 7.412 31.74 7.51257 31.8137 7.61672C31.8538 7.67059 31.8909 7.72386 31.931 7.77773C32.0082 7.88189 32.0854 7.98244 32.1656 8.083C32.2057 8.13328 32.2428 8.18356 32.2829 8.23384C32.3631 8.3344 32.4469 8.43138 32.5307 8.52894C32.5708 8.57563 32.611 8.62591 32.6517 8.6696C32.739 8.76657 32.8258 8.86055 32.9132 8.95092C32.9569 8.99462 32.997 9.0413 33.0407 9.085C33.1311 9.17538 33.2215 9.26577 33.3155 9.35674C33.3592 9.40044 33.4029 9.44413 33.4459 9.48424C33.5399 9.57163 33.6339 9.65543 33.7273 9.73923C33.774 9.77934 33.8176 9.82303 33.8649 9.86014C33.9589 9.94035 34.0595 10.0212 34.1564 10.0984C34.2031 10.1385 34.2504 10.1756 34.3007 10.2157C34.3977 10.2929 34.4982 10.3665 34.5988 10.4372C34.649 10.4743 34.6993 10.5108 34.7496 10.5479C34.8502 10.6185 34.9507 10.6856 35.0549 10.7526C35.1087 10.7861 35.159 10.8232 35.2123 10.8597C35.3129 10.9232 35.417 10.9836 35.5205 11.0477C35.5774 11.0812 35.6313 11.1147 35.6882 11.1483C35.7887 11.2051 35.8929 11.259 35.9964 11.3159C36.0569 11.3458 36.1173 11.3793 36.1772 11.4128C36.2777 11.4631 36.3819 11.5098 36.4854 11.5601C36.5489 11.59 36.6129 11.6205 36.6764 11.6505C36.7769 11.6942 36.8775 11.7343 36.9817 11.7779C37.0523 11.8049 37.1193 11.8348 37.1894 11.8618C37.2863 11.8989 37.3869 11.9324 37.4845 11.9689C37.5581 11.9958 37.6353 12.0228 37.7089 12.0491C37.8029 12.079 37.8999 12.106 37.9974 12.1365C38.0776 12.1598 38.1584 12.1868 38.2386 12.2101C38.329 12.2335 38.4194 12.2538 38.5104 12.2772C38.6008 12.2975 38.6882 12.3238 38.7785 12.3406C38.8587 12.3574 38.9396 12.3705 39.0168 12.3843C39.1209 12.4046 39.2215 12.4244 39.325 12.4412C39.3855 12.4513 39.4489 12.4579 39.5094 12.4645C39.6333 12.4813 39.7572 12.5016 39.8817 12.5148C39.905 12.5184 39.9284 12.5184 39.9553 12.5214C40.3037 12.5549 40.6556 12.5752 41.0112 12.5752C41.3799 12.5752 41.7486 12.5549 42.1107 12.5184C42.1209 12.5184 42.1311 12.5184 42.1377 12.5148C42.2819 12.498 42.4226 12.4777 42.5633 12.4579C42.6069 12.4513 42.6506 12.4477 42.6937 12.4412C42.8146 12.4208 42.935 12.3975 43.0589 12.3741C43.1193 12.361 43.1828 12.3508 43.2432 12.3406C43.3504 12.3173 43.4575 12.2903 43.5616 12.2634C43.6353 12.2466 43.7089 12.2299 43.7831 12.2095C43.8771 12.1826 43.9741 12.1527 44.068 12.1257C44.1518 12.1024 44.232 12.079 44.3158 12.0521C44.4032 12.0252 44.487 11.9916 44.5708 11.9617C44.6582 11.9318 44.7486 11.9013 44.8354 11.8677C44.9126 11.8378 44.9898 11.8043 45.07 11.7708C45.164 11.7337 45.258 11.6971 45.3484 11.6535C45.419 11.6199 45.489 11.5864 45.5626 11.5529C45.6596 11.5092 45.7572 11.4625 45.8512 11.4152C45.9146 11.3817 45.9787 11.3482 46.0457 11.3111C46.1462 11.2572 46.2432 11.2069 46.3408 11.1501C46.4012 11.1165 46.4581 11.0794 46.515 11.0459C46.6155 10.9854 46.7197 10.925 46.8166 10.8615C46.8705 10.828 46.9238 10.7909 46.9741 10.7574C47.0782 10.6904 47.1788 10.6233 47.2793 10.5527C47.3296 10.5192 47.3763 10.4821 47.4236 10.4456C47.5277 10.3719 47.6283 10.2947 47.7289 10.2175C47.7726 10.184 47.8162 10.1469 47.8629 10.1104C47.9635 10.0301 48.0676 9.94635 48.1646 9.86254C48.2047 9.82543 48.2448 9.78892 48.2885 9.75181C48.3891 9.66442 48.4896 9.57403 48.5866 9.48365C48.6267 9.44654 48.6638 9.41003 48.7003 9.37292C48.7973 9.27894 48.8949 9.18197 48.9918 9.08441C49.0289 9.0473 49.0625 9.00719 49.099 8.97068C49.1929 8.87012 49.2869 8.76957 49.3803 8.66541C49.4138 8.62531 49.4473 8.5852 49.4844 8.5445C49.5748 8.44035 49.6652 8.33321 49.7526 8.22607C49.7861 8.18597 49.816 8.14227 49.8496 8.10217C49.937 7.99143 50.0237 7.8807 50.1075 7.76697C50.1375 7.72328 50.171 7.67958 50.2015 7.63648C50.2817 7.52276 50.3655 7.40843 50.4427 7.29111C50.4727 7.24443 50.5032 7.19714 50.5331 7.15344C50.6103 7.03613 50.684 6.91881 50.7576 6.80148C50.7875 6.7512 50.818 6.70092 50.848 6.65064C50.9186 6.53333 50.9886 6.41241 51.0557 6.29211C51.0856 6.23824 51.1125 6.18497 51.1431 6.13109C51.2065 6.01018 51.2706 5.88987 51.334 5.76597C51.3639 5.70911 51.3909 5.64865 51.4178 5.59179C51.4747 5.47088 51.5351 5.35057 51.589 5.22667C51.6189 5.16322 51.6459 5.09917 51.6728 5.03573C51.7231 4.91482 51.7769 4.79451 51.8236 4.67359C51.8506 4.60296 51.8775 4.53293 51.9038 4.46588C51.9505 4.34857 51.9942 4.22765 52.0379 4.10735C52.0649 4.03014 52.0918 3.95292 52.1151 3.87929C52.1552 3.76198 52.1923 3.64466 52.2289 3.52733C52.2558 3.44353 52.2791 3.35973 52.3025 3.27594C52.336 3.16221 52.3659 3.04788 52.3965 2.93416C52.4198 2.84377 52.4431 2.7498 52.4635 2.65941C52.4904 2.54867 52.5174 2.44153 52.5407 2.3308C52.5641 2.23024 52.5844 2.12968 52.6012 2.03272C52.6215 1.92857 52.6413 1.82143 52.6616 1.71787C52.682 1.61073 52.6987 1.49999 52.7155 1.38926C52.7323 1.28871 52.7454 1.19173 52.7592 1.09118C52.776 0.973863 52.7891 0.852951 52.8029 0.735636C52.8095 0.678773 52.8161 0.624901 52.8232 0.56803C53.0615 0.538102 53.3027 0.517751 53.5439 0.51416C55.4377 0.484232 56.4434 0.715277 57.8379 1.03371L58.0457 1.0804C60.4051 1.61671 63.2477 3.5171 63.8343 4.64367C65.0781 7.02 67.6184 12.5776 70.0893 18.6585L69.3854 19.3624L66.7977 16.7712L64.1868 19.3822L61.5956 16.791L58.9847 19.4019L56.3935 16.8108L53.7826 19.4217L51.1914 16.8305L48.5805 19.4415L45.9893 16.8503L43.3784 19.4612L40.7872 16.8736L38.1763 19.4845L35.5852 16.8934L32.9742 19.5043L30.3831 16.9167L27.7721 19.5276L25.181 16.9364L22.57 19.5473L19.9824 16.9562L17.3715 19.5671L14.7803 16.976L12.1694 19.5869L11.3182 18.7357C13.5819 12.5028 15.3082 7.90708 16.455 5.71156L16.4551 5.71144ZM11.092 19.4311L11.7187 20.0578L10.3946 21.3818C10.6293 20.7216 10.8639 20.071 11.092 19.4312V19.4311ZM9.52317 23.8287C9.62014 23.554 9.7177 23.2823 9.81466 23.0111L11.5978 24.7943L9.45917 26.9294L8.69181 26.1621L9.52317 23.8287ZM8.00102 62.8954C7.90705 63.1336 7.77955 63.291 7.62212 63.3581C7.40784 63.4485 7.18277 63.3581 7.17978 63.3581L7.13609 63.3413C7.07923 63.3246 1.37424 61.7258 0.559651 61.4372C0.0604499 61.2595 0.00657368 60.9446 0 60.8572L1.09298 56.9187C1.47845 57.2371 1.97466 57.4885 2.59118 57.6663C6.44237 58.776 8.35656 59.2687 8.54748 59.3189C8.60794 59.3393 8.76536 59.386 8.97965 59.3961C8.78571 60.1904 8.30985 62.1179 8.00099 62.8954L8.00102 62.8954ZM14.8996 40.3733C14.2459 42.5892 13.0428 47.553 12.0773 51.5419C11.5949 53.5298 11.1789 55.2459 10.9041 56.3286C10.5252 57.8238 9.96917 58.3865 9.56994 58.5948C9.13778 58.8192 8.78223 58.6917 8.76905 58.6852L8.72536 58.672C8.705 58.6684 6.80458 58.1824 2.77196 57.0229C1.90404 56.7751 1.32044 56.3693 1.03553 55.8228C0.679984 55.1422 0.911628 54.4449 0.914621 54.4383L0.92779 54.3946C0.961309 54.2336 4.33001 38.2914 7.20619 30.3049C7.6186 29.1551 8.03101 28.0023 8.43983 26.859L9.45859 27.8777L12.0695 25.2668L14.6572 27.8545L17.2681 25.2435L19.8593 27.8347L21.5555 26.1384L21.1736 26.8758C18.9656 31.1424 15.5568 38.1479 14.8995 40.3741L14.8996 40.3733ZM21.8082 44.9853L22.217 45.3941L21.8082 45.8029V44.9853ZM56.2794 47.9685L58.3977 50.0839L56.259 52.2226L54.1436 50.1072L56.2794 47.9685ZM57.0306 47.774L58.9915 45.8168L59.4907 46.316V48.9874L58.867 49.6111L57.0306 47.774ZM56.38 47.4795L54.2646 45.3641L56.3997 43.229L58.518 45.3444L56.38 47.4795ZM55.6258 47.6735L53.6685 49.6307L51.8351 47.7937L53.7923 45.8365L55.6258 47.6735ZM51.0772 47.9889L53.1926 50.1043L51.0574 52.2394L48.9421 50.124L51.0772 47.9889ZM51.1814 47.4993L49.066 45.3839L51.2011 43.2488L53.3165 45.3641L51.1814 47.4993ZM50.4272 47.6938L48.4699 49.651L46.6365 47.8176L48.5937 45.8604L50.4272 47.6938ZM45.878 48.0086L47.9934 50.124L45.8582 52.2592L43.7428 50.1438L45.878 48.0086ZM45.9821 47.5196L43.8668 45.4042L46.0019 43.2691L48.1173 45.3845L45.9821 47.5196ZM45.2279 47.7141L43.2707 49.6714L41.4373 47.838L43.3945 45.8807L45.2279 47.7141ZM40.6794 48.029L42.7948 50.1444L40.6596 52.2795L38.5442 50.1641L40.6794 48.029ZM40.7829 47.543L38.6676 45.4276L40.8027 43.2924L42.9181 45.4078L40.7829 47.543ZM40.0258 47.7339L38.0685 49.6911L36.2351 47.8577L38.1923 45.9005L40.0258 47.7339ZM35.4803 48.0523L37.5956 50.1677L35.4605 52.3029L33.3451 50.1875L35.4803 48.0523ZM35.5808 47.5633L33.4654 45.4479L35.6006 43.3128L37.716 45.4282L35.5808 47.5633ZM34.8266 47.7542L32.8694 49.7115L31.036 47.8781L32.9932 45.9208L34.8266 47.7542ZM30.2817 48.0727L32.3971 50.1881L30.262 52.3232L28.1466 50.2078L30.2817 48.0727ZM30.3823 47.5831L28.2669 45.4677L30.4021 43.3325L32.5174 45.4479L30.3823 47.5831ZM29.6281 47.7776L27.6709 49.7348L25.8374 47.9014L27.7947 45.9442L29.6281 47.7776ZM25.1562 48.1696L27.1972 50.2107L25.0621 52.3458L23.021 50.3048L25.1562 48.1696ZM25.2771 47.5094L23.1617 45.3941L25.1999 43.353L27.3152 45.4684L25.2771 47.5094ZM24.6001 47.7776L22.5452 49.8324L21.8078 49.095V46.7522L22.6895 45.8705L24.6001 47.7776ZM22.0724 50.3047L21.8078 50.5693V50.0431L22.0724 50.3047ZM57.2408 68H44.1884C43.7425 67.906 42.2982 67.836 37.059 68H23.9864C22.964 68 22.8868 66.7227 22.8838 66.6826V62.6973C23.7518 63.4383 24.8746 63.8908 26.1017 63.8908L55.1899 64.0315C56.3834 64.0315 57.4824 63.6059 58.3406 62.902V66.6663C58.34 66.7226 58.2664 67.9999 57.2405 67.9999L57.2408 68ZM59.4902 59.0635C59.4902 61.4332 57.5629 63.3606 55.1931 63.3606L26.105 63.2199C23.7353 63.2199 21.8079 61.2926 21.8079 58.9228V51.5149L22.5453 50.7775L25.0593 53.2914L27.6702 50.6805L30.2578 53.2681L32.8688 50.6572L35.4599 53.2449L38.0709 50.6339L40.662 53.2251L43.2729 50.6142L45.8606 53.2053L48.4715 50.5944L51.0627 53.1856L53.6707 50.5746L56.2583 53.1658L58.8728 50.5513L59.4929 51.1715L59.4941 59.0635L59.4902 59.0635ZM59.4902 50.231L59.343 50.0837L59.4902 49.9365V50.231ZM59.4633 45.3407L59.4902 45.3138V45.3641L59.4633 45.3407ZM58.991 44.8679L56.3999 42.2767L53.7919 44.8847L51.2042 42.2971L48.5933 44.908L46.0021 42.3169L43.3912 44.9278L40.8 42.3401L38.1891 44.9511L35.5979 42.3599L32.987 44.9708L30.3958 42.3832L27.7849 44.9941L25.1938 42.403L22.6798 44.9169L21.7981 44.0322L21.7975 25.8895L22.4613 25.2257L25.0525 27.8133L27.6634 25.2024L30.2546 27.7936L32.8655 25.1826L35.4567 27.7703L38.0676 25.1593L40.6588 27.7505L43.2697 25.1396L45.8574 27.7307L48.4683 25.1198L51.0594 27.711L53.6704 25.1L56.2615 27.6912L58.8725 25.0803L59.4962 25.704V44.3708L58.991 44.8679ZM71.0713 56.3286C70.8199 55.3362 70.4476 53.8278 70.0256 52.1153C69.0302 48.0697 67.793 43.0381 67.116 40.7318C66.5593 38.8446 63.6234 33.3204 61.2602 28.879C60.858 28.1212 60.4725 27.3975 60.1206 26.7337L59.6746 25.8891L61.4547 27.6692L64.0657 25.0583L66.6568 27.6495L69.2678 25.0385L71.8554 27.6262L73.0854 26.3961C73.6385 27.9147 74.1449 29.3692 74.5902 30.7268C77.2617 38.7919 81.0093 54.248 81.0559 54.4319C81.0595 54.4385 81.2905 55.1358 80.935 55.8164C80.6501 56.3629 80.067 56.7651 79.1985 57.0165C75.1661 58.1765 73.2655 58.6625 73.2451 58.6656L73.2014 58.6787C73.1979 58.6787 72.8495 58.8128 72.4173 58.5949C72.0163 58.3998 71.453 57.8402 71.0711 56.3288L71.0713 56.3286ZM81.4157 61.4368C80.6011 61.7253 74.8961 63.327 74.8393 63.3408L74.7956 63.3576C74.792 63.3576 74.5711 63.445 74.3598 63.3576C74.1988 63.2905 74.0713 63.1361 73.9743 62.8949C73.6661 62.1138 73.1902 60.1864 72.9957 59.3922C73.21 59.382 73.3644 59.3383 73.4279 59.3149C73.6188 59.2647 75.536 58.772 79.3842 57.6623C79.9977 57.4845 80.4969 57.2332 80.8824 56.9147L81.9753 60.8569C81.9718 60.9443 81.9215 61.2592 81.4157 61.437L81.4157 61.4368Z" fill="#FEB546"/>
</svg>
