<svg width="78" height="70" viewBox="0 0 78 70" fill="none" xmlns="http://www.w3.org/2000/svg">
<path fill-rule="evenodd" clip-rule="evenodd" d="M31.0655 3.64241C33.7008 4.20779 36.2701 4.47305 39.0076 4.45335C41.7391 4.4776 44.3099 4.21689 46.9392 3.65302C46.3307 9.59789 42.546 12.5294 38.9971 12.584C35.4527 12.5309 31.6695 9.59789 31.0655 3.64241ZM47.4456 0C47.2127 0 46.9888 0.0591152 46.7875 0.17583C44.1972 0.844287 41.7617 1.07014 38.967 1.07014C36.1724 1.06559 33.6843 0.835192 31.0204 0.127325C30.8747 0.0697256 30.7184 0.0439575 30.5576 0.0439575C30.3728 0.0485048 30.188 0.0924623 30.0243 0.180377L22.1557 2.70566C17.8376 4.09108 15.641 6.24802 12.666 9.01886L0.405766 20.4296C-0.0810388 20.8752 -0.135128 21.6286 0.278055 22.1424L10.0232 34.158C10.4754 34.7173 11.2988 34.781 11.8246 34.2899L16.4358 30.0078V68.7464C16.4313 69.4437 16.9902 70.003 17.6768 69.9985H60.3249C61.007 69.9985 61.5614 69.4437 61.5614 68.7555V30.0017L66.177 34.2899C66.7029 34.781 67.5308 34.7173 67.98 34.158L77.7221 22.1424C78.1368 21.6271 78.0812 20.8798 77.5989 20.4342L65.3356 9.02795C62.3607 6.2556 60.1641 4.09108 55.8445 2.70566L48.1322 0.231914C47.9339 0.0879149 47.6935 0.0060631 47.4456 0Z" fill="#31CEFF"/>
</svg>
