<svg width="34" height="30" viewBox="0 0 34 30" fill="none" xmlns="http://www.w3.org/2000/svg">
<path d="M16.6853 28.3619V20.7371L32.4479 10.6289V11.3987V18.5489L16.6853 28.3619ZM16.6853 28.3619L1.61011 18.4231V11.1421L5.12958 8.54724" stroke="black" stroke-width="1.2" stroke-miterlimit="10"/>
<path d="M1.61011 11.113L16.9467 20.8727" stroke="black" stroke-width="1.2" stroke-miterlimit="10"/>
<path d="M32.4284 10.1351L17.3048 1.00484C17.3 1 17.2903 1 17.2855 1H1.04361C1.0194 1 1.00488 1.01937 1.00488 1.03873V5.76848C1.00488 5.783 1.00971 5.79753 1.02424 5.80237L13.6982 13.703C13.7128 13.7127 13.737 13.7127 13.7515 13.6934L16.0704 11.1179C16.0752 11.1082 16.0897 11.1034 16.0994 11.1034L32.4188 10.2078C32.4478 10.2078 32.4623 10.1594 32.4284 10.1351Z" stroke="black" stroke-width="1.2" stroke-miterlimit="10"/>
<path d="M26.3044 14.5647L18.4279 14.7002L16.0752 11.113L1 1.00476" stroke="black" stroke-width="1.2" stroke-miterlimit="10"/>
</svg>
