<svg width="32" height="31" viewBox="0 0 32 31" fill="none" xmlns="http://www.w3.org/2000/svg">
<path d="M2.27295 7.97359L16.3698 1L29.749 7.97359L16 15.0528L2.27295 7.97359Z" stroke="black" stroke-width="1.2" stroke-miterlimit="10"/>
<path d="M30 7.97363V23.1887L16 29.634" stroke="black" stroke-width="1.2" stroke-miterlimit="10"/>
<path d="M2 7.97363V23.1887L15.8723 29.4887L16 15.0529" stroke="black" stroke-width="1.2" stroke-miterlimit="10"/>
<path d="M7.31396 5.3937L20.8077 12.6182L21.402 14.4145L26.1215 12.1736L25.7429 10.1264L11.7781 3.22766" stroke="black" stroke-width="1.2" stroke-miterlimit="10"/>
<path d="M9.82324 4.17419L23.2553 11.3855" stroke="black" stroke-width="1.2" stroke-miterlimit="10"/>
<path d="M19.8874 17.2629C20.09 16.9636 20.3893 16.739 20.7195 16.5849L25.7428 14.1812C27.5698 13.6661 28.0453 15.7265 25.7428 16.7566L21.2698 18.8038C19.9359 19.1516 19.2403 18.2271 19.8874 17.2629Z" stroke="black" stroke-width="1.2" stroke-miterlimit="10"/>
</svg>
