<svg width="91" height="91" viewBox="0 0 91 91" fill="none" xmlns="http://www.w3.org/2000/svg">
<path d="M90.3479 30.606L46.3646 0.272701C45.8453 -0.0909002 45.1547 -0.0909002 44.6353 0.272701L0.652061 30.606C0.241071 30.8863 -0.00334539 31.3522 3.46037e-05 31.8498V89.4831C0.00274293 90.32 0.67983 90.997 1.5167 90.9997H89.4833C90.3201 90.997 90.9972 90.32 90.9999 89.4831V31.8498C91.0033 31.3522 90.7589 30.8863 90.3479 30.606ZM33.3664 18.1999H57.633C58.4706 18.1999 59.1497 18.879 59.1497 19.7165C59.1497 20.5541 58.4706 21.2332 57.633 21.2332H33.3664C32.5288 21.2332 31.8497 20.5541 31.8497 19.7165C31.8497 18.879 32.5288 18.1999 33.3664 18.1999ZM33.3664 24.2665H57.633C58.4706 24.2665 59.1497 24.9456 59.1497 25.7832C59.1497 26.6207 58.4706 27.2998 57.633 27.2998H33.3664C32.5288 27.2998 31.8497 26.6207 31.8497 25.7832C31.8497 24.9456 32.5288 24.2665 33.3664 24.2665ZM33.3664 87.9664H15.1664V72.7998H19.7164V78.8665C19.7191 79.7033 20.3962 80.3804 21.2331 80.3831H27.2997C28.1366 80.3804 28.8137 79.7033 28.8164 78.8665V72.7998H33.3664V87.9664ZM31.8497 62.1831H37.9164C38.7532 62.1804 39.4303 61.5033 39.433 60.6665V54.5998H43.983V69.7665H25.783V54.5998H30.333V60.6665C30.3358 61.5033 31.0128 62.1804 31.8497 62.1831ZM54.5997 87.9664H36.3997V72.7998H40.9497V78.8665C40.9524 79.7033 41.6295 80.3804 42.4664 80.3831H48.533C49.3699 80.3804 50.047 79.7033 50.0497 78.8665V72.7998H54.5997V87.9664ZM53.083 62.1831H59.1497C59.9865 62.1804 60.6636 61.5033 60.6663 60.6665V54.5998H65.2163V69.7665H47.0164V54.5998H51.5664V60.6665C51.5691 61.5033 52.2462 62.1804 53.083 62.1831ZM75.833 87.9664H57.633V72.7998H62.183V78.8665C62.1857 79.7033 62.8628 80.3804 63.6997 80.3831H69.7663C70.6032 80.3804 71.2803 79.7033 71.283 78.8665V72.7998H75.833V87.9664ZM81.8997 87.9664H78.8663V71.2831C78.8636 70.4463 78.1865 69.7692 77.3497 69.7665H68.2497V53.0832C68.247 52.2463 67.5699 51.5692 66.733 51.5665H24.2664C23.4295 51.5692 22.7524 52.2463 22.7497 53.0832V69.7665H13.6497C12.8129 69.7692 12.1358 70.4463 12.1331 71.2831V87.9664H9.09973V37.9165H81.8997V87.9664Z" fill="#EE591F"/>
</svg>
