<svg width="39" height="13" viewBox="0 0 39 13" fill="none" xmlns="http://www.w3.org/2000/svg">
<path d="M20 0.5H21.8088V0.568909V11.1806V11.259H19.9381V11.0021V10.5021H19.4381H19.4095H19.1372L18.9894 10.7309C18.5961 11.3403 17.9636 11.6875 17.2815 11.6875C15.9081 11.6875 14.7945 10.7288 14.3268 9.40944L14.4901 8.99054H14.2032C14.1653 8.8314 14.1364 8.66832 14.1172 8.50221L14.0658 8.05981H13.8996L14.2351 6.86709C14.6453 5.40903 15.7864 4.37048 17.2458 4.37048C17.9813 4.37048 18.5499 4.57205 19.0186 5.13353L19.1685 5.31311H19.4024H19.5H20V4.81311V0.5ZM11.4463 9.99054H12.9548C11.1203 12.9609 6.32477 11.8215 6.32477 7.98138C6.32477 7.61305 6.36901 7.26393 6.45009 6.9418L6.60664 6.31976H5.96521H2.98499H2.48499V6.81976V11.259H0.5V0.507141H6.14124V2.12555H2.98499H2.48499V2.62555V4.29657V4.79657H2.98499H5.82465V5.83905L6.76514 6.07562C7.40416 4.88575 8.78408 4.23481 10.1561 4.32188C11.5021 4.4073 12.7899 5.20124 13.2735 6.8708L13.6179 8.05981H8.40985H7.90985V8.55981C7.90985 9.53566 8.53109 10.2787 9.29862 10.5565C10.0118 10.8147 10.8583 10.6728 11.4463 9.99054ZM11.321 7.34595H11.9186L11.8132 6.75773C11.6232 5.69783 10.7985 5.11353 9.94018 5.10579C9.08101 5.09805 8.23772 5.66643 8.00025 6.73774L7.86544 7.34595H8.4884H11.321ZM17.8361 10.4642C18.5464 10.4642 19.0808 10.1154 19.4166 9.61867C19.7409 9.13904 19.8777 8.53141 19.8694 7.95511C19.8611 7.37828 19.7066 6.77635 19.3822 6.30329C19.0492 5.81758 18.5264 5.46045 17.8361 5.46045C17.1325 5.46045 16.5974 5.80984 16.2555 6.29997C15.9235 6.77579 15.7712 7.38125 15.7685 7.96006C15.7659 8.53871 15.9127 9.14598 16.2446 9.62387C16.5873 10.1173 17.1262 10.4642 17.8361 10.4642Z" stroke="#FF912C"/>
</svg>
