<svg width="5" height="19" viewBox="0 0 5 19" fill="none" xmlns="http://www.w3.org/2000/svg">
<path d="M4.49998 17.5001H4.49947C4.22335 17.5001 3.99945 17.2762 3.99945 17V6.50007C3.99945 6.22395 4.22335 6.00005 4.49947 6.00005H4.49998C4.77633 6.00005 5.00001 5.77615 5.00001 5.50002C5.00001 5.2239 4.77639 5 4.49998 5H0.500024C0.223674 5 0 5.2239 0 5.50002C0 5.77615 0.223617 6.00005 0.500024 6.00005H0.499514C0.775637 6.00005 0.999537 6.22395 0.999537 6.50007V17C0.999537 17.2762 0.775637 17.5001 0.499514 17.5001H0.500024C0.223674 17.5001 0 17.724 0 18.0001C0 18.2762 0.223617 18.5001 0.500024 18.5001H4.50004C4.77639 18.5001 5.00006 18.2762 5.00006 18.0001C5.00006 17.724 4.77639 17.5001 4.49998 17.5001Z" fill="white"/>
<path d="M2.50001 3.50002C3.32844 3.50002 4.00002 2.82845 4.00002 2.00001C4.00002 1.17158 3.32844 0.5 2.50001 0.5C1.67158 0.5 1 1.17158 1 2.00001C1 2.82845 1.67158 3.50002 2.50001 3.50002Z" fill="white"/>
</svg>
