<svg width="13" height="18" viewBox="0 0 13 18" fill="none" xmlns="http://www.w3.org/2000/svg">
<path d="M6.09858 2.22437C5.60542 1.52638 4.89028 1.08395 4.08481 0.978553C3.27934 0.873159 2.48005 1.11743 1.83409 1.66637C1.18812 2.21532 0.772885 3.00316 0.664839 3.88486C0.556793 4.76656 0.768883 5.63649 1.26205 6.33449L6.43458 13.6554C7.10343 14.602 8.35995 14.7662 9.2358 14.022C10.1117 13.2775 10.2802 11.9021 9.61155 10.9556L4.4901 3.70722C4.29316 3.42847 3.92426 3.3802 3.66639 3.59944C3.40842 3.81866 3.35895 4.22237 3.55589 4.50112L8.67723 11.7496C8.9526 12.1393 8.88317 12.706 8.52248 13.0125C8.16178 13.319 7.64425 13.2513 7.36879 12.8615L2.19624 5.5407C1.89355 5.11228 1.76348 4.57841 1.82978 4.0374C1.89609 3.49629 2.15093 3.01277 2.5473 2.67594C3.36568 1.98047 4.53956 2.13407 5.16436 3.01838L10.584 10.6891C11.5563 12.0652 11.3112 14.0653 10.0377 15.1475C9.42077 15.6718 8.65734 15.9051 7.88809 15.8044C7.11883 15.7038 6.43578 15.2812 5.96481 14.6146L1.79786 8.7168C1.60092 8.43805 1.23202 8.38978 0.974146 8.60902C0.716178 8.82824 0.666706 9.23195 0.863652 9.5107L5.03061 15.4084C5.69214 16.3447 6.65144 16.9382 7.73183 17.0795C8.81223 17.2209 9.8845 16.8933 10.7509 16.1569C11.6173 15.4205 12.1744 14.3637 12.3193 13.181C12.4643 11.9983 12.1798 10.8313 11.5182 9.89508L6.09858 2.22437Z" fill="white"/>
</svg>
