<svg width="17" height="11" viewBox="0 0 17 11" fill="none" xmlns="http://www.w3.org/2000/svg">
<path d="M14.0231 7.99316C13.2263 7.99316 12.5781 8.64156 12.5781 9.43817C12.5781 10.235 13.2263 10.8832 14.0231 10.8832C14.8197 10.8832 15.4681 10.235 15.4681 9.43817C15.4681 8.64156 14.8197 7.99316 14.0231 7.99316ZM14.0231 9.86317C13.7887 9.86317 13.5981 9.67259 13.5981 9.43817C13.5981 9.20375 13.7887 9.01317 14.0231 9.01317C14.2575 9.01317 14.4481 9.20375 14.4481 9.43817C14.4481 9.67259 14.2575 9.86317 14.0231 9.86317Z" fill="white"/>
<path d="M13.8835 1.9873H11.3869C11.199 1.9873 11.0469 2.13964 11.0469 2.3273V8.95731C11.0469 9.14497 11.199 9.29731 11.3869 9.29731H11.7475C11.9158 9.29731 12.0648 9.17608 12.0866 9.00917C12.22 7.98678 13.0355 7.35269 14.022 7.35269C15.0085 7.35269 15.824 7.9868 15.9575 9.00917C15.9792 9.17611 16.1282 9.29731 16.2966 9.29731H16.6568C16.8445 9.29731 16.9968 9.14497 16.9968 8.95731V5.6423C16.9968 5.56242 16.9688 5.48522 16.9176 5.42419L14.1442 2.10919C14.0797 2.03203 13.9841 1.9873 13.8835 1.9873ZM11.7269 4.7073V3.0073C11.7269 2.81964 11.879 2.6673 12.0669 2.6673H13.5646C13.6654 2.6673 13.7611 2.71219 13.8257 2.78969L15.2423 4.48969C15.4267 4.71119 15.2693 5.04731 14.981 5.04731H12.0669C11.879 5.04731 11.7269 4.89517 11.7269 4.7073Z" fill="white"/>
<path d="M0.34 9.29718H1.21058C1.37889 9.29718 1.52797 9.17596 1.54972 9.00905C1.68317 7.98666 2.49867 7.35257 3.48517 7.35257C4.47167 7.35257 5.28717 7.98669 5.42061 9.00905C5.44236 9.17599 5.59128 9.29718 5.75975 9.29718H10.03C10.2177 9.29718 10.37 9.14485 10.37 8.95719V0.457187C10.37 0.269521 10.2177 0.117188 10.03 0.117188H0.34C0.152139 0.117188 0 0.269521 0 0.457187V8.95719C0 9.14488 0.152139 9.29718 0.34 9.29718Z" fill="white"/>
<path d="M3.48406 7.99316C2.68728 7.99316 2.03906 8.64156 2.03906 9.43817C2.03906 10.235 2.68728 10.8832 3.48406 10.8832C4.28067 10.8832 4.92906 10.235 4.92906 9.43817C4.92906 8.64156 4.28067 7.99316 3.48406 7.99316ZM3.48406 9.86317C3.24965 9.86317 3.05906 9.67259 3.05906 9.43817C3.05906 9.20375 3.24965 9.01317 3.48406 9.01317C3.71848 9.01317 3.90906 9.20375 3.90906 9.43817C3.90906 9.67259 3.71848 9.86317 3.48406 9.86317Z" fill="white"/>
</svg>
