<svg width="11" height="13" viewBox="0 0 11 13" fill="none" xmlns="http://www.w3.org/2000/svg">
<path d="M0.287083 1.8792C0.213355 1.91954 0.166992 1.99744 0.166992 2.0823V8.57411C0.166992 8.64829 0.202704 8.71785 0.262522 8.76145L4.27213 11.6777C4.29393 11.6934 4.31804 11.7045 4.33984 11.7194V4.31549L0.523114 1.88615C0.45169 1.84118 0.361268 1.83885 0.287083 1.8792ZM1.12731 5.20903C1.19362 5.09914 1.33552 5.0639 1.44541 5.12974L3.76392 6.52084C3.87382 6.58668 3.90905 6.72905 3.84321 6.83895C3.80009 6.91128 3.72312 6.95117 3.64474 6.95117C3.6044 6.95117 3.56313 6.9405 3.52557 6.91824L1.20706 5.52714C1.09716 5.46128 1.06147 5.31847 1.12731 5.20903ZM1.12731 6.60013C1.19362 6.49069 1.33552 6.45452 1.44541 6.52084L3.76392 7.91194C3.87382 7.97778 3.90905 8.12015 3.84321 8.23005C3.80009 8.30238 3.72312 8.34227 3.64474 8.34227C3.6044 8.34227 3.56313 8.3316 3.52557 8.30934L1.20706 6.91824C1.09716 6.85238 1.06147 6.70957 1.12731 6.60013Z" fill="white"/>
<path d="M4.80469 4.53906V11.9541C5.02633 12.0329 5.25958 12.0765 5.50024 12.0765C5.7409 12.0765 5.97415 12.0324 6.19579 11.9541V4.53906C5.74785 4.69393 5.25262 4.69393 4.80469 4.53906Z" fill="white"/>
<path d="M10.7124 1.8791C10.6377 1.83876 10.5478 1.84108 10.4764 1.88699L6.65918 4.31585V11.7197C6.68144 11.7049 6.70554 11.6938 6.72689 11.678L10.7365 8.76181C10.7968 8.71775 10.8325 8.64819 10.8325 8.57401V2.0822C10.8325 1.99734 10.7861 1.91944 10.7124 1.8791Z" fill="white"/>
<path d="M5.49991 0.922852C4.60498 0.922852 3.87695 1.65085 3.87695 2.54581C3.87695 3.44074 4.60495 4.16877 5.49991 4.16877C6.39487 4.16877 7.12287 3.44077 7.12287 2.54581C7.12287 1.65085 6.39484 0.922852 5.49991 0.922852Z" fill="white"/>
</svg>
