<svg width="18" height="18" viewBox="0 0 18 18" fill="none" xmlns="http://www.w3.org/2000/svg">
<path d="M17.7625 0.087975C17.6452 -0.029325 17.4556 -0.029325 17.3383 0.087975L16.2262 1.20008H9.24129L0.460591 10.0534C0.260491 10.2532 0.150391 10.519 0.150391 10.8019C0.150391 11.0848 0.260491 11.3506 0.460591 11.5504L6.60039 17.6902C6.80019 17.89 7.06599 18.0001 7.34889 18.0001C7.63149 18.0001 7.89729 17.89 8.10009 17.6872L16.6504 8.90618V1.62428L17.7625 0.512175C17.8798 0.394875 17.8798 0.205275 17.7625 0.087975ZM11.7001 10.1578C11.5828 10.2751 11.3932 10.2751 11.2759 10.1578C11.1586 10.0405 11.1586 9.85088 11.2759 9.73358C12.0223 8.98688 12.0859 7.81448 11.4712 6.99248L8.78709 9.67658L9.01539 11.5036C9.07869 12.0091 8.93109 12.5257 8.61009 12.9211C8.29869 13.3051 7.86069 13.5388 7.37679 13.5787C7.30119 13.585 7.22529 13.5883 7.14999 13.5883C6.53649 13.5883 5.94459 13.3789 5.46669 12.9967L5.12379 13.3396C5.06529 13.3981 4.98849 13.4275 4.91169 13.4275C4.83489 13.4275 4.75809 13.3981 4.69959 13.3396C4.58229 13.2223 4.58229 13.0327 4.69959 12.9154L5.04219 12.5728C4.19499 11.5138 4.26069 9.96008 5.24169 8.97908C5.35899 8.86178 5.54859 8.86178 5.66589 8.97908C5.78319 9.09638 5.78319 9.28598 5.66589 9.40328C4.91949 10.15 4.85589 11.3221 5.47089 12.1441L8.15499 9.45998L7.92669 7.63298C7.86339 7.12748 8.01099 6.61118 8.33169 6.21578C8.64339 5.83208 9.08139 5.59807 9.56499 5.55787C10.2595 5.49907 10.9399 5.70967 11.476 6.13898L11.6998 5.91517C11.8171 5.79787 12.0067 5.79787 12.124 5.91517C12.2413 6.03247 12.2413 6.22208 12.124 6.33938L11.8993 6.56407C12.7468 7.62308 12.6811 9.17678 11.7001 10.1578ZM13.3504 6.00008C12.5233 6.00008 11.8504 5.32718 11.8504 4.50008C11.8504 3.67298 12.5233 3.00008 13.3504 3.00008C14.1775 3.00008 14.8504 3.67298 14.8504 4.50008C14.8504 5.32718 14.1775 6.00008 13.3504 6.00008Z" fill="white"/>
<path d="M9.61445 6.15549C9.29495 6.18249 9.00455 6.33789 8.79695 6.59379C8.57885 6.86259 8.47835 7.21449 8.52155 7.55859L8.69195 8.92269L11.0461 6.56859C10.6372 6.26259 10.1299 6.11319 9.61445 6.15549Z" fill="white"/>
<path d="M8.25029 10.2139L5.89648 12.568C6.30538 12.8731 6.81239 13.0216 7.32779 12.9808C7.64729 12.9541 7.93739 12.7987 8.14499 12.5428C8.36339 12.2737 8.46389 11.9221 8.42069 11.5777L8.25029 10.2139Z" fill="white"/>
</svg>
