<svg width="16" height="16" viewBox="0 0 16 16" fill="none" xmlns="http://www.w3.org/2000/svg">
<path d="M15.018 13.2973H4.27109V6.47852H2.99609V13.9379C2.99609 14.291 3.28047 14.5754 3.63359 14.5754H5.02734V15.0191C5.02734 15.3723 5.31172 15.6566 5.66484 15.6566C6.01797 15.6566 6.30234 15.3723 6.30234 15.0191V14.5754H13.0805V15.0191C13.0805 15.3723 13.3648 15.6566 13.718 15.6566C14.0711 15.6566 14.3555 15.3723 14.3555 15.0191V14.5754H15.0148C15.368 14.5754 15.6523 14.291 15.6523 13.9379C15.6555 13.5848 15.3711 13.2973 15.018 13.2973Z" fill="white"/>
<path d="M6.95 3.69062V1.85625C6.95 1.02187 6.27187 0.34375 5.4375 0.34375H1.85625C1.02188 0.34375 0.34375 1.02187 0.34375 1.85625V3.6875C0.34375 4.52187 1.02188 5.2 1.85625 5.2H5.4375C6.27187 5.20312 6.95 4.525 6.95 3.69062Z" fill="white"/>
<path d="M6.75 6.94414V11.5379C6.75 11.891 7.03437 12.1754 7.3875 12.1754H13.7219C14.075 12.1754 14.3594 11.891 14.3594 11.5379V6.94414C14.3594 6.59102 14.075 6.30664 13.7219 6.30664H7.3875C7.03437 6.30664 6.75 6.59414 6.75 6.94414Z" fill="white"/>
</svg>
