<svg width="14" height="13" viewBox="0 0 14 13" fill="none" xmlns="http://www.w3.org/2000/svg">
<path d="M11.8499 4.90637C11.9533 4.90608 12.0529 4.94393 12.1288 5.01229C12.2047 5.08065 12.2511 5.17445 12.2589 5.27484V10.8816C12.2591 11.1911 12.136 11.4887 11.9156 11.7116C11.6951 11.9345 11.3945 12.0653 11.077 12.0767H2.85249C2.53474 12.0769 2.22929 11.957 2.00045 11.7423C1.77161 11.5276 1.63722 11.2348 1.62557 10.9255V5.30472C1.62527 5.20405 1.66413 5.107 1.73431 5.0331C1.80449 4.9592 1.9008 4.91392 2.00387 4.90637H11.8499ZM8.68037 6.56749L8.65584 6.58741L6.31446 9.05918L5.25112 8.0633C5.19722 8.01189 5.12586 7.98148 5.05051 7.97782C4.97517 7.97415 4.90105 7.99747 4.84215 8.04339L4.81966 8.0633L4.38205 8.44572C4.35427 8.4667 4.33145 8.49324 4.31511 8.52356C4.29878 8.55387 4.28933 8.58725 4.28739 8.62143C4.28545 8.65562 4.29107 8.68981 4.30388 8.72169C4.31668 8.75357 4.33637 8.7824 4.3616 8.80623L4.38205 8.82814L5.88094 10.2104C5.99743 10.3229 6.1545 10.3866 6.31855 10.3877C6.39989 10.3899 6.48079 10.3752 6.55588 10.3446C6.63097 10.3141 6.69853 10.2683 6.75411 10.2104L7.96467 8.9576L8.0526 8.86997L8.13848 8.78034L8.25095 8.66482L8.29389 8.621L8.37978 8.53336L9.529 7.35225C9.57096 7.30138 9.59517 7.2388 9.59811 7.17361C9.60105 7.10841 9.58257 7.04401 9.54535 6.98975L9.529 6.96983L9.09139 6.58741C9.03738 6.53546 8.9656 6.50471 8.88979 6.50104C8.81397 6.49736 8.73942 6.52102 8.68037 6.56749ZM11.8499 0.922852C12.1753 0.922852 12.4874 1.04876 12.7175 1.27287C12.9476 1.49699 13.0768 1.80096 13.0768 2.11791V3.31296C13.0768 3.41861 13.0338 3.51993 12.9571 3.59464C12.8804 3.66934 12.7763 3.71131 12.6679 3.71131H1.21659C1.10812 3.71131 1.0041 3.66934 0.927403 3.59464C0.850706 3.51993 0.807617 3.41861 0.807617 3.31296V2.11791C0.807617 1.80096 0.936882 1.49699 1.16697 1.27287C1.39707 1.04876 1.70914 0.922852 2.03454 0.922852H11.8499Z" fill="white"/>
</svg>
