<svg width="13" height="13" viewBox="0 0 13 13" fill="none" xmlns="http://www.w3.org/2000/svg">
<path d="M12.3159 0.299805H0.684214C0.306391 0.299805 0 0.622327 0 1.0202V4.2983C0 4.69618 0.306391 5.0187 0.684214 5.0187H0.939768V11.9794C0.939768 12.3773 1.24609 12.6998 1.62398 12.6998H11.3758C11.7537 12.6998 12.06 12.3773 12.06 11.9794V5.01863H12.3158C12.6936 5.01863 13 4.69611 13 4.29823V1.0202C13.0001 0.622327 12.6937 0.299805 12.3159 0.299805ZM7.93928 6.73022H5.06065C4.75885 6.73022 4.51328 6.47167 4.51328 6.1539C4.51328 5.83614 4.75885 5.57759 5.06065 5.57759H7.93928C8.24109 5.57759 8.48665 5.83614 8.48665 6.1539C8.48665 6.47167 8.24109 6.73022 7.93928 6.73022ZM11.6316 3.57783H11.3759H1.62398H1.36843V1.7406H11.6316V3.57783Z" fill="white"/>
</svg>
