<svg width="99" height="14" viewBox="0 0 99 14" fill="none" xmlns="http://www.w3.org/2000/svg">
<g clip-path="url(#clip0_467_315)">
<path d="M0 12.9492H12.0042L11.3143 13.9292H0V12.9492Z" fill="#D40511"/>
<path d="M98.9995 13.9292H84.3047L85.0636 12.9492H99.0685V13.9292H98.9995Z" fill="#D40511"/>
<path d="M0 11.1299H13.384L12.6251 12.1099H0V11.1299Z" fill="#D40511"/>
<path d="M0 9.30957H14.7638L14.0049 10.2896H0V9.30957Z" fill="#D40511"/>
<path d="M99.0025 12.1099H85.6875L86.4464 11.1299H99.0715V12.1099H99.0025Z" fill="#D40511"/>
<path d="M87.7511 9.30957H98.9964V10.2896H86.9922L87.7511 9.30957Z" fill="#D40511"/>
<path d="M12.9688 13.9293L19.3158 5.31934C19.3158 5.31934 26.3527 5.31934 27.1806 5.31934C28.0775 5.31934 28.0775 5.66934 27.5945 6.22934C27.1806 6.78934 26.4217 7.83934 26.0078 8.39934C25.8008 8.74934 25.3869 9.23934 26.6977 9.23934C28.1465 9.23934 37.2531 9.23934 37.2531 9.23934C36.4252 10.4993 33.5276 13.9993 28.4224 13.9993C24.283 13.9293 12.9688 13.9293 12.9688 13.9293Z" fill="#D40511"/>
<path d="M49.3309 9.30957L45.8814 13.9996H36.8438L40.2932 9.30957H49.3309Z" fill="#D40511"/>
<path d="M62.5014 9.30957L59.0519 13.9996H49.9453L53.3948 9.30957H62.5014Z" fill="#D40511"/>
<path d="M65.4713 9.30957C65.4713 9.30957 64.7815 10.2196 64.5055 10.6396C63.3327 12.1796 64.3675 13.9996 68.0929 13.9996C72.3703 13.9996 82.7187 13.9996 82.7187 13.9996L86.1682 9.30957H65.4713Z" fill="#D40511"/>
<path d="M17.4548 -0.000312507L14.2812 4.26969C14.2812 4.26969 30.6318 4.26969 31.5286 4.26969C32.4255 4.26969 32.4255 4.61969 31.9426 5.17969C31.5286 5.73969 30.7698 6.78969 30.3558 7.34969C30.1488 7.62969 29.7349 8.18969 31.0457 8.18969C32.4945 8.18969 38.0826 8.18969 38.0826 8.18969C38.0826 8.18969 39.2555 6.64969 40.1523 5.31969C41.4631 3.56969 40.2903 -0.0703125 35.668 -0.0703125C31.5286 -0.000312507 17.4548 -0.000312507 17.4548 -0.000312507Z" fill="#D40511"/>
<path d="M63.2615 8.19H41.0469L47.118 0H56.2246L52.7751 4.69H56.8455L60.295 0H69.4016L63.2615 8.19Z" fill="#D40511"/>
<path d="M81.9562 0L75.8851 8.19H66.2266L72.2976 0H81.9562Z" fill="#D40511"/>
</g>
<defs>
<clipPath id="clip0_467_315">
<rect width="99" height="14" fill="white"/>
</clipPath>
</defs>
</svg>
