<svg width="84" height="28" viewBox="0 0 84 28" fill="none" xmlns="http://www.w3.org/2000/svg">
<path d="M54.3354 9.88984H61.2798V15.7859H54.4175H53.9175V16.2859V19.857V20.357H54.4175H61.2798V26.5156H42.3667V25.2766V24.7766H41.8667H41.8052H41.5233L41.3774 25.0177C40.4218 26.597 38.8801 27.5 37.2217 27.5C33.9017 27.5 31.2716 24.9702 30.2406 21.6003L30.3489 21.3039H30.1546C30.0048 20.7577 29.8965 20.1913 29.8335 19.6116L29.785 19.1656H29.3364H18.1135H17.6135V19.6656C17.6135 21.5933 18.7609 23.0781 20.2143 23.6393C21.6243 24.1838 23.2876 23.843 24.3886 22.3039H28.8945C27.0465 26.5091 23.238 27.9964 19.8298 27.3113C16.2417 26.59 13.0457 23.4483 13.0457 18.3367C13.0457 17.4361 13.1471 16.5783 13.3348 15.7828L13.4798 15.168H12.8481H6.4292H5.9292V15.668V26.5156H0.5V0.516406H13.8042V5.53203H6.4292H5.9292V6.03203V9.87109V10.3711H6.4292H13.1223V13.4148L14.0689 13.6397C15.5771 10.6441 18.7856 9.07025 21.9091 9.28169C25.005 9.49127 28.0171 11.458 29.141 15.5967L29.6306 17.3995L30.107 15.5931C31.0521 12.0095 33.71 9.39219 37.1448 9.39219C38.8463 9.39219 40.2484 9.89952 41.396 11.366L41.5462 11.5578H41.7898H42H42.5V11.0578V0.5H61.2029V6.54375H54.3354H53.8354V7.04375V9.38984V9.88984H54.3354ZM82.8697 9.88437L76.5236 17.8446L76.2747 18.1567L76.5241 18.4685L82.9599 26.5156H75.7859L73.0086 23.0446L72.6161 22.5542L72.2262 23.0467L69.4796 26.5156H62.4342L68.8255 18.5008L69.0741 18.1891L68.8255 17.8773L62.4561 9.88984H69.6784L72.4815 13.3366L72.8766 13.8224L73.2629 13.3295L75.9633 9.88437H82.8697ZM48.0498 0.807031H47.5498V1.30703V25.6867V26.1867H48.0498H60.4417H60.9417V25.6867V21.3555V20.8555H60.4417H53.5793V15.3039H60.4417H60.9417V14.8039V10.6914V10.1914H60.4417H53.6562V6.22578H60.5186H61.0186V5.72578V1.30703V0.807031H60.5186H48.0498ZM64.1792 10.1914H63.14L63.7885 11.0034L69.5276 18.1891L63.7885 25.3747L63.14 26.1867H64.1792H69.1831H69.4248L69.5749 25.9973L72.6094 22.1694L75.6677 25.9987L75.8178 26.1867H76.0583H81.375H82.4169L81.7651 25.3739L75.9759 18.1556L81.6888 11.0035L82.3374 10.1914H81.2981H76.2429H75.9994L75.8493 10.3831L72.8772 14.1777L69.781 10.3757L69.631 10.1914H69.3933H64.1792ZM24.3838 16.2281H24.9748L24.8769 15.6453C24.5243 13.5469 23.0091 12.3944 21.4047 12.3789C19.7998 12.3635 18.238 13.4856 17.7932 15.6264L17.6681 16.2281H18.2827H24.3838ZM38.4163 23.3922C39.7479 23.3922 40.7286 22.704 41.3506 21.7226C41.9619 20.758 42.2353 19.5059 42.2188 18.2862C42.2023 17.0658 41.8948 15.819 41.2787 14.8606C40.6553 13.8909 39.6946 13.1937 38.4163 13.1937C37.1003 13.1937 36.1142 13.8824 35.4766 14.8573C34.848 15.8185 34.5451 17.0687 34.5399 18.2908C34.5346 19.5128 34.8267 20.7646 35.4539 21.7278C36.091 22.7062 37.0834 23.3922 38.4163 23.3922Z" stroke="#FF912C"/>
</svg>
