<svg width="43" height="43" viewBox="0 0 43 43" fill="none" xmlns="http://www.w3.org/2000/svg">
<g clip-path="url(#clip0_467_300)">
<path d="M21.4947 41.3972C21.8508 41.2191 31.1096 37.2129 34.0475 34.8092C37.0744 32.3164 38.6769 28.7553 38.6769 24.482V4.45099L38.4098 4.36197C31.0206 0.355757 21.8508 0.622837 21.4057 0.622837C21.0496 0.622837 11.8798 0.355757 4.49055 4.36197L4.3125 4.45099V24.5711C4.3125 28.8444 5.91498 32.4054 8.9419 34.8982C11.8798 37.3019 21.1386 41.3081 21.4947 41.3972Z" fill="#341B14"/>
<path d="M21.4992 41.8424C21.4992 41.8424 11.7063 37.5691 8.67936 35.1653C5.4744 32.4945 3.96094 28.8444 3.96094 24.6602V3.82788C11.7063 -0.356386 21.4992 -0.000278346 21.4992 -0.000278346C21.4992 -0.000278346 31.2922 -0.356386 39.0375 3.82788V24.5712C39.0375 28.7554 37.5241 32.4055 34.3191 35.0763C31.2922 37.5691 21.4992 41.8424 21.4992 41.8424ZM5.38537 24.6602C5.38537 28.5774 6.8098 31.7823 9.56963 34.008C12.0624 36.0556 19.4516 39.3496 21.4992 40.2399C23.5469 39.3496 31.0251 35.9666 33.4288 34.008C36.1887 31.7823 37.6131 28.4883 37.6131 24.6602V4.18399C27.286 3.20469 15.0003 3.73885 5.38537 12.6415V24.6602Z" fill="#FFB406"/>
<path d="M31.3808 21.7228C32.7162 22.5241 33.2504 23.0582 33.3394 24.0375C33.3394 25.1058 32.6272 25.729 31.4699 25.729C30.4906 25.729 29.3332 25.1949 28.532 24.4826V27.3315C29.5113 27.8657 30.6686 28.3108 31.915 28.3108C34.9419 28.3108 36.3663 26.1742 36.3663 24.2156C36.4554 22.435 35.9212 21.0106 33.3394 19.4971C32.1821 18.7849 31.2918 18.3398 31.2918 17.2715C31.2918 16.2031 32.2711 15.758 33.0723 15.758C34.1407 15.758 35.209 16.3812 35.8322 17.0044V14.3336C35.298 13.8884 34.1407 13.2653 32.4492 13.3543C30.4015 13.4433 28.2649 14.8677 28.2649 17.3605C28.3539 19.052 28.8881 20.2984 31.3808 21.7228ZM20.8757 28.1328C21.1427 28.2218 21.5879 28.3108 22.3001 28.3108C25.7721 28.3108 27.7307 25.1949 27.7307 20.7435C27.7307 16.2031 25.6831 13.4433 22.033 13.4433C20.3415 13.4433 19.0061 13.7994 17.8487 14.5116V34.6317H20.8757V28.1328ZM20.8757 16.0251C21.1427 15.9361 21.5879 15.758 21.944 15.758C23.7245 15.758 24.4367 17.1824 24.4367 20.6545C24.4367 24.0375 23.5465 25.64 21.7659 25.64C21.3208 25.64 20.9647 25.551 20.7866 25.4619V16.0251H20.8757ZM11.5278 28.3108C13.3974 28.3108 14.9999 27.8657 16.1572 27.0644V13.6214H13.0413V25.2839C12.6852 25.551 12.2401 25.64 11.6169 25.64C10.1924 25.64 10.0144 24.3046 10.0144 23.5034V13.6214H6.89844V23.3253C6.89844 26.6193 8.50092 28.3108 11.5278 28.3108ZM32.2711 40.3294V42.3771H32.6272V41.5758H32.7162L33.2504 42.3771H33.6955C33.6955 42.3771 33.1614 41.5758 33.0723 41.4868C33.3394 41.3978 33.5175 41.2197 33.5175 40.9526C33.5175 40.6855 33.3394 40.3294 32.8053 40.3294H32.2711ZM32.8053 40.5965C33.0724 40.5965 33.1614 40.7746 33.1614 40.8636C33.1614 41.0417 33.0723 41.2197 32.7162 41.2197H32.6272V40.5965H32.8053Z" fill="#FFB406"/>
<path d="M34.2222 41.3087C34.2222 42.0209 33.599 42.6441 32.8868 42.6441C32.1746 42.6441 31.5514 42.0209 31.5514 41.3087C31.5514 40.5965 32.1746 39.9733 32.8868 39.9733C33.6881 39.9733 34.2222 40.5965 34.2222 41.3087ZM32.8868 39.6172C31.9966 39.6172 31.1953 40.3294 31.1953 41.3087C31.1953 42.199 31.9075 43.0002 32.8868 43.0002C33.7771 43.0002 34.5783 42.288 34.5783 41.3087C34.5783 40.4184 33.7771 39.6172 32.8868 39.6172Z" fill="#FFB406"/>
</g>
<defs>
<clipPath id="clip0_467_300">
<rect width="43" height="43" fill="white"/>
</clipPath>
</defs>
</svg>
